<?xml version="1.0" encoding="utf-8"?>
<!-- Generator: Adobe Illustrator 21.0.2, SVG Export Plug-In . SVG Version: 6.00 Build 0)  -->
<svg version="1.1" id="Layer_1" xmlns="http://www.w3.org/2000/svg" xmlns:xlink="http://www.w3.org/1999/xlink" x="0px" y="0px"
	 viewBox="0 0 100 100" style="enable-background:new 0 0 100 100;" xml:space="preserve">
<style type="text/css">
	.st0{fill:#B3B3B1;}
	.st1{fill:#B3B3B3;}
	.st2{fill-rule:evenodd;clip-rule:evenodd;fill:#B3B3B3;}
	.st3{fill-rule:evenodd;clip-rule:evenodd;fill:#B3B3B1;}
</style>
<path class="st0" d="M99.2,39.8c0.1,0.1,0.1,0.2,0.2,0.4c0.1,0.2,0,0.5-0.1,0.8v0.1L98,43.2l-0.1,0.1c-0.1,0.1-0.2,0.1-0.3,0.2
	c-0.1,0.1-0.3,0.1-0.6,0.1h-0.5l-0.1,0.2v0.1V44l-1.3,2c-0.1,0.2-0.3,0.3-0.5,0.4c-0.2,0.1-0.4,0.1-0.7,0h-0.4l-0.9,1.8
	c0,0.2-0.1,0.3-0.3,0.4c-0.2,0.1-0.6,0.2-1.1,0.4l-17.1,4.7L73,55.6c-0.1,0.3-0.3,0.5-0.5,0.7c-0.2,0.2-0.5,0.4-0.8,0.4L55.4,61
	h-0.1c-0.1,0-0.1,0-0.1,0c0,0-0.1,0-0.1,0l-4.7-4c-0.1,0-0.1,0-0.2,0c-0.1,0-0.1,0-0.2,0l-4.7,4C45.2,61,45.1,61,45.1,61
	c-0.1,0-0.1,0-0.2,0l-16.3-4.2c-0.3-0.1-0.6-0.2-0.8-0.4c-0.2-0.2-0.4-0.5-0.5-0.7l-1.1-1.9L9.2,49c-0.6-0.2-0.9-0.3-1.1-0.4
	c-0.2-0.1-0.3-0.2-0.4-0.4l-0.9-1.8H6.4c-0.3,0.1-0.5,0-0.7,0c-0.2-0.1-0.4-0.2-0.5-0.5L3.9,44c0-0.1,0-0.1,0-0.1c0,0,0,0,0-0.1
	l-0.1-0.2H3.3c-0.3,0-0.5,0-0.6-0.1c-0.1-0.1-0.2-0.2-0.3-0.2v-0.1L1,41.1C1,41,1,41,0.9,41c-0.1-0.3-0.1-0.6-0.1-0.8
	C0.9,40,1,39.9,1,39.8c0.1-0.1,0.2-0.1,0.3-0.2c0.2-0.1,0.4-0.1,0.7,0h39.7c0.6,0,1.2,0.1,1.7,0.3c0.5,0.2,0.9,0.5,1.3,0.9
	c0.1,0,0.1,0,0.1,0.1c0.2,0.3,0.3,0.6,0.4,0.9c0.1,0.3,0.2,0.7,0.2,1.1h9.5c0-0.4,0.1-0.7,0.2-1.1c0.1-0.3,0.3-0.6,0.5-0.9
	c0.3-0.4,0.7-0.8,1.2-1c0.5-0.2,1.1-0.3,1.9-0.3h39.7c0.3-0.1,0.6,0,0.7,0C99.1,39.7,99.2,39.8,99.2,39.8z M3.3,42.8h22.8
	c-0.2-0.4-0.4-0.8-0.6-1.2c-0.2-0.4-0.4-0.8-0.6-1.3H2H1.9c-0.1-0.1-0.2-0.1-0.3,0c0,0.1,0,0.2,0.1,0.3l1.2,2.1
	C3,42.8,3,42.8,3.1,42.8C3.1,42.8,3.2,42.8,3.3,42.8z M6.3,45.7l20.8-1c-0.1-0.2-0.2-0.3-0.3-0.5c-0.1-0.2-0.2-0.4-0.3-0.6H4.6
	l1.2,2c0.1,0,0.1,0,0.1,0.1C6,45.7,6.1,45.7,6.3,45.7L6.3,45.7z M8.9,48.1l19.5-1.8c-0.1-0.2-0.2-0.3-0.4-0.5
	c-0.1-0.2-0.3-0.3-0.4-0.5l-20.1,1l0.7,1.6C8.4,47.9,8.5,48,8.6,48C8.7,48,8.8,48.1,8.9,48.1z M10.8,48.7l6.1,1.7l12.5-2.9
	c-0.1-0.1-0.1-0.1-0.2-0.2S29,47.1,28.9,47L10.8,48.7z M18.4,50.8l4.1,1.1l8-3.3c-0.1-0.1-0.1-0.1-0.2-0.2S30,48.2,30,48.1
	L18.4,50.8z M23.6,52.2l3,0.8l5.1-3.2c-0.2-0.1-0.3-0.2-0.4-0.3c-0.1-0.1-0.2-0.2-0.3-0.3L23.6,52.2z M25.7,40.3
	c0.2,0.4,0.4,0.9,0.6,1.3c0.2,0.4,0.4,0.8,0.7,1.2h17.7c0-0.3,0-0.6-0.1-0.8c-0.1-0.3-0.2-0.5-0.4-0.7c-0.3-0.3-0.6-0.6-1-0.7
	c-0.4-0.1-0.9-0.2-1.4-0.2H25.7z M28,55.3l5.4-4.1c-0.2-0.1-0.3-0.2-0.5-0.4c-0.2-0.1-0.4-0.3-0.5-0.5L27,53.6L28,55.3z M31.1,44.8
	v-1.2h-3.6c0.1,0.2,0.2,0.3,0.3,0.5c0.1,0.2,0.2,0.3,0.3,0.5l3-0.2V44.8z M28.8,56l2.4,0.7l3.9-4.3c-0.1-0.1-0.2-0.1-0.2-0.1
	c-0.1,0-0.1-0.1-0.2-0.1c-0.1-0.1-0.2-0.2-0.3-0.3c-0.1-0.1-0.2-0.2-0.4-0.2l-5.6,4.2c0.1,0.1,0.1,0.1,0.2,0.1
	C28.6,56,28.7,56,28.8,56z M31.1,46.1v0.3v-1.2l-2.5,0.2c0.1,0.2,0.2,0.3,0.3,0.5c0.1,0.1,0.2,0.3,0.3,0.5L31.1,46.1z M31.1,46.8
	l-1.2,0.1c0.2,0.2,0.3,0.4,0.5,0.7c0.2,0.2,0.4,0.4,0.6,0.6V46.8z M31.9,49c0.2,0.2,0.3,0.3,0.5,0.5c0.2,0.2,0.4,0.3,0.5,0.4
	l0.7-0.9H31.9z M32.1,47.7h0.3l0.5-1.3h1.2l0.5,1.3h0.6l-1.6-3.5h-0.1L32.1,47.7z M34.4,57.5l2.7-3.9c-0.2-0.2-0.5-0.3-0.7-0.4
	c-0.2-0.1-0.5-0.2-0.7-0.4l-3.6,4.1L34.4,57.5z M34,46.2H33l0.5-1.2L34,46.2z M34.6,49l-1.1,1.4c0.2,0.1,0.3,0.2,0.5,0.4
	c0.2,0.1,0.4,0.3,0.5,0.4L36,49H34.6z M36.9,49l-1.7,2.6c0.2,0.2,0.4,0.3,0.6,0.5c0.2,0.1,0.4,0.3,0.6,0.4l1.7-3.4H36.9z M37.7,58.3
	l1.6-3.6c-0.2-0.1-0.5-0.2-0.7-0.4c-0.3-0.1-0.5-0.3-0.7-0.4l-2.6,3.7L37.7,58.3z M36.9,46.4c0.1,0.1,0.2,0.1,0.2,0.2
	c0,0.1,0,0.1,0,0.2c0,0.1,0,0.2,0,0.3c0,0.1-0.1,0.2-0.2,0.3c-0.1,0.1-0.1,0.1-0.2,0.2c-0.1,0.1-0.1,0.1-0.2,0.1
	c-0.2,0-0.3-0.1-0.5-0.2c-0.1-0.1-0.3-0.2-0.4-0.4l-0.1,0.4l0.3,0.2l0.4,0.1c0.2,0,0.3,0,0.5-0.1c0.2-0.1,0.3-0.1,0.4-0.2
	c0.1-0.1,0.1-0.2,0.2-0.3c0.1-0.1,0.1-0.2,0.1-0.4s0-0.3-0.1-0.4c-0.1-0.1-0.1-0.2-0.2-0.3c-0.1,0-0.1,0-0.2-0.1
	c-0.1-0.1-0.2-0.1-0.3-0.2l-0.6-0.2c-0.1-0.1-0.1-0.1-0.2-0.2C36,45.3,36,45.2,36,45.1c0-0.1,0-0.2,0-0.2c0-0.1,0.1-0.1,0.2-0.2
	c0-0.1,0-0.1,0.1-0.1c0.1,0,0.2,0,0.2,0c0.2,0,0.3,0,0.4,0.1c0.1,0.1,0.2,0.2,0.2,0.3l0.2-0.4c-0.1-0.1-0.2-0.1-0.3-0.2
	c-0.1-0.1-0.2-0.1-0.4-0.1c-0.2,0-0.3,0-0.4,0.1c-0.1,0.1-0.2,0.1-0.2,0.2c-0.1,0.1-0.2,0.2-0.2,0.3c-0.1,0.1-0.1,0.2-0.1,0.4
	c0,0.1,0,0.2,0,0.3c0,0.1,0.1,0.2,0.2,0.2c0,0.1,0.1,0.1,0.2,0.2c0.1,0.1,0.2,0.1,0.3,0.1L36.9,46.4z M37.1,52.7
	c0.2,0.2,0.4,0.3,0.7,0.4c0.2,0.1,0.4,0.2,0.7,0.3l1.9-4.5H39L37.1,52.7z M37.9,44.3v0.2v0.2l1.1-0.1v3.2h0.5v-3.2l1,0.1v-0.2v-0.2
	H37.9z M41.2,59.3l0.7-3.6c-0.3-0.1-0.7-0.1-1-0.2c-0.3-0.1-0.6-0.2-0.9-0.4l-1.6,3.6L41.2,59.3z M39.1,53.8
	c0.3,0.1,0.6,0.2,0.9,0.4c0.3,0.1,0.6,0.3,1,0.4l2-5.6h-1.8L39.1,53.8z M40.5,46.1c0,0.2,0.1,0.5,0.2,0.7c0.1,0.2,0.2,0.5,0.4,0.6
	c0.2,0.2,0.4,0.3,0.6,0.3c0.2,0.1,0.5,0.1,0.7,0.1c0.3,0,0.5,0,0.7-0.1c0.2-0.1,0.4-0.2,0.6-0.4c0.2-0.2,0.3-0.4,0.4-0.6
	c0.1-0.2,0.2-0.5,0.2-0.7c0-0.3-0.1-0.5-0.2-0.7c-0.1-0.2-0.3-0.4-0.5-0.6c-0.2-0.1-0.4-0.2-0.6-0.3c-0.2-0.1-0.4-0.1-0.7-0.1
	c-0.3,0-0.5,0-0.7,0.1c-0.2,0.1-0.4,0.2-0.6,0.4c-0.2,0.2-0.3,0.4-0.4,0.6C40.6,45.5,40.5,45.8,40.5,46.1z M43.5,47.1
	c-0.1,0.2-0.3,0.3-0.5,0.4c-0.2,0.1-0.4,0.2-0.6,0.2c-0.2,0-0.3,0-0.5-0.1c-0.2-0.1-0.3-0.2-0.5-0.3c-0.1-0.1-0.2-0.3-0.2-0.5
	c-0.1-0.2-0.1-0.4-0.1-0.7c0-0.2,0-0.4,0.1-0.6c0.1-0.2,0.1-0.4,0.2-0.5c0.1-0.2,0.2-0.3,0.4-0.4c0.2-0.1,0.4-0.1,0.6-0.1
	c0.3,0,0.5,0,0.7,0.1c0.2,0.1,0.3,0.2,0.4,0.4c0.1,0.2,0.2,0.3,0.2,0.5c0,0.2,0,0.4,0,0.6c0.1,0.2,0.1,0.3,0,0.5
	C43.7,46.7,43.6,46.9,43.5,47.1z M45.2,49h-1.7l0.2,0.1l-2.1,5.7c0.4,0.1,0.8,0.2,1.1,0.3c0.4,0.1,0.7,0.2,1.1,0.3L45.2,49z
	 M44.7,60.2v-3.8c-0.4-0.1-0.7-0.1-1.1-0.2c-0.3-0.1-0.7-0.2-1-0.3l-0.7,3.6L44.7,60.2z M44.6,55.6c0.3,0.1,0.7,0.1,1,0.2
	c0.4,0.1,0.7,0.1,1,0.2l0.6-7h-1.3L44.6,55.6z M45,44.3v3.4h0.3v-2.7l2.4,2.7h0.2v-3.4h-0.3v2.6l-2.3-2.6H45z M45.4,59.8l3.5-3
	c-0.6,0-1.2,0-1.8-0.1c-0.6-0.1-1.1-0.1-1.7-0.2V59.8z M49.8,56.1V49H48L47.4,56c0.4,0.1,0.8,0.1,1.2,0.1
	C48.9,56.2,49.3,56.2,49.8,56.1L49.8,56.1z M50,47.7h0.4l0.2-2.6l1,2l0.3,0.6H52c0.1-0.3,0.3-0.6,0.5-1.1c0.2-0.4,0.5-0.9,0.7-1.5
	l0.2,2.6H54l-0.4-3.4h-0.1L52,47c-0.2-0.3-0.4-0.7-0.7-1.2c-0.2-0.4-0.5-0.9-0.8-1.5h-0.1L50,47.7z M50.5,56.1L50.5,56.1
	c0.5,0.1,0.8,0.1,1.2,0c0.4,0,0.7-0.1,1.1-0.1L52.3,49h-1.7V56.1z M54.9,56.5c-0.6,0.1-1.2,0.2-1.8,0.2c-0.6,0.1-1.1,0.1-1.7,0.1
	l3.5,3V56.5z M53.6,55.9c0.4-0.1,0.7-0.1,1.1-0.2c0.3-0.1,0.7-0.1,1.1-0.2L54.4,49H53L53.6,55.9z M55.9,44.2l-1.6,3.5h0.4l0.4-1.3
	h1.3l0.5,1.3h0.5L55.9,44.2L55.9,44.2z M56.6,49.1l0.2-0.1h-1.7l1.2,6.5c0.4-0.1,0.8-0.2,1.1-0.3c0.4-0.1,0.7-0.2,1.1-0.3L56.6,49.1
	z M56.3,46.2h-1l0.5-1.2L56.3,46.2z M55.7,42c-0.1,0.3-0.1,0.6-0.1,0.8h17.7c0.2-0.4,0.4-0.8,0.7-1.2c0.2-0.4,0.4-0.8,0.7-1.3h-16
	c-0.6,0-1.1,0.1-1.5,0.2c-0.4,0.1-0.7,0.4-1,0.7C55.9,41.5,55.8,41.7,55.7,42z M55.7,60.2l2.7-0.7l-0.7-3.6c-0.3,0.1-0.7,0.2-1,0.3
	c-0.4,0.1-0.7,0.2-1,0.2V60.2z M57.4,49l1.9,5.6c0.3-0.1,0.6-0.2,1-0.4c0.3-0.1,0.6-0.3,0.9-0.4L59,49H57.4z M60.5,47.7l-1.3-1.7
	c0.1-0.1,0.2-0.1,0.3-0.1c0.1,0,0.2-0.1,0.3-0.1c0.1-0.1,0.1-0.2,0.2-0.3c0.1-0.1,0.1-0.2,0.1-0.3c0-0.3-0.1-0.5-0.3-0.6
	c-0.2-0.1-0.5-0.2-0.8-0.2H58v3.4h0.4v-1.7h0.2l1.3,1.7H60.5z M59.2,44.5c0.2,0.1,0.3,0.1,0.4,0.2c0.1,0.1,0.2,0.2,0.2,0.4l-0.2,0.5
	c-0.1,0.1-0.1,0.1-0.2,0.1c-0.1,0-0.1,0-0.2,0l-0.7,0.1v-1.4H59.2z M59.1,59.3l2.8-0.7l-1.6-3.6c-0.3,0.2-0.7,0.3-1,0.4
	c-0.3,0.1-0.6,0.2-0.9,0.2L59.1,59.3z M59.8,49l2.1,4.5c0.2-0.1,0.4-0.2,0.7-0.3c0.2-0.1,0.4-0.2,0.7-0.3l-2-3.8H59.8z M60.5,44.7
	l1.1-0.1v3.2h0.5v-3.2l1,0.1v-0.3h-2.6V44.7z M62.6,58.3l2.6-0.7L62.4,54c-0.2,0.1-0.5,0.2-0.7,0.3c-0.2,0.1-0.5,0.2-0.7,0.3
	L62.6,58.3z M62.1,49l1.8,3.4c0.2-0.1,0.4-0.2,0.6-0.4c0.2-0.1,0.4-0.3,0.6-0.4L63.4,49H62.1z M65.9,57.5l2.4-0.7l-3.7-4.1
	c-0.2,0.2-0.5,0.3-0.7,0.5c-0.2,0.1-0.5,0.3-0.7,0.4L65.9,57.5z M64.1,47.7v-3.4h-0.4v3.4H64.1z M64.2,49l1.5,2.2
	c0.2-0.1,0.3-0.2,0.5-0.4c0.2-0.1,0.3-0.3,0.5-0.5L65.6,49h0.1H64.2z M65.1,47.7h0.3v-2.7l2.4,2.7H68v-3.4h-0.3v2.6l-2.4-2.6h-0.2
	V47.7z M71.7,56c0.1,0,0.1-0.1,0.2-0.1l-5.6-4.2c-0.1,0.1-0.2,0.2-0.4,0.3c-0.1,0.1-0.3,0.2-0.5,0.2c-0.1,0.1-0.1,0.1-0.1,0.1
	c0,0-0.1,0.1-0.1,0.1l3.9,4.2l2.4-0.7C71.6,56,71.6,56,71.7,56z M66.6,49l0.7,1c0.2-0.2,0.3-0.3,0.5-0.5c0.2-0.2,0.4-0.3,0.5-0.5
	H66.6z M72.4,55.3l0.9-1.7l-5.2-3.3c-0.2,0.2-0.3,0.3-0.5,0.5c-0.2,0.1-0.4,0.3-0.5,0.5L72.4,55.3z M73.8,53l2.9-0.8l-7.4-3.2
	c-0.1,0.2-0.2,0.3-0.3,0.4c-0.1,0.1-0.2,0.2-0.3,0.3L73.8,53z M69.1,44.4l3.1,0.2c0.1-0.2,0.2-0.3,0.3-0.5c0.1-0.2,0.2-0.3,0.3-0.5
	h-3.7v1.2V44.4z M69.1,46.1l1.8,0.2c0.1-0.2,0.2-0.3,0.4-0.5c0.1-0.1,0.3-0.3,0.4-0.5l-2.6-0.2v1.2V46.1z M69.1,46.8v1.4
	c0.2-0.2,0.4-0.4,0.6-0.6c0.2-0.2,0.4-0.5,0.7-0.7L69.1,46.8z M77.8,51.9l4.1-1.1l-11.7-2.7c-0.1,0.1-0.1,0.1-0.2,0.2
	c-0.1,0.1-0.1,0.1-0.2,0.2L77.8,51.9z M83.5,50.4l6-1.7L71.3,47c-0.1,0.1-0.1,0.2-0.2,0.3c-0.1,0.1-0.2,0.2-0.3,0.2L83.5,50.4z
	 M91.9,47.9l0.8-1.6l-20.2-1c-0.1,0.2-0.2,0.3-0.4,0.5c-0.1,0.2-0.3,0.3-0.4,0.5l19.6,1.8c0.1-0.1,0.2-0.1,0.3-0.1
	C91.8,48,91.9,47.9,91.9,47.9z M94.4,45.6l1.3-2H73.7c-0.1,0.2-0.1,0.4-0.2,0.6c-0.1,0.2-0.2,0.3-0.3,0.5l20.9,1h0.1
	c0.1,0.1,0.2,0.1,0.2,0C94.4,45.7,94.4,45.6,94.4,45.6z M98.7,40.7c0-0.1,0-0.2,0-0.3c-0.1-0.1-0.2-0.1-0.2,0h-0.1H75.4
	c-0.2,0.4-0.4,0.9-0.6,1.3c-0.2,0.4-0.4,0.8-0.6,1.2H97c0.1,0,0.2,0,0.2,0c0.1,0,0.1,0,0.1-0.1L98.7,40.7z"/>
</svg>
