<?xml version="1.0" encoding="utf-8"?>
<!-- Generator: Adobe Illustrator 21.0.2, SVG Export Plug-In . SVG Version: 6.00 Build 0)  -->
<svg version="1.1" id="Layer_1" xmlns="http://www.w3.org/2000/svg" xmlns:xlink="http://www.w3.org/1999/xlink" x="0px" y="0px"
	 viewBox="0 0 100 100" style="enable-background:new 0 0 100 100;" xml:space="preserve">
<style type="text/css">
	.st0{fill:#B3B3B1;}
	.st1{fill:#B3B3B3;}
	.st2{fill-rule:evenodd;clip-rule:evenodd;fill:#B3B3B3;}
	.st3{fill-rule:evenodd;clip-rule:evenodd;fill:#B3B3B1;}
</style>
<path class="st0" d="M96.3,54.7c-0.5,1.5-1.2,3-2.1,4.4c-0.7,1.1-1.6,2.1-2.5,3c-1,0.9-2.1,1.6-3.3,2.2c-0.9,0.5-1.9,0.9-2.8,1.2
	c-1,0.3-2,0.5-3,0.6c-1.6,0.2-3.1,0.1-4.6-0.2c-1.5-0.3-2.9-0.7-4.3-1.4c-0.5-0.3-0.9-0.5-1.3-0.8c-0.4-0.3-0.8-0.5-1.2-0.8
	c-0.2-0.1-0.4-0.2-0.5-0.2c-0.1,0-0.3,0.1-0.4,0.2c-0.6,0.5-1.3,0.9-1.9,1.2c-0.7,0.4-1.4,0.7-2.1,0.9c-0.7,0.3-1.4,0.4-2.1,0.6
	c-0.7,0.1-1.5,0.2-2.2,0.3c-1.1,0.1-2.2,0.1-3.3-0.1c-1.1-0.2-2.2-0.4-3.3-0.7c-0.8-0.3-1.6-0.6-2.3-1c-0.7-0.4-1.4-0.8-2.1-1.3
	c-0.2-0.1-0.3-0.2-0.4-0.2c-0.1,0-0.2,0-0.4,0.1c-0.6,0.5-1.3,0.9-1.9,1.3c-0.7,0.4-1.4,0.7-2.2,0.9c-0.7,0.2-1.3,0.4-2,0.6
	c-0.7,0.2-1.4,0.3-2.1,0.3c-0.6,0-1.2,0-1.8,0c-0.6,0-1.2,0-1.7,0c-0.6-0.1-1.2-0.2-1.9-0.3c-0.6-0.1-1.2-0.3-1.8-0.6
	c-0.7-0.3-1.4-0.6-2-1c-0.6-0.4-1.3-0.8-1.9-1.1c-0.2-0.1-0.3-0.2-0.5-0.2c-0.2,0-0.3,0.1-0.5,0.2c-0.7,0.5-1.4,1-2.1,1.3
	c-0.7,0.4-1.5,0.7-2.3,1c-0.7,0.2-1.3,0.3-2,0.4c-0.6,0.1-1.3,0.2-2,0.3c-1.3,0.2-2.5,0.1-3.8-0.1c-1.2-0.2-2.4-0.5-3.6-1
	c-0.9-0.4-1.7-0.8-2.5-1.3c-0.8-0.5-1.6-1-2.3-1.7c-0.7-0.7-1.4-1.4-2-2.2c-0.6-0.8-1.2-1.6-1.6-2.5c-0.5-0.9-0.9-1.9-1.2-2.9
	c-0.3-1-0.5-2-0.6-3c-0.1-1.2-0.1-2.4,0-3.5c0.1-1.2,0.4-2.3,0.8-3.4c0.6-1.9,1.5-3.6,2.7-5c1.2-1.5,2.7-2.7,4.4-3.7
	c1.1-0.6,2.2-1.1,3.3-1.4c1.2-0.3,2.3-0.6,3.6-0.7c1.2-0.1,2.3-0.1,3.5,0.1c1.1,0.2,2.2,0.4,3.3,0.8c0.8,0.3,1.5,0.6,2.2,0.9
	c0.7,0.4,1.4,0.8,2,1.3c0.2,0.2,0.3,0.2,0.5,0.2c0.2,0,0.3-0.1,0.5-0.2c1-0.7,2-1.3,3.1-1.8c1.1-0.5,2.3-0.8,3.5-1
	c0.9-0.2,1.7-0.2,2.6-0.3c0.9,0,1.7,0,2.6,0.2c1,0.1,1.9,0.3,2.8,0.6c0.9,0.3,1.8,0.7,2.7,1.1c0.4,0.2,0.7,0.4,1,0.6
	c0.3,0.3,0.7,0.5,1,0.7c0.1,0.1,0.1,0.1,0.3,0.1c0.1,0,0.2,0,0.3-0.1c0.7-0.5,1.5-1,2.2-1.4c0.8-0.4,1.6-0.7,2.4-1
	c0.7-0.2,1.3-0.4,2-0.5c0.7-0.1,1.4-0.2,2.1-0.3c1.1-0.1,2.2-0.1,3.3,0.1c1.1,0.2,2.1,0.4,3.2,0.8c0.8,0.3,1.5,0.6,2.2,1
	c0.7,0.4,1.4,0.9,2.1,1.3c0.1,0.1,0.2,0.2,0.3,0.2c0.1,0,0.2-0.1,0.4-0.2c0.7-0.4,1.3-0.8,2-1.2c0.7-0.4,1.3-0.7,2-1
	c0.5-0.3,1-0.4,1.6-0.5c0.5-0.1,1.1-0.2,1.7-0.3c0.4-0.1,0.8-0.1,1.3-0.2c0.5-0.1,0.9-0.1,1.4-0.1c1.5,0.1,3,0.3,4.5,0.7
	c1.4,0.4,2.8,1,4.1,1.8c1.2,0.8,2.2,1.7,3.2,2.7c0.9,1,1.7,2.1,2.5,3.3c0.5,0.9,0.8,1.8,1.2,2.7c0.3,1,0.5,1.9,0.6,2.9
	c0.1,0.4,0.1,0.7,0.1,1.1c0,0.4,0,0.7,0,1.2C97,51.6,96.8,53.1,96.3,54.7z M18.3,37.6c-3.3,0.5-5.9,2.1-7.9,4.7
	c-1.8,2.3-2.7,4.9-2.7,7.9c0.1,3,1.1,5.6,3.1,7.9c2.1,2.4,4.7,3.8,7.9,4.2c3.1,0.4,6.1-0.4,8.8-2.3c-2.3-3.3-3.4-6.7-3.4-10
	c0-3.4,1.1-6.7,3.4-10.1C24.6,37.8,21.5,37.1,18.3,37.6z M30.2,57.1c1.6-2.2,2.4-4.6,2.3-7.4c-0.1-2.8-0.9-5.1-2.3-7
	c-1.6,2.1-2.4,4.5-2.3,7.2C27.9,52.7,28.7,55.1,30.2,57.1z M34.1,41.6c0.3,0.6,0.7,1.2,1,1.8c0.4,0.8,0.7,1.7,0.9,2.5
	c0.2,0.8,0.3,1.7,0.3,2.6c0.1,0.5,0.1,0.9,0,1.4c0,0.5,0,1,0,1.4c0,0.7-0.1,1.4-0.3,2.1c-0.2,0.7-0.4,1.4-0.6,2
	c-0.3,0.7-0.6,1.4-0.9,2.1c-0.4,0.7-0.8,1.3-1.2,1.9c-0.1,0.2-0.2,0.3-0.2,0.4c0,0.1,0,0.2,0.2,0.3c0.3,0.2,0.5,0.3,0.7,0.4
	c0.2,0.1,0.4,0.2,0.7,0.3c1.3,0.6,2.6,1,3.8,1.2c1.3,0.2,2.6,0.2,4-0.1c0.9-0.2,1.8-0.4,2.6-0.8c0.8-0.4,1.6-0.8,2.4-1.4
	c-2.3-3.3-3.4-6.7-3.4-10c0-3.4,1.1-6.7,3.4-10.1c-2.1-1.5-4.4-2.3-7.2-2.3c-2.7,0-5.1,0.8-7.2,2.3C33.5,40.4,33.8,41,34.1,41.6z
	 M50.4,42.8c-1.4,1.8-2.2,4.1-2.3,6.9c-0.1,2.7,0.7,5.2,2.3,7.5c1.8-2.4,2.6-5,2.3-7.8C52.5,46.5,51.7,44.3,50.4,42.8z M54,41
	c0.2,0.3,0.4,0.7,0.7,1.1c0.5,0.9,0.8,1.8,1.2,2.7s0.5,1.9,0.7,2.9c0.1,0.9,0.2,1.7,0.2,2.6c0,0.9-0.1,1.7-0.3,2.5
	c-0.2,1.2-0.5,2.4-1,3.5c-0.5,1.1-1.1,2.2-1.8,3.2c-0.1,0.2-0.2,0.3-0.2,0.4c0,0.1,0.1,0.2,0.3,0.2c0.4,0.3,0.7,0.5,1.2,0.7
	c0.4,0.2,0.8,0.4,1.2,0.6c0.7,0.3,1.5,0.5,2.2,0.7c0.8,0.1,1.5,0.2,2.3,0.2c0.5,0,0.9,0,1.4-0.1c0.5-0.1,0.9-0.1,1.3-0.2
	c0.8-0.2,1.6-0.5,2.3-0.8c0.7-0.4,1.5-0.8,2.2-1.3c-1.2-1.4-2.1-3-2.6-4.7c-0.6-1.7-0.8-3.5-0.8-5.3c0-1.8,0.3-3.5,0.8-5.2
	c0.6-1.7,1.4-3.3,2.6-4.7c-1.9-1.6-4.3-2.5-7.3-2.5c-3,0-5.4,0.8-7.3,2.4C53.5,40.3,53.8,40.7,54,41z M70.6,42.7
	c-1.6,2.1-2.4,4.5-2.3,7.3c0,2.7,0.8,5.1,2.3,7.2c1.4-1.9,2.2-4.3,2.4-6.9C73.1,47.6,72.3,45,70.6,42.7z M74.5,41.6
	c0.3,0.6,0.7,1.2,1,1.8c0.4,0.9,0.7,1.8,0.9,2.7c0.2,1,0.3,1.9,0.4,3c0,0.5,0,0.9,0,1.4c0,0.5-0.1,1-0.2,1.4
	c-0.1,0.6-0.1,1.2-0.3,1.8c-0.1,0.6-0.3,1.2-0.5,1.7c-0.3,0.8-0.6,1.5-0.9,2.2c-0.4,0.7-0.8,1.4-1.2,2c-0.1,0.1-0.1,0.1-0.1,0.2
	c0,0.1,0,0.2,0.1,0.2c1.1,0.8,2.2,1.3,3.5,1.7c1.2,0.4,2.5,0.5,3.8,0.5c0.6,0,1.1-0.1,1.7-0.2c0.6-0.1,1.1-0.3,1.6-0.4
	c1.5-0.4,2.9-1.1,4.1-2c1.2-0.9,2.2-2.1,2.9-3.5c1.1-1.8,1.8-3.6,1.9-5.5c0.1-1.9-0.2-3.8-1-5.8c-0.7-1.5-1.6-2.9-2.7-4
	c-1.1-1.1-2.5-2-4.1-2.6c-1-0.5-2-0.8-3-0.9c-1-0.1-2.1-0.1-3.2,0c-1.1,0.1-2.1,0.3-3,0.7c-1,0.4-1.9,0.9-2.7,1.5
	C73.8,40.4,74.1,41,74.5,41.6z"/>
</svg>
