<?xml version="1.0" encoding="utf-8"?>
<!-- Generator: Adobe Illustrator 21.0.2, SVG Export Plug-In . SVG Version: 6.00 Build 0)  -->
<svg version="1.1" id="Layer_1" xmlns="http://www.w3.org/2000/svg" xmlns:xlink="http://www.w3.org/1999/xlink" x="0px" y="0px"
	 viewBox="0 0 100 100" style="enable-background:new 0 0 100 100;" xml:space="preserve">
<style type="text/css">
	.st0{fill:#B3B3B1;}
	.st1{fill:#B3B3B3;}
	.st2{fill-rule:evenodd;clip-rule:evenodd;fill:#B3B3B3;}
	.st3{fill-rule:evenodd;clip-rule:evenodd;fill:#B3B3B1;}
</style>
<path class="st0" d="M6.8,42.2c0.5,0.1,1.1,0.1,1.7,0.1c0.5,0,1,0,1.5,0c0.5,0,1,0,1.5,0c1.7,0,3.4-0.1,5.1-0.1c1.7,0,3.4,0,5.1,0
	c0.7,0,1.3,0,2,0c0.7,0,1.4,0,2,0.1c0.7,0,1.3,0,2,0.1c0.7,0,1.3,0.1,2,0.1c0.6,0,1.2,0,1.7-0.1c0.6,0,1.1-0.1,1.7-0.1
	c1.1-0.1,2.3-0.1,3.5-0.1s2.3,0.1,3.5,0.2c0.2,0,0.3,0,0.5,0.1s0.3,0.1,0.4,0.1c0.1,0,0.1,0,0.2,0s0.1,0,0.1,0
	c0.5-0.3,1.1-0.5,1.7-0.7c0.6-0.2,1.2-0.4,1.8-0.6c1.1-0.3,2.3-0.5,3.5-0.6c1.2-0.1,2.3-0.1,3.5,0c0.5,0,1,0.1,1.5,0.2
	c0.5,0.1,1,0.2,1.5,0.3c0.6,0.1,1.2,0.3,1.7,0.4c0.5,0.2,1.1,0.4,1.6,0.6c0.2,0.1,0.3,0.1,0.5,0.2c0.2,0.1,0.3,0.1,0.5,0.3
	c0,0,0.1,0,0.1,0.1c0.1,0,0.1,0,0.1,0c0.5-0.2,1-0.3,1.5-0.3c0.5-0.1,1-0.1,1.5-0.2c0.9,0,1.7-0.1,2.6-0.1c0.9,0,1.7,0,2.6,0.1
	c1,0.1,2.1,0.1,3.1,0.2c1.1,0,2.1,0.1,3.1,0.1c1,0,2,0,3-0.1c1,0,2-0.1,3-0.1c1.6,0,3.2,0,4.8,0s3.2,0,4.8,0.1c0.2,0,0.5,0,0.7,0
	s0.5,0,0.7,0.1c0.5,0,1,0,1.5-0.1c0.5,0,1-0.1,1.5-0.2c0.4,0,0.8-0.1,1.2-0.1c0.4,0,0.8,0,1.2-0.1c0.3,0,0.5,0.1,0.7,0.2
	c0.2,0.1,0.4,0.3,0.5,0.6c0.1,0.2,0.2,0.4,0.2,0.6c0,0.2,0,0.4-0.2,0.6c-0.2,0.2-0.3,0.3-0.5,0.4s-0.4,0.3-0.6,0.4
	c-0.1,0.1-0.2,0.2-0.4,0.2c-0.1,0.1-0.3,0.2-0.4,0.2c0,0-0.1,0.1-0.1,0.1c0,0,0,0.1,0,0.1c0,0.4,0,0.8-0.2,1.1
	c-0.2,0.3-0.5,0.6-0.8,0.8c-0.2,0.2-0.5,0.3-0.7,0.4c-0.3,0.1-0.5,0.2-0.8,0.4c0,0-0.1,0.1-0.1,0.1c0,0-0.1,0-0.1,0.1
	c0,0.2-0.1,0.5-0.3,0.6c-0.2,0.2-0.3,0.4-0.5,0.5c-0.4,0.3-0.7,0.6-1.1,0.8c-0.4,0.2-0.8,0.4-1.2,0.5c0,0-0.1,0-0.1,0.1
	s-0.1,0.1-0.1,0.1c0,0.2,0,0.4-0.1,0.5c-0.1,0.2-0.2,0.3-0.4,0.4c-0.4,0.3-0.7,0.5-1.1,0.6c-0.4,0.2-0.8,0.3-1.1,0.4
	c-0.2,0-0.4,0.1-0.5,0.1c-0.2,0-0.3,0.1-0.5,0.1c0,0-0.1,0-0.1,0.1c0,0,0,0.1-0.1,0.1c0,0.4-0.1,0.6-0.3,0.8
	c-0.2,0.2-0.5,0.4-0.8,0.5c-0.4,0.2-0.9,0.3-1.4,0.4c-0.5,0.1-1,0.1-1.5,0.1c-0.1,0-0.2,0-0.3,0.1c-0.1,0-0.1,0.1-0.1,0.2
	c-0.1,0.3-0.2,0.6-0.5,0.8c-0.2,0.2-0.5,0.3-0.8,0.4c-0.5,0.1-1,0.2-1.5,0.2c-0.5,0-1,0-1.5-0.1c-0.1,0-0.2,0-0.3,0
	c-0.1,0-0.1,0.1-0.2,0.3c-0.1,0.3-0.3,0.5-0.5,0.6c-0.2,0.2-0.5,0.3-0.8,0.3c-0.5,0.1-0.9,0.1-1.4,0c-0.5-0.1-0.9-0.1-1.3-0.3
	c0,0-0.1,0-0.1,0c0,0,0,0-0.1,0c-0.1,0-0.2,0-0.3,0c-0.1,0-0.2,0.1-0.3,0.3c-0.2,0.3-0.4,0.5-0.7,0.6c-0.3,0.1-0.7,0.1-1.1,0
	c-0.2,0-0.5-0.1-0.7-0.1c-0.2-0.1-0.4-0.1-0.7-0.1c0,0-0.1,0-0.1,0c-0.1,0-0.1,0.1-0.1,0.1c-0.2,0.2-0.3,0.3-0.5,0.4
	c-0.2,0.1-0.4,0.1-0.6,0.2C67.1,59,67,59,67,59.1c0,0-0.1,0.1-0.1,0.1c-0.2,0.4-0.3,0.7-0.5,1c-0.2,0.3-0.3,0.7-0.5,1
	c-0.4,0.6-0.8,1.2-1.3,1.8c-0.5,0.6-1,1.1-1.6,1.6c-0.6,0.5-1.2,1-1.9,1.5c-0.7,0.4-1.3,0.9-2.1,1.3c-0.2,0.1-0.3,0.2-0.5,0.2
	c-0.2,0.1-0.4,0.2-0.5,0.2c-0.1,0-0.1,0.1-0.2,0.1s-0.1,0.1-0.1,0.2c-0.1,0.2-0.3,0.4-0.7,0.5c-0.3,0.1-0.6,0.1-0.9-0.1
	c-0.1-0.1-0.2-0.1-0.3-0.1c-0.1,0-0.2,0.1-0.2,0.2c-0.2,0.2-0.3,0.4-0.6,0.5c-0.2,0.1-0.4,0.1-0.7,0.1c-0.1,0-0.2,0-0.3-0.1
	c-0.1,0-0.2-0.1-0.2-0.1c-0.1-0.1-0.2-0.1-0.3-0.1c-0.1,0-0.2,0.1-0.2,0.1c-0.3,0.3-0.6,0.5-0.9,0.5c-0.3,0-0.6-0.1-1-0.4
	c-0.1,0-0.2-0.1-0.2-0.1c-0.1,0-0.2,0-0.2,0.1c-0.3,0.3-0.6,0.4-0.9,0.4s-0.7-0.1-0.9-0.4c-0.1-0.1-0.2-0.1-0.2-0.1
	c-0.1,0-0.2,0-0.2,0.1c-0.2,0.2-0.6,0.3-1,0.3c-0.4,0-0.7-0.2-0.9-0.5c0-0.1-0.1-0.2-0.2-0.2c-0.1,0-0.2,0-0.3,0.1
	c-0.2,0.2-0.5,0.3-0.9,0.2c-0.4-0.1-0.7-0.3-0.8-0.6c0-0.1-0.1-0.1-0.2-0.1c-0.1,0-0.2,0-0.3,0c-0.3,0.2-0.6,0.2-0.9,0.1
	c-0.3-0.1-0.6-0.3-0.7-0.6c0-0.1-0.1-0.2-0.2-0.2c-0.1-0.1-0.2-0.1-0.3-0.2c-0.7-0.3-1.4-0.7-2.1-1.1c-0.7-0.4-1.3-0.8-1.9-1.3
	c-0.6-0.5-1.2-1-1.8-1.6c-0.5-0.6-1-1.2-1.5-1.8c-0.3-0.5-0.6-1-0.8-1.5c-0.3-0.5-0.5-1-0.6-1.5c0,0-0.1-0.1-0.1-0.1
	c0,0-0.1-0.1-0.1-0.1c-0.1-0.1-0.2-0.1-0.2-0.2c-0.1-0.1-0.2-0.1-0.2-0.1c-0.1,0-0.1-0.1-0.2-0.1c-0.1,0-0.1,0-0.1,0
	c-0.2,0.1-0.4,0.1-0.6,0.2c-0.2,0.1-0.4,0.1-0.7,0.2c-0.2,0-0.4,0.1-0.6,0.1c-0.2,0-0.4,0-0.6-0.1c-0.1-0.1-0.2-0.2-0.4-0.3
	c-0.1-0.1-0.2-0.2-0.3-0.3c0-0.1-0.1-0.2-0.2-0.2c-0.1,0-0.2,0-0.3,0c-0.3,0-0.5,0.1-0.8,0.1C27.5,58,27.3,58,27,58.1
	c-0.3,0-0.6,0-0.9,0c-0.3,0-0.6-0.1-0.8-0.1c-0.2-0.1-0.4-0.2-0.6-0.4c-0.1-0.2-0.2-0.3-0.3-0.5c0-0.1-0.1-0.2-0.1-0.2
	c0,0-0.1,0-0.2,0c-0.4,0-0.9,0.1-1.3,0.1c-0.5,0-0.9,0-1.3-0.1c-0.4,0-0.7-0.1-1-0.3c-0.3-0.2-0.5-0.4-0.7-0.7v-0.1
	c0-0.2-0.1-0.4-0.3-0.4c-0.1-0.1-0.3-0.1-0.5,0c-0.4,0-0.8,0-1.2-0.1c-0.4-0.1-0.8-0.2-1.1-0.4c-0.2-0.1-0.5-0.2-0.7-0.4
	c-0.2-0.2-0.4-0.4-0.5-0.6c0-0.1-0.1-0.1-0.1-0.2c0-0.1,0-0.1,0-0.2c0-0.1-0.1-0.1-0.1-0.2c0,0-0.1-0.1-0.2-0.1
	c-0.5,0-1.1-0.1-1.5-0.3s-0.9-0.4-1.3-0.7c-0.2-0.1-0.4-0.3-0.6-0.5c-0.2-0.2-0.3-0.4-0.3-0.8c-0.1-0.1-0.1-0.1-0.2-0.1
	c-0.6-0.2-1.2-0.4-1.6-0.8c-0.5-0.3-0.9-0.7-1.2-1.3c0,0-0.1,0-0.1-0.1c0-0.3-0.2-0.5-0.4-0.6c-0.2-0.1-0.4-0.2-0.6-0.3
	c-0.3-0.2-0.6-0.3-0.9-0.6c-0.3-0.2-0.5-0.5-0.7-0.8c-0.1-0.2-0.1-0.3-0.2-0.5c0-0.2-0.1-0.3-0.1-0.5c0-0.1,0-0.1,0-0.2
	c0-0.1-0.1-0.1-0.1-0.1c-0.2-0.2-0.5-0.3-0.7-0.4c-0.3-0.1-0.5-0.3-0.7-0.4c-0.5-0.3-0.6-0.7-0.5-1.1c0.1-0.4,0.3-0.8,0.6-1
	c0.2-0.1,0.4-0.2,0.6-0.2c0.2,0,0.5,0,0.9,0C5.8,42.1,6.3,42.2,6.8,42.2z M18.5,45.2L18.5,45.2c1.2,0,2.4,0,3.7,0
	c1.2,0,2.5,0,3.7-0.1c0.1,0,0.1,0,0.2,0s0.1,0,0.2,0c0.2,0,0.2-0.1,0.3-0.2c0-0.1,0-0.2-0.1-0.3c-0.1,0-0.1-0.1-0.2-0.1
	s-0.1-0.1-0.2-0.1c-0.5-0.1-1.1-0.2-1.6-0.3c-0.5-0.1-1.1-0.2-1.6-0.2c-0.4-0.1-0.8-0.1-1.3-0.2c-0.4,0-0.8-0.1-1.3-0.1
	c-0.7-0.1-1.4-0.2-2.1-0.2c-0.7-0.1-1.4-0.2-2.1-0.2c-0.5,0-0.9-0.1-1.4-0.1c-0.5,0-1,0-1.4,0c-1.2,0-2.4-0.1-3.6-0.1
	c-1.2,0-2.4,0-3.6,0c-0.2,0-0.4,0-0.5,0c-0.2,0-0.3,0-0.5,0.1c-0.1,0-0.2,0.1-0.3,0.2c-0.1,0.1,0,0.2,0,0.3C4.8,43.7,4.9,43.8,5,44
	c0.1,0.1,0.2,0.2,0.4,0.3c0.2,0,0.4,0.1,0.6,0.2c0.2,0.1,0.4,0.2,0.6,0.3c0.7,0.2,1.5,0.3,2.2,0.4c0.7,0.1,1.5,0.1,2.3,0.1
	c1.2,0,2.4,0,3.6-0.1C16,45.2,17.2,45.1,18.5,45.2L18.5,45.2z M12.3,46.1L12.3,46.1c-0.8,0-1.6,0-2.4,0c-0.8,0-1.6,0-2.4,0
	c-0.1,0-0.2,0-0.2,0c-0.1,0-0.2,0-0.2,0.1c0,0,0,0.1,0.1,0.2c0,0.1,0.1,0.2,0.2,0.2v0.1C7.6,47,8,47.2,8.5,47.4
	c0.4,0.2,0.9,0.3,1.4,0.3c1.2,0,2.5,0,3.8,0c1.2,0,2.5-0.1,3.8-0.2c0.7,0,1.4-0.1,2.1-0.1c0.7-0.1,1.4-0.1,2.1-0.2
	c0.5,0,1-0.1,1.6-0.1s1.1-0.1,1.6-0.1c0.2,0,0.5-0.1,0.7-0.1c0.3,0,0.5-0.1,0.7-0.2c0.1,0,0.2,0,0.4-0.1c0.1-0.1,0.2-0.1,0.3-0.2
	c0.1-0.1,0.2-0.2,0.2-0.2c0-0.1-0.1-0.2-0.2-0.2c-0.2-0.1-0.5-0.1-0.7-0.2c-0.2,0-0.5-0.1-0.7-0.1c-0.4,0-0.8,0.1-1.3,0.1
	c-0.4,0-0.8,0-1.2,0.1c-1,0-2,0.1-3,0.1c-1,0.1-2,0.1-3,0.1c-0.8,0-1.6,0-2.3,0C14,46.1,13.2,46.1,12.3,46.1L12.3,46.1z M26.6,47.3
	L26.6,47.3c-0.4,0-0.7,0.1-1,0.1c-0.3,0.1-0.6,0.1-1,0.1c-0.8,0.1-1.6,0.2-2.4,0.2c-0.8,0.1-1.6,0.2-2.4,0.2
	c-0.8,0.1-1.6,0.1-2.3,0.2s-1.5,0.1-2.3,0.1c-0.8,0.1-1.6,0.1-2.4,0.2c-0.8,0-1.6,0.1-2.4,0.2c-0.1,0-0.1,0-0.2,0
	c-0.1,0-0.1,0-0.1,0.1c0,0,0,0.1,0,0.1c0,0.1,0.1,0.1,0.1,0.2c0.4,0.3,0.7,0.5,1.1,0.7c0.4,0.2,0.9,0.3,1.4,0.3
	c0.6,0,1.2-0.1,1.8-0.1c0.6,0,1.2-0.1,1.8-0.2c0.6,0,1.2-0.1,1.8-0.2c0.6-0.1,1.2-0.2,1.8-0.3c0.4,0,0.7-0.1,1-0.1
	c0.3,0,0.6-0.1,1-0.2c0.5-0.1,0.9-0.2,1.4-0.2c0.4-0.1,0.9-0.2,1.4-0.2c0.4-0.1,0.8-0.1,1.1-0.2c0.4-0.1,0.7-0.1,1.1-0.2
	c0.1,0,0.2-0.1,0.3-0.1c0.1,0,0.2-0.1,0.3-0.1c0.1-0.1,0.2-0.2,0.2-0.2c0-0.1,0-0.2,0-0.2c0-0.1,0-0.2-0.1-0.3s-0.1-0.1-0.3-0.1
	c-0.1,0-0.2,0.1-0.4,0.1S26.7,47.3,26.6,47.3L26.6,47.3z M16.7,52.5c0.5,0,1.1,0,1.6-0.1c0.5-0.1,1.1-0.2,1.6-0.3
	c0.4-0.1,0.7-0.2,1.1-0.2c0.4-0.1,0.7-0.2,1.1-0.2c0.4,0,0.7-0.1,1-0.2c0.3-0.1,0.7-0.2,1-0.2c0.4-0.1,0.7-0.2,1.1-0.2
	c0.4-0.1,0.7-0.2,1.1-0.3c0.3,0,0.6-0.1,0.8-0.2c0.3-0.1,0.6-0.2,0.8-0.2c0.1,0,0.2-0.1,0.4-0.1s0.2-0.1,0.4-0.2
	c0.2-0.2,0.2-0.3,0.1-0.6c-0.1-0.2-0.2-0.3-0.4-0.4c-0.1,0-0.2-0.1-0.4-0.1s-0.2,0-0.4,0.1c-0.3,0-0.5,0.1-0.8,0.1
	c-0.3,0.1-0.5,0.1-0.8,0.2c-0.2,0-0.5,0.1-0.7,0.1c-0.3,0.1-0.5,0.1-0.7,0.1c-0.4,0.1-0.8,0.2-1.2,0.2c-0.4,0.1-0.8,0.2-1.2,0.2
	c-0.3,0-0.6,0.1-0.9,0.1c-0.3,0.1-0.6,0.1-0.9,0.2c-0.5,0.1-0.9,0.2-1.4,0.2c-0.5,0.1-0.9,0.2-1.4,0.2c-0.5,0.1-0.9,0.2-1.4,0.2
	c-0.5,0.1-1,0.2-1.4,0.2c-0.2,0-0.4,0.1-0.6,0.1c-0.2,0-0.4,0.1-0.6,0.1l-0.2,0.1c0,0.1,0,0.1,0,0.2c0,0,0,0.1,0.1,0.1
	c0.1,0.1,0.2,0.1,0.3,0.2c0.1,0.1,0.2,0.1,0.3,0.1c0.4,0,0.9,0,1.3,0.1C15.7,52.4,16.2,52.5,16.7,52.5L16.7,52.5z M20.6,54.5
	c0.3,0,0.5-0.1,0.8-0.1c0.5-0.1,0.9-0.2,1.4-0.4c0.4-0.1,0.9-0.3,1.4-0.4c0.3-0.1,0.6-0.2,0.9-0.3c0.3-0.1,0.6-0.2,0.9-0.4
	c0.4-0.2,0.9-0.3,1.3-0.5c0.4-0.2,0.9-0.3,1.3-0.5c0.2-0.1,0.4-0.2,0.6-0.2c0.2-0.1,0.4-0.2,0.6-0.2c0.1-0.1,0.2-0.2,0.3-0.2
	c0.1-0.1,0.1-0.2,0.1-0.3c0-0.2,0-0.3-0.1-0.4c-0.1-0.1-0.2-0.2-0.4-0.2c-0.2,0-0.3,0-0.4,0c-0.1,0-0.3,0-0.4,0.1
	c-0.4,0.1-0.7,0.2-1,0.3c-0.3,0.1-0.6,0.2-0.9,0.3c-0.5,0.2-1.1,0.3-1.6,0.4c-0.5,0.1-1.1,0.3-1.6,0.4c-0.4,0.1-0.9,0.2-1.3,0.3
	c-0.4,0.1-0.9,0.2-1.3,0.3c-0.4,0.1-0.7,0.2-1,0.2c-0.3,0.1-0.6,0.2-0.9,0.2c-0.3,0.1-0.6,0.2-0.9,0.2c-0.3,0.1-0.5,0.2-0.8,0.2
	c-0.1,0-0.1,0.1-0.2,0.1c0,0-0.1,0.1-0.1,0.1l0.1,0.2c0.4,0.2,0.8,0.4,1.2,0.5s0.9,0.2,1.4,0.2C20.1,54.6,20.3,54.5,20.6,54.5z
	 M32,52.6L32,52.6c-0.2-0.2-0.4-0.3-0.5-0.4c-0.2-0.1-0.3-0.3-0.5-0.4c-0.1,0-0.2,0-0.2,0c-0.3,0.1-0.5,0.2-0.8,0.4
	c-0.3,0.1-0.5,0.2-0.8,0.4c-0.3,0.2-0.6,0.3-1,0.4c-0.3,0.1-0.7,0.3-1,0.4c-0.4,0.2-0.8,0.3-1.2,0.5c-0.4,0.2-0.8,0.3-1.2,0.4
	c-0.4,0.2-0.9,0.3-1.3,0.4c-0.4,0.1-0.9,0.3-1.3,0.4c-0.1,0-0.2,0.1-0.4,0.1c-0.1,0-0.2,0.1-0.4,0.2c0,0-0.1,0-0.1,0.1
	c-0.1,0.1-0.1,0.2-0.1,0.2c0,0,0,0.1,0.1,0.1s0.1,0.1,0.3,0.1c0.2,0.1,0.4,0.1,0.6,0.1c0.2,0,0.5,0,0.7,0.1c0.7,0,1.3-0.1,1.9-0.2
	c0.6-0.2,1.2-0.3,1.9-0.5c0.7-0.2,1.3-0.5,1.9-0.8c0.6-0.3,1.2-0.6,1.8-0.9c0.2-0.1,0.5-0.3,0.7-0.5C31.6,53,31.8,52.8,32,52.6
	L32,52.6z M21.9,42.7C21.9,42.7,21.9,42.7,21.9,42.7c0,0.1-0.1,0.1-0.1,0.2c0,0,0.1,0,0.1,0.1c0,0,0.1,0,0.1,0c0.1,0,0.2,0,0.3,0
	c0.1,0,0.2,0.1,0.3,0.1c0.4,0.1,0.8,0.2,1.3,0.3c0.4,0.1,0.9,0.2,1.4,0.3c0.4,0.1,0.9,0.2,1.3,0.3c0.4,0.1,0.9,0.2,1.3,0.2
	c0.5,0.1,1,0.2,1.5,0.3c0.5,0.1,1,0.1,1.5,0.1c1,0,2,0,3,0.1s2,0.1,2.9,0.1c0.4,0,0.8,0.1,1.2,0.2c0.4,0.1,0.8,0.3,1.1,0.5
	c0.4,0.2,0.6,0.5,0.7,0.7C40,46.4,40,46.7,40,47c0,0.2-0.1,0.3-0.1,0.4c-0.1,0.1-0.1,0.3-0.2,0.4c-0.2,0.3-0.3,0.6-0.5,0.9
	c-0.2,0.3-0.4,0.6-0.6,0.9c0,0.1-0.1,0.2-0.1,0.4c0,0.1,0,0.2,0.1,0.4c0,0.1,0.1,0.2,0.3,0.3c0.2,0.1,0.3,0.1,0.3,0.1
	c0.1,0,0.1-0.1,0.2-0.2c0-0.1,0.1-0.2,0.1-0.3c0-0.1,0.1-0.2,0.1-0.4s0-0.2,0.1-0.4c0.2-0.6,0.4-1.1,0.7-1.6
	c0.3-0.4,0.7-0.8,1.2-1.2c0.2-0.2,0.4-0.3,0.6-0.5c0.2-0.2,0.4-0.3,0.6-0.5c0.3-0.2,0.4-0.5,0.5-0.8c0.1-0.3,0-0.7-0.1-1
	c-0.1-0.2-0.3-0.4-0.5-0.5c-0.2-0.1-0.4-0.2-0.7-0.3c-0.5-0.2-1-0.3-1.5-0.4c-0.5-0.1-1-0.1-1.5-0.1c-0.9,0-1.7-0.1-2.6-0.1
	s-1.7,0-2.6,0.1c-1.2,0-2.4,0.1-3.5,0.1c-1.2,0-2.4,0-3.6,0c-0.7,0-1.3-0.1-2-0.1c-0.7,0-1.3,0-2-0.1c-0.2,0-0.4,0.1-0.5,0.1
	S21.9,42.7,21.9,42.7L21.9,42.7z M33.4,53.6c-0.1,0-0.2-0.1-0.2-0.1c-0.2-0.1-0.3-0.2-0.5-0.2c-0.2,0-0.3,0-0.5,0.1
	c-0.5,0.3-1,0.5-1.5,0.8c-0.5,0.3-1,0.5-1.5,0.8c-0.4,0.2-0.7,0.3-1.1,0.5c-0.4,0.2-0.7,0.3-1.1,0.5c-0.2,0.1-0.4,0.1-0.5,0.2
	c-0.2,0-0.3,0.1-0.5,0.2c-0.2,0.1-0.2,0.2-0.2,0.3s0.1,0.2,0.2,0.3c0.1,0,0.2,0.1,0.3,0.1c0.1,0.1,0.2,0.1,0.3,0.1
	c0.7,0.1,1.3,0,1.9-0.1c0.6-0.2,1.2-0.4,1.8-0.8c0.4-0.2,0.9-0.5,1.3-0.8c0.4-0.3,0.9-0.6,1.3-0.9c0.1-0.1,0.3-0.2,0.4-0.3
	c0.2-0.1,0.3-0.3,0.5-0.4C33.6,53.7,33.5,53.7,33.4,53.6z M28.5,44.7L28.5,44.7c-0.1,0.1-0.2,0.1-0.2,0.1c-0.1,0-0.2,0-0.2,0
	c-0.2,0-0.3,0-0.4,0.1c-0.1,0.1-0.2,0.2-0.2,0.3s0.1,0.2,0.2,0.3c0.1,0.1,0.3,0.2,0.4,0.2c0.2,0,0.5,0,0.7,0c0.2,0,0.5,0,0.7,0
	c0.1,0,0.2-0.1,0.4-0.1c0.1,0,0.2-0.1,0.3-0.1c0.1,0,0.2-0.1,0.3-0.1c0.1-0.1,0.1-0.1,0.1-0.1c0-0.2-0.1-0.2-0.2-0.3
	c-0.1,0-0.2,0-0.3-0.1c-0.3,0-0.5,0-0.8,0C29,44.7,28.7,44.7,28.5,44.7L28.5,44.7z M29,45.9c-0.2,0-0.5,0-0.7,0
	c-0.1,0-0.2,0-0.3,0.1c-0.1,0.1-0.1,0.1-0.1,0.3c0,0.1,0,0.2,0,0.3c0,0.1,0.1,0.1,0.2,0.2c0.1,0,0.2,0.1,0.3,0.1
	c0.1,0.1,0.2,0.1,0.3,0.1c0.2,0,0.3,0,0.5,0c0.2,0,0.4,0,0.6-0.1c0.2,0,0.4-0.1,0.6-0.2c0.2-0.1,0.3-0.2,0.4-0.3
	c0.1-0.1,0.1-0.1,0.1-0.2c0-0.1,0-0.1,0-0.1c0,0,0-0.1-0.1-0.1c-0.1,0-0.1-0.1-0.2-0.1c-0.2,0-0.3-0.1-0.5-0.1c-0.2,0-0.3,0-0.5,0
	C29.4,45.9,29.2,45.9,29,45.9z M30.4,48.2c-0.1,0.1-0.2,0.2-0.4,0.3c-0.1,0.1-0.3,0.2-0.4,0.4c-0.1,0.1-0.1,0.2-0.1,0.3
	c0,0.1,0.1,0.2,0.3,0.2c0.1,0,0.2,0,0.4,0c0.1,0,0.3,0,0.4,0c0.2,0,0.5-0.1,0.7-0.2c0.2-0.1,0.4-0.2,0.6-0.4
	c0.2-0.1,0.2-0.2,0.3-0.3c0-0.1,0-0.3-0.1-0.4c0-0.1-0.1-0.2-0.3-0.2c-0.1,0-0.3,0-0.4,0c0,0-0.1,0.1-0.1,0.1s-0.1,0-0.1,0
	c0.1-0.1,0.2-0.1,0.2-0.2c0.1-0.1,0.2-0.1,0.2-0.1c0,0,0.1-0.1,0.1-0.2c0-0.1,0-0.1,0-0.2c0-0.1-0.1-0.1-0.1-0.1
	c-0.1,0-0.1,0-0.1-0.1c0,0-0.1,0-0.1,0c0,0,0,0-0.1,0c-0.3,0-0.5,0.1-0.8,0.1c-0.3,0-0.5,0.1-0.8,0.1c-0.1,0-0.2,0.1-0.4,0.1
	c-0.1,0-0.2,0.1-0.3,0.1c-0.2,0.1-0.3,0.2-0.3,0.4s0.1,0.3,0.3,0.4c0.1,0,0.2,0.1,0.3,0.1c0.1,0,0.2,0,0.3,0c0.1,0,0.2-0.1,0.4-0.1
	C30.1,48.3,30.3,48.2,30.4,48.2L30.4,48.2z M35.5,54.7c-0.2,0-0.3-0.1-0.4-0.1s-0.2-0.1-0.4-0.1c-0.1,0-0.2,0-0.2,0
	c-0.1,0-0.2,0-0.2,0.1c-0.5,0.3-0.9,0.6-1.4,0.9c-0.5,0.3-0.9,0.6-1.4,0.9c-0.2,0.2-0.4,0.3-0.6,0.4c-0.2,0.1-0.4,0.3-0.5,0.4
	c0,0-0.1,0.1-0.1,0.2c0,0.1,0,0.2,0,0.2c0,0,0.1,0.1,0.2,0.1c0.1,0,0.1,0,0.2,0.1c0.3,0,0.5,0,0.8-0.1c0.3-0.1,0.5-0.1,0.8-0.2
	c0.4-0.2,0.7-0.3,1-0.5c0.3-0.2,0.6-0.4,0.9-0.7c0.3-0.2,0.5-0.5,0.8-0.7S35.3,55.1,35.5,54.7L35.5,54.7z M31.3,50.9
	c0,0,0.1,0,0.2,0c0.1,0,0.1,0,0.2,0c0.2-0.1,0.4-0.2,0.6-0.3c0.2-0.1,0.3-0.2,0.5-0.3c0.2-0.1,0.4-0.2,0.5-0.3
	c0.2-0.1,0.3-0.3,0.4-0.5c0.1-0.1,0.1-0.2,0.1-0.3c0-0.1-0.1-0.1-0.3-0.1c-0.1,0-0.2,0-0.2,0c-0.1,0-0.1,0-0.2,0
	c-0.4,0-0.7,0.1-1,0.3c-0.3,0.1-0.7,0.3-1,0.4c-0.1,0.1-0.2,0.2-0.3,0.3c-0.1,0.1-0.1,0.3,0,0.4c0,0.1,0.1,0.2,0.2,0.3
	C31,50.8,31.1,50.9,31.3,50.9L31.3,50.9z M36.4,49.7c0,0,0,0.1,0,0.2c0,0.1,0,0.2,0,0.3c0,0.1,0.1,0.1,0.2,0.1
	c0.1,0.1,0.2,0.1,0.2,0.1c0.1,0,0.1-0.1,0.2-0.1c0.2-0.1,0.3-0.2,0.4-0.4c0.1-0.1,0.3-0.3,0.4-0.4c0.3-0.3,0.5-0.6,0.8-0.9
	c0.3-0.3,0.5-0.7,0.6-1.1c0.1-0.3,0.1-0.6,0.1-0.9c-0.1-0.3-0.3-0.5-0.6-0.7c-0.3-0.2-0.6-0.3-0.9-0.4c-0.3-0.1-0.6-0.2-1-0.2
	C36.1,45,35.2,45,34.4,45c-0.8,0-1.6,0-2.5,0c-0.1,0-0.1,0-0.2,0.1c-0.1,0-0.1,0.1-0.1,0.1c0,0.1,0,0.2,0,0.2c0,0.1,0,0.1,0.1,0.1
	c0.1,0.1,0.1,0.1,0.2,0.1c0.1,0,0.1,0,0.2,0.1c0,0-0.1,0-0.1,0.1c-0.2,0.2-0.2,0.4-0.2,0.5c0,0.2,0.2,0.2,0.4,0.2h0.1
	c0,0,0.1,0,0.1,0c0,0,0,0.1,0,0.1c0,0.2,0,0.3,0.1,0.4c0.1,0.1,0.2,0.1,0.4,0.1c0.1,0,0.1,0,0.2,0s0.1,0,0.1,0
	c0,0.1-0.1,0.1-0.1,0.2c0,0,0,0.1,0,0.1c-0.1,0.2-0.1,0.3,0,0.4c0.1,0.1,0.2,0.2,0.4,0.2c0.1,0,0.2,0,0.3,0s0.2,0,0.3,0
	c0,0.2,0,0.3-0.1,0.4c-0.1,0.1,0,0.3,0.2,0.4c0.2,0.2,0.4,0.2,0.5,0.1c0.1-0.1,0.3-0.2,0.5-0.3c0,0.2,0,0.3,0,0.4
	c0,0.1,0.1,0.2,0.3,0.3c0.2,0,0.3,0,0.4,0c0.1,0,0.3-0.1,0.4-0.1C36.4,49.6,36.4,49.7,36.4,49.7z M34.5,50c-0.1-0.1-0.2-0.1-0.3,0
	c-0.2,0.1-0.3,0.1-0.5,0.2c-0.2,0.1-0.3,0.1-0.4,0.2c-0.2,0.1-0.4,0.2-0.6,0.3c-0.2,0.1-0.4,0.3-0.5,0.4c-0.1,0.1-0.1,0.2-0.1,0.3
	c0,0.1,0,0.2,0.1,0.3c0.1,0,0.1,0.1,0.2,0.1c0.1,0,0.1,0.1,0.3,0.1c0.4-0.1,0.7-0.3,0.9-0.5c0.3-0.2,0.5-0.4,0.7-0.7
	c0.1,0,0.1-0.1,0.2-0.1s0.1-0.1,0.1-0.2C34.6,50.1,34.5,50,34.5,50z M34.1,52.5c0.1,0,0.2-0.1,0.3-0.1c0.1,0,0.2,0,0.2-0.1
	c0.2-0.2,0.4-0.3,0.6-0.5c0.2-0.2,0.4-0.3,0.6-0.5c0-0.1,0.1-0.2,0.1-0.3c0-0.1,0-0.2-0.1-0.3c-0.1-0.1-0.2-0.1-0.3-0.1
	c-0.1,0-0.2,0-0.3,0.1c-0.1,0-0.2,0.1-0.4,0.2c-0.1,0.1-0.3,0.2-0.4,0.2c-0.2,0.1-0.3,0.2-0.4,0.3c-0.1,0.1-0.2,0.2-0.4,0.3
	c-0.2,0.2-0.2,0.3-0.2,0.4c0,0.1,0.2,0.2,0.4,0.3c0,0,0.1,0,0.1,0C34,52.5,34.1,52.5,34.1,52.5L34.1,52.5z M33.7,59.1
	c0.2,0.3,0.3,0.6,0.5,0.9c0.2,0.4,0.3,0.7,0.5,1c0.5,1,1.2,1.9,2,2.7c0.8,0.8,1.6,1.5,2.6,2.1c0.5,0.3,0.9,0.6,1.4,0.9
	c0.5,0.3,1,0.5,1.6,0.7c0.2,0.1,0.3,0.1,0.3,0.1c0.1,0,0.1-0.1,0.1-0.3c0,0,0-0.1,0-0.1c0,0,0,0,0-0.1c0,0,0-0.1,0-0.1
	c0,0,0-0.1-0.1-0.1c-0.3-0.1-0.5-0.2-0.8-0.4c-0.3-0.1-0.5-0.3-0.7-0.4c-1-0.6-2-1.2-2.8-2c-0.9-0.7-1.6-1.6-2.3-2.6
	c-0.3-0.4-0.5-0.7-0.7-1.1c-0.2-0.4-0.4-0.8-0.6-1.3c0,0-0.1-0.1-0.1-0.1c0-0.1-0.1-0.1-0.1-0.1c-0.2,0-0.3,0-0.4,0
	c-0.1,0-0.2,0-0.3,0V59.1z M37.3,55.2c-0.2,0-0.3-0.1-0.4-0.1c-0.1,0-0.2-0.1-0.4-0.1c0,0-0.1,0-0.1,0c0,0-0.1,0-0.1,0.1
	c-0.4,0.4-0.8,0.7-1.1,1.1c-0.4,0.4-0.7,0.7-1.1,1.1c-0.1,0.1-0.2,0.2-0.2,0.4c0,0.2,0,0.3,0.1,0.4c0.1,0.1,0.2,0.2,0.3,0.2
	c0.1,0,0.3,0,0.4-0.1c0.5-0.2,1-0.5,1.3-0.9c0.4-0.4,0.7-0.8,1-1.3c0.1-0.1,0.1-0.2,0.2-0.2C37.2,55.4,37.2,55.3,37.3,55.2
	L37.3,55.2z M35.9,58.7L35.9,58.7l-0.1,0.1c-0.2,0-0.3,0.1-0.5,0.1c-0.2,0-0.3,0.1-0.5,0.2c0,0-0.1,0-0.1,0.1c0,0.1,0,0.1,0,0.1
	c0.1,0.2,0.1,0.4,0.2,0.5c0.1,0.1,0.1,0.3,0.1,0.4c0.5,0.9,1,1.7,1.7,2.5c0.7,0.8,1.4,1.4,2.2,2c0.5,0.4,1.1,0.8,1.7,1.2
	s1.2,0.6,1.8,0.9c0.1,0.1,0.2,0.1,0.2,0.1c0,0,0.1-0.1,0.1-0.2c0.3-0.5,0.6-1,0.9-1.5c0.3-0.5,0.6-1,0.8-1.5c0-0.1,0.1-0.1,0.1-0.1
	c0,0,0,0-0.1-0.1c-0.2-0.1-0.4-0.2-0.6-0.2c-0.2-0.1-0.4-0.2-0.6-0.3c-0.9-0.4-1.7-0.9-2.4-1.5c-0.7-0.6-1.4-1.2-1.9-2
	c-0.1-0.1-0.1-0.1-0.2-0.1c0,0-0.1,0-0.2,0c-0.2,0-0.4,0.1-0.6,0.1c-0.2,0-0.3,0.1-0.5,0.1c-0.3,0-0.6,0-0.9-0.1
	c-0.3-0.1-0.5-0.3-0.7-0.6C36,58.7,36,58.7,35.9,58.7L35.9,58.7z M35.9,53.4c0.1,0,0.1,0,0.1-0.1c0.1-0.1,0.2-0.2,0.2-0.2
	c0.1-0.1,0.2-0.2,0.2-0.2c0.1-0.2,0.2-0.4,0.4-0.6c0.1-0.2,0.3-0.4,0.4-0.6c0,0,0-0.1,0-0.2c0-0.1,0-0.2-0.1-0.3
	c0,0-0.1-0.1-0.2-0.1c-0.1,0-0.2,0-0.2,0c-0.4,0.1-0.7,0.3-1,0.6c-0.3,0.3-0.6,0.5-0.8,0.8c-0.1,0.2-0.1,0.4,0,0.6
	c0.1,0.2,0.3,0.3,0.6,0.4C35.7,53.5,35.8,53.4,35.9,53.4z M37.5,58.6c0.1,0,0.2,0,0.4-0.1c0.1,0,0.2-0.1,0.3-0.2
	c0,0,0.1-0.1,0.1-0.1c0-0.1,0-0.1,0-0.2c-0.1-0.2-0.1-0.5-0.2-0.7c-0.1-0.2-0.1-0.4-0.2-0.7c0-0.1-0.1-0.1-0.1-0.1
	c0,0-0.1,0-0.1,0.1c-0.2,0.2-0.3,0.3-0.5,0.5c-0.2,0.2-0.3,0.3-0.5,0.5c-0.1,0.1-0.1,0.2-0.1,0.3c0,0.1,0,0.2,0.1,0.3
	c0.1,0.2,0.3,0.3,0.4,0.3C37.2,58.5,37.4,58.6,37.5,58.6L37.5,58.6z M37.2,54c0.1,0,0.2,0,0.4-0.1c0.1-0.1,0.2-0.2,0.2-0.3
	c0.1-0.2,0.1-0.4,0.2-0.6c0.1-0.2,0.1-0.4,0.2-0.7c0,0,0-0.1,0-0.1c0-0.1,0-0.1,0-0.1c0,0-0.1,0-0.1,0s-0.1,0-0.1,0c0,0-0.1,0-0.1,0
	c0,0,0,0-0.1,0.1c-0.2,0.2-0.4,0.3-0.6,0.5c-0.2,0.2-0.3,0.5-0.4,0.8c0,0.1,0,0.3,0.1,0.4C36.9,53.8,37,53.9,37.2,54L37.2,54z
	 M40,49.4L40,49.4h0.1c0,0,0.1,0,0.1-0.1c0.2-0.2,0.5-0.4,0.7-0.6c0.2-0.2,0.4-0.3,0.6-0.5c0.7-0.5,1.3-0.9,2.1-1.2
	c0.7-0.3,1.4-0.6,2.2-0.8c0.5-0.1,0.9-0.2,1.4-0.3c0.5-0.1,1-0.2,1.5-0.2c0.7-0.1,1.5-0.1,2.3-0.1c0.8,0,1.5,0.1,2.3,0.2
	c0.6,0.1,1.2,0.3,1.9,0.4c0.6,0.2,1.2,0.4,1.8,0.7c0.7,0.3,1.4,0.6,2,1.1c0.6,0.4,1.2,0.9,1.7,1.5c0.1,0.1,0.2,0.2,0.3,0.4
	c0.1,0.1,0.2,0.2,0.4,0.3c0-0.1,0-0.1,0-0.2s0-0.1,0-0.2c-0.2-0.5-0.4-1.1-0.6-1.5c-0.3-0.5-0.6-0.9-1.1-1.3
	c-0.2-0.2-0.5-0.3-0.7-0.5s-0.5-0.4-0.6-0.6c-0.1-0.1-0.2-0.2-0.3-0.3c-0.1-0.1-0.1-0.3-0.2-0.4c-0.1-0.2-0.1-0.5,0-0.7
	c0.1-0.2,0.1-0.4,0.2-0.6c0-0.1,0.1-0.2,0.1-0.3c0.1-0.1,0.1-0.2,0.1-0.3c-0.1,0-0.2-0.1-0.3-0.1c-0.1-0.1-0.2-0.1-0.3-0.1
	c-0.4-0.1-0.9-0.2-1.3-0.4c-0.4-0.1-0.9-0.3-1.3-0.4c-0.5-0.2-1-0.3-1.6-0.4c-0.5-0.1-1.1-0.1-1.6-0.2c-0.6,0-1.2,0-1.8,0
	s-1.2,0-1.8,0c-0.5,0-1.1,0.1-1.7,0.2c-0.6,0.1-1.1,0.3-1.7,0.4c-0.3,0.1-0.6,0.2-1,0.3c-0.3,0.1-0.7,0.2-1,0.4
	c-0.1,0-0.1,0.1-0.1,0.1c0,0,0,0.1,0.1,0.1c0.1,0.1,0.2,0.2,0.2,0.4c0.1,0.1,0.1,0.2,0.1,0.4c0.2,0.4,0.2,0.7,0.2,1
	c0,0.3-0.2,0.6-0.6,1c-0.1,0.1-0.2,0.2-0.4,0.3c-0.1,0.1-0.2,0.2-0.4,0.3c-0.4,0.3-0.7,0.6-1,0.9c-0.3,0.3-0.6,0.7-0.8,1.1
	c-0.1,0.2-0.1,0.4-0.1,0.5C40.2,49.1,40.2,49.2,40,49.4L40,49.4z M42.5,44.7c0,0.3-0.1,0.6-0.2,0.8c-0.2,0.2-0.3,0.4-0.5,0.5
	c-0.1,0-0.1,0-0.2,0c0,0,0-0.1,0-0.1c0,0,0-0.1,0-0.1c0.1-0.1,0.2-0.2,0.4-0.3c0.1-0.1,0.2-0.3,0.2-0.4c0-0.1,0-0.2,0-0.4
	c0-0.1-0.1-0.2-0.2-0.3c-0.1-0.1-0.2-0.2-0.4-0.3c-0.1-0.1-0.3-0.2-0.4-0.3c0,0,0-0.1,0-0.1c0,0,0-0.1-0.1-0.1c0,0,0.1,0,0.1,0
	c0,0,0.1,0,0.1,0c0.2,0.1,0.3,0.2,0.4,0.3c0.1,0.1,0.3,0.2,0.4,0.3c0.1,0.1,0.2,0.2,0.3,0.3S42.5,44.7,42.5,44.7L42.5,44.7z
	 M41.8,42.7c0.1,0.1,0.2,0.1,0.3,0.2c0.1,0,0.2,0.1,0.3,0.1c0,0,0.1,0,0.1,0s0.1,0,0.2,0c0.6-0.3,1.3-0.5,2-0.7
	c0.7-0.2,1.4-0.4,2-0.5c0.6-0.1,1.2-0.2,1.8-0.3c0.6-0.1,1.2-0.1,1.8-0.1c0.7,0,1.3,0,2,0.1s1.3,0.1,1.8,0.3
	c0.4,0.2,0.9,0.3,1.3,0.4c0.4,0.1,0.8,0.2,1.2,0.4c0.2,0,0.5,0.1,0.7,0.2s0.4,0.2,0.6,0.3c0.2,0,0.4,0,0.5,0
	c0.2-0.1,0.3-0.2,0.5-0.3c-2.9-1.2-5.8-1.9-8.6-1.9c-2.9,0-5.7,0.6-8.6,1.8C41.8,42.7,41.8,42.7,41.8,42.7z M42.7,67.7
	c0,0.1,0,0.2,0.1,0.4s0.1,0.2,0.3,0.3c0.3,0.2,0.6,0.3,0.9,0.3c0.3-0.1,0.5-0.3,0.6-0.6c0.2-0.4,0.4-0.7,0.5-1.1
	c0.1-0.4,0.3-0.7,0.4-1.1c0.1-0.3,0.2-0.5,0.3-0.8c0.1-0.3,0.2-0.5,0.3-0.8c0-0.1,0-0.2,0-0.3c0-0.1-0.1-0.1-0.3-0.1
	c-0.1,0-0.2,0-0.3-0.1c-0.1,0-0.2-0.1-0.3-0.1c-0.1,0-0.2,0-0.2,0c-0.1,0-0.1,0.1-0.2,0.1c-0.3,0.5-0.5,0.9-0.8,1.4
	c-0.3,0.5-0.5,0.9-0.8,1.4c-0.1,0.2-0.2,0.3-0.4,0.5C42.7,67.2,42.7,67.5,42.7,67.7L42.7,67.7z M52.2,61.3c0.7-0.1,1.4-0.3,2-0.6
	c0.4-0.2,0.7-0.3,1-0.6c0.3-0.2,0.6-0.5,0.8-0.8c0.3-0.5,0.4-0.9,0.5-1.4s0-1-0.3-1.5c-0.2-0.4-0.5-0.7-0.9-1
	c-0.4-0.3-0.7-0.5-1.2-0.7c0,0-0.1,0-0.1-0.1s-0.1-0.1-0.1-0.1c0,0,0.1-0.1,0.1-0.1c0-0.1,0-0.1,0.1-0.1c0.3-0.2,0.6-0.4,0.8-0.7
	c0.2-0.3,0.4-0.6,0.6-0.9c0.1-0.2,0.2-0.5,0.3-0.7c0.1-0.3,0-0.5,0-0.7c-0.1-0.4-0.2-0.8-0.5-1.1c-0.2-0.3-0.5-0.6-0.9-0.8
	c-0.5-0.4-1.1-0.6-1.7-0.8c-0.6-0.2-1.2-0.3-1.8-0.3c-0.7,0-1.3,0-2,0c-0.7,0.1-1.3,0.2-1.9,0.4c-0.4,0.1-0.8,0.3-1.2,0.4
	c-0.4,0.2-0.7,0.4-1.1,0.6c-0.2,0.1-0.2,0.2-0.2,0.2c0,0,0.1,0.1,0.2,0.2s0.2,0.3,0.3,0.4c0.1,0.2,0.1,0.3,0.1,0.5
	c0,1.2,0,2.3,0,3.5s0,2.4,0,3.6c0,0.3,0,0.5-0.1,0.8s-0.2,0.5-0.3,0.6c0,0.1-0.1,0.1-0.1,0.2s0.1,0.1,0.2,0.1
	c0.4,0.3,0.9,0.5,1.3,0.7c0.5,0.2,0.9,0.4,1.4,0.5c0.5,0.2,0.9,0.3,1.4,0.4c0.4,0,0.9,0.1,1.3,0.1C50.8,61.5,51.5,61.4,52.2,61.3z
	 M45.8,69.2c0.2,0,0.3,0,0.4-0.1c0.1-0.1,0.2-0.2,0.3-0.4c0.1-0.2,0.1-0.3,0.2-0.5c0-0.2,0.1-0.3,0.1-0.5c0.2-0.5,0.3-1.1,0.4-1.7
	c0.1-0.6,0.3-1.1,0.4-1.7c0-0.1,0-0.1,0-0.1c0,0-0.1,0-0.1-0.1c-0.2,0-0.3,0-0.4,0c-0.1,0-0.3,0-0.4-0.1c-0.1-0.1-0.2-0.1-0.3,0
	c-0.1,0.1-0.1,0.1-0.1,0.2c0,0.2-0.1,0.3-0.1,0.4c-0.1,0.1-0.1,0.3-0.2,0.4c-0.2,0.5-0.4,0.9-0.6,1.4c-0.2,0.5-0.4,0.9-0.5,1.4
	c-0.2,0.4-0.1,0.7,0.1,0.9C45.2,69.1,45.5,69.3,45.8,69.2L45.8,69.2z M49.3,64.9c0,0,0-0.1,0-0.1c0-0.1,0-0.1,0-0.2
	c0-0.1,0-0.1-0.1-0.2c0,0-0.1-0.1-0.2-0.1c-0.2,0-0.3,0-0.4,0c-0.1,0-0.2,0-0.4,0c-0.1,0-0.2,0-0.3,0c-0.1,0-0.1,0.1-0.1,0.2
	c0,0.2-0.1,0.3-0.1,0.4c0,0.1,0,0.3-0.1,0.4c-0.1,0.4-0.2,0.9-0.3,1.3c-0.1,0.4-0.2,0.9-0.3,1.3c0,0.1,0,0.2-0.1,0.4
	c0,0.1-0.1,0.2-0.1,0.4c0,0.2,0.1,0.4,0.1,0.5s0.2,0.2,0.4,0.4c0.2,0,0.3,0.1,0.5,0.1s0.3,0,0.5-0.1c0.2-0.1,0.3-0.2,0.3-0.4
	c0.1-0.1,0.1-0.3,0.1-0.5c0.1-0.5,0.1-1.1,0.2-1.8S49.2,65.5,49.3,64.9L49.3,64.9z M50.3,49.8c0.5,0,0.9,0.1,1.2,0.4
	c0.3,0.3,0.6,0.7,0.7,1.1c0.1,0.4,0.1,0.7,0,1c-0.1,0.3-0.2,0.6-0.4,0.9c-0.4,0.5-0.9,0.8-1.6,0.7S49,53.6,48.7,53
	c-0.1-0.3-0.2-0.5-0.3-0.8c-0.1-0.3-0.1-0.5-0.1-0.8c0.1-0.5,0.3-0.9,0.6-1.2C49.3,49.9,49.8,49.7,50.3,49.8L50.3,49.8z M50.6,59.8
	c-0.6,0-1.2-0.2-1.6-0.6c-0.4-0.4-0.6-0.9-0.6-1.5c0-0.6,0.1-1.2,0.6-1.6c0.4-0.4,0.9-0.7,1.6-0.7c0.6,0,1.2,0.2,1.6,0.6
	c0.4,0.4,0.6,1,0.6,1.6c0,0.6-0.2,1.1-0.6,1.6C51.7,59.6,51.2,59.8,50.6,59.8L50.6,59.8z M49.3,68.3L49.3,68.3
	c-0.1,0.1-0.1,0.2-0.1,0.2c0,0.1,0,0.2,0,0.2c0,0.2,0,0.3,0.1,0.5c0.1,0.2,0.2,0.3,0.4,0.4c0.4,0.2,0.8,0.1,1.1-0.1
	c0.3-0.2,0.4-0.5,0.4-1c0-0.7-0.1-1.3-0.1-2s-0.1-1.3-0.1-1.9c0-0.1,0-0.2-0.1-0.2c0,0-0.1,0-0.2,0c-0.2,0-0.3,0-0.4,0
	c-0.1,0-0.3,0-0.4,0c-0.1,0-0.2,0-0.2,0c0,0.1-0.1,0.1-0.1,0.2c0,0.7,0,1.3-0.1,1.9S49.3,67.7,49.3,68.3L49.3,68.3z M53.5,68.5
	c0-0.1-0.1-0.3-0.1-0.5c0-0.2-0.1-0.4-0.1-0.6c-0.1-0.5-0.2-1-0.4-1.5s-0.2-1-0.4-1.5c0,0,0-0.1-0.1-0.1c0,0-0.1,0-0.2,0
	c-0.1,0-0.2,0-0.4,0c-0.1,0-0.3,0-0.4,0.1c-0.2,0-0.3,0-0.3,0.1c0,0,0,0.1,0,0.2c0,0.6,0.1,1.2,0.1,1.8c0,0.6,0.1,1.3,0.1,2
	c0,0,0,0.1,0,0.2c0,0.1,0,0.2,0.1,0.3c0.1,0.3,0.2,0.5,0.4,0.6c0.2,0.1,0.4,0.1,0.6,0.1c0.3-0.1,0.5-0.2,0.6-0.3
	C53.3,69.2,53.4,68.9,53.5,68.5L53.5,68.5z M54.7,69.2c0.3,0,0.5-0.1,0.7-0.2c0.2-0.1,0.3-0.3,0.3-0.6c0-0.2,0-0.4-0.1-0.5
	c-0.1-0.2-0.1-0.3-0.1-0.5c-0.2-0.5-0.5-1.1-0.7-1.6c-0.2-0.5-0.4-1.1-0.7-1.6c0,0-0.1-0.1-0.1-0.1c-0.1,0-0.1-0.1-0.1-0.1
	c-0.1,0-0.2,0.1-0.4,0.1c-0.1,0-0.3,0-0.4,0.1c-0.1,0-0.2,0-0.2,0.1c0,0.1,0,0.1,0,0.3c0.2,0.7,0.3,1.3,0.4,1.9
	c0.1,0.6,0.3,1.3,0.5,1.9c0,0.2,0.1,0.4,0.3,0.6S54.4,69.3,54.7,69.2L54.7,69.2z M57.7,67.3c0-0.1-0.1-0.3-0.2-0.4
	c-0.3-0.5-0.6-1-0.9-1.6c-0.3-0.5-0.6-1.1-0.9-1.6c0-0.1-0.1-0.1-0.1-0.1c-0.1,0-0.1,0-0.2,0c-0.1,0-0.2,0.1-0.4,0.1
	c-0.1,0-0.2,0.1-0.4,0.1c-0.2,0-0.2,0-0.3,0.1c0,0.1,0,0.1,0,0.3c0.2,0.5,0.4,1,0.6,1.5c0.2,0.5,0.4,0.9,0.6,1.4
	c0.1,0.3,0.2,0.5,0.3,0.7c0.1,0.2,0.2,0.4,0.3,0.6c0.1,0.2,0.3,0.3,0.5,0.3c0.2,0,0.4,0,0.6-0.1c0.2,0,0.3-0.1,0.4-0.3
	c0.1-0.2,0.2-0.3,0.2-0.5C57.8,67.6,57.8,67.4,57.7,67.3z M61.8,59c0,0-0.1,0.1-0.1,0.1c0,0-0.1,0.1-0.1,0.1
	c-0.4,0.6-0.9,1.2-1.5,1.7c-0.6,0.5-1.2,1-1.8,1.3c-0.4,0.2-0.8,0.4-1.1,0.6c-0.4,0.2-0.8,0.3-1.1,0.5c-0.1,0.1-0.2,0.1-0.2,0.2
	c0,0,0,0.1,0.1,0.2c0.1,0.2,0.2,0.3,0.4,0.5c0.1,0.2,0.3,0.4,0.4,0.6c0.2,0.3,0.3,0.6,0.5,0.9c0.2,0.3,0.4,0.6,0.5,0.9
	c0,0.1,0.1,0.1,0.1,0.2c0,0,0.1,0,0.2,0c0.5-0.2,1-0.5,1.5-0.8c0.5-0.3,1-0.6,1.4-0.9c0.9-0.6,1.6-1.3,2.3-2
	c0.7-0.7,1.3-1.6,1.8-2.5c0.2-0.2,0.3-0.5,0.4-0.8c0.1-0.3,0.2-0.5,0.4-0.8c0,0,0-0.1-0.1-0.2c-0.1,0-0.2-0.1-0.2-0.1
	c-0.1,0-0.2,0-0.2-0.1c-0.1,0-0.1,0-0.2,0c0,0-0.1,0-0.1,0.1c-0.1,0.2-0.2,0.3-0.4,0.4c-0.1,0.1-0.3,0.2-0.5,0.2c-0.3,0-0.6,0-0.9,0
	c-0.3,0-0.6-0.1-0.9-0.2c-0.2,0-0.3-0.1-0.4-0.1C61.9,59,61.8,59,61.8,59L61.8,59z M58.1,67.8c2-0.9,3.8-2.1,5.3-3.5
	c1.5-1.4,2.6-3.2,3.4-5.3c-0.1,0-0.2,0-0.3,0c-0.1,0-0.2,0-0.3,0c0,0-0.1,0-0.2,0.1c-0.4,0.9-0.8,1.7-1.3,2.5
	c-0.5,0.8-1.1,1.5-1.8,2.1c-0.7,0.7-1.5,1.3-2.3,1.8s-1.7,1-2.6,1.4c0,0-0.1,0.1-0.1,0.1c0,0,0,0.1,0,0.2c0,0,0,0.1,0.1,0.2
	C58.1,67.5,58.1,67.6,58.1,67.8L58.1,67.8z M62.7,50.5c0.1-0.2,0.1-0.4,0.1-0.6c0,0,0-0.1-0.1-0.2c0-0.1-0.1-0.2-0.1-0.2
	c-0.2-0.4-0.4-0.7-0.6-1.1c-0.2-0.4-0.4-0.7-0.6-1.1c-0.2-0.4-0.2-0.7-0.1-0.9c0.1-0.3,0.2-0.5,0.6-0.8c0.4-0.3,0.7-0.5,1.2-0.6
	c0.4-0.1,0.9-0.2,1.3-0.2c0.9,0,1.9-0.1,2.8-0.1c1,0,1.9,0,2.9-0.1c0.4,0,0.8,0,1.2,0c0.4,0,0.8-0.1,1.2-0.1c0.5-0.1,1-0.2,1.5-0.3
	c0.5-0.1,1-0.2,1.5-0.3c0.6-0.2,1.2-0.3,1.8-0.4c0.6-0.1,1.2-0.3,1.8-0.4c0.1,0,0.1,0,0.2-0.1c0,0,0.1-0.1,0.1-0.1v-0.1v-0.1
	c0,0-0.1,0-0.1,0c0,0-0.1,0-0.1,0c-0.4,0-0.9,0-1.3,0c-0.4,0-0.9,0-1.3,0c-0.6,0-1.2,0.1-1.8,0.1c-0.6,0-1.2,0.1-1.8,0.1
	c-0.9,0-1.7-0.1-2.5-0.1c-0.8,0-1.7-0.1-2.5-0.1c-1,0-2-0.1-3-0.1c-1,0-2,0-3,0.1c-0.5,0.1-0.9,0.2-1.3,0.2
	c-0.4,0.1-0.9,0.2-1.3,0.4c-0.4,0.2-0.7,0.6-0.8,1c-0.1,0.4,0,0.8,0.3,1.1c0.2,0.2,0.5,0.4,0.7,0.6c0.3,0.2,0.5,0.4,0.7,0.6
	c0.6,0.4,1.1,0.9,1.4,1.5s0.6,1.3,0.6,2.1c0,0.1,0,0.2,0,0.3c0,0.1,0,0.1,0,0.2C62.3,50.8,62.5,50.7,62.7,50.5z M58.7,44.3
	c0.1-0.1,0.2-0.2,0.4-0.3c0.1-0.1,0.2-0.2,0.4-0.2c0.1-0.1,0.2-0.2,0.4-0.2c0,0,0.1,0,0.1,0c0,0,0.1,0,0.1,0c0,0,0,0.1-0.1,0.2
	c-0.1,0.1-0.2,0.1-0.3,0.2c-0.1,0.1-0.2,0.1-0.3,0.2c-0.3,0.2-0.5,0.4-0.4,0.7c0,0.3,0.1,0.5,0.3,0.7c0,0.1,0.1,0.1,0.2,0.2
	c0.1,0.1,0.1,0.1,0.2,0.1c0,0,0,0,0,0.1c-0.1,0-0.1,0-0.1,0c-0.2,0-0.4-0.1-0.6-0.4c-0.2-0.3-0.3-0.5-0.3-0.7
	C58.6,44.6,58.6,44.5,58.7,44.3z M68.9,45.8c0,0,0.1-0.1,0.1-0.1c0.2,0,0.3,0,0.4-0.1c0.1-0.1,0.1-0.2,0.1-0.3
	c0-0.1-0.1-0.2-0.1-0.2c-0.1,0-0.2-0.1-0.4-0.1c-0.5,0-1.1,0-1.7,0c-0.6,0-1.1,0-1.7,0c-0.5,0-1.1,0-1.6,0.1c-0.5,0.1-1,0.3-1.5,0.5
	c-0.4,0.2-0.7,0.5-0.8,0.8c-0.1,0.4-0.1,0.8,0.1,1.2c0.2,0.5,0.5,1,0.9,1.4c0.4,0.4,0.8,0.8,1.2,1.2c0.1,0.1,0.2,0.1,0.3,0.1
	c0.1,0,0.2,0,0.2-0.1c0.1-0.1,0.1-0.2,0.1-0.2c0-0.1,0-0.2,0-0.3c0-0.1,0-0.1-0.1-0.1c0.2,0,0.3,0,0.5,0.1c0.2,0,0.3,0,0.4,0
	c0.2,0,0.3-0.1,0.3-0.3c0-0.2,0-0.3,0-0.5c0.1,0.1,0.1,0.1,0.2,0.1c0.1,0,0.1,0,0.1,0c0.1,0,0.2,0,0.4,0s0.2,0,0.3,0
	c0.1,0,0.1-0.1,0.1-0.2s0-0.2,0-0.4c0,0-0.1-0.1-0.1-0.1c0,0,0-0.1,0-0.2c0.1,0,0.2,0,0.2,0.1c0.1,0,0.2,0,0.2,0
	c0.2,0,0.3,0,0.4-0.1c0.1-0.1,0-0.2,0-0.4c0-0.1,0-0.2,0-0.2c0,0,0.1,0,0.2,0c0.3,0,0.5-0.1,0.6-0.2c0.1-0.1,0.1-0.3,0.1-0.5
	c0.1,0,0.2-0.1,0.4-0.1c0.1,0,0.2-0.1,0.3-0.2c0.2-0.1,0.2-0.2,0.1-0.4C69.1,46,69.1,45.8,68.9,45.8L68.9,45.8z M63.1,56
	c-0.1,0.2-0.2,0.3-0.3,0.5s-0.1,0.3-0.2,0.5c-0.2,0.2-0.2,0.5-0.1,0.6c0.1,0.2,0.2,0.4,0.4,0.6c0.2,0.3,0.5,0.4,0.8,0.4
	c0.3-0.1,0.5-0.2,0.7-0.4c0.1-0.1,0.1-0.2,0.1-0.4c0-0.1,0-0.2-0.1-0.4c-0.2-0.2-0.4-0.5-0.6-0.7C63.5,56.5,63.3,56.2,63.1,56
	L63.1,56z M64.4,53.3c0,0,0-0.1-0.1-0.1c-0.1-0.3-0.2-0.5-0.4-0.7c-0.2-0.2-0.4-0.4-0.7-0.6c0,0-0.1,0-0.2,0c-0.1,0-0.1,0.1-0.1,0.1
	c0,0-0.1,0.1-0.1,0.2c0,0.1,0,0.2,0,0.2c0,0.2,0.1,0.3,0.2,0.5c0.1,0.2,0.2,0.4,0.3,0.5c0,0.1,0.1,0.1,0.1,0.2
	c0,0.1,0.1,0.1,0.1,0.1c0.1,0.1,0.2,0.1,0.3,0.2c0.1,0,0.2,0,0.3-0.1c0.1-0.1,0.2-0.2,0.3-0.3c0.1-0.1,0.1-0.2,0.1-0.3
	C64.4,53.4,64.4,53.3,64.4,53.3z M65.8,53.4c0.1-0.1,0.2-0.1,0.2-0.3c0.1-0.1,0.1-0.2,0.1-0.4c0-0.1-0.1-0.2-0.1-0.4
	c-0.2-0.2-0.4-0.4-0.6-0.6c-0.2-0.2-0.5-0.4-0.7-0.5c-0.2-0.1-0.3-0.1-0.4-0.1c-0.1,0-0.2,0-0.3,0.1c-0.1,0.1-0.1,0.2-0.1,0.4
	c0,0.1,0.1,0.2,0.2,0.3c0.2,0.3,0.3,0.5,0.5,0.7c0.2,0.2,0.4,0.4,0.6,0.6c0,0.1,0,0.1,0.1,0.1c0.1,0,0.2,0,0.2,0.1
	C65.6,53.5,65.7,53.5,65.8,53.4z M66.8,58.3c0,0,0.1-0.1,0.2-0.1c0.1,0,0.1-0.1,0.2-0.1c0.1-0.1,0.2-0.3,0.1-0.4
	c0-0.2-0.1-0.3-0.3-0.5c-0.3-0.3-0.6-0.6-1-1c-0.3-0.3-0.7-0.7-1-1c-0.1-0.1-0.2-0.2-0.3-0.2c-0.1,0-0.2,0-0.3,0.1
	c-0.1,0-0.1,0.1-0.2,0.1c0,0-0.1,0-0.2,0c-0.1,0-0.1,0-0.1,0.1c0,0.1,0,0.1,0,0.1c0.2,0.5,0.6,1,1,1.5c0.4,0.4,0.8,0.8,1.3,1.1
	c0.1,0.1,0.2,0.1,0.3,0.1C66.5,58.1,66.6,58.2,66.8,58.3L66.8,58.3z M65.8,50.7c-0.2,0-0.3,0-0.4,0.1s-0.1,0.1-0.1,0.3
	c0,0.1,0,0.2,0.1,0.3c0,0.1,0.1,0.2,0.1,0.2c0.1,0.1,0.2,0.2,0.4,0.4s0.3,0.2,0.4,0.3c0.1,0.1,0.2,0.2,0.3,0.2c0.1,0,0.3,0,0.4,0
	c0.1,0,0.2,0,0.3-0.1c0.1,0,0.2-0.1,0.3-0.2c0,0,0.1,0,0.1-0.1c0-0.1,0-0.2-0.1-0.2c0-0.1-0.1-0.1-0.1-0.2c0,0-0.1-0.1-0.2-0.2
	c-0.1-0.1-0.3-0.2-0.4-0.3c-0.2-0.1-0.3-0.2-0.4-0.3c-0.1,0-0.2,0-0.3-0.1S65.9,50.7,65.8,50.7L65.8,50.7z M65.6,54.6
	c0,0,0,0.1,0,0.1c0.5,0.7,1,1.2,1.6,1.7c0.6,0.5,1.3,0.8,2.1,1.1c0.2,0.1,0.3,0.1,0.5,0.1c0.2,0,0.4,0,0.6,0c0.1,0,0.2,0,0.2-0.1
	c0.1,0,0.1-0.1,0.1-0.1c0,0,0-0.1,0-0.2c0-0.1,0-0.1-0.1-0.2c0-0.1-0.1-0.1-0.1-0.2s-0.1-0.1-0.2-0.1c-0.6-0.4-1.2-0.8-1.8-1.2
	c-0.6-0.4-1.2-0.8-1.8-1.2c0,0-0.1-0.1-0.1-0.1s-0.1,0-0.1,0c-0.2,0.1-0.3,0.2-0.4,0.3C65.9,54.6,65.7,54.6,65.6,54.6L65.6,54.6z
	 M69,51.2c0,0-0.1-0.1-0.1-0.2c-0.1-0.1-0.1-0.1-0.1-0.2c-0.3-0.2-0.6-0.4-0.9-0.6c-0.3-0.1-0.6-0.3-0.9-0.4c0,0-0.1,0-0.2,0.1
	c-0.1,0-0.1,0.1-0.1,0.1c0,0.1,0,0.2,0,0.3c0,0.1,0,0.2,0.1,0.2c0.2,0.3,0.5,0.6,0.8,0.8c0.3,0.2,0.6,0.4,0.9,0.5
	c0.2,0,0.3-0.1,0.4-0.2S68.9,51.4,69,51.2L69,51.2z M67.4,53.8C67.4,53.8,67.5,53.9,67.4,53.8c0.1,0.1,0.1,0.1,0.1,0.2
	c0.5,0.3,0.9,0.6,1.4,0.9c0.4,0.4,0.9,0.7,1.4,0.9c0.7,0.4,1.3,0.8,2,1c0.7,0.2,1.4,0.3,2.2,0.3c0.1,0,0.2,0,0.2,0
	c0.1,0,0.1,0,0.2-0.1c0.1,0,0.2-0.1,0.2-0.2c0.1-0.1,0.1-0.2,0.1-0.2c0-0.1,0-0.1-0.1-0.2c-0.1-0.1-0.2-0.1-0.2-0.1
	c-0.4-0.2-0.9-0.4-1.3-0.5c-0.4-0.1-0.8-0.3-1.2-0.5c-0.7-0.3-1.3-0.6-2-1s-1.3-0.7-1.9-1c0,0-0.1-0.1-0.2-0.1
	c-0.1,0.1-0.3,0.2-0.4,0.3C67.7,53.5,67.6,53.7,67.4,53.8L67.4,53.8z M67.9,49c0,0-0.1,0-0.1,0c-0.2,0-0.3,0-0.3,0.1
	c-0.1,0.1,0,0.2,0,0.4c0,0,0.1,0,0.1,0.1c0.3,0.2,0.6,0.5,0.9,0.6c0.3,0.2,0.7,0.4,1,0.5c0.2,0.1,0.4,0.1,0.5,0
	c0.2-0.1,0.3-0.1,0.4-0.3c0-0.2,0-0.3,0-0.5c0-0.2-0.1-0.3-0.3-0.4c-0.4-0.2-0.7-0.3-1.1-0.4c-0.4-0.1-0.7-0.2-1.1-0.2
	C68,49,68,49,67.9,49z M69.9,47.9C69.9,47.9,69.9,47.9,69.9,47.9c-0.1,0-0.1,0.1-0.1,0.1c0,0-0.1,0-0.1,0c-0.1,0-0.1,0-0.1,0
	c-0.2,0-0.3,0-0.4,0c-0.1,0-0.2,0.1-0.3,0.2c-0.1,0.1-0.1,0.2-0.1,0.4c0,0.1,0.1,0.2,0.3,0.4l0.1,0.1c0.2,0.2,0.5,0.3,0.8,0.4
	s0.6,0.1,0.9,0.1c0.1,0,0.2,0,0.4-0.1c0.1,0,0.2-0.1,0.2-0.2c0-0.1,0-0.2-0.1-0.3c-0.1-0.1-0.1-0.2-0.3-0.3c0,0,0-0.1-0.1-0.1
	c0,0-0.1,0-0.1-0.1c0,0-0.1,0-0.2-0.1c-0.1,0-0.1-0.1-0.2-0.1c0,0,0.1,0,0.1,0c0,0,0.1,0,0.2,0c0.2,0,0.3,0,0.4,0c0.1,0,0.3,0,0.5,0
	c0.2,0,0.3,0,0.4-0.1c0.1-0.1,0.1-0.2,0.1-0.3s0-0.2-0.1-0.3c-0.1-0.1-0.2-0.2-0.4-0.2c-0.2,0-0.5-0.1-0.7-0.1
	c-0.2,0-0.4-0.1-0.7-0.1c-0.2,0-0.3-0.1-0.4-0.1c-0.1,0-0.3,0-0.4,0c0,0-0.1,0-0.2,0.1c-0.1,0-0.1,0.1-0.1,0.1c0,0.1,0,0.1,0,0.2
	c0,0.1,0,0.1,0.1,0.2c0.1,0.1,0.1,0.1,0.2,0.1C69.7,47.8,69.8,47.8,69.9,47.9L69.9,47.9z M69.2,52.7c0.3,0.2,0.5,0.5,0.8,0.7
	c0.3,0.2,0.6,0.4,1,0.5c0.4,0.2,0.8,0.4,1.2,0.6c0.4,0.2,0.9,0.4,1.3,0.6c0.2,0.1,0.5,0.2,0.8,0.3c0.3,0.1,0.6,0.2,0.8,0.2
	c0.7,0.2,1.3,0.4,2,0.5c0.7,0.1,1.4,0.1,2.1,0c0.1,0,0.2,0,0.2-0.1c0.1,0,0.2-0.1,0.2-0.1c0.1,0,0.2-0.1,0.2-0.2
	c0-0.1-0.1-0.2-0.2-0.3c-0.1-0.1-0.2-0.1-0.2-0.2c-0.1,0-0.2-0.1-0.2-0.1c-0.4-0.1-0.8-0.2-1.1-0.4c-0.4-0.1-0.8-0.3-1.1-0.4
	c-0.3-0.1-0.6-0.2-0.9-0.3c-0.3-0.1-0.6-0.3-0.9-0.4c-0.3-0.1-0.5-0.2-0.8-0.3c-0.3-0.1-0.5-0.2-0.8-0.3c-0.5-0.2-1-0.5-1.5-0.7
	c-0.5-0.2-1-0.4-1.5-0.6c-0.1,0-0.1,0-0.2,0c-0.2,0.2-0.5,0.3-0.6,0.4c-0.2,0.1-0.4,0.3-0.5,0.4C69.1,52.7,69.1,52.7,69.2,52.7z
	 M72.2,47c0.1,0,0.1,0,0.2,0s0.1,0,0.2,0c0,0,0.1,0,0.1,0c0.1,0,0.1,0,0.1-0.1c0.1,0,0.2-0.1,0.3-0.2c0.1-0.1,0.1-0.2,0.1-0.3
	c0-0.1-0.1-0.2-0.2-0.3C73,46,72.9,46,72.8,46c-0.4,0-0.7-0.1-1.1-0.1c-0.4,0-0.7,0-1.1,0c-0.1,0-0.2,0-0.3,0
	c-0.1,0-0.2,0.1-0.2,0.1c0,0.1,0,0.2,0.1,0.3c0.1,0.1,0.2,0.2,0.3,0.2c0.2,0.2,0.5,0.3,0.8,0.4C71.6,46.9,71.8,47,72.2,47L72.2,47z
	 M71.9,44.8c-0.2,0-0.5,0-0.7,0.1c-0.1,0-0.1,0-0.2,0c-0.1,0-0.1,0-0.2,0.1c-0.1,0-0.1,0.1-0.1,0.1s0,0.1,0.1,0.2
	c0,0.1,0.1,0.1,0.1,0.1c0,0,0.1,0,0.1,0c0.2,0.1,0.3,0.1,0.5,0.2c0.2,0.1,0.4,0.1,0.5,0.1c0.2,0,0.4,0,0.6,0s0.4,0,0.6,0
	c0.1,0,0.2,0,0.3-0.1c0.1-0.1,0.1-0.2,0.1-0.3s0-0.2-0.1-0.3c-0.1-0.1-0.1-0.1-0.3-0.2c-0.1,0-0.2,0-0.3-0.1c-0.1,0-0.2-0.1-0.3-0.1
	C72.4,44.7,72.1,44.7,71.9,44.8z M82.6,54.4c0.4-0.1,0.8-0.3,1.2-0.5c0,0,0.1,0,0.1-0.1c0-0.1,0-0.1,0-0.1c0,0,0-0.1-0.1-0.1
	c0,0-0.1-0.1-0.2-0.1c-0.4-0.1-0.7-0.2-1.1-0.3c-0.4-0.1-0.8-0.2-1.2-0.3c-0.4-0.1-0.7-0.2-1-0.2c-0.3-0.1-0.7-0.2-1-0.2
	c-0.3-0.1-0.6-0.1-0.9-0.2c-0.3-0.1-0.6-0.1-0.9-0.2c-0.4-0.1-0.8-0.2-1.1-0.3c-0.4-0.1-0.8-0.2-1.1-0.3c-0.3-0.1-0.6-0.2-0.9-0.2
	C74,51,73.7,51,73.4,50.9c-0.3-0.1-0.6-0.2-0.8-0.3c-0.3-0.1-0.6-0.2-0.8-0.3c-0.2,0-0.3,0-0.5,0.1c-0.2,0.1-0.3,0.2-0.3,0.4
	c-0.1,0.2-0.1,0.4,0,0.5s0.2,0.2,0.4,0.3c0.1,0,0.1,0.1,0.2,0.1c0.1,0,0.1,0.1,0.3,0.1c0.4,0.1,0.7,0.3,1.1,0.4
	c0.4,0.2,0.7,0.3,1.1,0.4c0.2,0.1,0.4,0.2,0.6,0.3c0.2,0.1,0.4,0.2,0.7,0.2c0.4,0.1,0.8,0.3,1.2,0.4c0.4,0.2,0.8,0.3,1.1,0.5
	c0.3,0.1,0.6,0.2,0.9,0.3s0.6,0.1,0.9,0.2c0.4,0,0.7,0.1,1,0.1c0.3,0,0.6,0.1,0.8,0.1C81.7,54.6,82.1,54.5,82.6,54.4z M84.3,52.5
	c0.3,0,0.6-0.1,0.9-0.1c0.3,0,0.6-0.1,0.9-0.1c0.2,0,0.3,0,0.5-0.1c0.2,0,0.3-0.1,0.5-0.2c0.1,0,0.2-0.1,0.3-0.1
	c0.1-0.1,0.2-0.1,0.3-0.2c0.1,0,0.1-0.1,0.1-0.1c0-0.1-0.1-0.1-0.2-0.1c-0.1,0-0.2-0.1-0.3-0.1c-0.1,0-0.2,0-0.3-0.1
	c-0.4,0-0.7-0.1-1.1-0.1C85.8,51,85.4,51,85,50.9c-0.5-0.1-0.9-0.2-1.4-0.2c-0.5-0.1-0.9-0.2-1.4-0.2c-0.5-0.1-0.9-0.2-1.4-0.2
	c-0.5-0.1-0.9-0.2-1.3-0.2c-0.4-0.1-0.9-0.2-1.3-0.2c-0.4-0.1-0.9-0.2-1.3-0.2c-0.4-0.1-0.8-0.2-1.1-0.2c-0.4-0.1-0.8-0.2-1.1-0.2
	c-0.2,0-0.5-0.1-0.8-0.1c-0.3-0.1-0.5-0.1-0.8-0.1c-0.1,0-0.2,0-0.4,0c-0.1,0-0.2,0.1-0.3,0.2c-0.2,0.1-0.2,0.2-0.2,0.4
	c0,0.2,0.1,0.4,0.3,0.4c0.1,0.1,0.2,0.1,0.3,0.2c0.1,0,0.2,0.1,0.3,0.1c0.3,0.1,0.6,0.2,0.9,0.3c0.3,0.1,0.6,0.2,1,0.2
	c0.4,0.1,0.7,0.2,1.1,0.3c0.4,0.1,0.7,0.2,1,0.2c0.2,0.1,0.5,0.1,0.7,0.2s0.5,0.1,0.7,0.2c0.2,0,0.5,0.1,0.7,0.1
	c0.3,0.1,0.5,0.1,0.7,0.1c0.2,0,0.5,0.1,0.8,0.1c0.3,0.1,0.5,0.1,0.8,0.1c0.5,0.1,1,0.2,1.4,0.3C83.4,52.4,83.9,52.5,84.3,52.5
	L84.3,52.5z M88.8,50.3c0.4,0,0.8-0.2,1.1-0.4c0.2-0.1,0.4-0.2,0.6-0.3c0.2-0.1,0.4-0.3,0.6-0.4c0.1-0.1,0.1-0.2,0.1-0.3
	c0-0.1-0.1-0.1-0.2-0.1c0,0-0.1,0-0.2,0c-0.5,0-1-0.1-1.5-0.1c-0.5,0-1,0-1.5-0.1c-0.7-0.1-1.3-0.1-2-0.2c-0.7-0.1-1.4-0.1-2-0.1
	c-0.4,0-0.8-0.1-1.3-0.1c-0.4,0-0.8-0.1-1.3-0.1c-0.5,0-1.1-0.1-1.7-0.1s-1.2-0.1-1.7-0.2c-0.4,0-0.8-0.1-1.2-0.1
	c-0.4-0.1-0.8-0.1-1.2-0.1c-0.2,0-0.5-0.1-0.7-0.1s-0.5,0-0.7,0c-0.1,0-0.2,0-0.3,0.1s-0.1,0.1-0.1,0.3c0,0.1,0,0.2,0.1,0.4
	c0.1,0.1,0.2,0.2,0.4,0.2c0.3,0,0.6,0.1,1,0.1c0.3,0.1,0.7,0.1,1,0.2c0.3,0.1,0.6,0.1,0.8,0.2s0.6,0.1,0.8,0.1c0.4,0,0.7,0.1,1,0.1
	c0.3,0.1,0.6,0.1,0.9,0.2c0.4,0,0.7,0.1,1.1,0.1c0.4,0.1,0.7,0.1,1.1,0.1c0.4,0.1,0.8,0.1,1.2,0.2c0.4,0.1,0.8,0.1,1.2,0.1
	c0.6,0.1,1.2,0.1,1.7,0.2c0.6,0.1,1.1,0.1,1.7,0.1C87.9,50.4,88.4,50.4,88.8,50.3z M87.2,47.7c0.7,0,1.3,0,1.8,0c0.5,0,1.1,0,1.6,0
	c0.4,0,0.9,0,1.3-0.1c0.4-0.1,0.9-0.2,1.3-0.5c0.2-0.1,0.3-0.2,0.4-0.3c0.1-0.1,0.3-0.2,0.4-0.4s0.2-0.2,0.1-0.3
	c0-0.1-0.2-0.1-0.4-0.1c-0.4,0-0.8,0-1.2,0c-0.4,0-0.8,0-1.2,0c-1.9,0-3.8,0-5.8,0s-3.9-0.1-5.8-0.2c-0.7,0-1.5-0.1-2.2-0.1
	c-0.7,0-1.5-0.1-2.2-0.1c-0.2,0-0.4,0-0.6,0.1c-0.2,0-0.4,0.1-0.6,0.2c-0.1,0-0.2,0.1-0.2,0.2c0,0.1,0,0.2,0.1,0.2
	c0,0.1,0.1,0.1,0.1,0.2c0.1,0,0.1,0.1,0.2,0.1c0.3,0.1,0.6,0.2,1,0.2c0.3,0.1,0.7,0.1,1,0.1c1,0.1,2,0.2,3,0.3c1,0.1,2,0.2,3,0.3
	c0.8,0,1.6,0.1,2.5,0.1S86.5,47.7,87.2,47.7L87.2,47.7z M87.7,45.3c1.7,0,3.4-0.1,5.1-0.3c0.4-0.1,0.9-0.2,1.3-0.2
	c0.4-0.1,0.9-0.2,1.3-0.4c0.2-0.1,0.4-0.2,0.6-0.3c0.2-0.1,0.3-0.3,0.4-0.6c0.1-0.2,0.1-0.3,0.1-0.4c0-0.1-0.1-0.1-0.3-0.2
	c-0.2,0-0.4-0.1-0.6-0.1c-0.2,0-0.4,0-0.6,0c-1.1,0-2.1,0-3.2,0c-1.1,0-2.1,0-3.2,0.1c-0.9,0-1.8,0-2.7,0c-0.9,0-1.8,0.1-2.7,0.2
	c-0.7,0.1-1.4,0.2-2.1,0.2c-0.7,0.1-1.4,0.2-2.1,0.2c-0.6,0.1-1.2,0.2-1.7,0.2c-0.6,0.1-1.1,0.2-1.7,0.2c-0.2,0-0.3,0.1-0.5,0.1
	c-0.2,0-0.3,0.1-0.4,0.3c-0.1,0.1-0.1,0.1-0.1,0.2s0,0.1,0.1,0.2c0.1,0,0.2,0.1,0.3,0.1c0.1,0,0.2,0,0.2,0c1.2,0,2.5,0.1,3.8,0.1
	c1.2,0,2.5,0,3.8,0.1C84.3,45.3,86,45.3,87.7,45.3z"/>
</svg>
