<?xml version="1.0" encoding="utf-8"?>
<!-- Generator: Adobe Illustrator 21.0.2, SVG Export Plug-In . SVG Version: 6.00 Build 0)  -->
<svg version="1.1" id="Layer_1" xmlns="http://www.w3.org/2000/svg" xmlns:xlink="http://www.w3.org/1999/xlink" x="0px" y="0px"
	 viewBox="0 0 100 100" style="enable-background:new 0 0 100 100;" xml:space="preserve">
<style type="text/css">
	.st0{fill:#B3B3B1;}
	.st1{fill:#B3B3B3;}
	.st2{fill-rule:evenodd;clip-rule:evenodd;fill:#B3B3B3;}
	.st3{fill-rule:evenodd;clip-rule:evenodd;fill:#B3B3B1;}
</style>
<path class="st1" d="M50.4,16.2c4.7-0.1,9.1,0.8,13.3,2.6c4.1,1.8,7.8,4.2,11,7.3c3.2,3.1,5.7,6.8,7.6,11c1.8,4.3,2.7,8.8,2.7,13.7
	c0,4.8-0.9,9.3-2.7,13.5c-1.8,4.2-4.3,7.9-7.5,11c-3.2,3.1-6.8,5.6-11,7.4c-4.3,1.8-8.8,2.6-13.5,2.6s-9.2-0.9-13.4-2.8
	c-4.2-1.8-7.9-4.3-11-7.4c-3.1-3.1-5.6-6.8-7.3-11c-1.8-4.2-2.7-8.7-2.7-13.5s0.9-9.3,2.7-13.5c1.9-4.1,4.4-7.8,7.5-10.9
	c3.1-3.1,6.8-5.6,11-7.4C41.2,17.1,45.6,16.2,50.4,16.2z M83.8,50.7c0-4.7-0.9-9-2.6-13c-1.8-4.1-4.2-7.6-7.2-10.6
	c-3-3-6.6-5.4-10.6-7.2c-4.1-1.7-8.5-2.6-13.1-2.6c-4.6,0-8.9,0.9-12.9,2.6c-4,1.8-7.5,4.2-10.5,7.2c-3,3-5.4,6.6-7.2,10.6
	c-1.8,4.1-2.6,8.4-2.6,13c0.1,4.6,0.9,8.9,2.6,13c1.8,4,4.2,7.6,7.2,10.6c3,3,6.6,5.4,10.7,7.1c4.1,1.8,8.5,2.6,13.2,2.6
	c4.5-0.1,8.8-1,12.8-2.7c4-1.8,7.6-4.1,10.6-7.2c3-3,5.4-6.5,7.2-10.6C83,59.6,83.8,55.3,83.8,50.7z M79.9,63.1
	c-1.6,3.9-3.9,7.3-6.8,10.2c-2.9,2.9-6.2,5.2-10,6.9c-3.9,1.6-8,2.5-12.4,2.5c-4.5,0.1-8.8-0.8-12.7-2.5c-3.9-1.6-7.3-3.9-10.2-6.8
	c-2.9-2.9-5.2-6.3-6.9-10.2c-1.6-3.9-2.5-8-2.5-12.5c0-4.5,0.8-8.7,2.5-12.5c1.7-3.9,4-7.3,6.9-10.2c2.9-2.9,6.3-5.2,10.3-6.9
	c3.9-1.6,8.1-2.5,12.7-2.5c4.3,0,8.4,0.9,12.3,2.6c3.8,1.6,7.1,3.9,10,6.9c2.9,2.9,5.1,6.3,6.8,10.2c1.6,3.9,2.5,8,2.6,12.4
	C82.4,55.1,81.6,59.2,79.9,63.1z M31.7,38.9c0.3-0.3,0.5-0.6,0.7-0.9c0.5-0.6,1-1.3,1.6-1.9c0.6-0.7,1.1-1.3,1.6-2
	c0.3-0.4,0.4-0.8,0.5-1.2c0-0.4-0.1-0.8-0.4-1.3c-0.2-0.4-0.6-0.7-1-0.9s-0.9-0.2-1.4-0.2c-0.1,0.1-0.1,0.1-0.2,0.1
	c-0.1,0-0.2,0-0.3,0c0-0.6-0.1-1.2-0.4-1.6c-0.3-0.5-0.7-0.8-1.2-0.9c-0.6-0.2-1.1-0.2-1.5,0.1c-0.4,0.3-0.8,0.7-1.1,1.1
	c-0.7,0.8-1.4,1.6-2,2.4c-0.7,0.8-1.4,1.7-2,2.5c1.1,0.9,2.2,1.8,3.2,2.7c1.1,0.9,2.2,1.8,3.2,2.7C31.2,39.5,31.5,39.2,31.7,38.9z
	 M27.8,34.3c-0.3-0.2-0.5-0.4-0.8-0.6c0.5-0.5,0.9-1,1.3-1.5c0.4-0.5,0.8-1,1.3-1.4c0.1-0.1,0.3-0.2,0.6-0.2c0.3,0,0.5,0.1,0.6,0.2
	c0.2,0.1,0.3,0.3,0.3,0.6c0,0.3,0,0.5-0.1,0.6c-0.3,0.5-0.7,1-1.1,1.5c-0.4,0.5-0.8,1-1.3,1.5C28.3,34.7,28.1,34.5,27.8,34.3z
	 M30.4,36.5c-0.3-0.2-0.5-0.5-0.8-0.7c0.5-0.6,0.9-1.1,1.3-1.6c0.4-0.5,0.8-1,1.2-1.5c0.2-0.2,0.5-0.4,0.7-0.4
	c0.3,0,0.5,0.1,0.8,0.3c0.2,0.2,0.4,0.4,0.4,0.7c0,0.3,0,0.5-0.2,0.8c-0.5,0.5-0.9,1-1.3,1.5c-0.4,0.5-0.8,1-1.2,1.5
	C31,37,30.7,36.7,30.4,36.5z M70.9,50.7c0.1-2.8-0.5-5.4-1.5-7.9c-1.1-2.5-2.5-4.7-4.4-6.5c-1.8-1.8-4-3.3-6.5-4.4
	c-2.4-1.1-5.1-1.6-7.9-1.6c-2.8,0-5.5,0.5-7.9,1.5c-2.5,1.1-4.7,2.5-6.6,4.4c-1.9,1.8-3.4,4-4.4,6.5c-1.1,2.5-1.6,5.2-1.6,8
	c0,2.8,0.5,5.4,1.6,7.9c1,2.5,2.5,4.7,4.3,6.5c1.9,1.8,4.1,3.3,6.6,4.4c2.5,1.1,5.1,1.6,7.9,1.6c2.8,0,5.5-0.5,8-1.6
	c2.4-1.1,4.6-2.5,6.5-4.4c1.9-1.8,3.3-4,4.3-6.4C70.3,56.2,70.9,53.6,70.9,50.7z M50.4,50.8c-2.3,0-4.5,0-6.8,0c-2.3,0-4.5,0-6.7,0
	c-0.9,0-1.8,0-2.7,0c-0.9,0-1.8,0-2.7,0c-0.2-2.4,0.2-4.7,1.2-7.1c1-2.3,2.3-4.3,4-6.1c1.7-1.8,3.8-3.3,6.1-4.3
	c2.4-1.1,4.9-1.6,7.7-1.5c0,0.1,0,0.2,0,0.3c0,0.1,0,0.2,0,0.3c0,3,0,6,0,9s0,6,0,9c0,0.1,0,0.2,0,0.3
	C50.4,50.6,50.4,50.7,50.4,50.8L50.4,50.8z M47.6,23.6c0.3,0.8,0.7,1.6,0.9,2.3c0.3,0.8,0.6,1.5,0.9,2.3c0.1,0.3,0.2,0.5,0.3,0.6
	c0.2,0.1,0.4,0.2,0.8,0.2c0.3,0,0.6-0.1,0.9-0.2c0.2-0.1,0.4-0.4,0.5-0.8c0.1-0.4,0.3-0.8,0.4-1.2c0.2-0.4,0.3-0.8,0.5-1.2
	c0.1-0.3,0.2-0.7,0.3-1c0.1-0.3,0.2-0.6,0.3-1c0.1,0,0.1,0,0.1,0c0,0,0.1,0,0.1,0v5.1h1.6v-8.3c-1.2-0.2-1.9-0.2-2.2,0
	c-0.3,0.2-0.6,0.8-1,1.8c-0.2,0.6-0.5,1.3-0.7,2c-0.3,0.7-0.5,1.4-0.8,2.1c-0.3-1-0.7-1.9-1-2.8c-0.3-0.9-0.7-1.7-1-2.5
	c-0.1-0.2-0.1-0.3-0.3-0.4c-0.1-0.1-0.2-0.2-0.3-0.3c-0.3,0-0.7,0-1,0s-0.7,0-1.1,0v8.3h1.6v-5.2C47.5,23.6,47.6,23.6,47.6,23.6z
	 M50.7,50.8c0.1,0,0.2,0,0.3,0c3,0,6,0,8.9,0c3,0,5.9,0,8.9,0c0.1,0,0.1,0,0.3,0c0.1,0,0.2,0,0.3,0.1c0.2,2.4-0.2,4.8-1.2,7.2
	c-1,2.3-2.4,4.4-4.2,6.2c-1.8,1.8-3.8,3.2-6.2,4.2c-2.3,1.1-4.8,1.5-7.4,1.4V50.8C50.5,50.8,50.6,50.8,50.7,50.8z M67.1,30.3
	c-0.9,1.1-1.7,2.3-2.6,3.4c0.1,0.2,0.2,0.3,0.4,0.5c0.1,0.1,0.2,0.3,0.3,0.5c0.3,0.5,0.6,0.7,0.9,0.8c0.3,0.1,0.7,0,1.1-0.3
	c0.6-0.3,1.1-0.5,1.7-0.8c0.6-0.2,1.2-0.5,1.8-0.7c0,0.1,0,0.1,0.1,0.2c-0.5,0.7-0.9,1.4-1.4,2.1c-0.5,0.7-1,1.4-1.4,2.1
	c0.2,0.3,0.5,0.7,0.7,1c0.3,0.3,0.5,0.6,0.8,0.9c1.3-0.6,2.6-1.2,3.9-1.9c1.3-0.6,2.6-1.2,3.9-1.9C77.1,36.1,77,36,77,35.9
	c-0.1-0.1-0.2-0.2-0.2-0.3c-0.2-0.5-0.5-0.7-0.9-0.8c-0.3-0.1-0.7,0-1.2,0.3c-0.5,0.3-1.1,0.6-1.6,0.9c-0.6,0.2-1.1,0.5-1.7,0.8
	c-0.1-0.1-0.1-0.1-0.1-0.2c0.5-0.7,0.9-1.4,1.4-2c0.5-0.7,1-1.4,1.5-2c-0.2-0.3-0.5-0.6-0.7-0.9c-0.2-0.3-0.5-0.6-0.7-0.9
	c-0.9,0.3-1.7,0.7-2.4,1c-0.8,0.3-1.5,0.6-2.3,1c-0.1-0.1-0.1-0.1-0.1-0.2c0.5-0.7,1-1.3,1.5-2c0.5-0.7,1-1.3,1.5-2
	c-0.2-0.3-0.4-0.6-0.6-0.8c-0.2-0.3-0.4-0.5-0.6-0.8C68.8,28,67.9,29.2,67.1,30.3z"/>
</svg>
