<?xml version="1.0" encoding="utf-8"?>
<!-- Generator: Adobe Illustrator 21.0.2, SVG Export Plug-In . SVG Version: 6.00 Build 0)  -->
<svg version="1.1" id="Layer_1" xmlns="http://www.w3.org/2000/svg" xmlns:xlink="http://www.w3.org/1999/xlink" x="0px" y="0px"
	 viewBox="0 0 100 100" style="enable-background:new 0 0 100 100;" xml:space="preserve">
<style type="text/css">
	.st0{fill:#B3B3B1;}
	.st1{fill:#B3B3B3;}
	.st2{fill-rule:evenodd;clip-rule:evenodd;fill:#B3B3B3;}
	.st3{fill-rule:evenodd;clip-rule:evenodd;fill:#B3B3B1;}
</style>
<g>
	<path class="st2" d="M50.4,26.7c-25.7,0-46.6,10.5-46.6,23.7s20.9,23.7,46.6,23.7C76.1,74.2,97,63.7,97,50.4S76.1,26.7,50.4,26.7z
		 M50.4,73.8c-25.7,0-46.2-10.6-46.2-23.3c0-12.8,20.5-23.3,46.2-23.3s46.2,10.6,46.2,23.3C96.6,63.2,76.1,73.8,50.4,73.8z"/>
	<path class="st2" d="M50.4,31C24.2,31,8.1,41.7,8.1,50.4c0,8.7,16.1,19.5,42.3,19.5c26.2,0,42.3-10.7,42.3-19.5
		C92.7,41.7,76.6,31,50.4,31z M50.4,69.5c-26.2,0-41.9-10.7-41.9-19.1c0-8.3,15.7-19.1,41.9-19.1c26.2,0,41.9,10.7,41.9,19.1
		C92.3,58.8,76.7,69.5,50.4,69.5z"/>
	<circle class="st2" cx="50.4" cy="29" r="1.1"/>
	
		<ellipse transform="matrix(0.9994 -3.488182e-02 3.488182e-02 0.9994 -0.9865 1.653)" class="st2" cx="46.9" cy="29.1" rx="1.1" ry="1.1"/>
	
		<ellipse transform="matrix(0.9976 -6.976897e-02 6.976897e-02 0.9976 -1.9387 3.0961)" class="st2" cx="43.4" cy="29.3" rx="1.1" ry="1.1"/>
	<ellipse transform="matrix(0.9925 -0.1218 0.1218 0.9925 -3.3157 5.0746)" class="st2" cx="39.8" cy="29.6" rx="1.1" ry="1.1"/>
	<ellipse transform="matrix(0.9877 -0.1565 0.1565 0.9877 -4.2692 6.0565)" class="st2" cx="36.3" cy="30.1" rx="1.1" ry="1.1"/>
	<ellipse transform="matrix(0.9781 -0.2079 0.2079 0.9781 -5.6854 7.5054)" class="st2" cx="32.9" cy="30.8" rx="1.1" ry="1.1"/>
	<ellipse transform="matrix(0.9659 -0.2588 0.2588 0.9659 -7.1805 8.6912)" class="st2" cx="29.4" cy="31.6" rx="1.1" ry="1.1"/>
	<ellipse transform="matrix(0.9511 -0.309 0.309 0.9511 -8.8062 9.6399)" class="st2" cx="26" cy="32.6" rx="1.1" ry="1.1"/>
	<ellipse transform="matrix(0.9336 -0.3584 0.3584 0.9336 -10.6144 10.3854)" class="st2" cx="22.7" cy="33.8" rx="1.1" ry="1.1"/>
	<ellipse transform="matrix(0.8988 -0.4384 0.4384 0.8988 -13.4799 12.1021)" class="st2" cx="19.5" cy="35.2" rx="1.1" ry="1.1"/>
	<ellipse transform="matrix(0.8572 -0.515 0.515 0.8572 -16.6765 13.696)" class="st2" cx="16.4" cy="36.9" rx="1.1" ry="1.1"/>
	<ellipse transform="matrix(0.8091 -0.5877 0.5877 0.8091 -20.2853 15.3053)" class="st2" cx="13.4" cy="38.9" rx="1.1" ry="1.1"/>
	<ellipse transform="matrix(0.7071 -0.7071 0.7071 0.7071 -25.9678 19.6422)" class="st2" cx="10.7" cy="41.2" rx="1.1" ry="1.1"/>
	<ellipse transform="matrix(0.5736 -0.8192 0.8192 0.5736 -32.3256 25.6133)" class="st2" cx="8.4" cy="43.9" rx="1.1" ry="1.1"/>
	<ellipse transform="matrix(0.3256 -0.9455 0.9455 0.3256 -39.8304 38.1094)" class="st2" cx="6.8" cy="47" rx="1.1" ry="1.1"/>
	<circle class="st2" cx="50.4" cy="71.8" r="1.1"/>
	
		<ellipse transform="matrix(3.488182e-02 -0.9994 0.9994 3.488182e-02 -26.4877 116.1307)" class="st2" cx="46.9" cy="71.8" rx="1.1" ry="1.1"/>
	
		<ellipse transform="matrix(6.977875e-02 -0.9976 0.9976 6.977875e-02 -31.0735 109.8299)" class="st2" cx="43.4" cy="71.6" rx="1.1" ry="1.1"/>
	<ellipse transform="matrix(0.1219 -0.9925 0.9925 0.1219 -35.7204 102.0833)" class="st2" cx="39.8" cy="71.2" rx="1.1" ry="1.1"/>
	<ellipse transform="matrix(0.1565 -0.9877 0.9877 0.1565 -39.2127 95.554)" class="st2" cx="36.3" cy="70.7" rx="1.1" ry="1.1"/>
	<ellipse transform="matrix(0.2079 -0.9781 0.9781 0.2079 -42.5207 87.6522)" class="st2" cx="32.9" cy="70.1" rx="1.1" ry="1.1"/>
	<ellipse transform="matrix(0.2588 -0.9659 0.9659 0.2588 -45.092 79.7531)" class="st2" cx="29.4" cy="69.3" rx="1.1" ry="1.1"/>
	<ellipse transform="matrix(0.309 -0.9511 0.9511 0.309 -46.9275 71.923)" class="st2" cx="26" cy="68.3" rx="1.1" ry="1.1"/>
	<ellipse transform="matrix(0.3583 -0.9336 0.9336 0.3583 -48.0303 64.224)" class="st2" cx="22.7" cy="67.1" rx="1.1" ry="1.1"/>
	<ellipse transform="matrix(0.4384 -0.8988 0.8988 0.4384 -48.0548 54.3598)" class="st2" cx="19.5" cy="65.6" rx="1.1" ry="1.1"/>
	<ellipse transform="matrix(0.515 -0.8572 0.8572 0.515 -46.8952 45.0378)" class="st2" cx="16.4" cy="64" rx="1.1" ry="1.1"/>
	<ellipse transform="matrix(0.5878 -0.809 0.809 0.5878 -44.6359 36.4112)" class="st2" cx="13.4" cy="62" rx="1.1" ry="1.1"/>
	<ellipse transform="matrix(0.7071 -0.7071 0.7071 0.7071 -39.0827 25.0724)" class="st2" cx="10.7" cy="59.7" rx="1.1" ry="1.1"/>
	<ellipse transform="matrix(0.8192 -0.5736 0.5736 0.8192 -31.1798 15.1507)" class="st2" cx="8.4" cy="57" rx="1.1" ry="1.1"/>
	<ellipse transform="matrix(0.9455 -0.3256 0.3256 0.9455 -17.1778 5.1499)" class="st2" cx="6.8" cy="53.9" rx="1.1" ry="1.1"/>
	
		<ellipse transform="matrix(0.9994 -3.488499e-02 3.488499e-02 0.9994 -1.7558 0.2461)" class="st2" cx="6.2" cy="50.4" rx="1.1" ry="1.1"/>
	
		<ellipse transform="matrix(3.494484e-02 -0.9994 0.9994 3.494484e-02 40.945 143.2793)" class="st2" cx="94.7" cy="50.4" rx="1.1" ry="1.1"/>
	<ellipse transform="matrix(0.3256 -0.9455 0.9455 0.3256 12.457 125.2665)" class="st2" cx="94" cy="53.9" rx="1.1" ry="1.1"/>
	<ellipse transform="matrix(0.5736 -0.8192 0.8192 0.5736 -7.3084 100.0069)" class="st2" cx="92.4" cy="57" rx="1.1" ry="1.1"/>
	<ellipse transform="matrix(0.7071 -0.7072 0.7072 0.7071 -15.8291 81.2149)" class="st2" cx="90.1" cy="59.7" rx="1.1" ry="1.1"/>
	<ellipse transform="matrix(0.809 -0.5878 0.5878 0.809 -19.7499 63.225)" class="st2" cx="87.4" cy="62" rx="1.1" ry="1.1"/>
	<ellipse transform="matrix(0.8572 -0.515 0.515 0.8572 -20.8768 52.6474)" class="st2" cx="84.5" cy="64" rx="1.1" ry="1.1"/>
	<ellipse transform="matrix(0.8988 -0.4384 0.4384 0.8988 -20.5367 42.3104)" class="st2" cx="81.4" cy="65.6" rx="1.1" ry="1.1"/>
	<ellipse transform="matrix(0.9336 -0.3583 0.3583 0.9336 -18.8398 32.4502)" class="st2" cx="78.1" cy="67.1" rx="1.1" ry="1.1"/>
	<ellipse transform="matrix(0.951 -0.309 0.309 0.951 -17.4323 26.4591)" class="st2" cx="74.8" cy="68.3" rx="1.1" ry="1.1"/>
	<ellipse transform="matrix(0.9659 -0.2588 0.2588 0.9659 -15.4917 20.8423)" class="st2" cx="71.4" cy="69.3" rx="1.1" ry="1.1"/>
	<ellipse transform="matrix(0.9781 -0.2079 0.2079 0.9781 -13.0849 15.6639)" class="st2" cx="68" cy="70.1" rx="1.1" ry="1.1"/>
	<ellipse transform="matrix(0.9877 -0.1564 0.1564 0.9877 -10.2689 10.9583)" class="st2" cx="64.5" cy="70.7" rx="1.1" ry="1.1"/>
	<ellipse transform="matrix(0.9925 -0.1219 0.1219 0.9925 -8.2258 7.9647)" class="st2" cx="61" cy="71.2" rx="1.1" ry="1.1"/>
	
		<ellipse transform="matrix(0.9976 -6.977875e-02 6.977875e-02 0.9976 -4.8544 4.1855)" class="st2" cx="57.5" cy="71.6" rx="1.1" ry="1.1"/>
	
		<ellipse transform="matrix(0.9994 -3.488182e-02 3.488182e-02 0.9994 -2.471 1.9256)" class="st2" cx="54" cy="71.8" rx="1.1" ry="1.1"/>
	
		<ellipse transform="matrix(3.488182e-02 -0.9994 0.9994 3.488182e-02 22.9907 82.0036)" class="st2" cx="54" cy="29.1" rx="1.1" ry="1.1"/>
	
		<ellipse transform="matrix(6.978401e-02 -0.9976 0.9976 6.978401e-02 24.2417 84.5992)" class="st2" cx="57.5" cy="29.3" rx="1.1" ry="1.1"/>
	<ellipse transform="matrix(0.1219 -0.9925 0.9925 0.1219 24.1372 86.579)" class="st2" cx="61" cy="29.6" rx="1.1" ry="1.1"/>
	<ellipse transform="matrix(0.1564 -0.9877 0.9877 0.1564 24.6405 89.1372)" class="st2" cx="64.5" cy="30.1" rx="1.1" ry="1.1"/>
	<ellipse transform="matrix(0.2079 -0.9781 0.9781 0.2079 23.7176 90.884)" class="st2" cx="68" cy="30.8" rx="1.1" ry="1.1"/>
	<ellipse transform="matrix(0.2588 -0.9659 0.9659 0.2588 22.3908 92.4173)" class="st2" cx="71.4" cy="31.6" rx="1.1" ry="1.1"/>
	<ellipse transform="matrix(0.309 -0.9511 0.9511 0.309 20.6643 93.6854)" class="st2" cx="74.8" cy="32.6" rx="1.1" ry="1.1"/>
	<ellipse transform="matrix(0.3583 -0.9336 0.9336 0.3583 18.5537 94.6434)" class="st2" cx="78.1" cy="33.8" rx="1.1" ry="1.1"/>
	<ellipse transform="matrix(0.4384 -0.8988 0.8988 0.4384 14.0189 92.9256)" class="st2" cx="81.4" cy="35.2" rx="1.1" ry="1.1"/>
	<ellipse transform="matrix(0.5151 -0.8571 0.8571 0.5151 9.3249 90.3126)" class="st2" cx="84.5" cy="36.9" rx="1.1" ry="1.1"/>
	<ellipse transform="matrix(0.5878 -0.809 0.809 0.5878 4.5891 86.7501)" class="st2" cx="87.4" cy="38.9" rx="1.1" ry="1.1"/>
	<ellipse transform="matrix(0.7071 -0.7071 0.7071 0.7071 -2.7142 75.7767)" class="st2" cx="90.1" cy="41.2" rx="1.1" ry="1.1"/>
	<ellipse transform="matrix(0.8192 -0.5735 0.5735 0.8192 -8.4457 60.9201)" class="st2" cx="92.4" cy="43.9" rx="1.1" ry="1.1"/>
	<ellipse transform="matrix(0.9455 -0.3256 0.3256 0.9455 -10.1707 33.1725)" class="st2" cx="94" cy="47" rx="1.1" ry="1.1"/>
	<path class="st2" d="M21.5,48.2c0-1.3-0.8-2-1.8-2h-1.5v4.1h1.5C20.8,50.2,21.5,49.3,21.5,48.2z M19.9,47.8h1.1l0.1,0
		c0,0.1,0,0.2,0,0.3c0,0.9-0.4,1.5-1.2,1.6V47.8z"/>
	<path class="st2" d="M23.9,52.1c0.8-0.6,1.3-1.9,1.3-2.8c0-0.7-0.2-1.5-0.7-2.1c-0.2-0.2-0.4-0.5-0.6-0.8c-0.3-0.3-0.6-0.7-0.8-0.8
		c-0.1-0.1-0.4-0.4-0.8-0.6c-0.5-0.3-1.1-0.5-1.8-0.5h-4.6v13.8l1.3,1.3H22c2.1,0,3.5-2.2,3.5-4c0-1.3-0.5-2.2-1.1-2.8L23.9,52.1z
		 M20.7,57.7h-4.5v-13h4.2c2.2,0,3.1,1.9,3.1,3.2c0,0.9-0.5,2.1-1.2,2.6l-0.6,0.4l0.6,0.3c0.8,0.4,1.6,1.4,1.6,2.9
		C23.8,55.8,22.5,57.7,20.7,57.7z"/>
	<path class="st2" d="M20,51.6h-1.8v4.8H20c1.3,0,1.8-1.3,1.8-2.4C21.8,52.8,21.1,51.6,20,51.6z M21.4,54c0,1-0.5,2-1.4,2h-0.1v-2.7
		l1.4,0C21.4,53.5,21.4,53.7,21.4,54z"/>
	<path class="st2" d="M32.5,44.3v9.9c0,0.7-0.6,1.4-1.4,1.4l-0.1,0l0-0.1l0-9.9l-1.3-1.3h-2.8v9.9c0,1,0.4,1.9,0.9,2.6
		c0.1,0.3,0.8,1.2,1.5,1.7c1,0.8,2,1.2,3,1.2c2.3,0,4.2-1.9,4.2-4.2v-9.9l-1.3-1.3H32.5z M35,54.3c0,2.1-1.8,3.8-3.8,3.8
		c-2.1,0-3.8-1.7-3.8-3.8v-9.5h2l0,9.5c0,1,0.7,1.8,1.8,1.8c1.1,0,1.8-0.8,1.8-1.8v-9.5h2V54.3z"/>
	<path class="st2" d="M46.8,46c-0.4-0.4-0.8-0.8-1.1-1c-0.3-0.2-0.6-0.4-0.9-0.6c-0.6-0.3-1.3-0.4-2.1-0.4c-2.3,0-4.3,1.9-4.3,4.2v6
		c0,1,0.3,1.9,0.9,2.6c0.2,0.3,0.9,1.2,1.6,1.7c1,0.8,2,1.2,3.1,1.2c2.9,0,4.2-1.7,4.2-4.2v-3.4l-1.3-1.3l-3.9,0V53l1.3,1.3h0.1
		c0,0.9-0.7,1.6-1.7,1.5c0,0-0.1,0-0.1,0c0-0.1,0-0.2,0-0.2v-6c0-0.8,0.6-1.6,1.4-1.6c0.1,0,0.3,0,0.4,0c0,0.1,0,0.2,0,0.3v0.3
		l1.3,1.3h2.5v-0.3c0-0.9-0.2-1.7-0.5-2.3C47.4,46.8,47.1,46.4,46.8,46z M44.7,48.1c-0.1-1.2-0.9-2-2.2-1.9c-1.1,0.1-1.8,1-1.8,2v6
		c0,0.9,0.7,1.8,1.8,1.9c1.2,0.1,2.2-0.7,2.2-1.9v-1.6h-1.4v-1.4l3.1,0v3c0,2.3-1.2,3.8-3.8,3.8c-2.1,0-3.9-1.7-3.9-3.8v-6
		c0-2.1,1.8-3.8,3.9-3.8c2.6,0,3.8,1.4,3.8,3.7H44.7z"/>
	<path class="st2" d="M56.3,44.3h-3.9l-3.5,13.8l1.3,1.3h2.9l0.6-2.5h2.6l0.3,1.3l1.3,1.3h3l-3.3-13.8L56.3,44.3z M56.9,57.7
		l-0.5-2.5H52l-0.6,2.5h-2.1l3.3-13h3.2l3,13H56.9z"/>
	<path class="st2" d="M53.9,47l-1.5,6.6H56L54.7,47L53.9,47z M55.5,53.2h-1l0.6-2.4L55.5,53.2z"/>
	<path class="st2" d="M60,44.3v2.5l1.3,1.3h1.5v10l1.3,1.3h2.8V48.2h2.8v-2.5l-1.3-1.3H60z M68.1,46.5h-2.8v11.3h-2V46.5h-2.8v-1.7
		h7.7V46.5z"/>
	<path class="st2" d="M70.3,44.3v2.5l1.3,1.3h1.5v10l1.3,1.3h2.8V48.2h2.8v-2.5l-1.3-1.3H70.3z M78.4,46.5h-2.8v11.3h-2V46.5h-2.8
		v-1.7h7.7V46.5z"/>
	<path class="st2" d="M80.9,44.3v13.8l1.3,1.3H85V45.6l-1.3-1.3H80.9z M83.4,57.7h-2v-13h2V57.7z"/>
	<path class="st2" d="M53.5,41.9c1.4,0,2.6-1.2,2.6-2.6c0-0.7-0.3-1.4-0.7-1.8c0.4-0.4,0.6-1,0.6-1.6c0-1.4-1.1-2.5-2.5-2.5h-8.8
		v1.4l0,0.7h1.4v-0.7h3.3v2h-1.3v-0.5h-1.4v0.5v1.6v0.5h1.4v-0.5h1.3v2.2h-3.3v-0.7h-1.4v0.7l0,1.4H53.5z M51.3,34.7h2.2
		c0.6,0,1,0.4,1,1c0,0.5-0.4,1-1,1h-2.2V34.7z M51.3,38.3h2.2c0.7,0,1.1,0.5,1.1,1.1s-0.4,1.1-1.1,1.1h-2.2V38.3z"/>
</g>
</svg>
