<?xml version="1.0" encoding="utf-8"?>
<!-- Generator: Adobe Illustrator 21.0.2, SVG Export Plug-In . SVG Version: 6.00 Build 0)  -->
<svg version="1.1" id="Layer_1" xmlns="http://www.w3.org/2000/svg" xmlns:xlink="http://www.w3.org/1999/xlink" x="0px" y="0px"
	 viewBox="0 0 100 100" style="enable-background:new 0 0 100 100;" xml:space="preserve">
<style type="text/css">
	.st0{fill:#B3B3B1;}
	.st1{fill:#B3B3B3;}
	.st2{fill-rule:evenodd;clip-rule:evenodd;fill:#B3B3B3;}
	.st3{fill-rule:evenodd;clip-rule:evenodd;fill:#B3B3B1;}
</style>
<g>
	<path class="st0" d="M84.3,31.5c-4.4,0-8.8,0-13.2,0c-0.3,0-0.5,0-0.8,0.1C60.6,42.7,51,53.9,41.4,65c-1.3,1.6-2.7,3.1-4,4.7
		c5.1,0,10.3,0,15.4,0c0.5,0.1,0.7-0.5,1-0.8c4.9-5.7,9.8-11.4,14.7-17.1c1.2-1.4,2.4-2.7,3.5-4.1c4.2-4.8,8.3-9.6,12.5-14.4
		c0.5-0.6,1-1.1,1.4-1.7C85.4,31.5,84.8,31.5,84.3,31.5z"/>
	<path class="st0" d="M49.5,47.7c4.2-4.8,8.3-9.6,12.5-14.4c0.5-0.6,1-1.1,1.4-1.7c-0.6,0-1.2,0-1.7,0c-4.4,0-8.8,0-13.2,0
		c-0.3,0-0.5,0-0.8,0.1C38.1,42.7,28.5,53.9,18.8,65c-1.3,1.6-2.7,3.1-4,4.7c5.1,0,10.3,0,15.4,0c0.5,0.1,0.7-0.5,1-0.8
		c4.9-5.7,9.8-11.4,14.7-17.1C47.2,50.5,48.4,49.1,49.5,47.7z"/>
</g>
</svg>
