<?xml version="1.0" encoding="utf-8"?>
<!-- Generator: Adobe Illustrator 21.0.2, SVG Export Plug-In . SVG Version: 6.00 Build 0)  -->
<svg version="1.1" id="Layer_1" xmlns="http://www.w3.org/2000/svg" xmlns:xlink="http://www.w3.org/1999/xlink" x="0px" y="0px"
	 viewBox="0 0 100 100" style="enable-background:new 0 0 100 100;" xml:space="preserve">
<style type="text/css">
	.st0{fill:#B3B3B1;}
	.st1{fill:#B3B3B3;}
	.st2{fill-rule:evenodd;clip-rule:evenodd;fill:#B3B3B3;}
	.st3{fill-rule:evenodd;clip-rule:evenodd;fill:#B3B3B1;}
</style>
<path class="st0" d="M76.3,43.5l0.3,0.3l-0.1,0.3l-0.3,0.7l-0.7,1l-0.4,1l-0.2,1l-0.2,0.8l0.2,1.3l0.2,1.2l0.3,1.2l0.3,1.7l-0.1,1.3
	l-0.1,1.5L75,57.7l-0.5,1l-0.9,1.1L73,60.4l-0.8,0.4l-0.7,0.3L71,61.3l-0.1,0.3l0.3,0.6l0.4,0.9l0.1,0.4V64l-0.2,1v0.9v0.7l0.2,0.6
	v0.2l-0.1,0.2l-0.3-0.1l-0.3-0.9H71l-0.3-0.9l-0.1-1.2l-0.2-0.9l-0.4-0.8l-0.3-0.4l-0.3-0.2l-0.2,0.2l0.1,0.3l0.4,0.7l0.3,0.9v1.3
	l-0.2,1.3l-0.3,0.9l-0.4,0.9l-0.6,0.9L68.3,70l-0.4,0.5l-0.3,0.4l0.1,0.4l0.1,0.3l-0.2,0.3h-0.3L67,71.3v-0.6v-0.5l0.3-0.9l0.5-0.9
	l0.5-1l0.1-1.1l0.1-0.8L68.4,65l-0.2-0.5l-0.1-0.1H68l-0.2,0.3l-0.1,0.6l-0.1,0.9l-0.3,0.6v0.8l0.1,0.4l-0.1,0.2h-0.1L67,67.9
	l-0.2-1v-1.4l0.1-0.6l0.1-0.4l-0.1-0.6l-0.1-0.6l-0.2-0.4l-0.3-0.2l-0.3,0.1L66,63l-0.1,0.7l-0.1,0.9l-0.3,0.9l-0.3,0.9L64.8,67
	l-0.5,0.9l-0.7,0.8L63,69.4l-0.7,0.7l-1.6,1.4l-0.6,0.4L59.8,72l-0.3,0.5l-0.3,1l-0.1,0.3v0.7V75l0.3,0.5l0.5,0.6l0.3,0.5l0.1,0.3
	l0.2,0.6v0.6l0.1,0.3l-0.2,0.3l-0.1,0.3l-0.2,0.2l-0.9,0.5l-0.9,0.6l-1.2,1.1l-0.6,0.6l-0.3,0.6l-0.3,0.3L55.4,83l-0.3,0.2l-0.1,0.5
	l-0.3,0.6l-0.4,0.6L54,85.4l-0.3,0.3l-0.2,0.2l-0.3-0.1L53,85.7l0.1,0.3l0.1,0.3L53,87.5l-0.4,0.3l-0.3,0.2H52l-0.1,0.3l-0.7,0.3
	l-0.6,0.3L50.1,89h-1.2l-0.3-0.3l-0.1-0.5l0.2-0.7l0.3-0.9l0.5-0.8l0.8-0.9l0.6-0.6l0.5-0.7l0.3-0.5l0.4-0.4l0.8-0.3l0.4-0.2
	l0.9-0.9l0.9-1L56,79l0.5-0.6l0.3-0.5l0.1-0.3v-0.3l-0.2-0.3l-0.8-1.1l-0.8-1.1l-0.5-1L54,72.4l-0.5-1.1l-0.3-0.9l-0.2-1.5l0.2-1.3
	l0.3-1.3l0.5-1l0.6-0.9l0.3-0.7l0.2-0.5l0.1-0.9V62l0.2-0.3l0.2-0.5l0.3-0.3v-0.3h-0.3l-0.3,0.2l-0.2,0.3L55,61.7l-0.1,0.8l-0.1,0.7
	L54.3,64l-0.1,0.7l-0.4,0.4l-0.3,0.3l-0.3,0.1l-0.7-0.3l-0.7-0.4l-0.3-0.7v-0.6L50.4,62l-1-0.9l-1.3-0.9l-1.3-0.9l-1.1-0.6L44.3,58
	l-1.7-1.4l-0.9-0.8l-1.1-1.2l-0.9-0.9L39.2,53l-0.3-0.5l0.1-0.3l0.2-0.4H37l-1.1-0.3L35,51v-0.5L34.2,50l-1.9-0.9l-0.8-0.3l-0.8-0.5
	l-0.5-0.4h-0.3l-0.5,0.3l-0.3,0.7l0.2,1.1l0.4,0.9l0.3,1.2l0.3,1.4l0.4,0.9l0.6,0.8v0.3v0.5l0.3,0.1l0.9,0.4l0.5,0.5l0.3,0.3v0.3
	l0.1,0.3l0.2,0.3v1.3l-0.2,0.5l-0.3,0.4l-0.2,0.4l-0.3,0.1h-0.3l-0.6-0.3L31,59.7l-0.6-0.9L30.1,58l-0.5-0.9L29,56.7l-0.4-0.3
	l-0.3-0.5l-0.2-1.3l-0.3-0.9L27.8,53l-0.2-0.8l-0.3-1.1l-0.2-1.2l-0.5-1.5l-0.2-1.1v-0.7l0.4-0.9l0.4-0.8l0.5-0.5l0.5-0.3H29h1.2
	l2,0.4l0.8,0.1l0.6,0.1l0.2-0.2l-0.2-0.3L33.1,44l-0.5-0.4l-0.6-0.5l-0.6-0.7l-0.4-0.7l-0.5-0.5L30.1,41l-0.3-0.1L29.5,41l-0.2,0.3
	l-0.1,0.4l-0.1,0.5L29,42.6L29,43l-0.3,0.4l-0.3,0.3L28,44l-0.2,0.2h-0.4l-0.3,0.3l-0.3,0.3l-0.3,0.5l-0.3,0.9l-0.2,0.7v0.6l0.2,0.6
	l0.2,0.9l0.2,0.8l0.2,0.6l0.2,0.5l-0.3,0.7l-0.4,0.8L25.6,53l-0.3,0.3l-0.4,0.2l-0.3-0.2l-0.3-0.7v-0.9l-0.1-0.5l0.2-0.6v-1.5v-0.8
	V48l0.3-0.5l0.3-0.8l0.2-1l0.3-0.9l0.3-0.8l0.3-0.9l0.3-0.9l0.3-0.5v-0.9l0.3-0.8l0.3-0.5l0.3-0.9l0.2-0.6l0.3-0.7l0.6-0.4l0.7-0.3
	l0.9-0.2l0.8,0.1l0.8,0.3l0.8,0.6l0.7,0.5l0.5,0.4l1.1,0.6l0.9,0.4l0.7,0.4l0.5,0.3l0.3,0.1l0.4-0.3l0.3-0.2l0.3-0.4l0.4-0.5
	l0.7-0.4l0.9-0.5l0.6-0.4l0.4-0.3l0.3-0.4l0.3-0.9l0.5-0.5l0.8-0.6l0.9-0.9l0.6-0.9l0.8-0.9l0.6-0.9l0.2-0.5l0.3-0.7l0.3-0.8
	l0.3-0.7l0.2-0.6l0.1-0.4v-0.4l-0.2-0.3l-0.3-0.2h-0.8l-0.6,0.1l-0.3-0.1l-0.7-0.2l-0.6-0.1l-0.3-0.2l-0.3-0.1l-0.4,0.1L42.1,26
	l-0.8,0.2l-0.7,0.3l-0.4,0.2h-0.4h-0.3L39,26.6l-0.3-0.2l0.1-0.2l0.1-0.3l0.6-0.2l0.8-0.3l0.3-0.2v-0.2v-0.2L40.3,25l-0.8,0.3
	l-0.6,0.2l-0.5,0.2h-0.3l-0.3-0.1l-0.3-0.3v-0.4l-0.1-0.5l0.1-0.3l0.2-0.3l0.3-0.6l0.3-0.5l0.2-0.3l0.1-0.3l0.2-0.3l0.3-0.1h0.7
	l0.5-0.1l0.6-0.1l0.7-0.3l0.7-0.4l0.9-0.4l0.9-0.5l0.6-0.3l0.4-0.3l0.3-0.2l0.3-0.1l0.1-0.2l-0.1-0.2l-0.8-0.3L44.3,18l-0.4-0.2
	h-0.7H43L42.6,18h-0.2h-0.3L42,17.8l0.1-0.2h0.3l0.5-0.1l0.5-0.2l0.4,0.1l0.3-0.1l0.1-0.3L44,17h-0.5l-0.1-0.3l0.9-0.3h0.5l1.3,0.3
	l1.2,0.3H48l0.3-0.2l-0.1-0.3l-0.3-0.4v-0.3l0.6-1l1,0.9l0.9,0.9l0.3,0.3h0.9l1,0.2l0.8,0.3l0.7,0.4l0.5,0.6h3.1l0.4,0.1l0.4,0.1
	l0.1,0.2L58.3,19l-0.8,0.3l-1.1,0.3l-0.6,0.5l1.1,0.3l0.8,0.4l0.9,0.9l1,0.3L61,23l0.8,1.2l-0.2,0.3L61,24.1l-0.8-0.9h-0.9l-1-0.3
	l-0.8-0.3l-0.7-0.3l-0.3-0.2l-0.3,0.2l0.3,0.3l0.8,0.6l0.8,0.7l0.3,0.3l1.5,0.1l0.7,0.1l1,0.5l0.6,0.6l0.3,0.3V26l-0.3-0.1l-0.7-0.5
	l-0.6-0.3l-0.9,0.1l-0.5,0.1h-0.7l-0.3-0.1l-0.3-0.1l-0.3-0.1l-0.1,0.1l0.3,0.5l0.7,0.3l1.4,0.7l0.6,0.3l0.8,0.2v0.3L61,27.6
	l-0.8-0.1l-0.7-0.3l-0.9-0.1l-0.9-0.3L57,26.4h-0.4l0.1,0.3l1.1,0.9l0.9,1.3l0.3,0.6l0.5,0.4l0.6,0.7l0.2,0.5l0.5,0.5l0.3,0.2
	l-0.2,0.3L60.4,32l-0.7-0.3L59.1,31l-0.6-0.4l-1.1-0.7l-1-0.9h-0.2v0.3L57,30l0.7,0.4l0.7,0.4l0.6,0.5l0.1,0.4l0.5,0.7l0.3,0.3
	l0.6,0.1L61,33l0.3,0.3l-0.3,0.2l-0.6,0.2l-0.6-0.2h-0.4l-0.6-0.3l-0.3-0.4l-0.5-0.3l-1.1-0.3l-0.6-0.2l-0.3,0.2l0.1,0.3l0.5,0.3
	l0.6,0.7l0.3,0.3l0.9,0.4l0.9,0.9l0.5,0.8l0.3,0.4h0.3l0.1,0.1l-0.2,0.2l-0.2,0.1h-0.1l-0.8-0.5l-0.3-0.5l-0.8-0.1l-0.6-0.3
	l-0.7-0.1l0.2,0.3l0.4,0.3v0.3L57.2,36l-0.3-0.2l-0.6-0.2l-0.4-0.1v0.2l0.3,0.3l0.7,0.3l0.8,0.2l0.6,0.3l0.6,0.5l0.6,0.2l0.7,0.1
	l0.4,0.1L60.4,38l-0.4,0.2H59l-0.9-0.3l-0.5-0.3l-0.5-0.2h-0.8l-0.4,0.3l0.3,0.1l0.6,0.1l0.6,0.1l0.9,0.4l0.4,0.4l0.5,0.3l0.3,0.1
	l-0.2,0.2h-0.5l-0.5-0.2l-0.4-0.3L57.5,39h-0.8h-0.8h-0.9h-0.3v0.2l0.3,0.3l0.9,0.3l0.9,0.2l0.6,0.4l0.5,0.6l0.6,0.4l0.6,0.1
	l0.7-0.1l0.8-0.3l0.3-0.3h0.3V41L61,41.3l-0.7,0.4l-0.4,0.2L59,42l-1.1-0.1l-0.6-0.3L56,41l-1.1-0.2l-0.6-0.3L54,40.8l0.3,0.2
	l1.4,0.5l1.1,0.6l0.8,0.7l0.3,0.3l-0.2,0.3l-0.4-0.2l-0.9-0.7l-0.7-0.2H55l-0.1,0.2l0.4,0.1l0.8,0.3l0.7,0.7l0.4,0.6l0.3,0.4
	l0.3,0.2l0.3-0.1h0.2L58,45h-0.6l-0.6-0.4l-0.5-0.4l-0.9-0.5l-0.9-0.4l-0.8,0.1l-0.9-0.4l-0.6-0.4l-0.2,0.2l-0.2,1l0.5,1.5l1.5,2.6
	l1.5,1.8l2.7,2.3l1.9,1.2l0.6,0.5l1.4,1.1l1.3,1.3l0.6,0.9l0.5,0.5l0.7,1l0.5,0.9l0.2,0.8l1.5-0.1l1.5-0.9l1.1-1l1.1-1.5l0.3-0.9
	l0.2-0.9l0.1-0.9V53l-0.3-1.8L71,48.9L70.3,47L70,45.7l-0.3-1.4V43l0.2-1l0.3-1l0.7-1.2l0.7-0.9l1-0.9l0.8-0.7l0.4-0.3l0.6-0.3
	l0.1,0.1L74.4,37L73.3,38l-0.9,1.1l-0.7,1.4l-0.4,1.2l-0.1,1.1l0.1,0.6l0.1,0.3l0.2,0.1l1.3-1.5l0.9-0.8l0.7-0.6l0.5-0.9l0.3-0.8
	l0.2-0.2l0.1,0.3l-0.1,0.9l-0.6,1.3l-1.1,1.7L73.2,44L73,44.9v1l0.2,0.9l0.3,0.3l0.3-0.1l0.3-0.8l0.3-0.4l0.7-0.8l0.3-0.2l0.4-0.7
	l0.3-0.3v-0.4L76.3,43.5z M25.4,51.2l-0.3,0.1l0.2,0.2l0.2,0.1l0.2-0.2l-0.1-0.2H25.4z M27.8,39.9l0.2-0.2l0.3-0.1l0.1,0.1v0.4
	l-0.2,0.6l-0.3,0.6L27.6,42h-0.2l-0.1-0.1v-0.3l0.1-0.3l0.1-0.8L27.8,39.9z M27.8,45.3l0.1-0.2H28l0.1,0.1v0.2L28,45.6l-0.1,0.2
	l-0.2,0.2L27.7,46l-0.1-0.1v-0.3L27.8,45.3z M28.1,49.7L28.1,49.7h0.2l0.1,0.3v0.3l0.2,0.4l0.2,0.5l0.1,0.4l0.1,0.7v0.2l-0.1,0.1
	l-0.2-0.1v-0.2l-0.2-0.2l-0.2-0.3l-0.2-0.6L28,50.8v-0.5L28.1,49.7z M29.6,37.6h0.2h0.2l0.1,0.1v0.2l-0.1,0.2l-0.3,0.1l-0.3,0.1
	L29,38.1V38v-0.2l0.2-0.2H29.6z M31.8,41L31.8,41L31.8,41l0.2-0.1l0.2,0.2l0.2,0.1l0.3,0.2l0.2,0.2l0.1,0.2v0.1l-0.1,0.1l-0.2-0.1
	l-0.3-0.2L32,41.5l-0.2-0.2l-0.1-0.1V41z M34.2,49H34l-0.3-0.1l-0.2-0.1l-0.5-0.3l-0.4-0.3l-0.5-0.3l-0.2-0.1h0.3l0.3,0.1l0.4,0.1
	l0.3,0.2l0.5,0.3l0.3,0.2l0.2,0.2v0.1V49z M32.5,58.9L32.5,58.9l0.1,0.2v0.2l-0.2,0.1h-0.2l-0.1-0.1V59v-0.1l0.1-0.1L32.5,58.9z
	 M36.5,41.8l-0.2,0.3L36,42.6l-0.2,0.6l-0.1,0.5l-0.3,0.6l-0.2,0.4l-0.3,0.2l0.1,0.2l0.1,0.2l0.3-0.2l0.3-0.2l0.5-0.6l0.3-0.8
	l0.3-0.9l0.1-0.6l-0.1-0.2l-0.1-0.1L36.5,41.8z M49.9,75.2l-1.1-0.3l-1.5-0.3l-0.9-0.2l-1.4-0.2l-0.3,0.2l-0.3-0.2h-0.7h-0.6
	L43,74.1l-0.2-0.3l-0.3-0.1l-0.6,0.2l-0.8,0.2l-0.9,0.1h-0.9l-0.7-0.3l-0.6-0.3l-0.6-0.3L37.1,73l-0.6-0.8l-0.3-0.5v-0.3l0.1-0.2
	l0.3-0.1l0.4-0.2h0.7h0.7h0.7l1,0.1h0.6l0.5,0.2l1,0.2h0.4l0.3-0.1l0.6-0.1l0.5,0.2l0.4,0.2l0.6,0.3l1.3,0.3l1.1,0.3l1.2,0.1
	l1.5,0.1h0.9l0.3-0.1l0.1-0.3v-0.3l-0.5-0.7l-0.6-0.9L49.5,69l-0.6-1.1l-0.4-0.8l-0.6-1.4l-0.4-1L47,63.1l-0.3-1.3l-0.1-0.6l0.2-0.3
	l0.3-0.2l0.3-0.1l0.3,0.1l0.4,0.3l0.8,0.5l0.7,0.6l0.6,0.5l0.4,0.5l0.4,0.7l0.2,0.7l0.1,0.6l0.5,0.3l0.6,0.4l0.3,0.3l0.2,0.5
	l-0.2,0.6l-0.1,1.2v0.9l0.1,1l0.3,1.2l0.3,1.1l0.5,1l0.3,0.7l0.1,0.5l-0.3,0.7l-0.3,0.6l-0.6,0.2l-0.9-0.1L52,75.9l-0.9-0.4
	L49.9,75.2z M39,72.1l0.1-0.2L39,71.9l-0.1-0.1h-0.2l-0.3,0.1l-0.3,0.1L38.2,72v0.2l0.2,0.1l0.1,0.1l0.2,0.1h0.2l0.1-0.1l0.2-0.1
	V72.1z M38.9,23.2l0.2-0.1h0.3l0.3,0.3l0.1,0.2L39.5,24l-0.3,0.2L39,24.3l-0.4,0.1l-0.2-0.1v-0.3l0.1-0.4L38.9,23.2z M40.3,23.3
	L40.3,23.3l0.2-0.1h0.1l0.1,0.1v0.3l-0.1,0.2h-0.1h-0.1l-0.2-0.1l-0.1-0.1v-0.1L40.3,23.3z M44.4,21.1l0.1-0.2l-0.2-0.2h-0.2H44
	l-0.3,0.1l-0.6,0.3l-0.7,0.3l-0.6,0.3L41.5,22h0.3h0.4l0.4-0.1l0.7-0.3l0.5-0.3l0.2-0.3h0.3L44.4,21.1z M44.3,20.7l0.2,0.3l-0.1,0.1
	l-0.2,0.1H44l-0.2,0.3l-0.5,0.3l-0.7,0.3L42.2,22h-0.4h-0.3l0.3-0.3l0.6-0.3l0.7-0.3l0.6-0.3l0.3-0.1h0.2H44.3z M41.7,24.6h0.2v0.1
	l0.1,0.1l-0.1,0.2h-0.1h-0.1h-0.1l-0.1-0.2v-0.1L41.7,24.6L41.7,24.6z M41.7,38.7L41.7,38.7l0.3,0.1h0.2l0.3-0.1l0.3-0.1l0.4-0.1
	h0.4h0.4h0.5H45l0.3,0.2l0.3,0.1h0.3h0.2v-0.2v-0.2l-0.3-0.3l-0.4-0.3l-0.5-0.1h-0.6l-0.9,0.1l-0.9,0.3l-0.5,0.2l-0.1,0.2L41.7,38.7
	z M44.5,55.4L44.1,55l-0.3-0.3l-0.3-0.3l-0.3-0.3l-0.3-0.4l-0.4-0.3h-0.3L42,53.4l-0.1,0.3l0.1,0.4l0.3,0.3l0.3,0.3l0.5,0.5l0.4,0.3
	l0.6,0.5l0.6,0.4l1.8,1.3l0.9,0.5l0.4,0.3h0.3L48,58.7l-0.1-0.2L47.4,58l-0.6-0.5l-0.7-0.6l-1.3-1.1L44.5,55.4z M47,21.4l0.2,0.3
	l-0.1,0.3l-0.3,0.1h-0.3L46.1,22l-0.3-0.2l-0.3-0.2l-0.1-0.3l0.2-0.3l0.3-0.3h0.5l0.7,0.3L47,21.4z M47.1,22.1l0.1-0.3L47,21.4
	L47,21.1l-0.7-0.3h-0.5l-0.3,0.3l-0.2,0.3l0.1,0.3l0.3,0.2l0.3,0.2l0.4,0.2h0.3L47.1,22.1z M48.8,29.4l0.1,0.2v0.3l-0.2,0.6
	l-0.3,0.9L48,32.1L47.5,33l-0.9,1.2L46,34.9l-0.4,0.2L45.4,35v-0.1l0.1-0.3l0.6-0.9l0.4-0.9l0.3-0.8l0.7-1.4l0.7-1l0.3-0.3
	L48.8,29.4z M46.3,72.6l0.3,0.2h0.3l0.3,0.1l0.7,0.1l0.5,0.1h0.5l0.3,0.1l0.3,0.1l0.1,0.1v0.2l-0.1,0.1h-0.3l-0.4-0.1l-0.4-0.1h-0.3
	h-0.4l-0.9-0.3L46.1,73l-0.5-0.2l-0.1-0.2v-0.2h0.2L46.3,72.6z M47.5,16.7h-0.9l-0.5-0.4l-0.3-0.2v-0.3l0.3-0.3v-0.3l0.2-0.3
	l0.3,0.1l0.9,1L47.5,16.7z M46,25.2l-0.2,0.1l-0.1,0.1l0.1,0.2h0.3l0.4-0.1l0.4-0.3l0.3-0.3l0.1-0.3l0.2-0.2v-0.2h-0.1l-0.3,0.2
	l-0.5,0.3L46,25.2z M47.9,41h-0.3l-0.3,0.3l-0.2,0.3v0.2l0.2,0.2l0.1,0.2l0.3,0.1h0.4l0.1-0.1l0.1-0.3v-0.3l-0.1-0.3V41L47.9,41z
	 M47.7,19.6l0.2-0.1l0.2,0.1l0.1,0.2L48,20l-0.2,0.1h-0.3l-0.1-0.2v-0.2L47.7,19.6z M48.5,25.4l-0.2,0.2l0.1,0.2h0.1l0.3-0.1
	l0.3-0.2l0.3-0.3V25v-0.3l-0.1-0.1h-0.2L49,24.8l-0.3,0.3L48.5,25.4z M48.5,26.7l0.1,0.2h0.3h0.4l0.4-0.2l0.3-0.3l0.3-0.3l0.1-0.2
	v-0.2l-0.3-0.1l-0.3,0.2L49.7,26l-0.4,0.3l-0.4,0.2l-0.3,0.1L48.5,26.7z M50.3,86.7l0.3-0.2h0.2l0.1,0.1v0.2L50.7,87l-0.1,0.3
	l-0.2,0.2l-0.2,0.2H50h-0.1l-0.1-0.1v-0.2v-0.2L50,87L50.3,86.7z M55,50.9l-0.9-0.5l-0.5-0.4l-0.9-0.8l-0.7-0.9l-0.7-1.1l-0.5-1.3
	L50.7,45l0.1-0.5l0.3-0.1l0.3,0.1l0.2,0.6l0.2,0.8l0.3,0.8l0.8,1.2l1.1,1.5L55,50.9z M51.8,18.4H52h0.3h0.2l0.2-0.1l-0.1-0.1
	l-0.1-0.1L52.2,18h-0.3l-0.1,0.2L51.8,18.4z M52.3,72.9L52.3,72.9l0.3-0.1l0.1,0.1V73l-0.1,0.2l-0.2,0.2h-0.2H52v-0.2V73L52.3,72.9z
	 M52.3,38.1L52.3,38.1l-0.2,0.2l0.2,0.2h0.2l0.2-0.1v-0.2l-0.1-0.1H52.3z M52.4,23h-0.2l-0.1-0.1v-0.2v-0.1v-0.3l0.1-0.3l0.2-0.3
	l0.1-0.1l0.2-0.2h0.2l0.1,0.1v0.3v0.2h0.3l0.3-0.2h0.3H54l0.2,0.1L54,22.3h-0.2l-0.3,0.1l-0.3,0.3l-0.3,0.2L52.4,23z M52.5,83.5h0.2
	l0.1,0.1l0.1,0.1l-0.1,0.2L52.6,84l-0.1,0.1l-0.2,0.1l-0.2-0.1V84v-0.2l0.1-0.2L52.5,83.5z M52.5,19.1l-0.2,0.1l-0.1,0.1l0.1,0.1
	l0.1,0.1h0.2h0.2l0.2-0.2v-0.1h-0.1l-0.2-0.1H52.5z M52.6,37.6L52.6,37.6l-0.1-0.3v-0.1h0.1h0.2l0.2,0.1v0.1l-0.2,0.2H52.6z
	 M52.8,36.3l-0.2,0.1v0.1l0.1,0.2h0.2H53l0.2-0.1l0.1-0.1v-0.2l-0.2-0.1H53L52.8,36.3z M53,35.7l-0.2-0.1v-0.1l0.1-0.2l0.2-0.1h0.2
	l0.2,0.1l0.1,0.1l-0.1,0.2l-0.3,0.1H53z M53.4,34.1l-0.2,0.1l-0.1,0.1l-0.1,0.2v0.1l0.2,0.1h0.2h0.3l0.2-0.3l0.1-0.2l-0.1-0.1h-0.2
	H53.4z M53.7,32.9L53.5,33l-0.1,0.1v0.2l0.1,0.1h0.2H54h0.2l0.1-0.2V33l-0.1-0.1l-0.3-0.1L53.7,32.9z M53.7,31.2L53.7,31.2l-0.1,0.2
	v0.1l0.3,0.1l0.3-0.1h0.2l0.2-0.2l0.1-0.1v-0.1L54.5,31h-0.3H54L53.7,31.2z M53.9,32.5L53.9,32.5h-0.2l-0.1-0.2v-0.1l0.2-0.2
	l0.1-0.1H54h0.2h0.3l0.1,0.2l-0.1,0.2l-0.2,0.1l-0.2,0.1H53.9z M53.9,24.4L53.9,24.4l-0.2,0.2v0.1l0.2,0.1H54l0.1-0.1l0.1-0.1v-0.1
	v-0.1L54,24.3L53.9,24.4L53.9,24.4z M54,55.3L54,55.3l0.3-0.1h0.2l0.1,0.1l0.2,0.2l0.1,0.4l-0.2,0.3l-0.2,0.2l-0.2,0.2l-0.2,0.3v0.3
	L54,57.2h-0.3L53.7,57v-0.4l0.2-0.5v-0.3L54,55.3z M54.1,28.5L54.1,28.5h-0.3l-0.1-0.2v-0.1l0.1-0.1H54l0.1-0.1V28l0.1-0.1v-0.1h0.2
	h0.1l0.1,0.1l0.1,0.1l-0.1,0.3l-0.2,0.2L54.1,28.5z M54.1,29.5H54l-0.1-0.1l-0.1-0.1l0.1-0.2l0.1-0.1L54,29h0.2h0.2h0.1l0.1,0.1
	l-0.1,0.2v0.1l-0.2,0.1L54.1,29.5z M54,30.6h-0.2h-0.1v-0.2v-0.1l0.1-0.1l0.1-0.1l0.2-0.1h0.2h0.1l0.1,0.1v0.1l-0.1,0.2l-0.1,0.1
	L54,30.6z M54.1,26.1L54.1,26.1L54,26.3l-0.1,0.1l0.1,0.1h0.2h0.1h0.1l0.2-0.1l0.1-0.1v-0.1L54.5,26h-0.2L54.1,26.1z M54.1,27H54
	l-0.1,0.1v0.2l0.1,0.1h0.2l0.2-0.1l0.1-0.1v-0.1V27h-0.1H54.1z M54.1,25.5L54.1,25.5L54,25.4v-0.1l0.1-0.1l0.1-0.1h0.1l0.1,0.1
	l0.1,0.1v0.1l-0.2,0.2H54.1z M54.4,68.7L54.4,68.7l0.1-0.3l0.1-0.5l0.3-0.4l0.1-0.3l0.2-0.6l0.2-0.4L55.2,66L54.9,66l-0.3,0.3
	l-0.3,0.4l-0.3,0.7V68v0.3l0.1,0.3H54.4z M56.7,79.4l0.2-0.2l0.3-0.2h0.1l0.1,0.1l-0.1,0.3l-0.3,0.4l-0.4,0.5L56,80.8l-0.5,0.5
	L55,81.7l-0.3,0.3l-0.3,0.2h-0.2v-0.1v-0.3l0.6-0.6l0.9-0.9L56.7,79.4z M55.6,72.3L55.6,72.3l0.3,0.3l0.1,0.3l0.1,0.4l0.1,0.3v0.2
	V74l0.1,0.3h-0.1H56l-0.2-0.3l-0.3-0.4l-0.2-0.3V73v-0.3v-0.3v-0.1H55.6z M59.1,77.9l0.2-0.1h0.2l0.1,0.1V78l-0.1,0.1l-0.2,0.1
	l-0.1,0.2h-0.1l-0.2-0.1v-0.1L59.1,77.9L59.1,77.9z M63.8,62.2H64h0.2l0.1,0.1l0.2,0.3l0.1,0.3v0.3v0.3l-0.1,0.3l-0.1,0.2l-0.2,0.1
	h-0.1L64,63.7l-0.1-0.4l-0.3-0.4l-0.1-0.3L63.8,62.2z M73,50.9l0.2,0.1l0.1,0.3l0.2,0.5l0.2,0.8l0.1,0.7v1.4V55l-0.2,0.8l-0.2,0.7
	L73.1,57l-0.3,0.6l-0.4,0.6l-0.5,0.6l-0.7,0.7h-0.3h-0.2v-0.3l0.1-0.3l0.3-0.3l0.3-0.4l0.3-0.5L72,57l0.3-0.5l0.3-0.6l0.2-0.5
	l0.2-0.7V54v-0.7v-0.6l-0.1-0.6l-0.1-0.7v-0.3L73,50.9z"/>
</svg>
