<?xml version="1.0" encoding="utf-8"?>
<!-- Generator: Adobe Illustrator 21.0.2, SVG Export Plug-In . SVG Version: 6.00 Build 0)  -->
<svg version="1.1" id="Layer_1" xmlns="http://www.w3.org/2000/svg" xmlns:xlink="http://www.w3.org/1999/xlink" x="0px" y="0px"
	 viewBox="0 0 100 100" style="enable-background:new 0 0 100 100;" xml:space="preserve">
<style type="text/css">
	.st0{fill:#B3B3B1;}
	.st1{fill:#B3B3B3;}
	.st2{fill-rule:evenodd;clip-rule:evenodd;fill:#B3B3B3;}
	.st3{fill-rule:evenodd;clip-rule:evenodd;fill:#B3B3B1;}
</style>
<path class="st0" d="M18.8,48.9c0-0.1,0-0.2,0-0.3c0-0.1,0-0.2,0-0.3c0.2-1,0.3-2,0.4-3c0.1-1,0.3-2,0.6-3c1-3.7,2.5-7,4.6-10
	c2.1-3,4.7-5.5,7.6-7.6c2.9-2.1,6.2-3.6,9.7-4.6c3.5-1,7.2-1.4,11-1.1c3.2,0.3,6.2,0.9,9.1,2c2.8,1.1,5.5,2.6,8,4.6
	c3.2,2.5,5.8,5.4,7.7,8.7c2,3.3,3.3,6.9,4,10.9c0.1,0.5,0.2,1,0.2,1.6c0.1,0.5,0.1,1,0.2,1.6v4.1c-0.1,0.5-0.1,0.9-0.2,1.4
	c-0.1,0.5-0.1,0.9-0.2,1.4c-0.5,3-1.4,5.9-2.7,8.6c-1.3,2.7-2.9,5.2-5,7.4c-1.9,2.1-3.9,3.8-6,5.3c-2.1,1.5-4.4,2.6-6.8,3.5
	c-2.4,0.9-4.8,1.4-7.4,1.6c-2.6,0.3-5.3,0.2-8.1-0.2c-3.9-0.5-7.5-1.7-10.8-3.6c-3.3-1.9-6.2-4.3-8.8-7.3c-1.9-2.3-3.5-4.8-4.6-7.4
	c-1.2-2.6-1.9-5.4-2.4-8.4c-0.1-0.5-0.1-0.9-0.2-1.4c-0.1-0.4-0.1-0.9-0.2-1.4V48.9z M48.2,22.6c-0.6,0-1.1,0.1-1.6,0.1
	c-3.1,0.3-6,0.9-8.8,2c-2.8,1-5.4,2.5-7.9,4.2c-1.4,1-2.6,2.1-3.6,3.4c-1,1.3-1.7,2.8-2,4.5c-0.3,1.3-0.5,2.6-0.7,4
	c-0.2,1.4-0.3,2.7-0.3,4.1c-0.1,2.2,0.1,4.5,0.3,6.7c0.3,2.2,0.7,4.4,1.2,6.6c0.6,2.3,1.4,4.5,2.4,6.7c1,2.1,2.2,4.2,3.6,6.1
	c1,1.4,2.3,2.5,3.6,3.4c1.4,0.9,2.9,1.6,4.5,2.2c3.6,1.3,7.2,1.9,10.9,2c3.6,0.1,7.3-0.4,10.9-1.4c2.5-0.7,4.7-1.8,6.7-3.2
	c2-1.4,3.5-3.3,4.7-5.7c1.7-3.3,3-6.8,3.9-10.2c0.9-3.5,1.4-7.1,1.4-10.8c0-1.4-0.1-2.8-0.2-4.3c-0.1-1.4-0.3-2.9-0.5-4.3
	c-0.3-2.1-1-4.1-2.1-5.8c-1.1-1.7-2.5-3.2-4.4-4.4c-3.1-2-6.3-3.5-9.7-4.4c-3.4-1-6.9-1.5-10.6-1.5C49.4,22.6,48.8,22.6,48.2,22.6z
	 M28.5,38c0-0.9,0.1-1.9,0.2-2.8c0.2-1.2,0.6-2.2,1.2-3.1c0.7-0.8,1.6-1.5,2.7-2c1.6-0.7,3.2-1.2,4.8-1.6c1.6-0.4,3.2-0.7,4.9-0.9
	c1.8-0.3,3.6-0.4,5.4-0.5c1.8-0.1,3.6-0.1,5.4,0c2.2,0.1,4.3,0.3,6.5,0.6c2.1,0.3,4.2,0.8,6.2,1.6c0.4,0.2,0.8,0.3,1.3,0.5
	c0.4,0.2,0.9,0.4,1.4,0.6c1,0.5,1.8,1.2,2.3,2c0.5,0.8,0.9,1.8,1.1,2.9c0.1,0.4,0.2,0.9,0.3,1.3c0.1,0.5,0.1,0.9,0.1,1.4
	c0.1,1.9,0.1,3.8,0,5.7c-0.1,1.9-0.2,3.8-0.3,5.8c-0.4,3.2-0.9,6.4-1.6,9.6c-0.7,3.2-1.7,6.3-2.8,9.4c-0.1,0.2-0.1,0.3-0.2,0.5
	c-0.1,0.2-0.1,0.4-0.2,0.5c-0.1,0.5-0.3,0.9-0.5,1.2c-0.3,0.3-0.6,0.6-1,0.9c-0.9,0.7-1.9,1.2-3,1.6c-1.1,0.4-2.2,0.7-3.3,0.9
	c-3.4,0.7-6.8,1-10.1,0.9c-3.3-0.1-6.7-0.7-10-1.6c-0.4-0.1-0.7-0.2-1.1-0.4c-0.3-0.2-0.7-0.3-1.1-0.5c-0.7-0.4-1.4-0.8-1.9-1.3
	c-0.5-0.5-1-1.2-1.3-2c-1.2-2.9-2.2-5.9-3.1-8.9c-0.8-3-1.4-6.1-1.8-9.2c-0.2-1.7-0.4-3.4-0.5-5.1c-0.1-1.7-0.2-3.4-0.2-5.1
	C28.4,39.9,28.5,39,28.5,38z M37.2,51.7H41v-2.8h-3.8v-7.6H42v-2.7h-7.5v25.3h2.7V51.7z M43.3,38.4v25.4h2.6V38.4H43.3z M57.7,63.5
	c0-0.1,0-0.1,0-0.2c0-3.3,0-6.6,0-9.8c0-3.3,0-6.5-0.1-9.8c0-0.1,0-0.2,0-0.3c0-0.1,0-0.2-0.1-0.3c-0.4-0.7-0.7-1.5-1.1-2.2
	c-0.4-0.7-0.7-1.5-1.1-2.2c-0.1-0.2-0.1-0.3-0.2-0.3c-0.1-0.1-0.2-0.1-0.4-0.1c-0.9,0-1.8,0-2.6,0s-1.7,0-2.5,0
	c-0.3,0-0.4,0-0.5,0.1C49,38.5,49,38.7,49,39c0,4,0,8,0,12.1c0,4,0,8,0,12.1c0,0.1,0,0.2,0,0.3c0,0.1,0,0.2,0,0.3h2.4V51.7H55v12.1
	h2.6C57.6,63.6,57.6,63.6,57.7,63.5z M51.5,48.2v-7.1c0.3,0,0.6,0,1,0c0.3,0,0.7,0,1,0c0.1,0,0.1,0,0.2,0.1s0.1,0.1,0.1,0.2
	c0.2,0.5,0.4,0.9,0.6,1.4c0.2,0.5,0.4,0.9,0.6,1.4c0,0.1,0,0.1,0,0.1c0,0,0,0.1,0,0.1c0,0.6,0,1.2,0,1.8s0,1.3,0,1.9H51.5z
	 M58.3,38.4v2.9h2.7v22.4h2.7V41.3h2.7v-2.8H58.3z"/>
</svg>
