<?xml version="1.0" encoding="utf-8"?>
<!-- Generator: Adobe Illustrator 21.0.2, SVG Export Plug-In . SVG Version: 6.00 Build 0)  -->
<svg version="1.1" id="Layer_1" xmlns="http://www.w3.org/2000/svg" xmlns:xlink="http://www.w3.org/1999/xlink" x="0px" y="0px"
	 viewBox="0 0 100 100" style="enable-background:new 0 0 100 100;" xml:space="preserve">
<style type="text/css">
	.st0{fill:#B3B3B1;}
	.st1{fill:#B3B3B3;}
	.st2{fill-rule:evenodd;clip-rule:evenodd;fill:#B3B3B3;}
	.st3{fill-rule:evenodd;clip-rule:evenodd;fill:#B3B3B1;}
</style>
<path class="st0" d="M18.1,35.2c0.3,0,0.7,0.1,1,0.1c1.1,0.1,2.2,0.2,3.2,0.4c1.1,0.2,2.1,0.4,3.2,0.6c3.2,0.6,6.3,1.4,9.4,2.4
	s6.1,2.1,9.1,3.2c1.7,0.7,3.4,1.3,5,2c1.7,0.7,3.3,1.4,5,2.1c1.7,0.7,3.3,1.5,5,2.3c1.7,0.7,3.3,1.5,4.9,2.4
	c2.6,1.3,5.1,2.6,7.7,3.9c2.5,1.3,5.1,2.7,7.6,4c0.7,0.4,1.5,0.8,2.2,1.3c0.7,0.5,1.4,0.9,2.2,1.3c0.5,0.3,1.1,0.6,1.6,0.9
	c0.5,0.3,1.1,0.6,1.7,0.8c1,0.4,2,0.7,3,0.7c1,0,2-0.2,3-0.7c0.3-0.1,0.6-0.3,0.9-0.4c0.3-0.1,0.7-0.1,1,0c0.3,0,0.6,0.2,0.8,0.3
	c0.2,0.2,0.3,0.4,0.4,0.7c0,0.1,0,0.3,0,0.4c0,0.2-0.1,0.3-0.2,0.4c-0.3,0.5-0.6,0.9-1,1.3c-0.4,0.3-0.9,0.6-1.4,0.8
	c-0.7,0.3-1.4,0.5-2.2,0.6c-0.8,0.1-1.5,0.1-2.3,0c0,0-0.1,0-0.1,0c0,0-0.1,0-0.2,0c0,0.2,0,0.3,0,0.5c0,0.1,0.1,0.3,0.1,0.4
	c0,0.6-0.1,1.1-0.4,1.5c-0.3,0.4-0.8,0.7-1.4,0.8c-0.6,0.1-1.2,0.1-1.8,0c-0.6-0.1-1.2-0.3-1.8-0.6c-0.7-0.3-1.4-0.7-2.1-1.2
	c-0.6-0.4-1.2-0.9-1.8-1.4c-0.2-0.2-0.4-0.3-0.7-0.5c-0.2-0.2-0.4-0.4-0.7-0.6c-0.6-0.5-1.2-0.8-1.8-1c-0.7-0.2-1.3-0.4-2-0.5
	c-1-0.1-1.9-0.2-2.9-0.1c-1,0-2,0.1-2.9,0.1c-0.9,0-1.8,0-2.7,0c-0.9,0-1.7-0.2-2.6-0.4c-1.3-0.3-2.4-0.9-3.4-1.6
	c-1-0.7-1.8-1.7-2.5-2.7c-0.3-0.5-0.7-1-0.9-1.4c-0.3-0.5-0.6-1-0.8-1.4c-0.3-0.6-0.8-1.1-1.3-1.4c-0.5-0.3-1.2-0.5-1.9-0.6
	c-0.5,0-1.1-0.1-1.6-0.1c-0.5,0-1.1,0-1.7,0.1c-0.5,0-1,0-1.5,0c-0.5,0-1,0-1.5,0c-0.7,0-1.4,0.1-2.1,0c-0.7,0-1.4-0.1-2.1-0.1
	c-1,0-1.9-0.2-2.9-0.4c-1-0.2-1.9-0.5-2.9-0.8c-0.1,0-0.2-0.1-0.2-0.1c-0.4,0.7-0.9,1.2-1.6,1.4c-0.7,0.2-1.3,0.3-2,0.3
	c-1.3,0.1-2.6,0-3.8-0.4c-1.2-0.3-2.4-0.8-3.6-1.4c-0.5-0.3-1.1-0.5-1.7-0.7c-0.6-0.2-1.2-0.3-1.8-0.3c-0.3,0-0.4,0.1-0.5,0.2
	c-0.1,0.1-0.1,0.3-0.1,0.6c0,0.2,0,0.4-0.1,0.6c0,0.2-0.1,0.4-0.3,0.6c-0.2,0.2-0.5,0.4-0.7,0.6c-0.3,0.2-0.5,0.4-0.8,0.5
	c-0.6,0.2-1.2,0.2-1.9-0.1c-0.7-0.3-1-0.9-1.1-1.8c0-0.7,0.1-1.4,0.4-2c0.3-0.6,0.7-1.1,1.3-1.5c0.5-0.5,1.1-0.8,1.8-1.1
	c0.7-0.2,1.3-0.4,2-0.5c0.4-0.1,0.9-0.2,1.3-0.2c0.5,0,0.9-0.1,1.3-0.1h-0.1c-0.9-0.7-1.8-1.3-2.7-1.8c-0.9-0.6-1.9-1-3-1.4
	c-0.4-0.2-0.8-0.3-1.2-0.4c-0.4-0.1-0.8-0.1-1.3-0.1c-0.6,0-1.2,0.1-1.8,0.3s-1.1,0.5-1.7,0.8c-0.3,0.2-0.6,0.4-0.9,0.7
	c-0.3,0.3-0.6,0.5-0.9,0.7c-0.2,0.2-0.4,0.3-0.6,0.5c-0.2,0.1-0.4,0.2-0.6,0.3c-0.3,0.1-0.6,0.1-0.8,0c-0.2-0.1-0.4-0.2-0.6-0.5
	c-0.1-0.1-0.2-0.3-0.3-0.4c-0.1-0.2-0.1-0.3-0.2-0.5c0-0.1-0.1-0.3,0-0.4c0-0.1,0.1-0.2,0.2-0.3c0-0.1,0.1-0.2,0.1-0.2
	c0-0.1,0-0.1,0-0.2c0-0.1,0-0.2,0-0.3c0-0.1-0.1-0.2-0.1-0.3c0.1,0,0.2,0.1,0.4,0.1c0.1,0,0.2,0.1,0.3,0.1c0.1,0,0.2,0.1,0.4,0
	c0.1,0,0.2-0.1,0.4-0.2c0.3-0.3,0.6-0.6,0.8-1.1c0.2-0.5,0.2-0.9,0-1.3c-0.1-0.4-0.4-0.7-0.8-0.8c-0.4-0.1-0.8,0-1.1,0.4
	c-0.1,0.1-0.3,0.3-0.4,0.5c-0.1,0.2-0.2,0.4-0.3,0.6c0,0.1-0.1,0.3,0,0.4c0,0.2,0,0.3,0,0.4c0,0.1,0.1,0.3,0.1,0.4
	c0,0.1,0.1,0.2,0.2,0.4c-0.2,0-0.4,0-0.6-0.1c-0.2,0-0.3-0.1-0.4-0.2c0,0-0.1-0.1-0.1-0.1c0,0-0.1,0-0.1,0c-0.4,0.1-0.8,0.1-1.1,0
	c-0.3-0.1-0.7-0.3-0.9-0.6c-0.2-0.2-0.3-0.4-0.5-0.7c-0.2-0.2-0.3-0.5-0.4-0.8c-0.1-0.2-0.2-0.4-0.2-0.6c0-0.2,0.1-0.4,0.4-0.6
	C4,40.2,4.3,40,4.6,39.7c0.3-0.3,0.6-0.5,0.8-0.8c0.1,0,0.1-0.1,0.2-0.2c0-0.1,0-0.1,0-0.2c0-0.1,0-0.3,0.1-0.4
	c0-0.1,0.1-0.2,0.1-0.3c0.4-0.4,0.8-0.8,1.3-1c0.5-0.3,1-0.5,1.5-0.7c0.8-0.3,1.7-0.5,2.5-0.6s1.7-0.2,2.6-0.3c0.1,0,0.2,0,0.3,0
	c0.1,0,0.2,0,0.3,0H17C17.4,35.2,17.7,35.2,18.1,35.2z M51.1,51.2C51.2,51.2,51.2,51.2,51.1,51.2c0.2,0.1,0.3,0.2,0.4,0.2
	c0.1,0.1,0.2,0.1,0.3,0.2c0.9,0.6,1.6,1.3,2.3,2.1c0.7,0.8,1.3,1.6,1.7,2.5c0.3,0.6,0.7,1.1,1.1,1.7c0.4,0.5,0.8,1.1,1.3,1.6
	c0.9,1,1.9,1.7,3.1,2.3c1.2,0.5,2.4,0.9,3.8,0.9c0.8,0,1.6,0.1,2.4,0.1s1.6,0,2.4,0c0.7,0,1.3,0,2,0.1c0.7,0,1.4,0.1,2.1,0.2
	c0.6,0.1,1.2,0.3,1.8,0.5c0.6,0.2,1.2,0.5,1.7,0.9c0.6,0.5,1.1,0.9,1.7,1.4c0.5,0.4,1.1,0.9,1.7,1.4c0.5,0.4,1.1,0.8,1.6,1.1
	c0.5,0.3,1.2,0.5,1.9,0.6c0.3,0,0.6,0.1,0.9,0c0.3,0,0.6-0.1,0.8-0.2c0.3-0.1,0.5-0.3,0.6-0.5c0.1-0.2,0.2-0.5,0.2-0.8
	c0-0.3-0.1-0.5-0.2-0.7c-0.2-0.2-0.4-0.3-0.6-0.4c-0.8-0.3-1.5-0.8-2.2-1.3c-0.7-0.5-1.3-1.1-1.9-1.7c-0.2-0.2-0.3-0.4-0.5-0.6
	c-0.2-0.2-0.3-0.4-0.4-0.6c-0.5-0.6-1-1.1-1.7-1.4c-0.7-0.3-1.4-0.5-2.1-0.6c-0.9,0-1.8-0.1-2.7-0.1c-0.9,0-1.8-0.1-2.7-0.1
	c-0.5,0-0.9-0.1-1.4-0.2c-0.5-0.1-0.9-0.3-1.3-0.7c-0.4-0.3-0.7-0.6-1-1c-0.3-0.4-0.5-0.8-0.7-1.2c-0.3-0.5-0.5-1-0.8-1.6
	c-0.2-0.5-0.6-1-1-1.4c0.4,0.2,0.7,0.5,1,0.8c0.3,0.3,0.6,0.6,0.8,0.9c0.1,0.2,0.2,0.3,0.3,0.5c0.1,0.2,0.3,0.3,0.4,0.5
	c0.5,0.7,1.1,1.2,1.8,1.6c0.7,0.4,1.4,0.7,2.2,0.8c0.9,0.1,1.7,0.3,2.5,0.4c0.8,0.1,1.7,0.2,2.5,0.4c0.7,0.1,1.3,0.3,1.8,0.5
	c0.5,0.2,1.1,0.6,1.5,1.1c0.3,0.3,0.6,0.7,0.9,1c0.3,0.3,0.6,0.6,0.9,0.9c0.4,0.4,0.9,0.8,1.3,1.2c0.5,0.3,1,0.6,1.6,0.8
	c0.4,0.2,0.9,0.3,1.3,0.5c0.4,0.1,0.8,0.3,1.2,0.6c0,0,0.1,0.1,0.2,0.1c0.1,0,0.2,0,0.2,0c0.6,0.1,1.1,0.2,1.7,0.2
	c0.5,0,1.1,0,1.6-0.1c0.5,0,1-0.2,1.5-0.4c0.5-0.2,0.9-0.5,1.4-0.8c0.1-0.1,0.2-0.2,0.4-0.4c0.1-0.2,0.2-0.3,0.3-0.4
	c0.1-0.3,0.1-0.6-0.1-0.8c-0.2-0.2-0.4-0.3-0.7-0.3c-0.1,0-0.2,0-0.2,0s-0.1,0-0.2,0.1c-0.2,0-0.4,0.1-0.7,0.2
	c-0.2,0.1-0.5,0.2-0.8,0.2c-0.2,0.1-0.4,0.2-0.7,0.2c-0.2,0.1-0.5,0.1-0.8,0.1c-0.8,0-1.6,0-2.3-0.1c-0.8-0.1-1.5-0.4-2.2-0.7
	c-0.9-0.4-1.7-0.9-2.6-1.3c-0.8-0.5-1.7-0.9-2.6-1.3c-0.5-0.3-1-0.6-1.6-0.9c-0.5-0.3-1-0.6-1.6-0.9c-0.5-0.3-1-0.5-1.6-0.8
	c-0.5-0.3-1-0.5-1.5-0.8c-1.2-0.6-2.4-1.2-3.7-1.9c-1.2-0.7-2.4-1.3-3.7-1.8c-2-1-3.9-1.9-5.9-2.7c-2-0.9-4-1.8-6-2.6
	c-2-0.8-4-1.7-6-2.5c-2-0.8-4.1-1.5-6.1-2.3c-1.6-0.5-3.1-1.1-4.7-1.6c-1.6-0.5-3.2-1-4.8-1.4c-0.3-0.1-0.6-0.2-0.9-0.2
	C33,40,32.7,40,32.4,40c-0.2,0-0.3,0-0.3,0c0,0.1,0,0.2,0.1,0.4c0.2,0.3,0.3,0.6,0.5,0.9c0.2,0.3,0.3,0.7,0.4,1c0,0-0.1,0-0.1,0
	c0,0,0-0.1,0-0.1c-0.7-0.7-1.4-1.2-2.2-1.7c-0.8-0.5-1.6-0.9-2.4-1.3c-1-0.5-2-0.9-3.1-1.1c-1-0.3-2.1-0.5-3.1-0.8
	c-0.6-0.1-1.2-0.2-1.8-0.2c-0.6,0-1.1,0-1.7,0.1c-0.5,0-0.9,0.2-1.4,0.3c-0.4,0.2-0.8,0.4-1.2,0.7c-0.1,0.1-0.2,0.2-0.2,0.3
	c0,0.1,0.1,0.2,0.2,0.2c0.7,0.3,1.4,0.6,2,1.1c0.6,0.5,1.1,1,1.6,1.6c0.2,0.3,0.3,0.5,0.5,0.7c0.2,0.2,0.3,0.5,0.5,0.7
	c-0.3-0.2-0.7-0.4-1-0.7c-0.3-0.2-0.7-0.5-1-0.8c-0.7-0.4-1.4-0.8-2.1-1.2c-0.7-0.4-1.5-0.6-2.4-0.8c-0.2,0-0.4-0.1-0.7-0.2
	c-0.2-0.1-0.4-0.2-0.7-0.4c-0.1,0-0.2-0.1-0.3-0.2c-0.1-0.1-0.1-0.2-0.1-0.4c0,0,0.1,0,0.2,0.1c0,0,0.1,0,0.1,0c0,0,0.1,0,0.1,0
	c0.7,0.1,1.3,0.1,1.9-0.1c0.6-0.2,1.2-0.5,1.6-1c0,0,0.1-0.1,0.1-0.2c0-0.1,0.1-0.1,0.1-0.2c-0.1,0-0.2,0-0.2,0c0,0-0.1-0.1-0.1-0.1
	c-1.1-0.1-2.2-0.1-3.2-0.1c-1.1,0-2.1,0.1-3.2,0.3c-0.5,0.1-1,0.3-1.5,0.4c-0.5,0.1-1,0.3-1.4,0.6c-0.1,0.1-0.3,0.2-0.4,0.3
	c-0.1,0.1-0.2,0.2-0.3,0.4c-0.1,0.1-0.2,0.3-0.1,0.4c0,0.1,0.1,0.2,0.3,0.3c0.1,0,0.3,0.1,0.4,0c0.1,0,0.2-0.1,0.3-0.2
	c0.1-0.3,0.3-0.5,0.5-0.7C7.8,38,8,37.8,8.3,37.7c0.2,0,0.4,0,0.6,0c0.2,0,0.4,0,0.6,0c0.1,0,0.3,0,0.5,0.1c0.2,0,0.3,0.1,0.5,0.1
	c-0.3,0.5-0.7,0.9-1.1,1.1c-0.4,0.3-0.9,0.5-1.5,0.6c-0.1,0-0.3,0-0.4,0c-0.2,0-0.3,0-0.4,0.1c-0.6,0-1,0.2-1.4,0.5
	c-0.4,0.3-0.7,0.7-1,1.2c-0.1,0.1-0.1,0.3-0.1,0.5c0,0.2,0.1,0.3,0.2,0.5c0.1,0.1,0.2,0.2,0.3,0.3c0.1,0.1,0.2,0.2,0.4,0.2
	c0.3,0.2,0.5,0.2,0.8,0.2c0.2,0,0.4-0.2,0.6-0.4c0.1-0.1,0.2-0.2,0.2-0.3c0-0.1,0.1-0.2,0.2-0.3c0.1-0.2,0.3-0.4,0.4-0.7
	c0.2-0.2,0.3-0.5,0.4-0.7c0.4-0.6,0.9-0.8,1.5-0.7c0.6,0.1,1.1,0.3,1.3,0.7c0.3,0.5,0.5,1,0.5,1.6c0,0.6-0.2,1.1-0.6,1.6
	c-0.3,0.3-0.6,0.7-1,1c-0.3,0.3-0.7,0.6-1,0.8c-0.1,0.1-0.2,0.2-0.2,0.3c0,0.1,0.1,0.2,0.2,0.3c0.1,0.1,0.2,0.2,0.3,0.2
	c0.1,0,0.2,0,0.4,0c0.1,0,0.2-0.1,0.4-0.1c0.1,0,0.2-0.1,0.3-0.1c0.2-0.1,0.3-0.3,0.5-0.4c0.2-0.2,0.3-0.3,0.5-0.5
	c0.2-0.2,0.4-0.4,0.7-0.6c0.2-0.2,0.5-0.3,0.8-0.4c0.2,0,0.3-0.1,0.5-0.2c0.1-0.1,0.3-0.2,0.4-0.3c0.4-0.3,0.7-0.7,0.9-1.1
	c0.2-0.4,0.2-0.9,0.1-1.4c0-0.2-0.1-0.4-0.2-0.7c-0.1-0.2-0.2-0.4-0.2-0.7c0.1,0,0.3,0.1,0.4,0.2c0.1,0.1,0.3,0.1,0.4,0.2
	c0.3,0.2,0.6,0.5,0.8,0.8c0.2,0.3,0.4,0.6,0.6,0.9c0.1,0.3,0.3,0.5,0.5,0.6c0.2,0.2,0.4,0.3,0.8,0.4c1,0.2,2,0.5,2.9,0.9
	c0.9,0.4,1.7,1,2.5,1.7c0.2,0.2,0.4,0.4,0.6,0.7c0.2,0.2,0.4,0.5,0.6,0.7c-0.2-0.7-0.4-1.3-0.5-1.9c-0.1-0.6,0-1.3,0.1-2
	c0,0.1,0.1,0.2,0.1,0.2c0,0.1,0,0.1,0.1,0.2c0.1,0.3,0.3,0.7,0.4,1c0.2,0.3,0.3,0.7,0.5,1c0.3,0.6,0.6,1.2,1,1.7
	c0.4,0.5,0.9,0.9,1.6,1.1c0.2,0.1,0.4,0.2,0.7,0.3c0.2,0.1,0.5,0.2,0.7,0.3c0.3,0.1,0.5,0.2,0.8,0.3c0.3,0.1,0.5,0.2,0.8,0.3h-0.1
	c-1-0.2-2.1-0.3-3.2-0.4c-1.1-0.1-2.1-0.1-3.2-0.1c-0.7,0-1.5,0.1-2.2,0.3c-0.7,0.1-1.4,0.3-2,0.7c-0.6,0.3-1.1,0.7-1.5,1.1
	c-0.4,0.4-0.7,1-0.9,1.6c-0.1,0.2-0.1,0.4-0.1,0.7c0,0.2,0.1,0.5,0.2,0.7c0.2,0.3,0.5,0.6,0.9,0.7c0.4,0.1,0.8,0,1.1-0.2
	c0.1-0.1,0.3-0.3,0.4-0.4c0.1-0.2,0.3-0.3,0.4-0.5c0.1-0.2,0.2-0.3,0.2-0.4c0-0.1-0.1-0.2-0.3-0.3c-0.2-0.1-0.3-0.2-0.4-0.4
	c-0.1-0.2,0-0.3,0.1-0.4c0.1-0.1,0.2-0.2,0.3-0.3c0.1-0.1,0.2-0.2,0.4-0.3c0.3-0.1,0.5-0.2,0.8-0.2c0.3,0,0.5,0,0.8,0
	c0.7,0,1.5,0.1,2.2,0.3c0.7,0.2,1.4,0.4,2.1,0.6c0.7,0.2,1.3,0.4,2,0.6c0.7,0.2,1.4,0.3,2.1,0.3c0.4,0,0.9,0,1.3-0.1
	c0.5,0,0.9-0.2,1.3-0.3c0.5-0.2,0.9-0.5,1.3-0.9c0.3-0.4,0.5-0.9,0.6-1.5c0-0.4,0.1-0.9,0-1.3c0-0.4-0.1-0.8-0.2-1.3
	c0-0.3-0.1-0.7-0.2-1c-0.1-0.3-0.1-0.6-0.2-0.9c0.4,0.3,0.9,0.5,1.3,0.8c0.5,0.3,0.9,0.6,1.4,0.8c0.5,0.2,1,0.4,1.5,0.6
	c0.5,0.2,1,0.4,1.5,0.6c0.5,0.1,1,0.3,1.6,0.4c0.5,0.1,1.1,0.3,1.6,0.4c0.5,0.1,1,0.2,1.6,0.3c0.5,0.1,1,0.2,1.6,0.2
	c-1.8,0.2-3.5,0.1-5.2-0.2c-1.7-0.3-3.4-0.7-5.1-1.2c0.2,0.5,0.3,1,0.4,1.4c0.1,0.5,0.1,1,0.1,1.5c0,0.1,0,0.2,0.1,0.2
	c0,0.1,0.1,0.1,0.2,0.2c1.3,0.6,2.7,1,4.1,1.4c1.4,0.3,2.8,0.5,4.2,0.6c1.2,0,2.4,0,3.7,0c1.2,0,2.5,0,3.7,0c0.1,0,0.2,0,0.2-0.1
	c0,0,0-0.1,0-0.1c-0.1-0.2-0.2-0.4-0.3-0.6c-0.1-0.2-0.2-0.3-0.3-0.5c-0.1-0.2-0.3-0.4-0.5-0.6C51.4,51.5,51.2,51.4,51.1,51.2
	C51.1,51.2,51.1,51.2,51.1,51.2z M7.5,39c0.3,0,0.7-0.1,0.9-0.2c0.3-0.1,0.4-0.3,0.5-0.5c-0.4-0.2-0.8-0.2-1.1,0
	C7.6,38.5,7.5,38.7,7.5,39z M13.2,37.3c0.3-0.3,0.7-0.4,1.1-0.4c0.4,0,0.8,0,1.2,0.1c-0.1,0.2-0.5,0.3-1.1,0.4
	C13.8,37.4,13.4,37.4,13.2,37.3z"/>
</svg>
