<?xml version="1.0" encoding="utf-8"?>
<!-- Generator: Adobe Illustrator 21.0.2, SVG Export Plug-In . SVG Version: 6.00 Build 0)  -->
<svg version="1.1" id="Layer_1" xmlns="http://www.w3.org/2000/svg" xmlns:xlink="http://www.w3.org/1999/xlink" x="0px" y="0px"
	 viewBox="0 0 100 100" style="enable-background:new 0 0 100 100;" xml:space="preserve">
<style type="text/css">
	.st0{fill:#B3B3B1;}
	.st1{fill:#B3B3B3;}
	.st2{fill-rule:evenodd;clip-rule:evenodd;fill:#B3B3B3;}
	.st3{fill-rule:evenodd;clip-rule:evenodd;fill:#B3B3B1;}
</style>
<path class="st0" d="M3.1,50.4c0-0.2,0-0.5,0.1-0.8c0-0.1,0-0.2,0-0.3c0-0.1,0-0.2,0-0.4h7.5c0,0.5,0,0.9,0,1.3c0,0.4,0,0.8,0,1.2
	c0,0.4,0,0.8,0,1.2c0,0.4,0,0.8,0.1,1.1c0.1,0.8,0.5,1.5,1.2,2c0.6,0.5,1.4,0.9,2.3,1c0.6,0,1.3,0,1.8-0.1c0.6-0.1,1.1-0.4,1.6-0.8
	c0.5-0.4,0.9-0.8,1.1-1.4c0.2-0.5,0.3-1.1,0.3-1.8c0-0.8,0.1-1.5,0-2.3c0-0.8,0-1.5,0-2.3c0-2.5,0-4.9,0-7.3c0-2.4,0-4.8,0-7.2
	c0-0.1,0-0.3,0-0.4c0-0.1,0-0.3,0-0.4h7.7c0,0.2,0,0.4,0,0.5c0,0.2,0,0.4,0,0.5c0,0.6,0,1.3,0,2s0,1.4,0,2c0,2.4,0,4.7,0,7.1
	c0,2.4,0,4.8,0,7.2c0,0.9-0.1,1.8-0.2,2.7c-0.1,0.9-0.4,1.8-0.8,2.6c-0.6,1.3-1.4,2.3-2.4,3.1c-1,0.8-2.1,1.4-3.4,1.8
	c-1.7,0.5-3.5,0.8-5.2,0.9c-1.8,0-3.5-0.2-5.3-0.7c-1.7-0.5-3.1-1.4-4.1-2.6c-1-1.2-1.7-2.7-2.1-4.5c-0.1-0.3-0.2-0.5-0.2-0.8
	C3.1,54.5,3,54.2,3,54v-2.7C3,51,3.1,50.7,3.1,50.4z M35.6,53.8c-0.2,1.6,0.1,2.8,1,3.7c0.8,0.9,2.1,1.1,3.7,0.8
	c0.4-0.1,0.8-0.3,1.1-0.5c0.3-0.3,0.6-0.6,0.9-1c0,0,0.1-0.1,0.2-0.2c0.1-0.1,0.2-0.1,0.3-0.1c1,0,2.1,0,3.2,0c1.1,0,2.1,0,3.2,0
	c0,0,0.1,0,0.1,0c0,0,0.1,0,0.1,0c0,0.6,0,1.2-0.3,1.7c-0.2,0.5-0.5,1-0.9,1.4c-0.7,0.9-1.6,1.6-2.5,2.2c-1,0.5-2,0.9-3,1.3
	c-1.7,0.5-3.4,0.7-5.1,0.5c-1.7-0.2-3.2-0.8-4.7-1.8c-1.2-0.8-2.2-1.7-2.9-2.9c-0.7-1.2-1.2-2.4-1.4-3.9c-0.3-1.9-0.3-3.7,0.1-5.5
	c0.4-1.8,1.2-3.4,2.3-5c0.9-1.2,1.9-2.1,3.1-2.7s2.6-0.9,4.1-0.9c0.7,0,1.4,0,2.2,0.1c0.7,0.1,1.4,0.2,2.1,0.3
	c1.3,0.3,2.4,0.8,3.3,1.6c0.9,0.8,1.7,1.8,2.3,2.9c0.6,1.2,1,2.5,1.2,3.8c0.2,1.3,0.3,2.7,0.2,4H35.6z M35.6,49.5h6.9
	c0-1.2-0.3-2.2-1-2.9c-0.7-0.7-1.7-1-2.9-1c-1,0-1.7,0.4-2.3,1.2C35.7,47.5,35.5,48.4,35.6,49.5z M72,53.8H58.2
	c-0.1,1.4,0.2,2.6,0.9,3.6c0.8,1,2,1.3,3.7,0.9c0.5-0.1,0.9-0.3,1.3-0.6c0.4-0.2,0.7-0.6,1-1c0,0,0-0.1,0.1-0.1
	c0.1,0,0.1-0.1,0.2-0.1c1.1,0,2.2,0,3.3,0s2.2,0,3.3,0c0,0,0.1,0,0.1,0.1c0,0.7-0.2,1.3-0.5,1.9c-0.3,0.6-0.7,1.1-1.2,1.6
	c-0.9,0.9-1.8,1.6-2.9,2.2c-1,0.5-2.2,0.9-3.4,1.1c-1.2,0.2-2.4,0.3-3.6,0.2c-1.2-0.1-2.3-0.4-3.5-0.9c-1.5-0.6-2.7-1.5-3.7-2.7
	c-0.9-1.1-1.6-2.5-1.9-4.1c-0.5-2.2-0.6-4.4-0.1-6.4c0.5-2,1.5-3.9,3-5.7c0.5-0.6,1.2-1.2,1.9-1.6c0.7-0.4,1.5-0.7,2.4-0.9
	c1.1-0.3,2.3-0.4,3.4-0.3c1.1,0.1,2.3,0.2,3.4,0.5c1.3,0.4,2.4,1,3.3,1.8c0.9,0.8,1.6,1.8,2.2,3.1c0.5,1.1,0.8,2.3,1,3.6
	C71.9,51.3,72,52.5,72,53.8z M65.1,49.5c0-0.7-0.2-1.4-0.4-2c-0.3-0.6-0.7-1.1-1.3-1.4c-0.6-0.4-1.3-0.5-2.1-0.4
	c-0.8,0.1-1.4,0.3-1.9,0.6c-0.5,0.4-0.8,0.9-1,1.5c-0.1,0.6-0.2,1.2-0.2,1.7H65.1z M80.9,69.9h-7.1V41.8c0.3,0,0.6,0,1,0
	c0.3,0,0.6,0,0.9,0c0.8,0,1.6,0,2.4,0c0.8,0,1.6,0,2.4,0c0.2,0,0.3,0,0.4,0.1s0.1,0.2,0.1,0.4c0,0.4,0,0.7,0,1.1c0,0.4,0,0.8,0,1.2
	c0,0,0.1-0.1,0.1-0.1c0,0,0.1,0,0.1,0c0.6-1.2,1.5-2,2.5-2.5c1-0.5,2.2-0.7,3.6-0.6c2,0,3.7,0.6,5.1,1.6c1.4,1,2.4,2.6,3.1,4.6
	c0.4,1.1,0.6,2.2,0.7,3.3s0.1,2.2,0,3.3c-0.1,0.9-0.3,1.8-0.5,2.7c-0.2,0.9-0.5,1.7-1,2.6c-0.7,1.5-1.7,2.6-2.9,3.3
	c-1.2,0.7-2.6,1.1-4.1,1.2c-0.8,0-1.6,0-2.5-0.1c-0.8-0.1-1.6-0.4-2.3-0.9c-0.3-0.2-0.6-0.4-0.9-0.6c-0.3-0.2-0.6-0.5-0.9-0.8V69.9z
	 M88.7,51.4c0-0.4-0.1-0.7-0.1-1c-0.1-1.3-0.7-2.3-1.6-2.9c-0.9-0.7-2-0.9-3.3-0.6c-0.7,0.1-1.2,0.4-1.6,0.9c-0.4,0.5-0.7,1-0.9,1.7
	c-0.3,1.1-0.5,2.2-0.5,3.3c0,1.1,0.1,2.3,0.4,3.5c0.1,0.4,0.2,0.8,0.5,1.1c0.2,0.3,0.5,0.6,0.9,0.9c1.1,0.7,2.3,0.9,3.6,0.4
	c1.2-0.5,2-1.3,2.3-2.7c0.1-0.6,0.2-1.2,0.3-1.8c0-0.6,0.1-1.1,0.2-1.5C88.8,52.2,88.7,51.8,88.7,51.4z"/>
</svg>
