<?xml version="1.0" encoding="utf-8"?>
<!-- Generator: Adobe Illustrator 21.0.2, SVG Export Plug-In . SVG Version: 6.00 Build 0)  -->
<svg version="1.1" id="Layer_1" xmlns="http://www.w3.org/2000/svg" xmlns:xlink="http://www.w3.org/1999/xlink" x="0px" y="0px"
	 viewBox="0 0 100 100" style="enable-background:new 0 0 100 100;" xml:space="preserve">
<style type="text/css">
	.st0{fill:#B3B3B1;}
	.st1{fill:#B3B3B3;}
	.st2{fill-rule:evenodd;clip-rule:evenodd;fill:#B3B3B3;}
	.st3{fill-rule:evenodd;clip-rule:evenodd;fill:#B3B3B1;}
</style>
<path class="st0" d="M54.4,16.3c1.4,0.1,2.7,0.2,4,0.3c2.5,0.2,5,0.5,7.5,0.9c2.5,0.4,4.9,1,7.3,1.8c0.6,0.2,1.2,0.5,1.9,0.7
	c0.6,0.2,1.3,0.5,1.9,0.8c0.9,0.4,1.6,0.9,2.2,1.5c0.6,0.6,1,1.4,1.3,2.3c0.2,0.4,0.3,0.9,0.3,1.2c0.1,0.4,0.1,0.8,0.1,1.2
	c0,1.4,0,2.7-0.1,4.1c-0.1,1.3-0.2,2.7-0.3,4.1c-0.2,2.2-0.4,4.4-0.8,6.5c-0.4,2.1-0.9,4.3-1.4,6.4c-1,3.8-2.3,7.5-4,11.1
	c-1.7,3.5-3.7,6.9-6,10.2c-1.6,2.2-3.3,4.3-5.1,6.3c-1.8,2-3.7,3.9-5.8,5.7c-0.5,0.5-1,1-1.5,1.4c-0.5,0.4-1.1,0.9-1.7,1.3
	c-0.4,0.4-0.9,0.7-1.4,0.9c-0.5,0.2-1.1,0.4-1.7,0.4c-0.7,0.1-1.3,0.1-1.9,0c-0.6-0.1-1.2-0.3-1.9-0.7c-0.3-0.2-0.7-0.5-1.1-0.7
	c-0.4-0.2-0.7-0.5-1.1-0.8c-1.8-1.6-3.6-3.3-5.3-5c-1.7-1.7-3.4-3.6-4.9-5.5c-2.9-3.5-5.3-7.1-7.4-11s-3.7-8-4.9-12.3
	c-0.4-1.6-0.8-3.2-1.2-4.8c-0.4-1.6-0.6-3.3-0.9-4.9c-0.3-1.8-0.5-3.5-0.6-5.4c-0.1-1.8-0.2-3.6-0.3-5.4c0-0.5,0-1.1,0-1.6
	c0-0.5,0-1.1,0.1-1.6c0.2-1.2,0.6-2.2,1.2-3.1c0.7-0.9,1.5-1.5,2.6-2c1-0.4,2.1-0.8,3.2-1.2c1.1-0.4,2.2-0.7,3.3-1
	c1.2-0.3,2.4-0.5,3.7-0.8c1.3-0.2,2.5-0.5,3.8-0.6c1.2-0.2,2.3-0.3,3.4-0.4c1.1-0.1,2.3-0.2,3.4-0.2c0.9-0.1,1.9-0.1,2.8-0.1
	c1,0,1.9-0.1,2.8-0.1C51.7,16.1,53,16.2,54.4,16.3z M50.3,17.9c-0.1,0-0.2,0-0.3,0c-0.1,0-0.2,0-0.4,0c-1.3,0.1-2.6,0.1-3.9,0.2
	c-1.3,0.1-2.6,0.1-3.9,0.2c-1.7,0.2-3.4,0.4-5,0.6c-1.6,0.2-3.3,0.6-4.9,0.9c-1.3,0.3-2.5,0.6-3.7,1c-1.2,0.4-2.4,0.9-3.6,1.4
	c-0.6,0.2-1.1,0.5-1.5,0.9c-0.5,0.4-0.8,0.9-1,1.5c-0.2,0.4-0.3,0.9-0.4,1.3s-0.1,0.8-0.1,1.3c0,1.8,0.1,3.5,0.2,5.2
	c0.1,1.7,0.3,3.4,0.5,5.2c0.2,1.7,0.5,3.4,0.8,5.1c0.3,1.7,0.7,3.4,1.2,5.1c1.1,4,2.5,7.8,4.3,11.5c1.8,3.7,3.9,7.1,6.5,10.4
	c1.7,2.3,3.5,4.4,5.4,6.3c1.9,2,4,3.9,6.1,5.7c0.3,0.3,0.6,0.6,0.9,0.8c0.4,0.2,0.7,0.4,1.1,0.6c0.6,0.3,1.2,0.4,1.8,0.4
	s1.1-0.1,1.7-0.3c0.5-0.2,0.9-0.4,1.3-0.7c0.4-0.3,0.8-0.6,1.2-0.9c1.3-1.2,2.6-2.4,3.9-3.7c1.3-1.2,2.5-2.5,3.7-3.8
	c2-2.2,3.9-4.5,5.6-6.9c1.7-2.4,3.2-4.9,4.5-7.6c1.2-2.4,2.2-4.8,3-7.2c0.8-2.4,1.6-4.9,2.2-7.5c0.3-1.4,0.5-2.7,0.8-4.1
	c0.2-1.4,0.4-2.8,0.5-4.2c0.1-0.9,0.2-1.9,0.3-2.8c0.1-0.9,0.1-1.8,0.2-2.8c0-0.8,0-1.6,0-2.4c0-0.8,0-1.5,0-2.3
	c0-1-0.2-1.8-0.7-2.6c-0.5-0.7-1.1-1.3-2-1.6c-0.9-0.4-1.8-0.8-2.7-1.1c-0.9-0.3-1.9-0.6-2.9-0.9c-2.1-0.5-4.2-1-6.3-1.4
	c-2.1-0.4-4.3-0.6-6.5-0.8c-1.3-0.1-2.5-0.2-3.8-0.2C52.8,18,51.6,18,50.3,17.9L50.3,17.9z M24.9,24c0.2-0.1,0.3-0.1,0.5-0.2
	c0.2-0.1,0.4-0.1,0.6-0.2v6c0.4-0.2,0.8-0.3,1.2-0.5c0.4-0.1,0.8-0.3,1.2-0.5c0,0.2,0,0.4,0,0.6c0,0.2,0,0.4,0,0.5
	C28.3,30,28.2,30,28.1,30c-0.6,0.2-1.1,0.4-1.6,0.6c-0.6,0.2-1.1,0.4-1.6,0.6V24z M32.6,25.3c0.2,1.1,0.5,2.2,0.8,3.3
	c-0.2,0.1-0.3,0.1-0.5,0.2c-0.2,0.1-0.4,0.1-0.5,0.2c-0.1-0.3-0.1-0.6-0.2-0.9c-0.1-0.3-0.2-0.6-0.2-0.9c-0.2,0.1-0.4,0.1-0.6,0.1
	c-0.2,0-0.4,0.1-0.5,0.1c-0.1,0-0.1,0-0.1,0.1c0,0.1,0,0.1,0,0.2c-0.1,0.2-0.2,0.5-0.2,0.7c-0.1,0.3-0.1,0.5-0.2,0.8
	c0,0.1,0,0.2-0.1,0.2c-0.1,0-0.1,0.1-0.2,0.1c-0.2,0-0.3,0-0.5,0.1c-0.2,0.1-0.3,0.1-0.5,0.2c0.1-0.3,0.1-0.5,0.2-0.8
	c0.1-0.2,0.1-0.5,0.2-0.8c0.2-1,0.4-2,0.7-2.9c0.2-1,0.4-1.9,0.7-2.9c0-0.1,0-0.2,0-0.2c0,0,0.1-0.1,0.2-0.1c0.2,0,0.3,0,0.5,0
	c0.2,0,0.3-0.1,0.5-0.1C32,23.1,32.3,24.2,32.6,25.3z M30.8,26.3c0.2,0,0.3,0,0.4,0c0.1,0,0.2-0.1,0.4-0.1c-0.1-0.3-0.1-0.5-0.2-0.8
	c-0.1-0.2-0.1-0.5-0.2-0.7h-0.1c-0.1,0.3-0.1,0.5-0.2,0.8C31,25.7,30.9,26,30.8,26.3z M36.2,26.5c-0.2-0.7-0.5-1.4-0.8-2v0.2
	c0,0.5,0,1.1,0,1.7s0,1.1,0,1.7c0,0.1,0,0.2,0,0.2c0,0.1-0.1,0.1-0.2,0.1c-0.2,0-0.3,0-0.5,0.1c-0.1,0.1-0.3,0.1-0.5,0.1v-7.2
	c0.2,0,0.3,0,0.5-0.1c0.2-0.1,0.4-0.1,0.6-0.1c0.2,0.6,0.5,1.2,0.7,1.9s0.5,1.3,0.8,2c0-0.1,0-0.1,0.1-0.2c0.2-0.7,0.4-1.3,0.6-1.9
	c0.2-0.6,0.4-1.2,0.6-1.9c0.1-0.1,0.1-0.2,0.2-0.2c0.1-0.1,0.1-0.1,0.2-0.1c0.2-0.1,0.3-0.1,0.5-0.1c0.1,0,0.3,0,0.5-0.1v7.2
	c-0.2,0-0.3,0-0.5,0c-0.2,0-0.4,0.1-0.5,0.1v-3.5h-0.1c-0.2,0.7-0.4,1.3-0.7,2.1c-0.2,0.7-0.4,1.4-0.7,2.1h-0.1
	C36.7,27.8,36.4,27.2,36.2,26.5z M52.7,60.3c0-0.1,0-0.1,0-0.2c0.1-0.2,0.1-0.3,0.2-0.3c0.1,0,0.2,0,0.3,0c0.1,0,0.1,0,0.2,0.1
	c0.1,0.1,0.2,0.1,0.2,0.2c0.1,0.1,0.1,0.2,0,0.3c-0.1,0.1-0.1,0.2-0.2,0.2c-0.1,0-0.2,0-0.3,0c-0.1,0-0.1,0-0.2,0
	c0.1,0.2,0.1,0.3,0.2,0.4c0.1,0.1,0.2,0.1,0.4,0c0.3,0,0.5,0,0.8-0.1c0.3-0.1,0.5-0.1,0.8-0.2c0.2,0,0.3-0.1,0.4-0.2
	c0.1-0.1,0.1-0.2,0.1-0.4c0.1-0.2,0.1-0.4,0.2-0.6c0.1-0.2,0.1-0.4,0.1-0.6c0-0.5,0.1-1,0.3-1.5c0.2-0.4,0.5-0.8,0.9-1.2
	c0.2-0.2,0.5-0.4,0.7-0.7c0.3-0.2,0.6-0.4,0.9-0.7c0.2-0.1,0.3-0.2,0.4-0.4c0.1-0.2,0.2-0.4,0.2-0.6c0.1-0.2,0.1-0.3,0.1-0.5
	c0-0.2,0.1-0.3,0.1-0.5c0.1-0.3,0.1-0.4,0.3-0.5c0.1-0.1,0.3,0,0.5,0.2c0.2,0.2,0.4,0.4,0.6,0.6c0.2,0.2,0.3,0.5,0.4,0.7
	c0.2,0.4,0.3,0.9,0.3,1.4c0.1,0.5,0.1,1,0.1,1.4c0.1,0.7,0.1,1.3,0.1,2c0,0.7,0.1,1.3,0.2,2c0.1,0.2,0.1,0.3,0.1,0.5
	c0,0.1,0.1,0.3,0.1,0.4c0.1,0.3,0.1,0.5,0.1,0.7c-0.1,0.2-0.1,0.4-0.2,0.7c-0.1,0.2-0.2,0.2-0.3,0.2c-0.2,0-0.3,0-0.4-0.1
	c-0.1-0.1-0.1-0.1-0.1-0.2c0-0.1-0.1-0.2-0.1-0.2c-0.1-0.1-0.1-0.1-0.2,0c-0.1,0-0.1,0.1-0.1,0.2c0,0.1,0,0.1,0,0.2
	c0,0.1,0,0.2,0,0.3c-0.4-0.1-0.8-0.2-1-0.5c-0.2-0.3-0.2-0.6-0.1-1c0-0.2,0-0.3,0.1-0.5c0.1-0.1,0.1-0.3,0.2-0.4c0-0.1,0-0.1,0-0.2
	c0-0.1,0-0.2,0-0.2c-0.1-0.1-0.1-0.2-0.1-0.4c0-0.1,0-0.3,0-0.4c0-0.2,0-0.4,0-0.7c0-0.2,0-0.4,0-0.6c0-0.1,0-0.2,0-0.3
	c0-0.1,0-0.2-0.1-0.2c-0.2-0.3-0.4-0.6-0.7-0.9c-0.2-0.3-0.4-0.6-0.7-0.9c-0.4,0.3-0.9,0.6-1.2,0.9c-0.4,0.4-0.6,0.8-0.7,1.4
	c-0.1,0.3-0.1,0.6-0.2,0.9c-0.1,0.3-0.1,0.6-0.2,0.9c-0.1,0.5-0.2,0.9-0.4,1.2c-0.2,0.2-0.6,0.4-1.1,0.4c-0.4,0.1-0.8,0.1-1.1,0
	c-0.4,0-0.7,0-1,0c-0.3-0.1-0.6-0.2-0.8-0.4c-0.2-0.2-0.4-0.5-0.5-0.8c-0.1-0.2-0.1-0.4-0.2-0.6c-0.1-0.2-0.1-0.4-0.2-0.7
	c0-0.1,0-0.1,0-0.2c0-0.1,0-0.1,0-0.2c-0.3,0-0.5,0.1-0.6,0.2c-0.1,0.1-0.2,0.3-0.1,0.5c0,0.2,0,0.3,0,0.4c0,0.1,0,0.2,0,0.3
	c0,0.2,0,0.3,0,0.4c0,0.1-0.1,0.2-0.3,0.2c-0.2,0.1-0.3,0.1-0.3,0.2c0,0.1,0,0.2,0,0.3c0,0.1,0,0.2,0.1,0.3c0.1,0.1,0.1,0.2,0.1,0.4
	c0.1,0.2,0,0.3,0,0.4c-0.1,0.1-0.2,0.2-0.4,0.2c-0.3,0.1-0.6,0.1-0.8,0.2c-0.3,0.1-0.6,0.1-0.9,0.1c0,0.1,0,0.1,0,0.1c0,0,0,0,0-0.1
	c-0.1,0-0.1,0-0.2,0c-0.1,0-0.1,0-0.1-0.1c-0.1-0.1-0.1-0.1,0-0.2c0-0.1,0.1-0.1,0.1-0.1c0.1-0.1,0.1-0.2,0.1-0.3
	c0-0.1-0.1-0.2-0.2-0.2c-0.1,0-0.1,0-0.1,0.1c0,0.1,0,0.1,0,0.2c-0.1,0.1-0.1,0.1-0.1,0.2c0,0.1-0.1,0.1-0.1,0.1
	C47.2,63,47.1,63,47.1,63c-0.1,0-0.1-0.1-0.2-0.2c-0.1-0.2-0.2-0.3-0.1-0.5c0-0.2,0.1-0.3,0.2-0.5c0.1-0.1,0.1-0.2,0.2-0.3
	c0.1-0.1,0.2-0.2,0.3-0.3c0.3-0.3,0.5-0.7,0.8-1c0.2-0.3,0.4-0.7,0.5-1.1c0.1-0.1,0.1-0.1,0.1-0.2c0-0.1,0-0.1,0.1-0.2
	c-0.2,0-0.4,0.1-0.5,0.2c-0.1,0.1-0.3,0.2-0.4,0.4c-0.1,0.2-0.2,0.4-0.3,0.7c-0.1,0.2-0.2,0.4-0.4,0.6c-0.6,0.4-1,0.9-1.2,1.5
	c-0.3,0.6-0.5,1.2-0.7,1.8c-0.1,0.1-0.1,0.2-0.2,0.4c-0.1,0.1-0.1,0.3-0.2,0.4c-0.1,0.2-0.2,0.4-0.4,0.6c-0.2,0.2-0.4,0.3-0.7,0.3
	c-0.1,0-0.2,0-0.3,0c-0.1,0-0.2,0-0.3,0c-0.2,0.1-0.3,0.1-0.3,0c-0.1-0.1-0.1-0.2-0.1-0.3c0-0.1,0-0.2,0-0.2c0-0.1,0-0.1,0-0.2
	c0-0.1,0-0.1-0.1-0.1c-0.1,0-0.1-0.1-0.2-0.1c0,0.1,0,0.1,0,0.1c0,0,0,0.1,0,0.1c-0.1,0.1-0.1,0.1-0.1,0.1c0,0-0.1,0-0.1,0
	c-0.2,0.1-0.4,0.1-0.4,0.1c-0.1-0.1-0.1-0.2-0.1-0.4c-0.1-0.5,0-1,0.2-1.4s0.5-0.8,0.9-1.1c0.2-0.2,0.5-0.3,0.7-0.5
	c0.2-0.2,0.5-0.3,0.7-0.5c0.2-0.2,0.3-0.3,0.4-0.5c0.1-0.2,0.2-0.4,0.2-0.7c0-0.1,0-0.2,0-0.3c0-0.1,0-0.2,0-0.3c0-0.1,0-0.1,0-0.2
	c0-0.1,0-0.2,0-0.2c-0.1-0.4-0.1-0.9-0.1-1.3c0-0.4-0.1-0.8-0.1-1.3c0-0.1,0-0.1,0-0.2c0-0.1-0.1-0.1-0.1-0.2c0,0.1,0,0.1-0.1,0.1
	c-0.1,0-0.1,0-0.1,0.1c-0.3,0.5-0.6,1.1-0.9,1.6c-0.3,0.5-0.6,1.1-0.9,1.6c-0.1,0.1-0.1,0.1-0.1,0.2c0,0.1,0,0.1,0,0.2
	c0,0.2,0,0.3,0,0.5c0,0.2,0,0.4,0,0.5c-0.1,0.3-0.2,0.5-0.3,0.8s-0.4,0.5-0.7,0.6c-0.2,0.2-0.4,0.3-0.5,0.5c-0.1,0.2-0.1,0.4,0,0.7
	c0,0.2,0,0.4,0,0.6c0,0.2,0,0.4,0,0.7c0,0.1,0,0.2-0.1,0.4c-0.1,0.1-0.1,0.3-0.2,0.4c-0.1,0.1-0.2,0.1-0.2,0.2
	c0,0.1-0.1,0.2-0.1,0.3c0,0.2,0,0.3,0,0.4c0,0.1,0,0.2,0,0.4c0,0.1,0,0.1-0.1,0.2c-0.1,0.1-0.1,0.1-0.2,0.1
	c-0.3,0.1-0.6,0.2-0.9,0.2c-0.3,0-0.6,0-0.9,0c-0.1-0.2-0.1-0.4-0.1-0.6c0-0.2,0-0.3-0.1-0.5c-0.1-0.1-0.2-0.1-0.2-0.1
	c0,0.2,0,0.3,0,0.5c0,0.1,0,0.3,0,0.4c0,0.1,0,0.1-0.1,0.2c-0.1,0.1-0.1,0.1-0.1,0.2c-0.1-0.1-0.1-0.1-0.2-0.1
	c-0.1,0-0.1-0.1-0.1-0.1c-0.1-0.2-0.2-0.3-0.2-0.5c-0.1-0.1-0.1-0.3,0-0.5c0.1-0.3,0.1-0.5,0.3-0.8c0.1-0.2,0.3-0.5,0.5-0.7
	c0.1,0,0.1,0,0.1-0.1c0-0.1,0.1-0.2,0.1-0.2c0.1-0.2,0.1-0.3,0.2-0.5c0.1-0.2,0.1-0.3,0.2-0.5c0.1-0.2,0.2-0.3,0.3-0.5
	c0.1-0.1,0.2-0.2,0.3-0.3c0.2-0.2,0.4-0.3,0.4-0.5c0.1-0.2,0.1-0.4,0-0.6c0-0.2,0-0.3,0-0.5c0-0.1,0-0.3,0-0.5c0-0.1,0-0.2,0-0.4
	c0-0.1,0.1-0.3,0.2-0.4c0.3-0.4,0.4-0.9,0.5-1.3c0.1-0.4,0.1-0.9,0-1.4c-0.1-0.3-0.2-0.7-0.2-1.1c0-0.4,0-0.8,0.1-1.2
	c0.1-0.1,0.1-0.2,0.1-0.3c0-0.1,0-0.2,0.1-0.2c0.2-0.2,0.3-0.4,0.3-0.6c0.1-0.2,0.1-0.5,0.2-0.7c0-0.1,0-0.2,0-0.3
	c0-0.1,0-0.2-0.1-0.2c-0.1-0.6-0.1-1.2,0-1.7c0.1-0.5,0.3-1.1,0.5-1.6c0.2-0.4,0.4-0.8,0.6-1.1c0.2-0.4,0.5-0.7,0.7-1
	c0.2-0.3,0.4-0.7,0.5-1c0.1-0.4,0.1-0.8,0-1.2c0-0.3,0-0.6,0-0.9c0-0.3,0.1-0.7,0.1-1c0-0.1,0.1-0.2,0.2-0.4
	c0.1-0.1,0.2-0.3,0.2-0.5c0.4-0.4,0.8-0.8,1.3-1.1c0.5-0.3,0.9-0.6,1.4-0.9c0.2-0.1,0.4-0.2,0.7-0.3c0.2-0.1,0.4-0.2,0.6-0.4
	c0.2-0.1,0.4-0.2,0.6-0.3c0.2-0.1,0.3-0.2,0.4-0.4c0.3-0.3,0.6-0.5,0.9-0.8c0.3-0.2,0.6-0.5,0.9-0.6c0.3-0.2,0.5-0.2,0.8-0.2
	c0.2,0,0.5,0.1,0.7,0.2c0.4,0.1,0.8,0.2,1.1,0.4c0.4,0.2,0.7,0.3,1.1,0.3c0.4,0.2,0.9,0.3,1.4,0.4c0.5,0.1,0.9,0.2,1.4,0.2
	c0.4,0.1,0.6,0,0.8-0.1c0.1-0.1,0.1-0.4,0-0.8c-0.1-0.5-0.3-0.9-0.5-1.1c-0.2-0.2-0.6-0.4-1.1-0.5c-0.8-0.1-1.5-0.2-2.3-0.2
	c-0.7,0-1.5,0-2.2,0c-0.7,0-1.3,0-1.9,0c-0.6,0-1.2,0-1.8,0c-0.3,0-0.6,0-0.9-0.1c-0.3-0.1-0.6-0.2-0.9-0.3
	c-0.2-0.1-0.3-0.2-0.5-0.3c-0.1-0.1-0.3-0.3-0.4-0.5c-0.1-0.3,0-0.6,0-0.8c0.1-0.2,0.2-0.4,0.5-0.7c0.4-0.4,0.9-0.7,1.5-0.9
	c0.5-0.2,1.1-0.4,1.7-0.5c0.8-0.1,1.6,0,2.5,0.1c0.8,0.1,1.6,0.3,2.5,0.6c0.1,0,0.2,0,0.3,0.1c0.1,0.1,0.2,0.2,0.2,0.2
	c0.1,0.1,0.1,0.1,0.1,0.2c0,0.1,0,0.2,0,0.2c0,0.1,0,0.1-0.1,0.2c-0.1,0.1-0.2,0.1-0.2,0.1c-0.2,0.1-0.4,0.1-0.7,0
	c-0.2,0-0.4-0.1-0.7-0.2c-0.1-0.1-0.2-0.1-0.3-0.1c-0.1,0-0.3,0-0.4,0c-0.2,0.1-0.3,0.1-0.5,0c-0.1-0.1-0.3-0.1-0.4-0.2
	c0-0.1,0-0.1-0.1-0.1c-0.1,0.1-0.2,0.2-0.2,0.3c0,0.1,0.1,0.2,0.2,0.2c0.2,0.1,0.3,0.2,0.5,0.2c0.2,0,0.3,0,0.5,0
	c0.1,0,0.2,0,0.3,0.1c0.1,0.1,0.1,0.1,0.1,0.2c0.1,0.1,0.1,0.2,0,0.2c0,0.1-0.1,0.1-0.2,0.1c-0.1,0-0.1,0-0.2,0c-0.1,0-0.2,0-0.3,0
	c-0.4,0-0.9,0-1.4,0c-0.5,0-0.9-0.1-1.4-0.2c-0.2-0.1-0.4-0.2-0.7-0.3c-0.2-0.1-0.4-0.2-0.6-0.4c-0.2-0.1-0.3-0.2-0.5-0.2
	c-0.1,0-0.3,0-0.5,0c-0.1,0.1-0.2,0.2-0.4,0.3c-0.2,0.1-0.3,0.2-0.4,0.2c-0.1,0.1-0.2,0.2-0.2,0.3c0,0.1,0.1,0.2,0.2,0.2
	c0.2,0.1,0.4,0.1,0.7,0.2c0.2,0.1,0.4,0.1,0.7,0.2c1,0.2,2.1,0.2,3.1,0.2c1,0,2.1-0.1,3.1-0.2c0.5,0,1,0,1.4,0
	c0.4,0,0.9,0.1,1.3,0.2c0.7,0.3,1.3,0.7,1.7,1.4c0.4,0.7,0.6,1.4,0.4,2.1c0,0.1,0,0.2-0.1,0.4c-0.1,0.1-0.1,0.3-0.2,0.4
	c0,0.1,0,0.1,0,0.1c0,0,0,0.1,0,0.1c0.4,0.5,0.7,1,1.1,1.4c0.3,0.5,0.7,0.9,1,1.4c0.3,0.4,0.5,0.8,0.6,1.2c0.1,0.4,0.2,0.9,0.1,1.4
	c-0.1,0.4-0.1,0.9,0,1.4c0.1,0.5,0.1,0.9,0.2,1.4c0.1,0.3,0.1,0.7,0.1,1c0,0.4,0,0.7,0,1c0.1,0.1,0.1,0.2,0,0.2c-0.1,0-0.1,0-0.2,0
	c-0.2,0-0.3,0-0.4,0c-0.1,0-0.2,0-0.3,0c-0.1-0.3-0.1-0.5-0.2-0.7c-0.1-0.2-0.1-0.4-0.2-0.7c-0.2-0.4-0.2-0.9-0.2-1.3
	c0-0.4,0.1-0.9,0.2-1.3c0.1-0.5,0.1-1,0-1.4c-0.1-0.4-0.3-0.9-0.5-1.3c-0.3-0.5-0.7-1-1-1.5c-0.4-0.5-0.7-1-1.1-1.5
	c0-0.1,0-0.1-0.1-0.1c-0.1,0-0.1,0-0.2,0c-0.2,0.1-0.4,0.1-0.7,0.2c-0.2,0.1-0.4,0.2-0.7,0.3l-0.1,0.1c0.1,0.1,0.1,0.1,0.1,0.1
	c0,0,0,0,0,0.1c0.2,0,0.4,0.1,0.5,0.2c0.1,0.1,0.2,0.2,0.2,0.4c0.1,0.3,0.1,0.5,0.2,0.7c0.1,0.2,0.1,0.4,0.2,0.7c0,0.1,0,0.2,0,0.2
	c0,0.1,0,0.1,0,0.2c0,0.1,0,0.2-0.1,0.2c-0.1,0.1-0.2,0.1-0.3,0.2c-0.3,0-0.5,0-0.7-0.1c-0.2-0.1-0.4-0.2-0.6-0.4
	c-0.2-0.1-0.3-0.2-0.4-0.3c-0.1-0.1-0.2-0.2-0.3-0.4c-0.5-0.6-1-1.2-1.4-1.8c-0.5-0.6-0.9-1.2-1.4-1.8C52,39.4,52,39.3,52,39.3
	c0,0-0.1,0-0.1,0c0,0.1,0,0.1,0,0.2c0,0.1,0,0.1,0,0.2c0,0.1,0,0.1,0,0.1c0,0,0.1,0.1,0.1,0.1c0.4,0.6,0.9,1.2,1.4,1.8
	c0.5,0.6,0.9,1.2,1.3,1.9c0.3,0.5,0.6,1,0.9,1.6c0.2,0.5,0.5,1.1,0.7,1.6c0.1,0.2,0.1,0.3,0.1,0.5c0,0.1,0.1,0.3,0.1,0.5
	c0,0.1,0,0.1,0,0.1c0,0,0,0.1,0,0.1c-0.1,0-0.1,0-0.2,0c-0.1,0-0.1,0-0.2,0c-0.1-0.1-0.1-0.2-0.2-0.3c-0.1-0.1-0.2-0.2-0.2-0.3
	c-0.1-0.2-0.1-0.4-0.2-0.6c-0.1-0.2-0.2-0.4-0.4-0.5c-0.1,0.3-0.2,0.5-0.4,0.5c-0.1,0.1-0.4,0.1-0.7,0c-0.1,0-0.1,0-0.2,0
	c-0.1,0-0.1,0-0.2,0c-0.1,0-0.1,0-0.2,0c-0.1,0-0.1,0-0.1,0.1c-0.1,0-0.1,0-0.1,0.1s0,0.2,0.1,0.2c0,0.1,0,0.1,0.1,0.1
	c0.1,0,0.1,0,0.2,0c0.1,0.1,0.2,0.1,0.4,0.1s0.3,0,0.4,0c0.2,0.1,0.3,0.1,0.4,0.2c0.1,0.1,0.1,0.2,0.1,0.4c-0.1,0.1-0.1,0.1-0.2,0.1
	c-0.1,0-0.2-0.1-0.2-0.2c0-0.1,0-0.1-0.1-0.1c-0.1,0-0.1,0-0.2,0c-0.1,0-0.1,0-0.2,0c-0.1,0-0.1,0-0.2,0c-0.1,0-0.2,0-0.2,0.1
	c0,0.1-0.1,0.1-0.1,0.2c0,0.1,0,0.2,0.1,0.2c0.1,0,0.1,0,0.2,0c0.2,0.1,0.4,0.1,0.6,0.1c0.2,0,0.4,0,0.6,0c0.3,0,0.5,0.1,0.6,0.2
	c0.1,0.1,0.3,0.3,0.4,0.7c0.1,0.1,0.2,0.1,0.2,0.1c0.2,0,0.4,0,0.7,0c0.2,0,0.4,0,0.6,0c0.7,0,1.2,0.1,1.8,0.3
	c0.5,0.2,1,0.6,1.4,1.1c0.1,0.1,0.1,0.1,0.2,0.1c0.1,0,0.1,0,0.2,0c0.1,0,0.2,0,0.4,0c0.1,0,0.3,0.1,0.4,0.1
	c0.2,0.2,0.3,0.3,0.5,0.5c0.2,0.2,0.4,0.3,0.5,0.5c0.4,0.4,0.8,0.7,1.3,0.8c0.5,0.1,0.9,0.1,1.4,0.1c0.1,0,0.2,0,0.3,0
	c0.1,0,0.1-0.1,0.2-0.1c0.1-0.1,0.1-0.1,0.2-0.1c0.1,0,0.1,0,0.2,0c0.1,0.1,0.1,0.1,0.1,0.2c0,0.1,0,0.2-0.1,0.2
	c-0.1,0.2-0.3,0.3-0.5,0.5c-0.2,0.2-0.4,0.3-0.5,0.3c-0.7,0.3-1.4,0.4-2,0.3c-0.6-0.1-1.2-0.4-1.9-0.8c-0.1-0.1-0.1-0.1-0.2-0.2
	c-0.1-0.1-0.2-0.2-0.2-0.2c-0.2-0.1-0.3-0.2-0.5-0.3c-0.1-0.1-0.3-0.2-0.5-0.2c-0.1,0-0.2,0-0.2-0.1c0-0.1,0-0.1,0-0.2
	c0-0.2,0-0.3,0-0.5c0-0.1,0-0.3,0-0.5c-0.2-0.1-0.4-0.1-0.6-0.2c-0.2-0.1-0.3-0.2-0.5-0.3c-0.2-0.1-0.4-0.2-0.7-0.2
	c-0.2,0-0.5,0-0.7,0c-0.1,0-0.2,0-0.2,0v0.1c0.1,0.1,0.1,0.1,0.2,0.2c0.1,0.1,0.1,0.1,0.2,0.2c0.1,0.1,0.1,0.1,0.2,0.2
	C57.9,50.9,58,51,58,51c0.1,0,0.1,0,0.1,0.1c0,0.1,0,0.1,0,0.2c0,0.1-0.1,0.1-0.2,0.2c-0.2-0.1-0.3-0.1-0.5-0.1
	c-0.2,0-0.4-0.1-0.5-0.1c-0.1,0-0.1,0-0.2-0.1c-0.1-0.1-0.2-0.2-0.2-0.2c-0.1-0.1-0.1-0.2-0.2-0.2c-0.1-0.1-0.2-0.1-0.3-0.1
	c-0.1,0.2-0.2,0.4-0.2,0.4C55.5,51,55.3,51,55.1,51c-0.1,0-0.1,0-0.2,0c-0.1,0-0.1,0.1-0.2,0.2c0,0.1,0,0.2,0,0.2
	c0,0.1,0.1,0.1,0.2,0.2c0.2,0.1,0.3,0.1,0.5,0.2c0.2,0.1,0.4,0.1,0.6,0.1c0.3,0.1,0.5,0.1,0.8,0.2c0.3,0.1,0.5,0.1,0.8,0.1
	c0.1,0,0.2,0,0.4,0c0.2,0,0.3-0.1,0.4-0.1c0.1,0,0.1,0,0.2,0s0.1,0,0.2,0c0,0.1,0,0.2,0,0.2c0,0.1,0,0.1,0,0.2
	c-0.2,0.3-0.5,0.5-0.8,0.6c-0.3,0.1-0.6,0.2-0.9,0.3c-0.7,0.1-1.3,0.1-1.9-0.1c-0.6-0.2-1.2-0.5-1.8-0.9c-0.3-0.3-0.6-0.6-0.7-0.9
	c-0.2-0.4-0.2-0.8-0.2-1.3c0.1-0.2,0.1-0.3,0.2-0.5c0.1-0.1,0.2-0.2,0.4-0.3c0.2-0.1,0.5-0.1,0.7-0.1c0.2,0,0.5-0.1,0.7-0.1
	c0.1,0,0.2,0,0.2,0c0-0.1,0-0.2-0.1-0.3c-0.1-0.1-0.1-0.1-0.2-0.1c-0.3-0.1-0.6-0.1-0.9,0c-0.3,0.1-0.6,0.1-0.9,0.2
	c-0.1,0.1-0.2,0.1-0.4,0.1c-0.2,0-0.3,0-0.4-0.1c-0.2-0.1-0.3-0.1-0.5-0.1c-0.1,0-0.3,0-0.4,0C51,49,50.9,49,50.9,49
	c0,0,0,0.1,0,0.1c0.1,0.2,0.1,0.3,0.1,0.5c0,0.1,0,0.3,0,0.5c0.1,0.2,0.1,0.3,0.2,0.4c0.1,0.1,0.1,0.2,0.2,0.2
	c0.2,0.2,0.3,0.3,0.5,0.5c0.2,0.2,0.3,0.3,0.5,0.5c0.3,0.3,0.4,0.5,0.4,0.8c0,0.3-0.1,0.6-0.2,0.9c-0.3,0.4-0.5,0.9-0.7,1.4
	c-0.2,0.5-0.4,0.9-0.5,1.4c0,0.1,0,0.2,0,0.4c0,0.1,0,0.3,0,0.4c0,0.1,0,0.1,0.1,0.2c0.1,0,0.1,0,0.1,0c0,0,0.1,0,0.1,0
	c0.1-0.1,0.1-0.2,0.2-0.4c0.1-0.1,0.1-0.3,0.2-0.4c0-0.1,0-0.1,0.1-0.2c0.1-0.1,0.1-0.2,0.2-0.2c0.1-0.1,0.1-0.2,0.2-0.2
	c0.1,0,0.2,0,0.3,0c0.1,0.1,0.2,0.1,0.2,0.2c0.1,0.1,0.1,0.2,0.1,0.3c-0.1,0.2-0.1,0.3-0.2,0.5c-0.1,0.2-0.1,0.3-0.2,0.5
	c-0.1,0.3-0.2,0.5-0.3,0.8c-0.1,0.3-0.2,0.5-0.3,0.8c-0.1,0.3-0.1,0.5,0,0.8c0.1,0.2,0.1,0.5,0.2,0.7c0.1,0.1,0.1,0.1,0.1,0.1
	c0,0,0,0,0.1,0C52.7,60.4,52.7,60.3,52.7,60.3z M44.7,24.9c0,0.6-0.1,1.1-0.4,1.5c-0.2,0.3-0.4,0.5-0.6,0.6
	c-0.2,0.1-0.5,0.2-0.7,0.3c-0.4,0.1-0.8,0.1-1.2,0.2c-0.4,0.1-0.8,0.1-1.2,0.2v-7.4c0.4-0.1,0.8-0.1,1.1-0.2C42,20,42.4,20,42.8,20
	c0.2,0,0.3,0,0.5,0.1c0.2,0.1,0.3,0.1,0.4,0.2c0.4,0.2,0.6,0.5,0.8,0.8c0.1,0.3,0.1,0.7,0,1.2c-0.1,0.2-0.1,0.3-0.2,0.5
	c-0.1,0.2-0.2,0.4-0.2,0.6C44.5,23.8,44.7,24.3,44.7,24.9z M40.9,61.5c0.1,0,0.1-0.1,0.2-0.1c0.1-0.1,0.1-0.2,0.2-0.3
	c0.1-0.1,0.1-0.2,0.2-0.3c0.1-0.1,0.1-0.2,0-0.3c0-0.1-0.1-0.2-0.2-0.2c-0.1,0-0.1,0-0.2,0c-0.1,0-0.2,0.1-0.2,0.1
	c-0.2,0.2-0.2,0.3-0.2,0.5c0,0.2,0,0.4,0,0.7C40.7,61.6,40.8,61.6,40.9,61.5z M50.7,57.8c-0.1-0.2-0.2-0.5-0.3-0.7
	c-0.1-0.2-0.2-0.5-0.4-0.7c-0.1-0.2-0.2-0.3-0.3-0.5c-0.1-0.2-0.2-0.4-0.3-0.6c-0.1-0.3-0.2-0.7-0.1-1c0-0.3,0.2-0.6,0.5-0.9
	c0.2-0.2,0.3-0.3,0.5-0.5c0.1-0.1,0.3-0.3,0.5-0.5c0.2-0.2,0.3-0.4,0.3-0.6c0-0.2-0.1-0.4-0.2-0.7c-0.1-0.2-0.2-0.3-0.3-0.5
	c-0.1-0.2-0.2-0.4-0.2-0.5C50.1,50,50,49.8,50,49.7c-0.1-0.1-0.1-0.3-0.2-0.5c-0.1-0.1-0.2-0.2-0.3-0.2c-0.1,0-0.2,0-0.4,0
	c-0.2,0.1-0.4,0.1-0.5,0.2c-0.1,0.1-0.2,0.3-0.3,0.5c0,0.1,0,0.1-0.1,0.2c-0.1,0.2-0.2,0.3-0.3,0.4c-0.1,0.1-0.2,0.2-0.4,0.2
	c-0.3,0.1-0.5,0.1-0.7,0c-0.2-0.1-0.4-0.2-0.7-0.3c-0.2-0.2-0.4-0.2-0.6-0.2c-0.2,0.1-0.3,0.2-0.4,0.4c-0.1,0.1-0.1,0.2-0.2,0.3
	c-0.1,0.1-0.1,0.2-0.2,0.3c-0.1,0.2-0.2,0.4-0.4,0.4c-0.2,0.1-0.4,0-0.5-0.1c-0.1,0-0.1,0-0.2-0.1c-0.1-0.1-0.2-0.1-0.2-0.2
	c-0.1-0.1-0.1-0.1-0.2-0.1c-0.1,0-0.1,0-0.2,0.1c-0.2,0.2-0.3,0.3-0.3,0.5c-0.1,0.2-0.1,0.4-0.1,0.6c-0.1,0.2-0.1,0.3-0.1,0.4
	c0,0.1,0,0.2,0,0.4c-0.2,0.5-0.3,1.1-0.5,1.6c-0.2,0.5-0.4,1.1-0.5,1.7c-0.1,0.2-0.1,0.3,0,0.5c0,0.2,0,0.4,0,0.5
	c0,0.1,0,0.1,0.1,0.2c0.1,0.1,0.1,0.1,0.2,0.2c0.1,0,0.1,0,0.2-0.1c0.1-0.1,0.1-0.1,0.2-0.1c0-0.1,0-0.1,0-0.1c0,0,0,0,0-0.1
	c0.3-0.3,0.5-0.7,0.7-1c0.2-0.4,0.5-0.7,0.7-1c0-0.1,0-0.1,0-0.1c0,0,0-0.1,0-0.1c0.1-0.1,0.1-0.2,0.2-0.3c0.1-0.1,0.2-0.1,0.3-0.1
	c0.4-0.1,0.8-0.1,1.2-0.1c0.4,0,0.8,0,1.2,0.1c0.2,0,0.3,0,0.5,0.1c0.1,0.1,0.3,0.1,0.4,0.2c0.1,0.1,0.1,0.1,0.2,0.2
	c0.1,0.1,0.1,0.2,0,0.3c0,0.1,0,0.1-0.1,0.2c-0.1,0.1-0.2,0.1-0.2,0.1c-0.1,0.1-0.2,0.1-0.4,0.1c-0.1,0-0.3,0-0.5,0
	c-0.1,0-0.2,0-0.2,0.1c-0.1,0.1-0.1,0.1-0.1,0.2c0.1,0.3,0.1,0.5,0.1,0.8c0,0.2,0.1,0.5,0.1,0.8c0,0.1,0,0.2,0.1,0.2
	c0.1,0,0.1,0,0.2,0c0.4,0,0.8,0,1.2,0c0.4,0,0.8,0,1.2,0c0.3,0,0.6,0,0.9,0C50.1,57.9,50.3,57.9,50.7,57.8L50.7,57.8z M42.1,23.1
	c0.1,0,0.2,0,0.3,0c0.3-0.1,0.5-0.2,0.7-0.3c0.2-0.2,0.3-0.4,0.3-0.7c0.1-0.3,0.1-0.6-0.1-0.8c-0.2-0.2-0.5-0.3-0.8-0.2
	c-0.1,0-0.2,0-0.3,0c-0.1,0-0.2,0-0.4,0v2C41.8,23.2,41.9,23.1,42.1,23.1z M42.2,26.3c0.2,0,0.3,0,0.5,0s0.3-0.1,0.4-0.2
	c0.1-0.1,0.2-0.2,0.2-0.3c0.1-0.2,0.1-0.3,0.1-0.5c0-0.2,0-0.3,0-0.5c0-0.2-0.1-0.4-0.2-0.5c-0.1-0.1-0.3-0.1-0.5-0.1
	c-0.2,0-0.3,0-0.5,0c-0.1,0-0.3,0-0.5,0c-0.1,0-0.1,0-0.1,0c0,0,0,0.1,0,0.1c0,0.3,0,0.6,0,0.9c0,0.3,0,0.6,0,1
	C41.9,26.4,42.1,26.3,42.2,26.3z M45.4,47c0,0.2-0.1,0.4-0.3,0.7C45,47.8,45,48,45,48.3c0.1,0.2,0.2,0.4,0.3,0.5
	c0.3,0.2,0.7,0.2,1,0.2c0.3,0,0.7,0,1.1,0c-0.1-0.1-0.1-0.2-0.2-0.3c-0.1-0.1-0.1-0.2-0.2-0.2c-0.3-0.2-0.6-0.5-0.8-0.8
	c-0.2-0.3-0.3-0.7-0.5-1.1c-0.1-0.1-0.1-0.2-0.2-0.2c-0.1,0-0.1,0-0.2,0C45.4,46.5,45.4,46.8,45.4,47z M45.5,22.6
	c0-0.4,0.1-0.8,0.3-1.2c0.1-0.2,0.2-0.4,0.3-0.6c0.1-0.2,0.2-0.4,0.4-0.5c0.4-0.4,0.8-0.5,1.4-0.5c0.5,0.1,0.9,0.3,1.3,0.7
	c0.2,0.2,0.3,0.4,0.4,0.7c0.1,0.2,0.2,0.4,0.2,0.7C50,22.3,50,23,50,23.6c0,0.6-0.1,1.2-0.2,1.9c-0.1,0.3-0.1,0.5-0.2,0.7
	c-0.1,0.2-0.3,0.4-0.5,0.7c-0.4,0.5-0.9,0.7-1.4,0.7c-0.6,0-1.1-0.3-1.4-0.8c-0.2-0.3-0.4-0.7-0.5-1c-0.1-0.3-0.2-0.7-0.2-1.1
	c0-0.2,0-0.3,0-0.5c0-0.2,0-0.3-0.1-0.4C45.4,23.4,45.4,22.9,45.5,22.6z M47,59.4c-0.1-0.1-0.2-0.1-0.3,0c-0.1,0.1-0.2,0.2-0.3,0.3
	c-0.1,0.1-0.2,0.2-0.2,0.3c-0.1,0.1-0.1,0.2,0,0.2c0,0.1,0.1,0.1,0.2,0.2c0.2,0.1,0.3,0,0.5-0.2c0.2-0.2,0.3-0.3,0.3-0.5
	S47.1,59.5,47,59.4z M48.9,23.5c0-0.1,0-0.2,0-0.4c0-0.1,0-0.3,0-0.5c-0.1-0.3-0.1-0.5-0.2-0.7c-0.1-0.2-0.2-0.4-0.3-0.7
	c-0.2-0.3-0.4-0.4-0.6-0.4s-0.5,0.1-0.7,0.4c-0.1,0.1-0.1,0.2-0.2,0.3c-0.1,0.1-0.1,0.3-0.2,0.4c-0.1,0.4-0.2,0.9-0.2,1.3
	c0,0.4,0,0.9,0,1.3c0,0.3,0,0.5,0.1,0.7c0.1,0.2,0.2,0.4,0.4,0.7c0.2,0.3,0.4,0.4,0.6,0.4c0.2,0,0.5-0.1,0.6-0.4
	c0.1-0.1,0.1-0.2,0.2-0.4c0.1-0.1,0.1-0.3,0.2-0.5c0.1-0.3,0.1-0.5,0.1-0.8C48.9,24.1,48.9,23.8,48.9,23.5L48.9,23.5z M50,34.3
	c0.2,0.1,0.3,0.1,0.5,0.2c0.1,0,0.1,0,0.2,0c0.1,0,0.1-0.1,0.2-0.1c0.1-0.2,0.1-0.3,0-0.4c-0.1-0.1-0.2-0.1-0.3-0.1
	c-0.1,0-0.1,0-0.2,0c-0.1,0-0.1,0-0.2-0.1c-0.2,0-0.4,0-0.4,0c-0.1,0-0.1,0.2-0.2,0.4C49.7,34.2,49.9,34.3,50,34.3z M52.1,43.1
	c-0.1,0.1-0.1,0.1-0.2,0.1c-0.1,0-0.2,0-0.2,0c-0.1,0-0.2,0-0.4,0c-0.1,0-0.3,0-0.5,0c-0.1,0-0.2,0-0.2,0.1
	c-0.1,0.1-0.1,0.2-0.1,0.3c0,0.1,0,0.2,0.1,0.3c0.1,0.1,0.1,0.1,0.2,0.1c0.2,0,0.3,0,0.4,0c0.1,0,0.2,0,0.3-0.1
	c0.2-0.1,0.3-0.1,0.4,0c0.1,0.1,0.2,0.1,0.3,0.2c0.1,0.1,0.1,0.1,0.1,0.2c0,0.1,0.1,0.1,0.1,0.2c0.1,0.1,0.2,0.2,0.3,0.4
	c0.1,0.1,0.2,0.3,0.3,0.4c0.2,0.1,0.3,0.2,0.4,0.1c0.1,0,0.2-0.1,0.3-0.3C54,45.1,54,45.1,54,45c0-0.1,0-0.2,0.1-0.2
	c0-0.2,0-0.4-0.1-0.6c-0.1-0.2-0.2-0.4-0.2-0.5c-0.2-0.3-0.5-0.6-0.8-0.7c-0.3-0.1-0.6-0.2-0.9-0.3c-0.1,0-0.1,0-0.1,0
	c0,0-0.1,0-0.1,0c0,0.1,0,0.1,0,0.1c0,0,0.1,0.1,0.1,0.1C52,43,52,43.1,52.1,43.1L52.1,43.1z M52.1,19.9c0.4,0,0.8,0,1.2,0
	c0.5,0,0.9,0.1,1.2,0.4c0.3,0.3,0.5,0.6,0.6,1.1c0.1,0.5,0.1,1,0,1.5c-0.1,0.4-0.4,0.8-0.9,1.1c0,0.1-0.1,0.1-0.2,0.2
	c0.2,0.5,0.3,1.1,0.5,1.6c0.2,0.5,0.4,1.1,0.6,1.6c-0.2,0-0.4,0-0.6,0c-0.2,0-0.4,0-0.5,0l-0.2-0.2c-0.2-0.4-0.3-0.9-0.5-1.4
	c-0.1-0.5-0.3-0.9-0.5-1.4c-0.1-0.1-0.1-0.2-0.2-0.2c-0.1,0-0.1,0-0.2,0c-0.1,0-0.1,0-0.2,0c-0.1,0-0.2,0-0.3,0v3.1H51v-7.5
	C51.3,19.9,51.7,19.9,52.1,19.9z M52.6,23.1c0.2,0,0.3,0,0.5,0c0.3,0,0.5-0.1,0.7-0.2c0.2-0.1,0.3-0.3,0.3-0.6
	c0.1-0.3,0-0.5-0.1-0.7c-0.1-0.2-0.3-0.4-0.5-0.5C53.3,21,53.1,21,52.8,21s-0.5,0-0.7,0v2.1C52.3,23.1,52.4,23.1,52.6,23.1z
	 M53.9,54.4c0,0.1,0.1,0.1,0.1,0.2c0.1,0.2,0.1,0.3,0.2,0.5c0.1,0.1,0.2,0.3,0.4,0.5c0.1,0,0.1,0,0.1,0.1c0,0.1,0,0.2,0,0.2
	c-0.1,0.1-0.1,0.1-0.2,0.1c-0.1,0-0.1,0-0.2,0c-0.3,0-0.6-0.1-0.7-0.4c-0.2-0.2-0.2-0.5-0.1-0.9c0.1-0.1,0.1-0.1,0.1-0.2
	c0-0.1,0.1-0.2,0.1-0.3h0.1C53.8,54.3,53.8,54.4,53.9,54.4z M58.4,25v-1.2h1.9h0.1c-0.1,0.4-0.1,0.8-0.1,1.2c0,0.4,0,0.8-0.1,1.2
	c-0.1,0.4-0.2,0.8-0.5,1c-0.3,0.2-0.7,0.4-1.1,0.5c-0.4,0.1-0.9,0-1.2-0.2c-0.4-0.2-0.7-0.5-0.8-0.9c-0.1-0.3-0.2-0.5-0.2-0.8
	c-0.1-0.2-0.1-0.5-0.2-0.8c-0.1-0.5-0.1-1,0-1.5c0-0.5,0.1-1,0.2-1.5c0.1-0.1,0.1-0.2,0.1-0.2c0-0.1,0-0.1,0-0.2
	c0.2-0.4,0.5-0.8,0.9-1c0.4-0.2,0.8-0.3,1.3-0.2c0.5,0.1,0.9,0.3,1.2,0.6c0.3,0.3,0.4,0.7,0.5,1.2c0,0.1,0,0.1,0,0.2
	c0,0.1,0,0.1,0,0.2h-1.1C59,22.3,59,22.3,59,22.1c0-0.1,0-0.2-0.1-0.2c-0.1-0.2-0.2-0.4-0.4-0.5c-0.2-0.1-0.4-0.1-0.6,0
	c-0.2,0.1-0.3,0.2-0.4,0.3c-0.1,0.2-0.2,0.4-0.2,0.6c-0.1,0.4-0.1,0.8-0.1,1.2c0,0.4,0,0.8,0,1.2c0,0.2,0,0.4,0.1,0.6
	c0.1,0.2,0.1,0.4,0.2,0.6c0.1,0.2,0.2,0.3,0.3,0.4c0.2,0.1,0.4,0.2,0.6,0.2c0.2-0.1,0.3-0.1,0.4-0.2c0.1-0.1,0.2-0.2,0.2-0.3
	c0.1-0.2,0.1-0.3,0.1-0.5c0-0.2,0.1-0.4,0.1-0.5H58.4z M60.3,56.5c0.1,0.2,0.3,0.4,0.5,0.7h0.1c0.1,0,0.1,0,0.2,0
	c0.1,0,0.1-0.1,0-0.2c0-0.3,0-0.7,0-1c0-0.3-0.1-0.7-0.1-1c0-0.1,0-0.1,0-0.2c0-0.1,0-0.2,0-0.2c-0.1-0.1-0.1-0.1-0.2-0.1
	c-0.1,0-0.1,0-0.2,0c-0.2,0.2-0.3,0.4-0.4,0.6c-0.1,0.2-0.2,0.5-0.2,0.7C60,56,60.2,56.3,60.3,56.5z M64.5,27.1c0-0.5,0-0.9,0-1.4
	c0-0.1,0-0.2-0.1-0.2c-0.1-0.1-0.1-0.1-0.2-0.1c-0.3-0.1-0.6-0.1-0.8-0.2c-0.3-0.1-0.6-0.1-0.8-0.2v3.1c-0.2-0.1-0.3-0.1-0.5-0.1
	c-0.2,0-0.3,0-0.5,0C61.5,28,61.5,28,61.4,28c0,0,0-0.1,0-0.1c0-0.4,0-0.9,0-1.3c0-0.4,0-0.9,0-1.3c0-0.7,0-1.4,0-2.1
	c0-0.7,0-1.5,0-2.2v-0.3c0.2,0.1,0.3,0.1,0.5,0.1c0.2,0,0.4,0,0.5,0c0,0.1,0,0.1,0,0.2c0,0.1,0,0.1,0,0.2c0,0.4,0,0.9,0,1.3
	c0,0.4,0,0.9,0,1.3c0,0.1,0,0.2,0.1,0.3C62.7,24,62.8,24,63,24c0.2,0.1,0.5,0.1,0.7,0.2c0.3,0.1,0.5,0.1,0.8,0.2V21
	c0.2,0.1,0.3,0.1,0.5,0.1c0.2,0,0.3,0,0.5,0c0.1,0.1,0.1,0.2,0.1,0.2c0,0.5,0,1,0,1.5c0,0.5,0,1,0,1.5c0,0.7,0,1.3,0,1.9
	c0,0.6,0,1.3,0,1.9v0.3c-0.2,0-0.3,0-0.5,0c-0.2,0-0.4-0.1-0.5-0.1C64.5,28,64.5,27.6,64.5,27.1z M67.5,29.1c-0.2,0-0.4-0.1-0.5-0.1
	v-7.6c0.2,0.1,0.3,0.1,0.5,0.1c0.2,0,0.3,0.1,0.5,0.1l0.1,0.2c0.1,0.1,0.1,0.2,0.1,0.3c0,0.1,0,0.2,0,0.2c-0.1,1.1-0.1,2.2-0.1,3.3
	c0,1.1,0,2.2,0,3.2v0.3C67.9,29.2,67.7,29.1,67.5,29.1z M72.6,23c0.2,0.1,0.4,0.1,0.6,0.2c0.2,0.1,0.3,0.1,0.5,0.2l0.1,0.2
	c0,0.8,0,1.5,0,2.3c0,0.8,0,1.5,0,2.3v2.6c-0.2-0.1-0.4-0.1-0.6-0.2c-0.2-0.1-0.4-0.1-0.6-0.2c-0.1-0.1-0.1-0.2-0.2-0.2
	c-0.3-0.8-0.6-1.5-0.8-2.3c-0.3-0.8-0.6-1.6-0.9-2.4c0-0.1,0-0.1-0.1-0.1v4.4c-0.2-0.1-0.3-0.1-0.5-0.1c-0.2,0-0.4-0.1-0.5-0.1v-0.2
	c0-1.2,0-2.3,0-3.4c0-1.1,0-2.2,0-3.3v-0.3c0.2,0.1,0.4,0.1,0.6,0.2c0.2,0.1,0.4,0.1,0.5,0.2c0.1,0,0.1,0.1,0.2,0.2
	c0.3,0.8,0.6,1.5,0.9,2.3c0.3,0.7,0.5,1.5,0.8,2.3c0,0.1,0,0.1,0.1,0.2V23z M75.6,24c0.2,0.1,0.3,0.1,0.5,0.2
	c0.1,0.1,0.1,0.2,0.1,0.2c0,0.7,0,1.4,0,2.1c0,0.7,0,1.4,0,2.1c0,0.4,0,0.8,0,1.2c0,0.4,0,0.9,0,1.2v0.3c-0.2-0.1-0.3-0.1-0.5-0.2
	c-0.2-0.1-0.4-0.1-0.5-0.2C75,31,75,30.9,75,30.9c0-0.5,0-1.1,0-1.7s0-1.1,0-1.7c0-0.6,0-1.2,0-1.7c0-0.5,0-1.1,0-1.6v-0.3
	C75.2,23.8,75.4,23.9,75.6,24z"/>
</svg>
