<?xml version="1.0" encoding="utf-8"?>
<!-- Generator: Adobe Illustrator 21.0.2, SVG Export Plug-In . SVG Version: 6.00 Build 0)  -->
<svg version="1.1" id="Layer_1" xmlns="http://www.w3.org/2000/svg" xmlns:xlink="http://www.w3.org/1999/xlink" x="0px" y="0px"
	 viewBox="0 0 100 100" style="enable-background:new 0 0 100 100;" xml:space="preserve">
<style type="text/css">
	.st0{fill:#B3B3B1;}
	.st1{fill:#B3B3B3;}
	.st2{fill-rule:evenodd;clip-rule:evenodd;fill:#B3B3B3;}
	.st3{fill-rule:evenodd;clip-rule:evenodd;fill:#B3B3B1;}
</style>
<path class="st0" d="M53.5,27.2c0.1,0,0.1,0,0.1,0c0,0,0.1,0,0.1,0c1.9,0.1,3.8,0.2,5.7,0.4c1.9,0.2,3.8,0.5,5.7,0.9
	c2.6,0.6,5.1,1.3,7.6,2.1c2.5,0.8,4.8,1.8,7.2,3c1.8,0.9,3.4,2,5,3.1c1.5,1.1,2.9,2.4,4.2,3.9c0.9,1.1,1.6,2.2,2.3,3.4
	c0.6,1.2,1.1,2.4,1.4,3.7c0.1,0.3,0.1,0.6,0.1,0.9c0,0.3,0.1,0.6,0.1,0.8v1.6c0,0.1,0,0.2-0.1,0.3c-0.1,0.4-0.1,0.8-0.2,1.2
	c-0.1,0.4-0.1,0.8-0.2,1.2c-0.4,1.6-1.1,3.1-2,4.4c-0.9,1.3-2,2.5-3.2,3.7c-1.4,1.3-2.9,2.5-4.4,3.4c-1.6,1-3.2,1.9-4.9,2.7
	c-4,1.8-8.1,3.2-12.3,4c-4.2,0.8-8.5,1.3-12.9,1.5c-0.1,0-0.1,0-0.2,0c-0.1,0-0.1,0-0.2,0h-4l-0.2-0.1c-1.8,0-3.5-0.1-5.2-0.3
	c-1.7-0.2-3.5-0.4-5.2-0.7c-2.5-0.4-5-1-7.5-1.7c-2.5-0.7-4.9-1.6-7.2-2.7c-2-0.9-3.9-2-5.7-3.2c-1.8-1.2-3.4-2.5-4.9-4.1
	c-1-1.1-1.9-2.2-2.6-3.4c-0.7-1.2-1.2-2.5-1.6-4c-0.1-0.3-0.2-0.6-0.3-0.9C8,52.3,7.9,52,7.8,51.6v-2.5c0.1,0,0.1,0,0.1,0
	c0,0,0-0.1,0-0.1c0.1-1.3,0.4-2.5,0.9-3.6c0.5-1.2,1.1-2.3,1.9-3.4c1-1.4,2.2-2.7,3.5-3.8c1.3-1.1,2.7-2.1,4.2-3.1
	c1.9-1.2,3.9-2.2,6-3.1c2.1-0.9,4.3-1.6,6.5-2.3c2.4-0.6,4.8-1.1,7.2-1.6c2.4-0.4,4.8-0.7,7.3-0.8c0.3,0,0.6,0,0.9,0
	c0.3,0,0.6-0.1,0.9-0.1H53.5z M51.5,72.3c0.4,0,0.8,0,1.1,0c1.4,0,2.8-0.1,4.2-0.2c1.4-0.1,2.7-0.3,4.1-0.5C63,71.4,65,71,67,70.5
	c2-0.4,4-1,5.9-1.7c2-0.7,4-1.5,5.9-2.5c1.9-0.9,3.7-2.1,5.4-3.4c1.3-0.9,2.5-2,3.6-3.2c1.1-1.2,1.9-2.5,2.6-3.9
	c0.6-1.3,0.9-2.5,1.1-3.8c0.2-1.3,0.2-2.6-0.1-4c-0.3-1.4-0.7-2.7-1.4-3.9c-0.7-1.2-1.5-2.4-2.5-3.4c-1.3-1.4-2.8-2.7-4.4-3.8
	c-1.6-1.1-3.3-2.1-5.1-2.9c-3.1-1.5-6.4-2.7-9.8-3.5c-3.4-0.8-6.8-1.4-10.2-1.8c-1.4-0.1-2.9-0.2-4.3-0.3c-1.4-0.1-2.9-0.1-4.4-0.1
	c-1.1,0.1-2.1,0.1-3.2,0.2c-1.1,0.1-2.1,0.1-3.2,0.2c-1.8,0.2-3.6,0.4-5.4,0.8c-1.8,0.3-3.5,0.7-5.3,1.1c-2.3,0.6-4.6,1.4-6.9,2.3
	c-2.3,0.9-4.4,2-6.4,3.4c-1.4,0.9-2.8,1.9-4,2.9c-1.2,1.1-2.3,2.3-3.3,3.7c-0.8,1.1-1.3,2.3-1.7,3.5c-0.4,1.2-0.6,2.5-0.7,3.9
	c0,1.1,0.2,2.2,0.5,3.3c0.3,1.1,0.8,2.1,1.3,3c0.8,1.4,1.8,2.7,2.9,3.9c1.1,1.1,2.4,2.2,3.7,3.1c1.8,1.3,3.6,2.3,5.5,3.2
	s3.9,1.6,5.9,2.3c3.5,1.1,7,1.9,10.6,2.5c3.6,0.5,7.2,0.8,11,0.8C50.8,72.3,51.2,72.3,51.5,72.3z M37.5,70
	c-4.1-0.7-8.1-1.8-11.9-3.4c-1.6-0.7-3.2-1.5-4.8-2.4c-1.6-0.9-3.1-1.9-4.5-3c-1-0.9-1.9-1.8-2.8-2.8c-0.8-1-1.6-2.1-2.1-3.3
	c-0.8-1.9-1.1-3.9-0.9-5.7c0.2-1.9,0.8-3.7,1.9-5.4c0.8-1.3,1.7-2.4,2.8-3.4c1-1,2.2-1.9,3.4-2.7c2-1.4,4.1-2.5,6.3-3.4
	c2.2-0.9,4.5-1.7,6.9-2.4c1.8-0.5,3.5-0.9,5.3-1.2c1.8-0.3,3.6-0.6,5.3-0.8c1.9-0.2,3.8-0.3,5.7-0.4c1.9-0.1,3.8-0.1,5.7,0
	c3.1,0.1,6.1,0.4,9.1,0.9c3,0.5,5.9,1.2,8.8,2.1c2.2,0.8,4.3,1.6,6.4,2.6c2.1,1,4,2.2,5.9,3.6c1.2,0.9,2.3,1.9,3.3,2.9
	c1,1.1,1.8,2.3,2.4,3.7c0.9,2.1,1.3,4.1,1,6.1c-0.3,2-1,3.9-2.4,5.7c-0.9,1.3-1.9,2.5-3.1,3.5c-1.2,1-2.5,1.9-3.8,2.7
	c-2,1.3-4.1,2.3-6.2,3.1c-2.1,0.8-4.3,1.5-6.5,2.2c-2,0.5-4,0.9-6.1,1.3c-2,0.3-4.1,0.6-6.2,0.7C55.1,71,54.1,71,53,71.1
	c-1,0-1.9,0.1-2.5,0.1C45.9,71.1,41.6,70.7,37.5,70z M22.4,55.3c0.6-0.2,1.1-0.4,1.7-0.6c0.6-0.2,1.2-0.4,1.7-0.6
	c-0.1-0.1-0.1-0.2-0.1-0.3c0-0.1-0.1-0.1-0.1-0.2c-0.9,0.3-1.7,0.5-2.6,0.8c-0.8,0.3-1.7,0.6-2.6,0.9l-0.2,0.2
	c-0.1,0.3-0.1,0.6-0.1,0.9c0,0.3,0,0.6,0,0.9h5.9v-2h-3.7C22.4,55.5,22.4,55.4,22.4,55.3z M24.2,49.5c0.9,0,1.9,0,2.8,0
	c0.9,0,1.9,0,2.8,0c0.1,0,0.1,0,0.2-0.1c0.1-0.1,0.1-0.1,0.1-0.2c0.1-0.3,0.3-0.5,0.4-0.8c0.1-0.3,0.2-0.6,0.3-0.9
	c0.1-0.2,0.1-0.4,0.2-0.5c0.1-0.2,0.2-0.3,0.3-0.5h-3c0.6-1.5,1.2-3,1.8-4.5c0.6-1.5,1.2-3,1.8-4.5c-0.5,0-1,0-1.4,0
	c-0.4,0-0.9,0-1.3,0c-0.2,0-0.3,0-0.4,0.1c-0.1,0.1-0.1,0.2-0.2,0.3c-0.6,1.6-1.3,3.3-1.9,5c-0.7,1.7-1.3,3.3-2,5
	c-0.1,0.3-0.2,0.5-0.3,0.8c-0.1,0.3-0.2,0.6-0.3,0.8C24,49.4,24.1,49.5,24.2,49.5z M38,56.5c0.6-0.8,1-1.7,1.2-2.8
	c0.1-0.6,0.1-1.1-0.2-1.6c-0.3-0.4-0.7-0.7-1.2-0.8c-0.3-0.1-0.5-0.1-0.7-0.1c-0.2,0-0.5,0-0.7,0c-0.7,0-1.4,0-2.1,0
	c-0.7,0-1.4,0-2.1,0c-0.2,0-0.3,0-0.4,0.1c-0.1,0.1-0.2,0.2-0.2,0.3c-0.8,1.8-1.5,3.7-2.3,5.5c-0.8,1.8-1.5,3.7-2.2,5.5
	c-0.1,0.1-0.1,0.2-0.1,0.3c0,0.1-0.1,0.2-0.1,0.3c0.1,0,0.1,0,0.2,0c0.5,0,1,0,1.6,0c0.5,0,1.1,0,1.6,0c0.1,0,0.1,0,0.2-0.1
	c0.1-0.1,0.1-0.1,0.1-0.2c0.3-0.5,0.5-1,0.7-1.6c0.2-0.6,0.5-1.1,0.7-1.7c0-0.1,0-0.1,0.1-0.2c0.1-0.1,0.1-0.1,0.2-0.2
	c0,0.1,0,0.1,0,0.2c0,0.1,0,0.1,0,0.2c0.1,0.5,0.1,1,0.1,1.6c0,0.6,0,1.1,0.1,1.6c0,0.1,0,0.2,0,0.3c0,0.1,0.1,0.1,0.2,0.1
	c0.6-0.1,1.1-0.1,1.7-0.1c0.6,0,1.2,0,1.7,0c0.1,0,0.1,0,0.1,0c0,0,0.1,0,0.1,0c-0.1-0.8-0.3-1.6-0.4-2.5c-0.1-0.8-0.3-1.6-0.4-2.5
	C36.6,57.9,37.4,57.3,38,56.5z M43.1,43.5c0.2-2,0.3-4,0.5-6c-0.6,0-1.1,0-1.7,0c-0.5,0-1.1,0-1.7,0c-0.2,0-0.3,0-0.4,0.1
	c-0.1,0.1-0.2,0.2-0.2,0.3c-1.2,1.7-2.4,3.4-3.6,5.1c-1.2,1.7-2.4,3.5-3.6,5.2c-0.2,0.2-0.3,0.4-0.5,0.6c-0.1,0.2-0.3,0.4-0.4,0.7
	c0.6,0,1.1,0,1.7,0c0.6,0,1.1,0,1.6,0c0.1,0,0.1,0,0.1-0.1c0-0.1,0.1-0.1,0.1-0.2c0.1-0.2,0.3-0.4,0.4-0.7c0.1-0.3,0.3-0.5,0.4-0.8
	c0-0.1,0-0.1,0.1-0.2c0.1-0.1,0.2-0.1,0.2-0.1c0.5,0,1,0,1.5,0c0.5,0,1,0,1.5,0c0.1,0,0.1,0,0.1,0c0,0,0.1,0,0.1,0v1.9h3
	C42.8,47.5,43,45.5,43.1,43.5z M32.9,56.7c0.2-0.4,0.4-0.8,0.5-1.2c0.2-0.4,0.3-0.8,0.5-1.1c0-0.1,0-0.1,0-0.1c0,0,0,0,0.1,0
	c0.2,0,0.4,0,0.6,0s0.4,0,0.6,0.1c0.2,0.1,0.3,0.2,0.3,0.4c0,0.2,0,0.4,0,0.5c-0.2,0.6-0.5,1-0.8,1.2C34.2,56.6,33.6,56.7,32.9,56.7
	z M40.3,42.8c-0.1,0.6-0.1,1.2-0.2,1.8c-0.4,0-0.7,0-1.1,0c-0.3,0-0.7,0-1.1,0c0.4-0.6,0.8-1.2,1.2-1.8c0.4-0.6,0.8-1.2,1.1-1.7
	c0.1,0,0.1,0,0.2,0.1C40.4,41.6,40.4,42.2,40.3,42.8z M51.3,54.3c0-0.1,0-0.1,0-0.2c-0.1-0.8-0.3-1.5-0.8-2.1
	c-0.5-0.6-1.1-0.9-1.9-1c-0.4-0.1-0.9-0.2-1.3-0.1c-0.4,0.1-0.9,0.2-1.3,0.3c-1.5,0.6-2.8,1.4-3.8,2.4c-1,1-1.9,2.3-2.5,3.6
	c-0.2,0.6-0.3,1.1-0.4,1.7c-0.1,0.5-0.1,1.1,0,1.7c0.1,0.7,0.3,1.3,0.7,1.7c0.4,0.5,1,0.8,1.7,1c0.4,0.1,0.9,0.2,1.4,0.1
	c0.5,0,1-0.1,1.4-0.3c1.3-0.4,2.5-1,3.4-1.8s1.8-1.8,2.5-3c0.3-0.6,0.6-1.2,0.8-1.8c0.2-0.6,0.3-1.3,0.3-2
	C51.3,54.4,51.3,54.4,51.3,54.3z M46.4,58.3c-0.5,0.7-1.1,1.1-1.7,1.2c-0.5,0.1-0.9,0.1-1.3-0.2c-0.3-0.3-0.5-0.7-0.3-1.2
	c0.1-0.7,0.3-1.3,0.7-1.8c0.4-0.5,0.9-0.9,1.5-1.2c0.1-0.1,0.1-0.1,0.2-0.1c0.1,0,0.1,0,0.2,0c0.5-0.1,0.9-0.1,1.2,0.2
	c0.3,0.3,0.4,0.6,0.4,1.1C47.2,56.9,46.9,57.6,46.4,58.3z M49.1,43c0.1,1,0.3,2,0.4,3.1c0.1,1,0.2,2.1,0.3,3.1
	c0.1,0.1,0.1,0.2,0.2,0.3c0.1,0.1,0.2,0.1,0.3,0.1c0.4,0,0.9,0,1.3,0c0.4,0,0.8,0,1.2,0c0.2,0,0.3,0,0.4-0.1
	c0.1-0.1,0.1-0.2,0.2-0.3c0.6-1.6,1.3-3.1,1.9-4.7c0.7-1.6,1.3-3.1,1.9-4.7c0.1-0.3,0.3-0.7,0.4-1c0.1-0.4,0.3-0.8,0.5-1.1
	c-0.5,0-1,0-1.5,0c-0.5,0-0.9,0-1.4,0c-0.2,0-0.3,0-0.4,0.1c-0.1,0.1-0.1,0.2-0.2,0.3c-0.4,0.9-0.7,1.9-1.1,2.8
	c-0.3,0.9-0.7,1.9-1.1,2.8c0,0.1,0,0.1,0,0.2c0,0.1-0.1,0.1-0.1,0.2c-0.1-0.1-0.1-0.2-0.1-0.3c0-0.1,0-0.1-0.1-0.1
	c-0.1-0.9-0.3-1.9-0.4-2.8c-0.2-0.9-0.3-1.9-0.4-2.8c-0.1-0.1-0.1-0.2-0.2-0.3c-0.1-0.1-0.2-0.1-0.3-0.1c-0.4,0.1-0.8,0.1-1.1,0.1
	s-0.8,0-1.1-0.1c-0.2,0-0.3,0-0.4,0.1c-0.1,0.1-0.1,0.2-0.2,0.3c-0.8,1.8-1.5,3.7-2.2,5.5c-0.7,1.9-1.5,3.7-2.2,5.6
	c-0.1,0.1-0.1,0.1-0.1,0.2c0,0.1,0,0.2,0,0.3c0.4,0,0.9,0,1.3,0c0.4,0,0.8,0,1.2,0c0.2,0,0.3,0,0.4-0.1c0.1-0.1,0.1-0.2,0.2-0.3
	c0.4-0.9,0.7-1.7,1.1-2.6c0.3-0.8,0.7-1.7,1-2.6c0.1-0.1,0.1-0.3,0.2-0.5C48.9,43.2,48.9,43.1,49.1,43L49.1,43z M52.5,57.2
	c-0.2,2-0.3,4-0.5,5.9c0.5,0,1,0,1.5,0c0.5,0,1,0,1.4,0.1c0.2,0,0.3,0,0.4-0.1c0.1-0.1,0.2-0.2,0.2-0.3c1.2-1.6,2.4-3.3,3.6-4.9
	c1.2-1.6,2.4-3.3,3.6-4.9c0.3-0.3,0.5-0.5,0.7-0.8c0.2-0.3,0.4-0.6,0.6-0.9c-0.6,0-1.1,0-1.7,0c-0.5,0-1.1,0-1.7,0
	c-0.1,0-0.3,0-0.4,0.1c-0.1,0.1-0.2,0.2-0.3,0.3c-0.8,1.1-1.5,2.2-2.2,3.3c-0.7,1.1-1.4,2.2-2.2,3.4c0,0.1,0,0.1-0.1,0.2
	c-0.1,0.1-0.1,0.1-0.2,0.2c0.3-1.3,0.5-2.5,0.7-3.7c0.2-1.2,0.4-2.4,0.6-3.6h-3.9C52.9,53.2,52.7,55.2,52.5,57.2z M57.7,49.5
	c1,0,2.1-0.2,3.1-0.5c0.6-0.2,1.2-0.4,1.8-0.7c0.6-0.3,1.1-0.6,1.6-1c0.8-0.8,1.5-1.7,2-2.7c0.5-1,0.8-2.1,1-3.2
	c0.2-0.9,0.1-1.6-0.3-2.2c-0.4-0.6-1-1-1.9-1.3c-0.2-0.1-0.4-0.1-0.6-0.1c-0.2,0-0.3-0.1-0.5-0.1c-0.7,0-1.4,0-2.1,0
	c-0.7,0-1.4,0-2.1-0.1c-0.1,0-0.2,0-0.3,0.1c-0.1,0.1-0.2,0.2-0.2,0.3c-0.4,1.1-0.9,2.3-1.3,3.4c-0.4,1.1-0.9,2.2-1.3,3.3
	c-0.3,0.8-0.6,1.6-1,2.5c-0.3,0.8-0.7,1.7-1.1,2.5C55.6,49.5,56.7,49.5,57.7,49.5z M60.1,44.5c0.2-0.5,0.3-0.9,0.5-1.4
	c0.1-0.3,0.3-0.6,0.4-0.9c0.1-0.3,0.3-0.6,0.4-0.8c0-0.1,0-0.2,0.1-0.3c0.1-0.1,0.2-0.1,0.3-0.1c0.8,0,1.3,0.2,1.5,0.5
	c0.3,0.3,0.3,0.9,0,1.6c-0.1,0.3-0.2,0.5-0.3,0.7c-0.1,0.2-0.2,0.4-0.3,0.6c-0.3,0.6-0.7,1.1-1.3,1.3c-0.5,0.2-1.2,0.3-1.8,0.2
	C59.7,45.5,59.9,45,60.1,44.5z M72,51.2c-1,0-2,0-3,0c-1,0-2,0-3,0c-0.2,0-0.3,0-0.4,0.1c-0.1,0.1-0.2,0.2-0.2,0.3
	c-0.6,1.6-1.2,3.1-1.8,4.6c-0.6,1.5-1.3,3-1.9,4.5c-0.2,0.4-0.4,0.8-0.5,1.2c-0.2,0.4-0.3,0.8-0.5,1.2h0.6c0.9,0,1.9,0,2.9,0
	c1,0,1.9,0,2.9,0.1c0.3,0,0.4,0,0.5-0.1c0.1-0.1,0.2-0.2,0.3-0.4c0.1-0.4,0.3-0.9,0.5-1.3c0.2-0.4,0.4-0.9,0.6-1.4h-3.4
	c0.1-0.2,0.2-0.4,0.3-0.6c0.1-0.2,0.1-0.3,0.2-0.5c0.1-0.1,0.1-0.2,0.2-0.3c0.1-0.1,0.2-0.1,0.3-0.1c0.4,0,0.8,0,1.1,0s0.8,0,1.1,0
	c0.1,0,0.2,0,0.3,0c0.1,0,0.1-0.1,0.1-0.2c0.1-0.3,0.3-0.6,0.4-0.9c0.1-0.3,0.3-0.6,0.4-0.9c0.1-0.1,0.1-0.2,0.2-0.3
	c0.1-0.1,0.1-0.2,0.2-0.4h-3c0.1-0.2,0.1-0.4,0.2-0.5c0.1-0.2,0.2-0.3,0.2-0.5c0-0.1,0-0.2,0.1-0.2c0.1,0,0.2,0,0.3,0
	c0.4,0,0.9,0,1.3,0c0.4,0,0.9,0,1.3,0c0.1,0,0.2,0,0.3,0c0.1,0,0.1-0.1,0.2-0.1c0.2-0.4,0.4-0.9,0.6-1.4c0.2-0.5,0.4-1,0.7-1.5H72z
	 M80.4,56.6c0.6-0.7,1-1.6,1.2-2.6c0.2-0.8,0.1-1.4-0.1-1.8c-0.3-0.5-0.8-0.8-1.7-0.9c-0.1-0.1-0.3-0.1-0.4-0.1c-0.2,0-0.3,0-0.5,0
	c-0.7,0-1.4,0-2.1,0c-0.7,0-1.4,0-2.1,0c-0.2,0-0.3,0-0.4,0.1c-0.1,0.1-0.2,0.2-0.2,0.3c-0.8,1.8-1.5,3.7-2.3,5.5
	c-0.8,1.8-1.5,3.6-2.2,5.4c-0.1,0.1-0.1,0.2-0.1,0.3c0,0.1-0.1,0.2-0.1,0.4c0.6,0,1.1,0,1.6,0c0.5,0,1,0,1.5,0c0.1,0,0.2,0,0.3-0.1
	c0.1-0.1,0.2-0.2,0.2-0.3c0.2-0.6,0.4-1.1,0.6-1.7c0.2-0.5,0.5-1.1,0.7-1.6c0-0.1,0-0.1,0-0.2c0-0.1,0.1-0.1,0.1-0.2h0.1
	c0,0.6,0,1.3,0,1.9c0,0.7,0.1,1.3,0.1,1.9h4c-0.1-0.8-0.2-1.6-0.3-2.5c-0.1-0.8-0.2-1.6-0.3-2.5C79.1,57.9,79.9,57.3,80.4,56.6z
	 M70.2,41.8v2h3.6v0.1c-0.6,0.3-1.1,0.5-1.7,0.7s-1.2,0.4-1.8,0.6c0.1,0.1,0.1,0.2,0.2,0.3c0.1,0.1,0.1,0.2,0.1,0.2
	c0.9-0.3,1.8-0.6,2.6-0.9c0.9-0.3,1.8-0.6,2.6-0.8c0.1-0.1,0.1-0.1,0.1-0.2c0-0.1,0-0.1,0-0.2c0-0.3,0-0.5,0-0.8c0-0.3,0-0.6,0-0.9
	H70.2z M76,55.4c0.2-0.4,0.3-0.8,0.5-1.2l0.2-0.1c0.1,0,0.2,0,0.3,0c0.1,0,0.1,0,0.2,0c0.4,0,0.6,0.1,0.8,0.2
	c0.1,0.2,0.2,0.4,0.1,0.8c-0.2,0.6-0.5,1-0.9,1.2c-0.4,0.3-1,0.3-1.7,0.3C75.6,56.2,75.8,55.8,76,55.4z"/>
</svg>
