<?xml version="1.0" encoding="utf-8"?>
<!-- Generator: Adobe Illustrator 21.0.2, SVG Export Plug-In . SVG Version: 6.00 Build 0)  -->
<svg version="1.1" id="Layer_1" xmlns="http://www.w3.org/2000/svg" xmlns:xlink="http://www.w3.org/1999/xlink" x="0px" y="0px"
	 viewBox="0 0 100 100" style="enable-background:new 0 0 100 100;" xml:space="preserve">
<style type="text/css">
	.st0{fill:#B3B3B1;}
	.st1{fill:#B3B3B3;}
	.st2{fill-rule:evenodd;clip-rule:evenodd;fill:#B3B3B3;}
	.st3{fill-rule:evenodd;clip-rule:evenodd;fill:#B3B3B1;}
</style>
<g>
	<path class="st3" d="M54.6,36.8c0-0.9-0.8-1.7-1.7-1.7h-2.4v3.4l2.4,0C53.8,38.4,54.6,37.7,54.6,36.8z"/>
	<path class="st3" d="M52.2,45.3c0.9,0,3.3-0.5,3.3-2.9c0-2.4-2.4-2.9-3.4-2.9h-1.6v4.8C50.5,45.2,51.3,45.3,52.2,45.3z"/>
	<path class="st3" d="M46.9,38.4h1.7v-1.9C47.9,36.8,47.2,37.4,46.9,38.4z"/>
	<path class="st3" d="M40.6,52.5c-1.4-0.6-2.7,0-3.6,1.8s-0.8,3.7,0.3,4.3c1.1,0.6,2.5,0.5,3.7-1.8C42.2,54.5,41.8,53.2,40.6,52.5z"
		/>
	<path class="st3" d="M74.9,26c-6.5-6.5-15.2-10.1-24.5-10.1S32.5,19.5,26,26c-6.5,6.5-10.1,15.2-10.1,24.5S19.4,68.4,26,74.9
		C32.5,81.4,41.2,85,50.4,85s17.9-3.6,24.5-10.1C81.4,68.4,85,59.7,85,50.4S81.4,32.5,74.9,26z M50.2,68.8c-8.2,0-22.5-2.9-27.4-8.2
		c-4.1-4.4-3.5-9.2-0.1-13.3l18.9-20.4c1.4-1.4,4.5-3.6,8.7-3.6s7.2,2.2,8.7,3.6l18.9,20.4c2.6,3.5,4.5,8.3-0.1,13.3
		C72.7,65.9,58.5,68.8,50.2,68.8z"/>
	<path class="st3" d="M48.6,35.9L48.6,35.9c0-0.3,0-0.8-0.5-0.8h-1.4l-2.2,3.4h1C46.1,36.9,47.5,36.2,48.6,35.9z"/>
	<path class="st3" d="M46.7,39.9c0,1.8,1,2.6,1.9,3.1v-3.4h-1.9C46.7,39.7,46.7,39.8,46.7,39.9z"/>
	<path class="st3" d="M75.3,47.1L58.1,28.7c-1.3-1.3-4.1-3.3-7.9-3.3c-3.8,0-6.5,2-7.9,3.3L25.2,47.1c-3.3,3.3-4.4,8.1,0.1,12
		c5,4.3,17.4,7.5,24.9,7.5s19.9-3.1,24.9-7.5C79.6,55.3,78.5,50.4,75.3,47.1z M36.9,45.4c0.5,0,1.6,0,2.4-1.3l1.2-1.8
		c-0.3-1-0.4-2.2-0.4-3.5c0-7.2,7.2-9.1,9.4-9.1c2.5,0,4.6,0.5,5.3,0.8c0.7,0.3,1-0.1,1.2-0.3c0.2-0.3,0.9-0.2,1.2,0.3
		c0.3,0.5,1,1.6,1.3,2.2c0.1,0.2,0.1,0.9-0.7,0.3c-2.7-1.6-6.3-2-7.3-2c-1,0.1-7.9,0.1-7.9,8c0,0,0,0,0,0.1l2.4-3.6
		c0.2-0.3,0.2-0.5,0.1-0.6c-0.1-0.1-0.2-0.1-0.2-0.3c0-0.2,0-0.3,0.4-0.3h8.3c1.4,0,3.1,1,3.1,2.7S55.5,38.8,55,39
		c1,0.5,2.8,1.2,2.8,3.6c0,2.4-2,3.5-4,3.5h-6c-0.6,0-0.5-0.7-0.1-0.7c0.4,0,0.9-0.2,0.9-0.9v-0.2c-1.8-0.5-3.3-2-3.3-4.5
		c0-0.1,0-0.2,0-0.3h-1.5l-1,1.5c0.9,6.4,6.2,7.2,9.2,7.2c3.3,0,5.7-1.8,6.5-2.6c0.9-0.7,1.6,0,0.9,0.7c-1.6,1.9-4.5,3.3-8,3.4
		c-4.2,0.2-8.6-1.7-10.5-6l-0.5,0.8c-0.2,0.4,0,0.7,0.2,0.8c0.3,0.1,0.4,0.8-0.1,0.8h-3.8C36.3,46.1,36.4,45.4,36.9,45.4z
		 M33.8,48.9c-0.1,0.1-0.2,0.2-0.5,0.1c-0.5-0.2-0.9,0.2-1.1,0.4L28.7,54c0.6,1.8,2.6,2.2,3.7,1.4c0.4-0.2,0.6,0.2,0.4,0.5l-1.5,1.4
		c-1.4-0.6-5.6-3.7-6.1-4c-0.5-0.4,0.1-0.8,0.4-0.5c0.3,0.2,0.8,0.2,1,0l3.7-4.7c0.3-0.3,0.1-0.8-0.1-1c-0.2-0.2-0.3-0.5-0.1-0.7
		c0.2-0.2,0.4-0.2,0.7,0.1c0.3,0.3,2.6,1.9,2.9,2.1C33.9,48.4,33.9,48.7,33.8,48.9z M43.5,57.9c-0.5,1.2-2.6,3.8-6.4,2
		c-2.9-1.4-4-3.8-2.4-6.7c1.6-2.8,4.8-2.6,6.5-1.7C44.7,53.4,44.3,56,43.5,57.9z M53.6,54.4c-0.3-0.3-1.7-1-2.4-0.4v6.3
		c0,0.4,0.4,0.8,0.7,0.8s0.5,0.2,0.5,0.4c0,0.2-0.1,0.4-0.6,0.4c-0.7,0.1-2.9,0.1-3.9,0c-0.5,0-0.6-0.2-0.6-0.4
		c0-0.2,0.2-0.4,0.5-0.4c0.3,0,0.7-0.4,0.7-0.8V54c-0.7-0.6-2.1,0.2-2.4,0.4c-0.3,0.3-0.9,0-0.7-0.5l0.6-1.3
		c0.7,0.1,2.9,0.2,3.8,0.2c0.9,0,3.1-0.1,3.8-0.2l0.6,1.3C54.5,54.5,53.9,54.7,53.6,54.4z M62.7,60.2c-3.4,1.3-5.2-0.5-5.4-1.4
		L55.9,54c-0.1-0.3-0.3-0.5-0.6-0.5c-0.3,0-0.5-0.1-0.6-0.3c-0.1-0.2,0-0.5,0.4-0.6c0.4,0,2.6-0.6,3.3-0.7c0.7-0.1,0.6,0.7,0.3,0.9
		c-0.3,0.2-0.4,0.6-0.2,1.1l1.1,3.9c0.2,0.7,1.3,1.6,2.8,1.1c1.4-0.5,1.5-1.7,1.2-2.8l-1.1-3.9c-0.1-0.5-0.3-0.5-0.8-0.6
		c-0.5-0.1-0.3-0.7,0-0.8s1.1-0.3,1.5-0.5C64,50,64,50.8,63.9,51c-0.2,0.2-0.3,0.4-0.1,0.9l1.1,3.9C65,56.4,66.2,59,62.7,60.2z
		 M72.6,55.9c-1,0.6-2.9,1-4.1,1l-1-1.3c-0.3-0.4,0.2-0.6,0.5-0.4c0.7,0.4,2.3,0.5,3.4,0c1.1-0.5,1.8-1.5,1.5-2.1
		c-0.3-0.7-1.8-0.2-2.8,0.1c-2.7,0.8-3.9,0.2-4.5-0.8c-1-2,0.7-3.6,1.4-4.1c0.7-0.4,1.8-0.8,2.3-0.9c0.6-0.1,1.2-0.2,1.6-0.4l0.1,0
		l0.9,0.9c0.3,0.4,0.1,0.7-0.4,0.6c-0.5-0.1-2-0.1-2.8,0.1c-0.9,0.2-1.8,1.1-1.5,1.9c0.3,0.8,3.7-0.3,4.1-0.5
		c0.4-0.1,2.5-0.8,3.4,1.3C75.8,53.5,73.7,55.2,72.6,55.9z"/>
</g>
</svg>
