<?xml version="1.0" encoding="utf-8"?>
<!-- Generator: Adobe Illustrator 21.0.2, SVG Export Plug-In . SVG Version: 6.00 Build 0)  -->
<svg version="1.1" id="Layer_1" xmlns="http://www.w3.org/2000/svg" xmlns:xlink="http://www.w3.org/1999/xlink" x="0px" y="0px"
	 viewBox="0 0 100 100" style="enable-background:new 0 0 100 100;" xml:space="preserve">
<style type="text/css">
	.st0{fill:#B3B3B1;}
	.st1{fill:#B3B3B3;}
	.st2{fill-rule:evenodd;clip-rule:evenodd;fill:#B3B3B3;}
	.st3{fill-rule:evenodd;clip-rule:evenodd;fill:#B3B3B1;}
</style>
<path class="st0" d="M19.9,70.5c1.3,0.2,2.6,0.3,4,0.5c-0.7,0.2-1.8,0.3-3.4,0.4c-1.6,0-3.2-0.1-4.9-0.2c-1.7-0.1-3.3-0.3-4.8-0.6
	c-1.5-0.3-2.5-0.6-2.9-0.9c0.9-0.2,1.8-0.3,2.6-0.4c0.8-0.1,1.6-0.2,2.4-0.4c3.4-0.4,6.7-0.6,10.1-0.7c3.4-0.2,6.7-0.3,10.1-0.3
	c3.4-0.1,6.7-0.1,10.1-0.1c3.4,0.1,6.7,0.1,10.1,0.1c2.4,0,4.8,0,7.3,0.1c2.4,0.1,4.8,0.2,7.2,0.3c3.8,0.2,7.6,0.4,11.4,0.8
	c3.8,0.3,7.6,0.9,11.3,1.8c0.4,0.1,0.8,0.2,1.3,0.4c0.4,0.1,0.8,0.3,1.3,0.4c-0.1,0.1-0.1,0.2-0.1,0.2c-0.2,0-0.4,0-0.7,0
	c-0.3,0-0.5,0-0.7,0c-2.3-0.3-4.5-0.6-6.7-0.8c-2.3-0.2-4.5-0.4-6.8-0.5c-2.3-0.1-4.5-0.2-6.7-0.3c-2.3-0.1-4.5-0.1-6.8-0.1
	c-2.3,0-4.6,0-7-0.1c-2.3,0-4.6,0-7,0c-2.3,0-4.6-0.1-6.9-0.1c-2.3,0-4.6,0-7-0.1c-3.3,0-6.5,0-9.8,0c-3.2,0-6.5,0-9.8,0
	c-0.2,0-0.4,0-0.6,0c-0.2,0-0.4,0-0.5,0C17.3,70.2,18.6,70.4,19.9,70.5z M73.5,63.6c0.4-1.4,0.8-2.8,1.1-4.2
	c0.6-3.1,0.9-6.1,1.1-9.1c0.2-3,0-6-0.4-8.9s-1-5.8-1.9-8.7c-0.9-2.8-2.2-5.7-3.7-8.5c-1.2-2.2-2.7-4.2-4.4-6
	c-1.7-1.8-3.7-3.3-6-4.5c-3.3-1.7-6.8-2.3-10.4-1.8c-3.6,0.5-6.8,2-9.7,4.5c-2.5,2.1-4.5,4.5-6.1,7.2c-1.6,2.7-2.8,5.5-3.8,8.6
	c-0.9,2.8-1.6,5.7-2,8.5c-0.5,2.8-0.7,5.7-0.6,8.5c0.1,2.8,0.3,5.7,0.9,8.5c0.5,2.8,1.3,5.7,2.3,8.5c0.1,0.2,0.1,0.3,0.2,0.5
	c0.1,0.2,0.1,0.3,0.2,0.4c-0.1,0.1-0.1,0.1-0.2,0.1c-0.1,0-0.1,0.1-0.2,0.1c-0.1-0.2-0.1-0.3-0.3-0.4c-0.1-0.1-0.2-0.3-0.3-0.4
	c-0.6-1.8-1.2-3.6-1.6-5.5c-0.4-1.8-0.8-3.7-1.1-5.6c-0.5-4.2-0.6-8.3-0.2-12.3c0.4-4,1.2-8,2.6-12c1.1-3,2.4-5.8,4-8.4
	c1.6-2.6,3.6-4.9,6.1-7c2.2-1.7,4.4-2.9,6.8-3.6c2.4-0.7,4.7-1,7.1-0.8c2.4,0.2,4.7,0.9,7,2.1c2.2,1.2,4.3,2.9,6.2,5
	c2.4,2.6,4.3,5.5,5.7,8.6s2.5,6.3,3.2,9.8c0.5,2.6,0.9,5.1,1.1,7.7c0.2,2.5,0.2,5.1,0.1,7.6c-0.2,2.5-0.5,5-1.1,7.5
	c-0.5,2.5-1.2,5-2.1,7.4c-0.1,0.2-0.2,0.4-0.3,0.6c-0.1,0.2-0.2,0.3-0.3,0.5c-0.1-0.1-0.2-0.1-0.2-0.2C72.6,66.4,73.1,65,73.5,63.6z
	 M72.1,59.4c0.6-2.7,0.9-5.5,1.1-8.3c0.2-2.8,0.1-5.6-0.2-8.4c-0.3-2.8-0.9-5.7-1.7-8.5c-2.5,3-4.1,6.2-4.9,9.6
	c-0.8,3.5-1.3,7-1.5,10.6h-3.4c0.3-2.8,0.8-5.6,1.5-8.3c0.7-2.7,1.8-5.2,3.3-7.7c-0.1-0.1-0.1-0.1-0.1-0.2c0-0.1-0.1-0.1-0.1-0.2
	c-0.6,0.3-1.3,0.5-1.9,0.7c-0.6,0.2-1.2,0.4-1.9,0.7c0.7-1.3,1.8-2.5,3.4-3.6c1.6-1.1,3.4-1.9,5.3-2.3c-0.3-0.7-0.5-1.5-0.8-2.3
	c-0.3-0.8-0.6-1.5-0.9-2.3c-0.8-1.8-1.7-3.6-2.8-5.2c-1.1-1.6-2.4-3.2-3.8-4.6c-1.7-1.7-3.6-2.9-5.5-3.7c-2-0.8-4-1.3-6-1.3
	c-2,0-4,0.4-6,1.3c-2,0.8-3.8,2.1-5.5,3.8c-2,2-3.7,4.2-5,6.6c-1.3,2.4-2.4,5-3.3,7.7c1.9,0.3,3.6,0.9,5,2c1.4,1.1,2.7,2.3,3.9,3.9
	c-0.7-0.3-1.3-0.5-2-0.8s-1.3-0.5-1.9-0.8c0,0.1,0,0.1-0.1,0.2c-0.1,0.1-0.1,0.1-0.2,0.2c1.5,2.5,2.6,5,3.3,7.7
	c0.7,2.7,1.2,5.4,1.5,8.3h-3.4c-0.2-3.6-0.7-7.1-1.5-10.5c-0.8-3.4-2.4-6.6-4.9-9.5c-0.5,1.4-1,3.3-1.4,5.7c-0.4,2.4-0.6,5-0.6,7.9
	s0.3,6,0.8,9.3c0.5,3.3,1.4,6.6,2.8,9.9c-0.9,0.2-1.5,0.2-1.7,0.1c-0.2-0.1-0.5-0.6-0.8-1.4c-1.1-3.4-1.9-6.8-2.5-10.2
	c-0.5-3.4-0.7-6.7-0.5-10.1c0.2-3.3,0.7-6.7,1.5-9.9c0.9-3.3,2.2-6.6,3.8-9.8c1.2-2.4,2.6-4.6,4.4-6.6c1.8-1.9,3.9-3.6,6.3-4.8
	c3.3-1.7,6.7-2.3,10.2-1.8c3.5,0.5,6.7,2,9.6,4.6c2.4,2.1,4.4,4.5,6,7.2c1.6,2.7,2.8,5.6,3.8,8.7c0.8,2.8,1.4,5.6,1.8,8.3
	c0.4,2.8,0.5,5.6,0.5,8.3c-0.1,2.8-0.4,5.5-0.9,8.3c-0.5,2.8-1.3,5.6-2.3,8.3c-0.3,0.8-0.5,1.3-0.7,1.4c-0.2,0.1-0.8,0.1-1.7,0
	C70.6,64.8,71.5,62.1,72.1,59.4z M31.9,70.9c0.1,0.2,0.2,0.3,0.4,0.5c0.7,1.4,1.6,2.7,2.5,3.9c0.9,1.2,1.9,2.4,3,3.5
	c2,2,4.1,3.5,6.4,4.5c2.3,1,4.7,1.5,7,1.5c2.3,0,4.7-0.4,6.9-1.4c2.3-0.9,4.5-2.4,6.6-4.3c1.1-1.1,2.1-2.3,3-3.5
	c0.9-1.2,1.7-2.5,2.5-3.9c0.1-0.2,0.2-0.3,0.4-0.4c0.1-0.1,0.3-0.3,0.4-0.5c0.1,0.2,0.1,0.3,0.2,0.3c0.1,0.1,0.1,0.1,0,0.1
	c-1.2,2.4-2.6,4.5-4.2,6.5c-1.6,2-3.6,3.6-5.9,5c-3.1,1.8-6.2,2.7-9.3,2.8c-3.1,0.1-6.3-0.8-9.4-2.5c-2.5-1.4-4.7-3.2-6.4-5.3
	c-1.8-2.1-3.3-4.5-4.5-7c0.1-0.1,0.1-0.1,0.2-0.1c0.1,0,0.1-0.1,0.2-0.1C31.7,70.6,31.8,70.8,31.9,70.9z M34.3,70.7
	c0.4,0.2,0.8,0.6,1.1,1.1c1.2,2.1,2.6,3.9,4.3,5.5c1.6,1.6,3.5,2.9,5.7,3.8c3.2,1.4,6.2,1.7,9.1,1c2.8-0.7,5.4-2.2,7.9-4.4
	c0.9-0.8,1.7-1.7,2.5-2.6c0.7-1,1.5-1.9,2.2-2.9c0.5-0.7,0.8-1.1,1.1-1.2c0.2-0.1,0.9-0.1,1.9,0.2c-0.6,0.9-1.3,1.9-1.9,2.8
	c-0.6,0.9-1.2,1.8-1.9,2.6c-1.6,1.9-3.3,3.5-5.3,4.8c-1.9,1.3-4.1,2.2-6.6,2.6c-2.8,0.5-5.4,0.4-7.9-0.4c-2.5-0.8-4.8-2.1-7-4
	c-1.4-1.2-2.6-2.5-3.7-3.9c-1.1-1.4-2.1-3-3-4.6c0-0.1,0-0.1,0-0.2c0-0.1,0-0.1,0-0.2C33.3,70.5,33.8,70.5,34.3,70.7z M36.1,59.5
	h30.2v1H36.1V59.5z M36.2,55.3h30.1v1H36.2V55.3z M37.6,57.4h27.2v1H37.6V57.4z M41,61.7c-0.1,1-0.4,1.7-0.8,2
	C39.8,64,39,64.1,37.8,64v-2.3H41z M43.7,61.7h15.1c-1.4,0.3-2.4,0.9-3.1,1.8c-0.7,0.9-1.1,2-1.1,3.4h-6.5c-0.1-1.3-0.5-2.5-1.2-3.4
	C46.2,62.5,45.2,61.9,43.7,61.7z M53.1,29.9c0.8,1.9,2.2,3.5,4,4.9c-0.1,0.1-0.1,0.1-0.2,0.2c-0.1,0.1-0.1,0.1-0.2,0.2
	c-0.7-0.3-1.4-0.6-2.1-0.9c-0.7-0.3-1.5-0.6-2.3-1c-0.2,3.8,0.1,7.5,0.9,11c0.8,3.5,2.3,6.9,4.7,10.1c-0.7,0-1.3,0-1.9,0
	c-0.6,0-1.1,0-1.7,0c-0.2-0.1-0.3-0.1-0.4-0.3c-0.1-0.1-0.2-0.2-0.2-0.4c-0.4-0.9-0.8-1.8-1.3-2.7c-0.4-0.9-0.8-1.8-1.2-2.6
	c-0.3,0.7-0.6,1.4-0.9,2.1c-0.3,0.7-0.6,1.5-0.9,2.3c-0.2,0.6-0.5,1.1-1,1.4c-0.4,0.3-1,0.4-1.8,0.2c-0.3-0.1-0.6-0.1-0.9,0
	c-0.3,0-0.7,0-1.1,0c2.3-3.2,3.8-6.6,4.6-10.1c0.8-3.5,1.1-7.2,0.9-11c-0.8,0.3-1.6,0.6-2.3,0.9c-0.7,0.3-1.5,0.7-2.3,1
	c0.7-0.9,1.4-1.8,2.1-2.7c0.7-0.8,1.2-1.7,1.7-2.7c0.5-0.9,0.8-1.9,1.1-2.9c0.2-1,0.5-2,0.8-3C51.6,26,52.2,28,53.1,29.9z
	 M48.2,71.1h6.3v5.6h-6.3V71.1z M64.8,61.7v2.2c-1.1,0.3-1.8,0.2-2.3-0.1c-0.5-0.3-0.8-1-0.9-2.1H64.8z"/>
</svg>
