<?xml version="1.0" encoding="utf-8"?>
<!-- Generator: Adobe Illustrator 21.0.2, SVG Export Plug-In . SVG Version: 6.00 Build 0)  -->
<svg version="1.1" id="Layer_1" xmlns="http://www.w3.org/2000/svg" xmlns:xlink="http://www.w3.org/1999/xlink" x="0px" y="0px"
	 viewBox="0 0 100 100" style="enable-background:new 0 0 100 100;" xml:space="preserve">
<style type="text/css">
	.st0{fill:#B3B3B1;}
	.st1{fill:#B3B3B3;}
	.st2{fill-rule:evenodd;clip-rule:evenodd;fill:#B3B3B3;}
	.st3{fill-rule:evenodd;clip-rule:evenodd;fill:#B3B3B1;}
</style>
<path class="st0" d="M82.3,63.5c-1.8,4.2-4.2,7.8-7.3,11c-3.1,3.1-6.7,5.6-10.9,7.5c-4.2,1.8-8.6,2.8-13.3,2.8
	c-4.8,0-9.4-0.9-13.6-2.6c-4.2-1.8-7.9-4.2-11.1-7.3c-3.2-3.1-5.6-6.7-7.4-10.9c-1.8-4.2-2.8-8.7-2.8-13.5c0-4.8,0.9-9.2,2.7-13.4
	c1.8-4.2,4.2-7.9,7.3-11.1c3.1-3.2,6.7-5.7,10.9-7.5c4.2-1.8,8.6-2.8,13.3-2.8c4.9-0.1,9.4,0.8,13.6,2.7c4.2,1.8,7.9,4.2,11,7.3
	c3.1,3.1,5.6,6.8,7.5,11c1.8,4.2,2.8,8.7,2.8,13.6C85.1,54.9,84.2,59.4,82.3,63.5z M50,17.5c-3.1,0.2-6,0.7-8.7,1.5
	c-2.8,0.8-5.3,1.8-7.6,3.2c-2.3,1.4-4.5,3.1-6.4,5.1c-1.9,1.9-3.7,4.3-5.2,7c-1.5,2.6-2.6,5.2-3.3,7.9c-0.7,2.7-1.1,5.3-1.1,8
	s0.4,5.3,1.1,8c0.7,2.7,1.7,5.4,3.1,8c0.2-0.1,0.3-0.1,0.4-0.1c0.1,0,0.1,0,0.2,0c1.8-1.5,3.7-3,5.6-4.5c1.9-1.5,3.8-3,5.6-4.5
	c1.9-1.5,3.7-3,5.6-4.5c1.9-1.6,3.8-3.1,5.6-4.6c0.2-0.1,0.3-0.3,0.5-0.5c0.2-0.2,0.3-0.5,0.3-0.7c0.3-2.4,0.7-4.8,1.1-7.1
	c0.4-2.4,0.7-4.8,1.1-7.2c0.4-2.4,0.7-4.8,1.1-7.3C49.3,22.4,49.6,20,50,17.5z M28.2,74.2c2.1,2,4.4,3.7,6.9,5
	c2.5,1.4,5.1,2.3,7.9,2.9c2.9,0.6,5.9,0.9,9,0.7c2.9-0.1,5.7-0.5,8.2-1.3c2.5-0.8,4.9-1.8,7.1-3.1c2.2-1.3,4.2-3,6.1-4.9
	c1.9-1.9,3.6-4.1,5.2-6.5c-0.2-0.1-0.4-0.2-0.4-0.3c-0.1-0.1-0.2-0.1-0.2-0.1c-2.2-0.9-4.4-1.8-6.7-2.7c-2.2-0.9-4.4-1.8-6.7-2.8
	c-2.2-0.9-4.4-1.8-6.7-2.7c-2.2-0.9-4.4-1.8-6.7-2.7c-0.3-0.1-0.7-0.1-1.1-0.1c-0.4,0.1-0.7,0.1-1,0.2c-2.5,1-5,2-7.5,3
	c-2.5,1-5,2.1-7.5,3.1c-2,0.8-4,1.6-6,2.5c-2,0.8-4,1.7-6,2.6C24.1,69.7,26.1,72.1,28.2,74.2z M51.1,18.1c0,0.2,0,0.3,0,0.5
	c0.3,2.3,0.7,4.7,1.1,7.1c0.3,2.3,0.6,4.7,1,7c0.3,2.4,0.6,4.7,1,7c0.4,2.3,0.7,4.7,1.1,7.1c0.1,0.3,0.2,0.6,0.4,0.9
	c0.2,0.3,0.5,0.6,0.8,0.8c2.3,1.8,4.7,3.7,7,5.4c2.3,1.8,4.7,3.6,7,5.4c1.4,1.1,2.8,2.2,4.3,3.3c1.5,1.1,2.9,2.3,4.5,3.4
	c1.4-2.7,2.4-5.3,3-7.9c0.7-2.7,1.1-5.3,1.1-7.9c0-2.6-0.3-5.2-0.9-7.8c-0.7-2.5-1.8-5.1-3.2-7.7c-1.5-2.7-3.2-5.1-5.1-7.1
	c-1.9-2.1-4.1-3.8-6.4-5.2c-2.3-1.4-4.9-2.6-7.6-3.4c-2.8-0.8-5.7-1.3-8.8-1.5C51.1,17.8,51.1,18,51.1,18.1z"/>
</svg>
