<?xml version="1.0" encoding="utf-8"?>
<!-- Generator: Adobe Illustrator 21.0.2, SVG Export Plug-In . SVG Version: 6.00 Build 0)  -->
<svg version="1.1" id="Layer_1" xmlns="http://www.w3.org/2000/svg" xmlns:xlink="http://www.w3.org/1999/xlink" x="0px" y="0px"
	 viewBox="0 0 100 100" style="enable-background:new 0 0 100 100;" xml:space="preserve">
<style type="text/css">
	.st0{fill:#B3B3B1;}
	.st1{fill:#B3B3B3;}
	.st2{fill-rule:evenodd;clip-rule:evenodd;fill:#B3B3B3;}
	.st3{fill-rule:evenodd;clip-rule:evenodd;fill:#B3B3B1;}
</style>
<path class="st0" d="M48,73.6c-0.4-0.1-0.8-0.1-1.3-0.2c-2-0.4-3.9-1-5.6-2c-1.7-1-3.3-2.2-4.8-3.7c-0.1-0.1-0.2-0.1-0.3-0.2
	c-0.1,0-0.2-0.1-0.4-0.1c-1.3,0-2.5,0-3.8,0s-2.6,0-3.9,0c-0.1,0-0.2,0-0.3-0.1c-0.1,0-0.2-0.1-0.3-0.1c-1.3-1-2.6-1.9-3.9-2.9
	c-1.3-1-2.6-2-3.8-3c-1.8-1.5-3.6-3.1-5.3-4.7c-1.7-1.6-3.3-3.3-4.8-5.1c-1-1.1-1.9-2.3-2.8-3.5c-0.9-1.2-1.8-2.4-2.7-3.7
	c0,0,0-0.1-0.1-0.2c0-0.1-0.1-0.1-0.1-0.2V44c0,0,0.1,0,0.1,0c0,0,0.1,0,0.2,0c2.4,0,4.8,0,7.2,0s4.8,0,7.3,0c2.4,0,4.9,0,7.3,0
	c2.4,0,4.8,0.1,7.3,0.1c0.1,0,0.2,0,0.3-0.1c0.1,0,0.1-0.1,0.2-0.3c1.6-2.5,3.5-4.5,5.7-6c2.2-1.5,4.8-2.5,7.7-3
	c0.3-0.1,0.7-0.1,1-0.2c0.3,0,0.7-0.1,1-0.1h2.5c0.3,0.1,0.7,0.1,1,0.2c0.4,0,0.7,0.1,1,0.2c2.9,0.6,5.5,1.6,7.7,3.1
	c2.2,1.5,4.1,3.5,5.7,6c0.1,0.1,0.2,0.2,0.3,0.2c0.1,0.1,0.2,0.1,0.3,0.1c2.4,0,4.8,0,7.2-0.1c2.4,0,4.8,0,7.2,0c2.4,0,4.8,0,7.1,0
	c2.4,0,4.8,0,7.2,0H97c0,0.1-0.1,0.1-0.1,0.2c0,0,0,0.1-0.1,0.1c-0.7,1-1.4,2-2.1,3c-0.7,1-1.4,2-2.3,2.9c-0.9,1-1.8,2-2.7,3.1
	c-0.9,1-1.8,2-2.9,3c-1.7,1.6-3.3,3.1-5.1,4.6c-1.7,1.5-3.5,2.9-5.4,4.2c-0.5,0.4-1,0.8-1.5,1.1c-0.5,0.4-1,0.7-1.6,1.1
	c-0.1,0.1-0.2,0.1-0.3,0.2c-0.1,0-0.2,0.1-0.3,0.1c-1.2,0-2.5,0-3.7,0c-1.3,0-2.5,0-3.8,0c-0.1,0-0.2,0-0.3,0
	c-0.1,0-0.2,0.1-0.3,0.2c-1.4,1.4-2.9,2.6-4.5,3.5c-1.7,0.9-3.4,1.6-5.3,2c-0.4,0.1-0.9,0.2-1.3,0.3c-0.4,0-0.9,0.1-1.3,0.2
	c-0.1,0-0.2,0-0.2,0c-0.1,0-0.1,0-0.2,0h-2.5C48.8,73.7,48.4,73.6,48,73.6z M16.1,57.3L16.1,57.3c0.6,0.6,1.2,1.1,1.7,1.6
	c0.5,0.5,1.1,1,1.7,1.5c0,0,0.1,0.1,0.2,0.1c0.1,0,0.1,0,0.2,0c0.6,0,1.3,0,1.9,0c0.7,0,1.3,0,1.9,0c1.4,0,2.8,0,4.2,0
	c1.4,0,2.8,0,4.2,0c0.1,0,0.2,0,0.3,0c0.1,0,0.1,0.1,0.2,0.2c0.2,0.4,0.4,0.8,0.6,1.3c0.2,0.4,0.4,0.9,0.6,1.3c0,0.1,0,0.1,0.1,0.2
	H23.6c0,0.1,0,0.1,0.1,0.2c0,0,0.1,0.1,0.1,0.1c0.6,0.5,1.3,0.9,1.9,1.4c0.6,0.5,1.2,0.9,1.9,1.3c0.1,0.1,0.3,0.1,0.4,0.2
	c0.1,0,0.3,0.1,0.4,0.1c1.3,0,2.5,0,3.8,0c1.3,0,2.6,0,3.9,0c0.1,0,0.2,0.1,0.3,0.1c0.1,0,0.2,0.1,0.2,0.2c1.7,1.8,3.7,3.2,5.8,4.3
	c2.1,1,4.4,1.6,6.9,1.8c3,0.2,5.8-0.3,8.3-1.3c2.5-1,4.8-2.6,6.9-4.7c0.1-0.1,0.2-0.2,0.3-0.3c0.1,0,0.2-0.1,0.3-0.1
	c1.3,0,2.5,0,3.8,0c1.3,0,2.6,0,3.8,0c0.1,0,0.2,0,0.3,0c0.1,0,0.2-0.1,0.3-0.2c0.6-0.5,1.3-0.9,1.9-1.4c0.6-0.5,1.2-0.9,1.9-1.4
	c0,0,0.1-0.1,0.1-0.1c0,0,0.1-0.1,0.1-0.1l-0.1-0.1H67.1c0.2-0.5,0.4-0.9,0.6-1.4c0.2-0.4,0.4-0.9,0.5-1.3c0.1-0.1,0.2-0.2,0.2-0.3
	c0.1,0,0.2-0.1,0.3-0.1c2,0,4,0,6,0c2,0,4,0,6.1,0c0.1,0,0.2,0,0.3-0.1c0.1,0,0.2-0.1,0.3-0.2c0.5-0.5,1-0.9,1.5-1.3
	c0.5-0.4,1-0.8,1.4-1.3c0,0,0.1-0.1,0.2-0.2c0.1-0.1,0.1-0.1,0.2-0.2l-0.1-0.1H69.3c0-0.5,0.1-1.1,0.1-1.6c0-0.5,0.1-1,0.1-1.5H70
	c3,0,5.9,0,8.9,0c2.9,0,5.9,0,8.9,0c0.1,0,0.2,0,0.3-0.1c0.1,0,0.2-0.1,0.2-0.1c0.4-0.5,0.8-0.9,1.2-1.4c0.4-0.5,0.8-1,1.2-1.4
	c0,0,0.1,0,0.1-0.1c0,0,0-0.1,0-0.1h-21c-0.1,0-0.1,0-0.2,0c0,0-0.1,0-0.1-0.1c-0.1,0-0.1,0-0.2,0c0,0-0.1-0.1-0.1-0.1
	c-0.1-0.5-0.2-0.9-0.3-1.4c-0.1-0.5-0.2-1-0.3-1.4H69c2,0,4,0,6,0c2,0,4,0,6,0c2,0,4,0,6.1,0c2,0,4,0,6,0c0.1,0,0.2,0,0.3-0.1
	c0.1,0,0.2-0.1,0.3-0.3c0.3-0.4,0.6-0.9,0.9-1.3c0.3-0.4,0.6-0.9,0.9-1.3c0,0,0.1-0.1,0.1-0.1c0,0,0.1-0.1,0.1-0.2h-0.6
	c-2.3,0-4.6,0-6.9,0c-2.3,0-4.6,0-6.9,0c-2.3,0-4.6,0-6.9,0c-2.3,0-4.6,0-6.9,0c-0.2,0-0.3,0-0.4-0.1c-0.1,0-0.2-0.1-0.3-0.3
	c-1-1.7-2.2-3.2-3.7-4.5c-1.4-1.3-3-2.3-4.7-3.1c-1.7-0.8-3.5-1.3-5.4-1.6c-1.9-0.3-3.9-0.2-5.8,0.1c-2.8,0.6-5.3,1.6-7.5,3.1
	c-2.2,1.5-4,3.5-5.5,5.9c-0.1,0.1-0.2,0.2-0.3,0.3c-0.1,0.1-0.2,0.1-0.4,0.1c-2.3,0-4.6,0-6.9,0c-2.3,0-4.7,0-7,0c-2.3,0-4.7,0-7,0
	c-2.3,0-4.6,0-6.9,0H5.1c0,0.1,0.1,0.2,0.1,0.2c0,0.1,0.1,0.1,0.1,0.2c0.3,0.4,0.6,0.8,0.9,1.3c0.3,0.4,0.6,0.8,0.9,1.3
	c0.1,0.1,0.2,0.2,0.3,0.3c0.1,0,0.2,0.1,0.3,0.1c2,0,4.1,0,6.1,0c2,0,4,0,6,0c2,0,4,0,6.1,0s4,0,6,0h0.4c-0.1,0.5-0.3,1-0.4,1.5
	c-0.1,0.5-0.3,1-0.4,1.5H9.9c0.1,0,0.1,0.1,0.2,0.2c0,0.1,0.1,0.1,0.1,0.2c0.4,0.4,0.8,0.9,1.1,1.3c0.4,0.4,0.8,0.9,1.1,1.3
	c0.1,0.1,0.2,0.2,0.3,0.3c0.1,0,0.2,0.1,0.3,0.1c3,0,5.9,0,8.9,0c3,0,5.9,0,8.9,0h0.4c0.1,0.5,0.1,1,0.2,1.5c0,0.5,0.1,1,0.1,1.6
	H16.1z M63.7,59.6c-0.8,1.7-1.8,3.3-3.1,4.6c-1.3,1.3-2.8,2.3-4.6,3.1c-1.7,0.7-3.6,1.1-5.6,1.1c-1.9,0-3.8-0.4-5.6-1.1
	c-1.7-0.8-3.3-1.8-4.5-3.1c-1.3-1.3-2.3-2.8-3.1-4.5c-0.7-1.7-1.1-3.6-1.1-5.6c0-2,0.4-3.9,1.1-5.6c0.7-1.7,1.7-3.2,3-4.5
	c1.3-1.3,2.8-2.3,4.6-3.1c1.7-0.8,3.6-1.1,5.6-1.1c1.9,0,3.8,0.4,5.5,1.1c1.8,0.8,3.3,1.8,4.6,3.1c1.3,1.3,2.3,2.8,3.1,4.6
	c0.8,1.7,1.1,3.6,1.1,5.5C64.9,56,64.5,57.9,63.7,59.6z M39.7,52.5c0,0,0,0.1,0,0.1c0,0,0.1,0.1,0.1,0.2c0.2,0.9,0.4,1.8,0.7,2.7
	c0.2,0.9,0.5,1.8,0.7,2.7c0,0.1,0.1,0.2,0.2,0.3c0.1,0,0.1,0.1,0.2,0.1c0.2,0,0.4,0,0.7,0c0.2,0,0.5,0,0.7,0c0.1,0,0.2,0,0.2-0.1
	c0.1,0,0.1-0.1,0.2-0.2c0.2-0.8,0.4-1.6,0.6-2.4c0.2-0.8,0.4-1.6,0.6-2.3c0-0.2,0.1-0.4,0.1-0.6c0-0.2,0.1-0.3,0.1-0.5h0.1v6h2v-8.3
	h-2.7c-0.3,0-0.5,0-0.6,0.1c-0.1,0-0.1,0.2-0.2,0.5c-0.2,0.7-0.4,1.4-0.6,2.2c-0.2,0.7-0.4,1.5-0.6,2.2c0-0.1-0.1-0.1-0.1-0.2
	c0,0,0-0.1-0.1-0.1c-0.2-0.7-0.3-1.5-0.5-2.2c-0.2-0.7-0.4-1.5-0.5-2.2c0-0.1-0.1-0.1-0.2-0.2c-0.1,0-0.1-0.1-0.2-0.1
	c-0.5,0-0.9,0-1.4,0c-0.5,0-0.9,0-1.4,0c0,0-0.1,0-0.1,0c0,0-0.1,0-0.1,0v8.3h2L39.7,52.5L39.7,52.5z M50.6,50.3h-2.2v8.3h2.2V50.3z
	 M54.4,58.6v-4.4c0.5,0.6,0.9,1.3,1.3,1.9c0.4,0.6,0.8,1.2,1.2,1.9c0.2,0.3,0.3,0.4,0.5,0.5c0.2,0.1,0.4,0.1,0.7,0.1
	c0.3,0,0.5,0,0.8,0c0.3,0,0.5,0,0.8,0v-8.3h-2.3v4.5c-0.1-0.1-0.1-0.2-0.2-0.2c0-0.1-0.1-0.1-0.1-0.2c-0.4-0.6-0.9-1.3-1.3-1.9
	c-0.4-0.7-0.9-1.3-1.3-1.9c0,0-0.1-0.1-0.1-0.2c0-0.1-0.1-0.1-0.1-0.1c-0.4,0-0.8,0-1.1,0c-0.4,0-0.7,0-1.1,0v8.3H54.4z M63.5,58.6
	v-8.3h-2.2v8.3H63.5z"/>
</svg>
