<?xml version="1.0" encoding="utf-8"?>
<!-- Generator: Adobe Illustrator 21.0.2, SVG Export Plug-In . SVG Version: 6.00 Build 0)  -->
<svg version="1.1" id="Layer_1" xmlns="http://www.w3.org/2000/svg" xmlns:xlink="http://www.w3.org/1999/xlink" x="0px" y="0px"
	 viewBox="0 0 100 100" style="enable-background:new 0 0 100 100;" xml:space="preserve">
<style type="text/css">
	.st0{fill:#B3B3B1;}
	.st1{fill:#B3B3B3;}
	.st2{fill-rule:evenodd;clip-rule:evenodd;fill:#B3B3B3;}
	.st3{fill-rule:evenodd;clip-rule:evenodd;fill:#B3B3B1;}
</style>
<path class="st0" d="M47.8,84.3c-0.2-0.1-0.3-0.1-0.4-0.1c-0.1,0-0.3,0-0.4,0c-3.3-0.3-6.4-1.1-9.3-2.2c-3-1.1-5.7-2.7-8.4-4.6
	c-2.9-2.2-5.3-4.7-7.3-7.5c-2-2.8-3.7-5.9-5-9.2c-0.1-0.3-0.2-0.5-0.3-0.7c-0.1-0.2-0.3-0.2-0.7-0.2c-0.9,0.1-1.7,0.1-2.6,0.1
	c-0.9,0-1.7,0-2.6,0V41.3c0.7,0,1.4,0,2.2,0c0.8,0,1.5,0,2.3,0c0.5,0.1,0.9,0,1.2-0.2c0.2-0.2,0.5-0.5,0.7-1c1.2-2.9,2.6-5.6,4.2-8
	c1.6-2.4,3.5-4.6,5.6-6.5s4.5-3.5,7-4.9c2.6-1.4,5.5-2.4,8.6-3.2c0.8-0.2,1.7-0.3,2.5-0.4c0.9-0.1,1.7-0.3,2.6-0.4H53
	c0.2,0.1,0.3,0.1,0.4,0.1c0.1,0,0.3,0,0.4,0c1,0.2,2,0.4,3,0.5c1,0.1,2,0.3,2.9,0.6c2.9,0.9,5.6,2,8,3.3c2.4,1.4,4.6,3,6.6,4.8
	c2,1.8,3.7,3.9,5.3,6.3c1.5,2.3,2.8,4.8,3.9,7.6c0.2,0.5,0.5,0.9,0.7,1.1c0.3,0.2,0.7,0.3,1.3,0.2c0.7-0.1,1.4-0.1,2.2,0
	c0.8,0,1.5,0,2.3,0v18.3c-0.8,0-1.5,0-2.3,0c-0.8,0-1.5,0-2.2,0c-0.5-0.1-1,0-1.3,0.2c-0.3,0.2-0.6,0.6-0.8,1.1
	c-1.2,2.9-2.6,5.6-4.2,8c-1.6,2.4-3.5,4.5-5.6,6.4c-2.1,1.9-4.5,3.5-7,4.8c-2.6,1.4-5.5,2.4-8.6,3.2c-0.9,0.2-1.8,0.4-2.6,0.5
	c-0.9,0.1-1.8,0.2-2.6,0.4H47.8z M21.7,48.3c0.7,1,1.3,2,1.9,3c0.6,1,1.3,2,1.9,3c0.1,0.2,0.1,0.3,0.3,0.5c0.1,0.2,0.3,0.2,0.4,0.2
	c0.6,0,1.2,0,1.8,0c0.6,0,1.3,0,1.9,0v-9h-2.4v6.4c-0.7-1-1.4-2-2-2.9c-0.7-1-1.3-1.9-2-2.9c-0.1-0.2-0.2-0.3-0.4-0.4
	c-0.1-0.1-0.3-0.2-0.4-0.2c-0.5-0.1-1.1-0.1-1.7,0c-0.6,0-1.2,0-1.8,0v9h2.1v-6.5C21.5,48.3,21.6,48.3,21.7,48.3z M22.9,58.6
	c0.9,2.7,2.2,5.4,3.9,7.9c1.8,2.5,3.9,4.7,6.4,6.6c2.5,1.9,5.3,3.4,8.5,4.4c3.2,1,6.5,1.4,10.2,1.2c3.4-0.2,6.5-0.8,9.3-2
	c2.8-1.3,5.4-2.8,7.6-4.7c2.2-1.9,4.1-4,5.6-6.3c1.5-2.3,2.6-4.7,3.3-7.1H22.9z M77.5,41.7c-0.8-2.5-2-4.9-3.7-7.3
	c-1.7-2.3-3.7-4.4-6.1-6.2s-5-3.2-8-4.2c-3-1.1-6.4-1.6-10-1.5c-3.8,0.1-7.1,0.7-10.1,2c-3,1.2-5.6,2.7-7.8,4.6s-4,3.9-5.5,6.2
	c-1.4,2.2-2.4,4.3-3.1,6.4H77.5z M34.2,46h-2.5v9h2.5V46z M42,45.9c-1.1,0-2.2,0-3.4,0c-0.9,0-1.5,0.2-2,0.6c-0.5,0.4-0.7,1-0.7,1.7
	c-0.1,1.1,0.1,1.9,0.4,2.4c0.4,0.4,1.1,0.7,2.2,0.7c0.7,0.1,1.3,0.2,2,0.2c0.7,0.1,1.4,0.1,2,0.2c0.3,0.1,0.5,0.2,0.7,0.3
	c0.1,0.1,0.1,0.3,0,0.5c-0.1,0.1-0.2,0.2-0.3,0.2c-0.2,0.1-0.3,0.1-0.5,0.2c-1,0-2.1,0-3.1,0s-2.1,0-3.2,0v2c1.4,0,2.7,0,4,0
	c1.3,0,2.6,0,3.9,0c0.5-0.1,1-0.3,1.3-0.6c0.3-0.4,0.4-0.8,0.4-1.3c0-0.2,0-0.3,0-0.5c0-0.2,0-0.4,0-0.5c0-0.8-0.2-1.3-0.5-1.7
	c-0.3-0.4-0.8-0.6-1.5-0.7c-0.8-0.1-1.5-0.2-2.3-0.2c-0.8-0.1-1.5-0.1-2.2-0.2c-0.2-0.1-0.3-0.1-0.4-0.3c-0.1-0.1-0.3-0.3-0.4-0.4
	c0.1-0.1,0.2-0.2,0.4-0.3c0.2-0.1,0.3-0.2,0.4-0.2c0.9-0.1,1.7-0.1,2.6,0c0.9,0,1.7,0,2.5,0c0.2,0,0.3,0,0.5,0c0.2,0,0.4,0,0.5,0
	v-1.9C44.3,45.9,43.1,45.9,42,45.9z M56.5,45.9c-0.8,0-1.6,0-2.4,0c-0.8,0-1.6,0-2.4,0c-0.4,0-0.9,0-1.3,0c-0.5,0-0.9,0.1-1.3,0.2
	c-0.8,0.2-1.3,0.5-1.5,0.9c-0.3,0.5-0.4,1.2-0.3,2.2c0,0.6,0.2,1,0.5,1.3c0.3,0.3,0.8,0.5,1.5,0.7c0.2,0,0.4,0,0.6,0
	c0.2,0,0.4,0.1,0.6,0.1c0.5,0.1,1.1,0.1,1.7,0.1c0.6,0,1.2,0.1,1.8,0.2c0.2,0,0.3,0.1,0.4,0.2c0.1,0.1,0.2,0.3,0.4,0.4
	c-0.2,0.1-0.3,0.2-0.4,0.4c-0.1,0.1-0.3,0.2-0.4,0.2c-0.8,0-1.5,0-2.2,0s-1.5,0-2.2,0h-2V55c1.4,0,2.7,0,4,0s2.6,0,3.9-0.1
	c0.2,0,0.5-0.1,0.8-0.3c0.3-0.2,0.5-0.4,0.7-0.5c0.6-0.9,0.7-1.9,0.2-2.9c-0.5-1-1.2-1.6-2.3-1.7c-0.7-0.1-1.4-0.2-2.1-0.2
	c-0.7-0.1-1.4-0.1-2.1-0.2c-0.3,0-0.5-0.1-0.7-0.2c-0.1-0.2-0.1-0.4,0.1-0.7c0.1-0.1,0.2-0.1,0.4-0.2c0.2-0.1,0.3-0.1,0.4-0.1
	c1,0,2,0,3,0c1,0,2,0,2.9,0V45.9z M69.2,54.4C69.1,54.2,69,54,69,53.9c-0.5-1.1-1-2.3-1.5-3.4c-0.5-1.1-1-2.2-1.4-3.4
	c-0.2-0.5-0.4-0.8-0.7-0.9c-0.3-0.1-0.7-0.2-1.1-0.3c-1.1-0.2-1.9,0-2.5,0.4c-0.6,0.4-1.1,1.1-1.4,2.2c-0.4,1.1-0.8,2.2-1.3,3.3
	s-1,2.2-1.5,3.3c0.2,0,0.4,0,0.6,0c0.2,0,0.3,0,0.5,0c0.5,0.1,1,0.1,1.4-0.1c0.4-0.2,0.6-0.6,0.7-1.2c0-0.1,0.1-0.2,0.3-0.3
	c0.2-0.1,0.3-0.2,0.4-0.2c0.5,0,1.1,0,1.7,0c0.6,0,1.1,0,1.6,0c0.5-0.1,0.9,0,1.2,0.2c0.3,0.2,0.5,0.5,0.7,1
	c0.1,0.1,0.1,0.2,0.3,0.4c0.1,0.2,0.3,0.2,0.4,0.2c0.3,0.1,0.7,0.1,1,0c0.3,0,0.7,0,1.1,0C69.3,54.8,69.3,54.6,69.2,54.4z
	 M61.7,51.3c0.2-0.5,0.4-1.1,0.7-1.5c0.2-0.5,0.4-1,0.7-1.5c0-0.1,0.1-0.1,0.2-0.2c0.1-0.1,0.2-0.1,0.3-0.1c0.1,0,0.1,0,0.2,0.1
	c0.1,0.1,0.2,0.2,0.2,0.3c0.2,0.4,0.4,0.9,0.6,1.4c0.2,0.5,0.4,1,0.7,1.6H61.7z M79,52.3c0,0-0.1,0-0.1,0c-0.6-1-1.2-2-1.8-2.9
	c-0.6-1-1.3-1.9-1.9-2.9c-0.1-0.2-0.2-0.3-0.4-0.4c-0.1-0.1-0.3-0.2-0.4-0.3c-0.6,0-1.2,0-1.8,0c-0.6,0-1.2,0-1.8,0v9H73v-6.7
	c0.2,0.1,0.3,0.2,0.4,0.4c0.1,0.1,0.2,0.3,0.3,0.4c0.5,0.9,1.1,1.8,1.7,2.7c0.6,0.9,1.1,1.8,1.7,2.6c0.1,0.1,0.2,0.2,0.3,0.4
	c0.1,0.1,0.2,0.2,0.3,0.2C78.4,55,79,55,79.6,55c0.6,0,1.2,0,1.9,0v-9h-2.4v6.4C79.1,52.3,79.1,52.3,79,52.3z"/>
</svg>
