<?xml version="1.0" encoding="utf-8"?>
<!-- Generator: Adobe Illustrator 21.0.2, SVG Export Plug-In . SVG Version: 6.00 Build 0)  -->
<svg version="1.1" id="Layer_1" xmlns="http://www.w3.org/2000/svg" xmlns:xlink="http://www.w3.org/1999/xlink" x="0px" y="0px"
	 viewBox="0 0 100 100" style="enable-background:new 0 0 100 100;" xml:space="preserve">
<style type="text/css">
	.st0{fill:#B3B3B1;}
	.st1{fill:#B3B3B3;}
	.st2{fill-rule:evenodd;clip-rule:evenodd;fill:#B3B3B3;}
	.st3{fill-rule:evenodd;clip-rule:evenodd;fill:#B3B3B1;}
</style>
<path class="st3" d="M37.9,45.6h44.8c1.5,0,2.1-1.9,1.1-2.9c-9.6-9.3-31.2-9.9-33.9-9.7c-3.4,5-7.7,8.4-12.5,10.5
	C36.5,44.1,36.9,45.6,37.9,45.6L37.9,45.6z M84.4,53.6v-5.7h1.2v5.7H84.4L84.4,53.6z M52.6,49.2h-6.5c-2.5,0-2.5,3.2,0,3.2h5.2v-1
	h-3.7v-1.2h5c0,1.1,0,2.3,0,3.4h-6.5c-4.2,0-4.1-5.7,0-5.7h6.5V49.2L52.6,49.2z M15.6,53.6v-5.7c2.5,0,5,0,7.4,0c3,0,3,4.6,0,4.6
	h-6.1v1.1H15.6L15.6,53.6z M16.9,49.2v2.1H23c1.3,0,1.3-2.1,0-2.1H16.9L16.9,49.2z M29.1,53.6v-3.1c0-2.2,3.2-2.7,4.9-2.7
	c1.7,0,4.9,0.4,4.9,2.7v3.1h-1.3v-1.1h-3.3h-3.9v1.1H29.1L29.1,53.6z M37.6,51.2v-0.7c0-1.2-2.8-1.4-3.6-1.4c-0.9,0-3.6,0.2-3.6,1.4
	v0.7h3.9H37.6L37.6,51.2z M56.8,53.6v-3.1c0-2.2,3.2-2.7,4.9-2.7c1.6,0,4.8,0.4,4.8,2.7v3.1h-1.2v-1.1H62h-3.9v1.1H56.8L56.8,53.6z
	 M65.4,51.2v-0.7c0-1.2-2.8-1.4-3.6-1.4c-0.9,0-3.6,0.2-3.6,1.4v0.7H62H65.4L65.4,51.2z M80.3,52.2v-4.2H79c0,1.2,0,2.4,0,3.6
	c0,0.5-0.5,0.7-0.8,0.4l-5-3.6c-0.9-0.8-2.4-0.2-2.4,1.1l0,0v4.2H72c0-1.2,0-2.4,0-3.6c0-0.4,0.6-0.7,0.9-0.4l5,3.7
	C78.8,54,80.3,53.4,80.3,52.2L80.3,52.2z M14.5,45.5c2.8-4.4,9.7-8.3,18.5-10.5l-6.7,10.4L14.5,45.5L14.5,45.5z M38.7,33.9
	c2.6-0.4,5.7-0.8,8.4-0.8c-3.6,5.5-8.7,8.5-14.2,9.6L38.7,33.9L38.7,33.9z M50.4,31.3c21.7,0,39.3,8.6,39.3,19
	c0,10.5-17.7,19-39.3,19s-39.3-8.6-39.3-19C11.1,39.9,28.7,31.3,50.4,31.3L50.4,31.3z M50.4,29.7c22.6,0,41,9.3,41,20.7
	c0,11.4-18.4,20.7-41,20.7c-22.6,0-41-9.3-41-20.7C9.4,38.9,27.8,29.7,50.4,29.7L50.4,29.7z M50.4,28C73.9,28,93,38,93,50.3
	c0,12.3-19.1,22.4-42.6,22.4S7.8,62.7,7.8,50.3C7.8,38,27,28,50.4,28L50.4,28z M83.8,58c-6.1,5.8-19.1,9.7-33.4,9.7
	c-14.4,0-27.4-3.9-33.5-9.8c-0.9-1-0.2-2.8,1.2-2.8c21.5,0,43,0,64.5,0C84.2,55.1,84.9,57,83.8,58L83.8,58z M54.9,43.2
	c0.5,0,0.9,0.4,0.9,0.9c0,0.5-0.4,0.9-0.9,0.9C54.4,45,54,44.6,54,44C54,43.6,54.4,43.2,54.9,43.2L54.9,43.2z M49.1,43.2
	c0.5,0,0.9,0.4,0.9,0.9c0,0.5-0.4,0.9-0.9,0.9c-0.5,0-0.9-0.4-0.9-0.9C48.2,43.6,48.6,43.2,49.1,43.2L49.1,43.2z M43.3,43.2
	c0.5,0,0.9,0.4,0.9,0.9c0,0.5-0.4,0.9-0.9,0.9c-0.5,0-0.9-0.4-0.9-0.9C42.4,43.6,42.8,43.2,43.3,43.2L43.3,43.2z M60.7,43.2
	c0.5,0,0.9,0.4,0.9,0.9c0,0.5-0.4,0.9-0.9,0.9c-0.5,0-0.9-0.4-0.9-0.9C59.8,43.6,60.2,43.2,60.7,43.2L60.7,43.2z M66.5,43.2
	c0.5,0,0.9,0.4,0.9,0.9c0,0.5-0.4,0.9-0.9,0.9c-0.5,0-0.9-0.4-0.9-0.9C65.5,43.6,65.9,43.2,66.5,43.2L66.5,43.2z M72.2,43.2
	c0.5,0,0.9,0.4,0.9,0.9c0,0.5-0.4,0.9-0.9,0.9c-0.5,0-0.9-0.4-0.9-0.9C71.3,43.6,71.7,43.2,72.2,43.2L72.2,43.2z M78,43.2
	c0.5,0,0.9,0.4,0.9,0.9c0,0.5-0.4,0.9-0.9,0.9c-0.5,0-0.9-0.4-0.9-0.9C77.1,43.6,77.5,43.2,78,43.2L78,43.2z M53.5,56
	c0.5,0,0.9,0.4,0.9,0.9c0,0.5-0.4,0.9-0.9,0.9c-0.5,0-0.9-0.4-0.9-0.9C52.6,56.4,53,56,53.5,56L53.5,56z M47.6,56
	c0.5,0,0.9,0.4,0.9,0.9c0,0.5-0.4,0.9-0.9,0.9c-0.5,0-0.9-0.4-0.9-0.9C46.7,56.4,47.1,56,47.6,56L47.6,56z M41.7,56
	c0.5,0,0.9,0.4,0.9,0.9c0,0.5-0.4,0.9-0.9,0.9s-0.9-0.4-0.9-0.9C40.8,56.4,41.1,56,41.7,56L41.7,56z M59.4,56c0.5,0,0.9,0.4,0.9,0.9
	c0,0.5-0.4,0.9-0.9,0.9c-0.5,0-0.9-0.4-0.9-0.9C58.6,56.4,59,56,59.4,56L59.4,56z M65.4,56c0.5,0,0.9,0.4,0.9,0.9
	c0,0.5-0.4,0.9-0.9,0.9c-0.5,0-0.9-0.4-0.9-0.9C64.5,56.4,64.9,56,65.4,56L65.4,56z M71.3,56c0.5,0,0.9,0.4,0.9,0.9
	c0,0.5-0.4,0.9-0.9,0.9c-0.5,0-0.9-0.4-0.9-0.9C70.4,56.4,70.8,56,71.3,56L71.3,56z M77.3,56c0.5,0,0.9,0.4,0.9,0.9
	c0,0.5-0.4,0.9-0.9,0.9c-0.5,0-0.9-0.4-0.9-0.9C76.4,56.4,76.8,56,77.3,56L77.3,56z M35.7,56c0.5,0,0.9,0.4,0.9,0.9
	c0,0.5-0.4,0.9-0.9,0.9c-0.5,0-0.9-0.4-0.9-0.9C34.8,56.4,35.2,56,35.7,56L35.7,56z M29.8,56c0.5,0,0.9,0.4,0.9,0.9
	c0,0.5-0.4,0.9-0.9,0.9c-0.5,0-0.9-0.4-0.9-0.9C28.9,56.4,29.3,56,29.8,56L29.8,56z M23.9,56c0.5,0,0.9,0.4,0.9,0.9
	c0,0.5-0.4,0.9-0.9,0.9c-0.5,0-0.9-0.4-0.9-0.9C23,56.4,23.4,56,23.9,56L23.9,56z M46.9,38.2c0.5,0,0.9,0.4,0.9,0.9
	c0,0.5-0.4,0.9-0.9,0.9c-0.5,0-0.9-0.4-0.9-0.9C46,38.6,46.4,38.2,46.9,38.2L46.9,38.2z M50.5,33.7c0.5,0,0.9,0.4,0.9,0.9
	c0,0.5-0.4,0.9-0.9,0.9c-0.5,0-0.9-0.4-0.9-0.9C49.6,34.1,50,33.7,50.5,33.7L50.5,33.7z M55.4,33.8c0.5,0,0.9,0.4,0.9,0.9
	c0,0.5-0.4,0.9-0.9,0.9c-0.5,0-0.9-0.4-0.9-0.9C54.6,34.3,55,33.8,55.4,33.8L55.4,33.8z M60.4,34.4c0.5,0,0.9,0.4,0.9,0.9
	c0,0.5-0.4,0.9-0.9,0.9c-0.5,0-0.9-0.4-0.9-0.9C59.5,34.8,59.9,34.4,60.4,34.4L60.4,34.4z M65.4,35.3c0.5,0,0.9,0.4,0.9,0.9
	c0,0.5-0.4,0.9-0.9,0.9c-0.5,0-0.9-0.4-0.9-0.9C64.5,35.7,64.9,35.3,65.4,35.3L65.4,35.3z M70.4,36.6c0.5,0,0.9,0.4,0.9,0.9
	c0,0.5-0.4,0.9-0.9,0.9c-0.5,0-0.9-0.4-0.9-0.9C69.5,37,69.9,36.6,70.4,36.6L70.4,36.6z M75.3,38.3c0.5,0,0.9,0.4,0.9,0.9
	c0,0.5-0.4,0.9-0.9,0.9c-0.5,0-0.9-0.4-0.9-0.9C74.4,38.7,74.8,38.3,75.3,38.3L75.3,38.3z M79.7,40.6c0.5,0,0.9,0.4,0.9,0.9
	c0,0.5-0.4,0.9-0.9,0.9c-0.5,0-0.9-0.4-0.9-0.9C78.8,41,79.2,40.6,79.7,40.6L79.7,40.6z M22.8,59.1c0.5,0,0.9,0.4,0.9,0.9
	s-0.4,0.9-0.9,0.9c-0.5,0-0.9-0.4-0.9-0.9S22.4,59.1,22.8,59.1L22.8,59.1z M28.2,61.5c0.5,0,0.9,0.4,0.9,0.9s-0.4,0.9-0.9,0.9
	c-0.5,0-0.9-0.4-0.9-0.9S27.7,61.5,28.2,61.5L28.2,61.5z M78,59.1c-0.5,0-0.9,0.4-0.9,0.9s0.4,0.9,0.9,0.9c0.5,0,0.9-0.4,0.9-0.9
	S78.5,59.1,78,59.1L78,59.1z M72.6,61.5c-0.5,0-0.9,0.4-0.9,0.9s0.4,0.9,0.9,0.9c0.5,0,0.9-0.4,0.9-0.9S73.2,61.5,72.6,61.5
	L72.6,61.5z M33.9,62.3l-1.6,2.4l0.6,0.2l0.3-0.5l1,0.2l0,0.6l0.7,0.2l-0.4-2.9L33.9,62.3L33.9,62.3z M33.5,64.1l0.6-1l0.1,1.1
	L33.5,64.1L33.5,64.1z M36.4,65.7l0.6,0.2l0.4-1.9l-0.6-0.2l-0.2,1.1c0,0.1-0.2,0.5-0.5,0.4c-0.2,0-0.3-0.2-0.2-0.6l0.2-1.1
	l-0.6-0.1l-0.3,1.2c-0.1,0.2-0.2,0.8,0.4,0.9c0.2,0.1,0.5,0,0.8-0.2L36.4,65.7L36.4,65.7z M37.5,64.3l0.4,0.1l-0.2,1
	c-0.1,0.4,0,0.6,0.4,0.7c0.1,0,0.3,0,0.5,0l0.1-0.4c0,0-0.1,0-0.2,0c-0.2,0-0.2-0.2-0.2-0.3l0.2-0.9l0.4,0.1l0-0.4l-0.4-0.1l0.1-0.6
	l-0.6-0.1L37.9,64l-0.4-0.1L37.5,64.3L37.5,64.3z M39.9,66.4c0.6,0.1,1.1-0.1,1.3-0.8c0.1-0.7-0.3-1.1-0.9-1.3
	c-0.6-0.1-1.1,0.1-1.2,0.9C38.9,65.9,39.3,66.3,39.9,66.4L39.9,66.4z M40,66c-0.4-0.1-0.4-0.5-0.4-0.8c0.1-0.6,0.4-0.6,0.6-0.6
	c0.1,0,0.4,0.1,0.3,0.8C40.5,65.7,40.4,66.1,40,66L40,66z M41.6,64.5l-0.2,2l0.6,0.1l0.1-1.1c0.1-0.4,0.3-0.5,0.4-0.5
	c0.2,0,0.3,0.2,0.2,0.5l-0.2,1.2l0.6,0l0.2-1.1c0-0.4,0.2-0.5,0.4-0.5c0.3,0,0.3,0.3,0.2,0.5l-0.1,1.2l0.6,0l0.1-1.2
	c0-0.2,0.1-0.8-0.6-0.9c-0.1,0-0.4,0-0.7,0.3c0-0.2-0.2-0.4-0.6-0.5c-0.2,0-0.4,0-0.6,0.3l0-0.3L41.6,64.5L41.6,64.5z M45.9,67
	c0.6,0,1.1-0.3,1.2-1c0-0.7-0.4-1.1-1-1.1c-0.6,0-1.1,0.2-1.1,1C44.9,66.6,45.3,67,45.9,67L45.9,67z M45.9,66.6
	c-0.4,0-0.4-0.4-0.4-0.7c0-0.6,0.4-0.6,0.5-0.6c0.2,0,0.5,0.1,0.4,0.7C46.5,66.2,46.4,66.7,45.9,66.6L45.9,66.6z M48,66.8L48,66.8
	c0.2,0.2,0.4,0.3,0.6,0.4c0.5,0,0.9-0.3,1-1c0-0.6-0.3-1.1-0.8-1.1c-0.2,0-0.5,0.1-0.6,0.2l0-1l-0.6,0L47.4,67l0.6,0V66.8L48,66.8z
	 M48,66c0-0.2,0.1-0.7,0.5-0.6c0.3,0,0.4,0.3,0.4,0.7c0,0.4-0.2,0.7-0.5,0.6C48.2,66.7,48,66.5,48,66L48,66z M49.9,65.1l0,2h0.6l0-2
	H49.9L49.9,65.1z M49.9,64.8h0.6v-0.5h-0.6V64.8L49.9,64.8z M50.9,64.4l0,2.7l0.6,0l0-2.7L50.9,64.4L50.9,64.4z M52,65.1l0.1,2
	l0.6,0l-0.1-2L52,65.1L52,65.1z M52,64.8h0.6l0-0.5l-0.6,0L52,64.8L52,64.8z M55.4,66.9l0.4,0l0.6-2l0,0l0.2,1.9l0.6,0L57,64.1
	l-0.9,0.1L55.6,66l-0.8-1.8l-0.9,0.1l0.2,2.7l0.7,0L54.6,65h0L55.4,66.9L55.4,66.9z M58.7,66.7c0.6-0.1,1-0.5,1-1.2
	c-0.1-0.7-0.6-1-1.2-0.9c-0.5,0-1,0.4-0.9,1.2C57.6,66.5,58.1,66.7,58.7,66.7L58.7,66.7z M58.7,66.3c-0.4,0-0.5-0.4-0.6-0.6
	C58.1,65,58.4,65,58.5,65c0.1,0,0.5,0,0.5,0.6C59.1,65.8,59.1,66.2,58.7,66.3L58.7,66.3z M62.2,66.1l-0.5-2.7l-0.6,0.1l0.2,0.9
	c-0.2-0.1-0.5-0.2-0.6-0.2c-0.6,0.1-0.8,0.6-0.8,1.2c0.1,0.6,0.6,1,1.1,0.9c0.2,0,0.4-0.2,0.5-0.4l0,0l0,0.2L62.2,66.1L62.2,66.1z
	 M61.5,65.2c0.1,0.5-0.1,0.7-0.4,0.8c-0.3,0-0.5-0.2-0.6-0.6c-0.1-0.3,0-0.7,0.3-0.8C61.2,64.6,61.4,64.8,61.5,65.2L61.5,65.2z
	 M63.9,65.2c0,0.2-0.2,0.3-0.3,0.3c-0.4,0.1-0.6-0.2-0.6-0.4l1.5-0.3l0-0.1c0-0.2-0.2-1.1-1.2-0.9c-0.6,0.1-1,0.6-0.9,1.3
	c0.2,1,1,0.9,1.3,0.8c0.4-0.1,0.8-0.2,0.9-0.8L63.9,65.2L63.9,65.2z M63,64.8c0-0.5,0.3-0.6,0.4-0.6c0.2,0,0.4,0,0.5,0.4L63,64.8
	L63,64.8z M65.2,63.5l-0.6,0.1l0.5,1.9l0.6-0.2l-0.2-1.1c0-0.1-0.2-0.5,0.2-0.6c0.3-0.1,0.4,0.2,0.4,0.4l0.3,1.1l0.6-0.2l-0.3-1.2
	c-0.2-0.7-0.6-0.7-0.8-0.6c-0.2,0-0.5,0.2-0.6,0.5L65.2,63.5L65.2,63.5z M67.6,63.6c-0.1-0.3,0.2-0.4,0.2-0.4c0.1,0,0.3-0.1,0.4,0.2
	v0c0,0.2-0.1,0.2-0.5,0.4c-0.3,0.2-0.6,0.4-0.5,0.8c0,0.2,0.2,0.6,0.8,0.4c0.2,0,0.5-0.2,0.6-0.4l0,0l0.1,0.2l0.6-0.2l0,0
	c-0.1,0-0.2-0.1-0.2-0.3l-0.2-0.9c0-0.2-0.2-0.7-1.1-0.5c-0.2,0.1-0.9,0.3-0.7,1L67.6,63.6L67.6,63.6z M68.4,63.9
	c0.1,0.4-0.1,0.6-0.3,0.6c-0.1,0-0.3,0-0.4-0.1c0-0.2,0.2-0.3,0.3-0.4c0.2-0.1,0.2-0.1,0.3-0.2L68.4,63.9L68.4,63.9z"/>
</svg>
