<?xml version="1.0" encoding="utf-8"?>
<!-- Generator: Adobe Illustrator 21.0.2, SVG Export Plug-In . SVG Version: 6.00 Build 0)  -->
<svg version="1.1" id="Layer_1" xmlns="http://www.w3.org/2000/svg" xmlns:xlink="http://www.w3.org/1999/xlink" x="0px" y="0px"
	 viewBox="0 0 100 100" style="enable-background:new 0 0 100 100;" xml:space="preserve">
<style type="text/css">
	.st0{fill:#B3B3B1;}
	.st1{fill:#B3B3B3;}
	.st2{fill-rule:evenodd;clip-rule:evenodd;fill:#B3B3B3;}
	.st3{fill-rule:evenodd;clip-rule:evenodd;fill:#B3B3B1;}
</style>
<path class="st0" d="M80.9,17.4c0,0.3-0.1,0.6-0.1,0.9c0,0.6,0,1.3,0,1.9c0,0.6-0.1,1.2-0.1,1.8c-0.1,0.9-0.1,1.7-0.2,2.5
	c-0.1,0.8-0.1,1.6-0.2,2.5c0,0.3,0,0.5,0,0.8c0,0.3,0,0.5,0,0.8c-0.1,0.9-0.2,1.8-0.2,2.8c-0.1,0.9-0.1,1.9-0.2,2.8
	c-0.1,0.3-0.1,0.5-0.1,0.8c0,0.3,0,0.5-0.1,0.8c-0.1,0.9-0.1,1.8-0.2,2.8c-0.1,0.9-0.1,1.9-0.2,2.9c0,0.3,0,0.5,0,0.8
	c0,0.2,0,0.5,0,0.8c0,0.6,0,1.2-0.1,1.8c-0.1,0.6-0.1,1.2-0.1,1.8c-0.1,0.9-0.1,1.7-0.2,2.5c-0.1,0.8-0.1,1.6-0.2,2.4
	c-0.1,0.3-0.1,0.5-0.1,0.8c0,0.3,0,0.5-0.1,0.8c0,0.6,0,1.2,0,1.8c0,0.6-0.1,1.2-0.1,1.8c-0.1,1-0.2,1.9-0.2,2.9
	c-0.1,1-0.2,2-0.4,2.9c-0.2,1-0.5,1.9-0.9,2.9c-0.4,0.9-0.8,1.8-1.4,2.7c-0.3,0.5-0.6,1.1-0.9,1.6c-0.3,0.5-0.6,1.1-0.9,1.6
	c-0.4,0.6-0.9,1.2-1.3,1.7c-0.5,0.6-0.9,1.1-1.4,1.6c-0.9,1.1-1.9,2-2.9,2.9c-1,0.9-2.1,1.7-3.1,2.6c-1,0.8-2.1,1.6-3.2,2.3
	c-1.1,0.7-2.2,1.4-3.3,2c-1.1,0.6-2.3,1.3-3.4,1.9c-1.2,0.6-2.3,1.2-3.4,1.9c-0.2,0.1-0.4,0.2-0.6,0.2s-0.3-0.1-0.6-0.2
	c-0.8-0.4-1.6-0.8-2.4-1.2c-0.8-0.4-1.5-0.8-2.3-1.1c-1-0.5-1.9-1.1-2.9-1.6c-0.9-0.6-1.9-1.1-2.8-1.7c-1.1-0.7-2.1-1.4-3.2-2.1
	c-1-0.7-2-1.5-3-2.2c-0.9-0.7-1.8-1.4-2.6-2.2c-0.8-0.8-1.6-1.7-2.3-2.6c-0.4-0.6-0.9-1.3-1.4-1.9c-0.5-0.6-0.9-1.2-1.4-1.9
	c-0.6-1.1-1.2-2.2-1.7-3.3c-0.5-1.1-0.9-2.3-1.2-3.5C23,62.2,23,61.6,22.9,61c-0.1-0.6-0.1-1.2-0.2-1.8c-0.1-0.9-0.1-1.7-0.2-2.6
	c-0.1-0.9-0.1-1.7-0.2-2.6c0-0.3,0-0.5,0-0.8c0-0.3,0-0.5,0-0.7c-0.1-0.7-0.1-1.4-0.1-2c0-0.6-0.1-1.3-0.1-1.9
	c-0.1-0.7-0.1-1.5-0.2-2.2c-0.1-0.7-0.1-1.4-0.2-2.1c-0.1-0.7-0.1-1.5-0.1-2.2c0-0.7-0.1-1.5-0.1-2.3c-0.1-0.7-0.1-1.4-0.2-2.2
	c-0.1-0.7-0.1-1.5-0.2-2.2c-0.1-0.7-0.1-1.5-0.2-2.2c-0.1-0.7-0.1-1.5-0.2-2.2c-0.1-0.7-0.1-1.5-0.2-2.2c-0.1-0.7-0.1-1.5-0.1-2.2
	c-0.1-0.7-0.1-1.5-0.2-2.2c-0.1-0.7-0.1-1.5-0.2-2.2c-0.1-0.7-0.1-1.4-0.2-2.2C20,19,20,18.3,19.9,17.5c0-0.2,0-0.5-0.1-0.7
	c-0.1-0.3,0-0.5,0.1-0.6c0.1-0.2,0.3-0.3,0.6-0.3c0.3,0,0.5-0.1,0.7-0.1c1-0.2,2.1-0.5,3.1-0.7c1.1-0.3,2.1-0.5,3.1-0.7
	c0.7-0.1,1.4-0.2,2-0.3c0.7-0.1,1.4-0.2,2-0.3c0.6-0.1,1.2-0.1,1.7-0.2c0.6-0.1,1.1-0.2,1.6-0.3c0.4-0.1,0.8-0.1,1.2-0.1
	c0.4,0,0.8,0,1.2,0c0.7-0.1,1.4-0.2,2-0.2c0.7-0.1,1.3-0.1,2-0.2c0.2-0.1,0.4-0.1,0.6-0.1c0.2,0,0.4,0,0.6-0.1c0.5,0,1,0,1.5,0
	c0.5,0,1,0,1.6,0c0.9,0,1.8,0,2.7,0c0.9,0,1.8,0,2.6,0c0.8,0,1.6,0,2.3,0c0.7,0,1.5,0,2.3,0c0.6,0.1,1.3,0.1,1.9,0.1
	c0.6,0,1.2,0.1,1.9,0.1c0.6,0.1,1.3,0.1,2,0.2c0.7,0.1,1.4,0.2,2.1,0.3c0.8,0.1,1.6,0.2,2.4,0.3s1.6,0.2,2.4,0.3
	c0.7,0.1,1.4,0.2,2,0.4c0.7,0.1,1.4,0.3,2,0.4c1.3,0.3,2.7,0.6,4,1c1.3,0.3,2.7,0.6,4,1c0.1,0,0.2,0,0.3,0c0.1,0,0.2,0.1,0.3,0.1
	C80.9,16.8,80.9,17.1,80.9,17.4z M23.8,20.2c0,0.3,0.1,0.6,0.1,0.8c0.1,0.7,0.1,1.4,0.1,2.1c0,0.7,0.1,1.4,0.1,2.1
	c0.1,0.8,0.1,1.5,0.2,2.2c0.1,0.7,0.1,1.4,0.2,2.1c0.1,0.7,0.1,1.4,0.2,2.1c0.1,0.7,0.1,1.4,0.2,2.1c0.1,0.8,0.1,1.5,0.2,2.2
	c0.1,0.7,0.1,1.4,0.2,2.2c0,0.6,0,1.2,0,1.8c0,0.6,0.1,1.2,0.1,1.8c0,0.3,0,0.6,0,0.9c0,0.3,0,0.5,0,0.8c0.1,0.8,0.2,1.6,0.2,2.4
	c0.1,0.8,0.1,1.6,0.2,2.4c0.1,0.6,0.1,1.2,0.1,1.8c0,0.6,0.1,1.2,0.1,1.8c0,0.3,0,0.5,0,0.8c0,0.2,0,0.5,0,0.8
	c0.1,0.8,0.1,1.6,0.2,2.5c0.1,0.8,0.1,1.6,0.2,2.5c0.1,0.5,0.1,1,0.1,1.4c0,0.5,0.1,0.9,0.2,1.3c0.3,1.4,0.8,2.7,1.3,3.9
	c0.6,1.2,1.2,2.4,2,3.6c0.9,1.2,1.8,2.4,2.8,3.5c1,1.1,2.1,2.1,3.3,3.1c0.9,0.8,1.8,1.5,2.8,2.2c1,0.7,1.9,1.4,2.9,2
	c1.3,1,2.7,1.9,4.1,2.7c1.4,0.8,2.8,1.5,4.3,2.1c0.1,0.1,0.2,0.1,0.3,0.1c0.1,0,0.2,0,0.2,0c0.7-0.3,1.4-0.7,2.1-1
	c0.7-0.4,1.4-0.8,2-1.2c1-0.6,2-1.3,3.1-1.9c1-0.6,2-1.3,3-2c0.8-0.6,1.6-1.2,2.4-1.8c0.8-0.6,1.6-1.2,2.2-1.9c1-0.9,2-1.9,2.9-2.9
	c0.9-1,1.7-2.1,2.4-3.2c0.5-0.8,1-1.6,1.4-2.5c0.4-0.8,0.8-1.7,1.1-2.5c0.3-0.9,0.5-1.7,0.7-2.6c0.1-0.9,0.3-1.8,0.4-2.6
	c0.1-0.7,0.1-1.4,0.2-2.1c0.1-0.7,0.1-1.4,0.2-2.1c0-0.7,0-1.4,0.1-2.1c0.1-0.7,0.1-1.4,0.2-2.1c0.1-0.7,0.1-1.4,0.2-2.1
	c0.1-0.7,0.1-1.4,0.2-2.1c0.1-0.7,0.1-1.5,0.2-2.2c0.1-0.7,0.1-1.4,0.2-2.2c0.1-0.7,0.1-1.4,0.2-2.1c0.1-0.7,0.1-1.5,0.1-2.2
	c0.1-0.7,0.1-1.4,0.2-2.1c0.1-0.7,0.1-1.4,0.2-2.1c0.1-0.7,0.1-1.5,0.2-2.2c0.1-0.7,0.1-1.4,0.2-2.1c0.1-0.6,0.1-1.3,0.1-1.9
	c0-0.6,0-1.2,0-1.8c0.1-0.3,0.1-0.6,0.1-0.9c0-0.3,0.1-0.6,0.1-0.9c0-0.4,0-0.8,0-1.2c0-0.4,0-0.8,0-1.2c0-0.1,0-0.1-0.1-0.2
	c-0.1-0.1-0.1-0.1-0.2-0.1c-0.9-0.3-1.8-0.5-2.8-0.8c-0.9-0.2-1.9-0.5-2.8-0.7c-0.8-0.2-1.5-0.4-2.2-0.5c-0.7-0.1-1.5-0.3-2.2-0.4
	c-0.5-0.1-1.1-0.2-1.6-0.3s-1.1-0.1-1.6-0.2c-0.3-0.1-0.6-0.1-1-0.1c-0.3,0-0.6-0.1-0.9-0.1c-0.6-0.1-1.3-0.1-2-0.2
	c-0.7-0.1-1.3-0.2-2-0.3C57,16,56.3,16,55.7,16c-0.7,0-1.4,0-2,0c-0.6,0-1.3,0-1.9,0c-0.6,0-1.3,0-2,0c-0.8,0-1.5,0-2.3,0
	c-0.8,0-1.6,0-2.4,0c-0.3,0-0.5,0-0.8,0c-0.2,0-0.5,0-0.8,0c-0.9,0.1-1.8,0.2-2.7,0.3c-0.9,0.1-1.8,0.2-2.8,0.3
	c-0.8,0.1-1.5,0.1-2.2,0.2c-0.7,0.1-1.5,0.2-2.2,0.3c-0.7,0.1-1.4,0.2-2.1,0.4c-0.7,0.1-1.4,0.3-2.1,0.4c-1,0.2-1.9,0.4-2.8,0.6
	c-0.9,0.2-1.8,0.4-2.7,0.6C23.7,19.6,23.7,19.9,23.8,20.2z M26.6,19.8c0.6-0.1,1.1-0.2,1.6-0.3c1-0.2,1.9-0.4,2.9-0.6
	c0.9-0.2,1.9-0.4,2.8-0.5c0.7-0.1,1.4-0.2,2-0.4c0.7-0.1,1.3-0.3,2-0.4c0.4-0.1,0.8-0.1,1.2-0.1c0.4,0,0.8,0,1.2,0
	c0.6-0.1,1.3-0.1,2-0.2c0.7-0.1,1.3-0.1,2-0.2c0.1,0,0.1,0,0.1,0c0,0,0.1,0,0.1,0c0.9-0.1,1.7-0.1,2.5-0.1c0.8,0,1.7,0,2.5,0
	C50,17,50.5,17,50.9,17c0.5,0,0.9,0,1.3,0.1c0.9,0,1.8,0,2.7,0c0.9,0,1.8,0.1,2.7,0.1c0.8,0.1,1.6,0.1,2.4,0.2
	c0.8,0.1,1.6,0.2,2.4,0.4c1.2,0.2,2.3,0.3,3.5,0.5c1.2,0.2,2.3,0.4,3.5,0.7c0.7,0.1,1.5,0.3,2.3,0.5c0.8,0.2,1.5,0.4,2.3,0.6
	c0.3,0.1,0.5,0.1,0.8,0.2c0.3,0.1,0.6,0.1,0.8,0.2c0.1,0.1,0.2,0.1,0.2,0.2c0.1,0.1,0.1,0.2,0.1,0.3c-0.1,0.3-0.1,0.6-0.1,0.9
	c0,0.3-0.1,0.6-0.1,0.8c-0.1,0.6-0.1,1.3-0.1,1.9c0,0.6,0,1.2,0,1.8c-0.1,0.7-0.1,1.4-0.2,2.1c-0.1,0.7-0.1,1.4-0.2,2
	c-0.1,0.7-0.1,1.4-0.2,2.1c-0.1,0.7-0.1,1.4-0.2,2c-0.1,0.7-0.1,1.4-0.2,2c-0.1,0.7-0.1,1.4-0.2,2c-0.1,0.7-0.1,1.4-0.1,2.1
	c0,0.7-0.1,1.4-0.1,2.1c-0.1,0.7-0.1,1.4-0.2,2.1c-0.1,0.7-0.1,1.4-0.2,2.1c-0.1,0.6-0.1,1.3-0.2,2c-0.1,0.7-0.1,1.4-0.2,2
	c-0.1,0.7-0.1,1.4-0.1,2.1c0,0.7-0.1,1.4-0.2,2.1c-0.1,0.7-0.1,1.4-0.2,2.1c-0.1,0.7-0.1,1.5-0.2,2.2c-0.1,0.8-0.3,1.6-0.5,2.5
	c-0.2,0.8-0.5,1.6-0.8,2.5c-0.4,0.9-0.9,1.8-1.4,2.6c-0.5,0.8-1.1,1.6-1.7,2.4c-0.6,0.7-1.2,1.4-1.8,2c-0.6,0.7-1.3,1.3-2,2
	c-1.2,1.1-2.5,2.2-3.8,3.1c-1.3,1-2.7,1.9-4.1,2.8c-1,0.6-1.9,1.2-2.9,1.7c-1,0.5-2,1.1-3,1.6c-0.1,0.1-0.1,0.1-0.3,0
	c-0.1,0-0.3-0.1-0.4-0.1c-1.5-0.5-2.9-1.2-4.3-2c-1.3-0.8-2.7-1.7-3.9-2.6c-0.9-0.6-1.7-1.3-2.5-1.9c-0.8-0.6-1.6-1.3-2.5-1.9
	c-0.5-0.4-1.1-0.9-1.6-1.4c-0.5-0.5-1-1-1.6-1.4c-0.8-0.7-1.4-1.6-2.1-2.5c-0.6-0.9-1.2-1.8-1.8-2.7c-0.5-0.9-1-1.8-1.3-2.8
	c-0.3-1-0.6-2-0.8-3c-0.1-0.5-0.2-1.1-0.2-1.6c-0.1-0.5-0.1-1.1-0.1-1.6c-0.1-0.8-0.2-1.6-0.2-2.4c-0.1-0.8-0.1-1.6-0.2-2.5
	c-0.1-0.2-0.1-0.4-0.1-0.7c0-0.2,0-0.5-0.1-0.8c0-0.6,0-1.2,0-1.8c0-0.6-0.1-1.2-0.1-1.8c-0.1-0.7-0.1-1.4-0.2-2
	c-0.1-0.7-0.1-1.4-0.2-2c-0.1-0.7-0.1-1.4-0.2-2.1c-0.1-0.7-0.1-1.4-0.2-2.1c-0.1-0.7-0.1-1.4-0.1-2c0-0.7-0.1-1.4-0.1-2
	c-0.1-0.7-0.1-1.4-0.2-2c-0.1-0.7-0.1-1.4-0.2-2c-0.1-0.7-0.1-1.4-0.2-2.1c-0.1-0.7-0.1-1.4-0.2-2.1c-0.1-0.7-0.1-1.4-0.2-2
	c-0.1-0.7-0.1-1.4-0.2-2c0-0.4,0-0.8-0.1-1.2c-0.1-0.4-0.1-0.8-0.1-1.2C25.4,20.1,26,20,26.6,19.8z M38.7,25.5
	c3.9-0.5,7.8-0.7,11.8-0.7c4,0,7.9,0.3,11.8,0.8c3.9,0.6,7.8,1.4,11.8,2.6c0-0.4,0-0.7,0-1c0-0.3,0-0.6,0-1c0.1-0.7,0.1-1.4,0.2-2.1
	s0.1-1.5,0.2-2.2c0-0.1,0-0.1-0.1-0.2c-0.1-0.1-0.1-0.1-0.2-0.1c-0.8-0.3-1.6-0.5-2.4-0.7c-0.8-0.2-1.6-0.4-2.5-0.6
	c-0.7-0.2-1.4-0.3-2.1-0.4c-0.7-0.1-1.5-0.2-2.2-0.4c-0.3-0.1-0.7-0.1-1-0.2c-0.4-0.1-0.8-0.1-1.1-0.1c-0.5-0.1-1-0.2-1.5-0.2
	c-0.5,0-1-0.1-1.5-0.1c-0.7-0.1-1.4-0.2-2-0.2c-0.7-0.1-1.4-0.1-2-0.2c-0.5-0.1-1.1-0.1-1.6-0.2c-0.6-0.1-1.1-0.1-1.7-0.1
	c-0.9,0-1.7,0-2.6,0c-0.9,0-1.8,0.1-2.6,0.1c-1,0-1.9,0-2.9,0.1c-0.9,0.1-1.9,0.1-2.9,0.2c-0.5,0.1-1,0.1-1.4,0.1
	c-0.5,0-0.9,0.1-1.3,0.1c-1,0.1-2,0.2-3,0.4c-1,0.2-2,0.3-2.9,0.5c-1.1,0.2-2.1,0.4-3.2,0.7c-1,0.2-2.1,0.5-3.1,0.7
	c-0.2,0.1-0.3,0.1-0.3,0.2c-0.1,0.1-0.1,0.2-0.1,0.3c0.1,0.3,0.1,0.6,0.1,1c0,0.3,0.1,0.6,0.1,0.9c0.1,0.7,0.1,1.4,0.2,2.1
	c0.1,0.7,0.1,1.4,0.2,2.1C30.7,26.6,34.7,25.9,38.7,25.5z M32.5,40.9c0-0.2,0.1-0.3,0.1-0.5c0.1-0.6,0.3-1.2,0.6-1.7
	c0.3-0.6,0.6-1.1,1-1.5c0.3-0.3,0.7-0.5,1-0.7c0.4-0.1,0.7-0.1,1,0c-0.6,0.5-1.1,1.1-1.5,1.8c-0.3,0.6-0.6,1.4-0.8,2.2
	c0.2-0.1,0.4-0.2,0.6-0.2c0.2-0.1,0.3-0.1,0.4-0.2c0.2,0,0.3-0.1,0.4-0.2c0.1-0.1,0.1-0.2,0.2-0.3c0.2-0.5,0.4-1,0.7-1.5
	c0.3-0.5,0.7-0.8,1.1-1.2c0.2-0.2,0.5-0.3,0.7-0.4c0.3-0.1,0.6-0.2,1-0.1c-0.4,0.4-0.8,0.9-1.1,1.4c-0.3,0.5-0.6,1-0.7,1.5
	c0.4,0.1,0.7,0,0.9,0c0.2-0.1,0.3-0.3,0.6-0.5c0.2-0.3,0.3-0.5,0.6-0.7c0.2-0.2,0.4-0.4,0.6-0.6c0.2-0.2,0.5-0.4,0.7-0.4
	c0.3-0.1,0.6-0.1,0.9,0c-0.3,0.3-0.6,0.6-0.9,1c-0.3,0.3-0.4,0.7-0.5,1.2c0.2-0.1,0.3-0.1,0.4-0.1c0.1,0,0.3,0,0.4,0v-0.9h9.1V25.7
	c-1.3-0.1-3-0.1-5.1,0.1c-2.2,0.1-4.5,0.3-6.8,0.6c-2.3,0.3-4.5,0.7-6.5,1.1c-2.1,0.4-3.6,0.8-4.7,1.2c0.1,0.2,0.1,0.4,0.1,0.7
	c0,0.2,0,0.5,0,0.7c0.1,0.7,0.1,1.4,0.2,2.1c0.1,0.7,0.1,1.4,0.2,2.1c0.1,0.7,0.1,1.4,0.2,2c0.1,0.7,0.1,1.4,0.2,2
	c0,0.7,0,1.4,0.1,2c0.1,0.7,0.1,1.4,0.2,2c0.1,0.7,0.1,1.4,0.2,2.1c0.1,0.7,0.1,1.4,0.2,2.1c0.1,0.8,0.1,1.6,0.2,2.5
	c0.1,0.8,0.1,1.6,0.2,2.5c0,0.2,0,0.4,0.1,0.4c0.1,0.1,0.2,0.1,0.4,0.1c1.9,0,3.7,0,5.6,0c1.9,0,3.7,0,5.5,0c0.1,0,0.2,0,0.3,0
	c0.1,0,0.2,0,0.3,0c0-0.7,0-1.5,0-2.2c0-0.7,0-1.4,0-2.1c0-0.1,0-0.1-0.1-0.2c-0.1-0.1-0.1-0.1-0.2-0.1c-0.6-0.2-1.3-0.3-1.9-0.3
	c-0.6,0-1.2,0.1-1.9,0.3c-0.6,0.2-1.1,0.5-1.6,0.8c-0.5,0.3-1,0.7-1.4,1.1c-0.2,0.1-0.3,0.2-0.4,0.4c-0.1,0.1-0.1,0.3-0.2,0.4
	c0,0.3-0.1,0.4-0.2,0.5c-0.1,0.1-0.3,0.1-0.5,0.1c-0.1,0-0.2,0-0.4,0s-0.3,0-0.4,0c-0.3,0-0.5-0.1-0.6-0.2c-0.1-0.1-0.1-0.3-0.1-0.5
	c0-0.2,0-0.4,0.1-0.6c0.1-0.2,0.1-0.4,0.2-0.6c0.1-0.1,0.2-0.2,0.3-0.3c0.2-0.1,0.3-0.1,0.3,0c0.3,0.1,0.4,0.1,0.5,0
	c0.1-0.1,0.1-0.3,0.2-0.4c0.1-0.1,0.1-0.2,0.1-0.3c0-0.1,0-0.1-0.1-0.2c0-0.5,0.1-1,0.2-1.4c0.2-0.4,0.4-0.8,0.6-1.2
	c0.2-0.2,0.4-0.4,0.6-0.6c0.2-0.2,0.5-0.3,0.8-0.2c-0.3,0.5-0.5,1.1-0.7,1.6c-0.2,0.5-0.3,1.1-0.3,1.7c0.2-0.1,0.3-0.2,0.5-0.4
	c0.2-0.1,0.3-0.3,0.4-0.4c0.1-0.1,0.1-0.3,0.1-0.4c0-0.2,0.1-0.4,0.2-0.5c0.2-0.5,0.4-0.9,0.8-1.2c0.3-0.3,0.8-0.5,1.4-0.6
	c-0.3,0.4-0.5,0.8-0.8,1.2c-0.2,0.3-0.4,0.7-0.4,1.2c0.3,0.1,0.5,0,0.7-0.2c0.1-0.2,0.3-0.3,0.4-0.5c0.1-0.2,0.2-0.4,0.3-0.6
	c0.2-0.2,0.3-0.4,0.5-0.5c0.2-0.1,0.3-0.2,0.5-0.3c0.2-0.1,0.4-0.2,0.5-0.3l0.1,0.1V44c-0.2,0.3-0.3,0.6-0.5,0.9
	c-0.2,0.3-0.3,0.6-0.5,0.9c0.3,0.1,0.5,0.1,0.7,0c0.2,0,0.4-0.1,0.5-0.3c0.2-0.2,0.4-0.4,0.7-0.6c0.2-0.2,0.5-0.4,0.7-0.5
	c0.1-0.1,0.1-0.1,0.2-0.1c0.1,0,0.1-0.1,0.1-0.1c0-0.6,0-1.2,0-1.8c0-0.6,0-1.2,0-1.9c-0.2,0-0.3,0-0.4,0c-0.1,0-0.3,0-0.4,0
	c-0.1,0-0.2,0-0.4,0c-0.1,0-0.3,0-0.4,0c-1,0.2-2,0.4-2.9,0.7c-0.9,0.3-1.8,0.7-2.7,1.2c-0.1,0.1-0.2,0.1-0.3,0.2
	c-0.1,0.1-0.1,0.2-0.1,0.4c0,0.4-0.1,0.6-0.4,0.8c-0.3,0.1-0.6,0.1-0.9,0c-0.1-0.1-0.2-0.1-0.3-0.1c-0.1,0-0.2,0-0.3,0
	c-0.2,0.1-0.3,0.1-0.5,0c-0.2-0.1-0.3-0.2-0.4-0.3c-0.1-0.2-0.1-0.3-0.1-0.5c0-0.2,0-0.3,0.1-0.5c0.1-0.1,0.2-0.2,0.2-0.4
	c0.1-0.2,0.1-0.3,0.2-0.4c0.1-0.2,0.2-0.4,0.4-0.4c0.2-0.1,0.4-0.1,0.6,0c0.1,0,0.1,0,0.2,0.1c0.1,0.1,0.2,0.1,0.3,0.1
	C32.4,41.2,32.5,41.1,32.5,40.9z M28.7,25.3c0,0.2,0,0.5,0,0.7c0,0.1,0,0.2-0.1,0.3c-0.1,0.1-0.1,0.1-0.2,0.1
	c-0.5,0.2-0.8,0.2-0.8,0.2c-0.1-0.1-0.1-0.3-0.2-0.9c0-0.5,0-1.1-0.1-1.6c-0.1-0.5-0.1-1.1-0.2-1.7c0-0.1,0-0.1,0-0.2
	c0-0.1,0-0.2,0-0.3c0.7-0.2,1.4-0.3,2.1-0.5c0.7-0.2,1.5-0.4,2.2-0.5c0.4-0.1,0.7-0.1,1,0.2c0.3,0.2,0.4,0.5,0.4,1
	c0,0.2,0,0.3,0,0.5c0,0.2,0,0.3-0.1,0.5c-0.1,0.2-0.2,0.4-0.4,0.5c-0.2,0.1-0.4,0.2-0.6,0.3c-0.5,0.1-1.1,0.2-1.6,0.4
	c-0.6,0.2-1.1,0.3-1.6,0.4C28.6,24.8,28.6,25,28.7,25.3z M29.9,23.1c0.5-0.1,1-0.2,1.4-0.4c0.1,0,0.1-0.1,0.2-0.2
	c0.1-0.1,0.1-0.2,0.2-0.2c-0.1-0.1-0.2-0.1-0.3-0.1c-0.1,0-0.1,0-0.2,0c-0.5,0.1-1,0.2-1.4,0.4c-0.5,0.1-1,0.3-1.4,0.4
	c0,0.1,0,0.2,0,0.3s0,0.2,0,0.3C28.9,23.3,29.4,23.2,29.9,23.1z M49.8,64.7c0-0.3,0-0.7,0-1.1c0-0.2,0-0.3-0.1-0.3
	c-0.1-0.1-0.2-0.1-0.4-0.1c-0.3-0.1-0.6-0.1-0.9-0.1c-0.3,0-0.6-0.1-0.9-0.2c-1-0.3-2-0.7-2.8-1.2c-0.9-0.5-1.6-1.2-2.2-2.1
	c-0.1-0.2-0.2-0.3-0.3-0.3c-0.1-0.1-0.2-0.1-0.4-0.1c-2,0-4.1,0-6.1,0c-2,0-4.1,0-6.1,0h-0.6c0.1,0.3,0.1,0.6,0.1,1
	c0,0.3,0.1,0.6,0.1,0.9c0.2,0.8,0.5,1.6,0.7,2.3c0.3,0.7,0.6,1.4,1,2.1c0.1,0.2,0.2,0.3,0.3,0.4c0.1,0.1,0.3,0.1,0.5,0.1
	c2.9-0.1,5.8-0.1,8.7,0c2.9,0,5.8,0,8.7,0h0.6C49.8,65.5,49.8,65.1,49.8,64.7z M37.9,31.7c0.2-0.1,0.3-0.1,0.5-0.1
	c0.3-0.1,0.5-0.3,0.6-0.5c0.1-0.2,0.2-0.5,0.3-0.7c0.3-0.4,0.5-0.7,0.8-1c0.3-0.3,0.7-0.5,1.2-0.6c0.1-0.1,0.2-0.1,0.4-0.1
	c0.1,0,0.3,0,0.4,0c-0.4,0.4-0.8,0.8-1,1.2c-0.3,0.4-0.4,0.9-0.5,1.5c0.2,0,0.3,0,0.6,0c0.2,0,0.4,0,0.6-0.1c0.1,0,0.2-0.1,0.3-0.2
	c0.1-0.1,0.2-0.3,0.4-0.4c0.3-0.3,0.7-0.5,1.1-0.6c0.4-0.2,0.8-0.2,1.3-0.1c-0.1,0.1-0.2,0.2-0.3,0.3c-0.1,0.1-0.2,0.1-0.3,0.2
	c-0.2,0.2-0.3,0.3-0.4,0.4c-0.1,0.1-0.3,0.3-0.4,0.4c-0.1,0.1-0.1,0.2-0.1,0.3c0.1,0.1,0.1,0.2,0.2,0.3c0.3,0.2,0.5,0.5,0.8,0.7
	c0.2,0.3,0.5,0.5,0.7,0.8c0.1,0.1,0.2,0.3,0.3,0.4c0.1,0.2,0.1,0.4,0.2,0.6c-0.1,0-0.1,0-0.1,0.1c-0.2-0.2-0.4-0.3-0.6-0.4
	c-0.2-0.1-0.4-0.3-0.5-0.4c-0.4-0.3-0.9-0.5-1.3-0.6c-0.5-0.1-1-0.2-1.5-0.3c-1.2-0.1-2.4,0.1-3.5,0.5c-1.1,0.4-2.2,0.8-3.3,1.4
	c-0.2,0.1-0.4,0.2-0.6,0.3c-0.2,0.1-0.3,0.2-0.6,0.2c-0.2,0.2-0.4,0.3-0.6,0.4c-0.2,0.1-0.3,0.4-0.4,0.7c-0.1,0.3-0.2,0.5-0.5,0.6
	c-0.3,0.1-0.6,0.1-1,0c-0.2,0-0.3,0-0.4-0.1C30.7,37,30.6,37,30.5,37c-0.4,0-0.6-0.1-0.8-0.3c-0.2-0.2-0.2-0.5,0-0.9
	c0.1-0.2,0.1-0.4,0.3-0.6c0.1-0.2,0.3-0.4,0.4-0.6c0.1-0.2,0.3-0.3,0.4-0.4c0.2,0,0.4,0,0.6,0c0.3,0.1,0.5,0.1,0.6,0.1
	c0.1-0.1,0.1-0.3,0.2-0.6c0.1-0.6,0.2-1.2,0.3-1.7c0.2-0.5,0.4-1.1,0.7-1.6c0.3-0.4,0.6-0.8,1-1.2c0.4-0.3,0.8-0.6,1.4-0.8
	c0.1,0,0.2,0,0.3,0c0.1,0,0.2,0,0.3,0c-0.8,0.6-1.3,1.4-1.7,2.2c-0.4,0.8-0.6,1.7-0.6,2.7c0.3-0.1,0.5-0.2,0.8-0.3
	c0.2-0.1,0.5-0.2,0.8-0.3c0.1-0.1,0.1-0.1,0.2-0.2c0.1-0.1,0.1-0.1,0.1-0.2c0.2-0.4,0.3-0.8,0.5-1.2c0.2-0.4,0.3-0.8,0.6-1.1
	c0.2-0.4,0.6-0.8,1.2-1.2c0.6-0.4,1.2-0.6,1.7-0.5c-0.5,0.5-1,1.1-1.4,1.7c-0.4,0.6-0.6,1.3-0.8,2C37.6,31.8,37.8,31.8,37.9,31.7z
	 M39.9,22.5c0,0.1,0,0.2,0,0.3c0.1,0.6,0,1-0.2,1.2c-0.2,0.2-0.6,0.3-1.1,0.3c-0.6,0.1-1.3,0.2-1.8,0.3c-0.6,0.1-1.2,0.2-1.8,0.3
	c-0.2,0-0.4-0.1-0.6-0.2c-0.2-0.1-0.3-0.3-0.4-0.6c-0.1-0.5-0.1-1-0.1-1.4c0-0.5,0-1,0-1.4c0-0.3,0.1-0.5,0.2-0.6
	c0.1-0.2,0.3-0.2,0.5-0.2c0.7-0.2,1.5-0.3,2.2-0.4c0.7-0.1,1.4-0.2,2.1-0.3c0.4-0.1,0.6,0,0.8,0.2c0.2,0.2,0.3,0.4,0.3,0.8
	c0,0.2,0,0.3,0,0.4c0,0.1,0,0.3,0,0.4s0,0.3,0,0.4c0,0.1,0,0.3,0,0.4C39.9,22.4,39.9,22.5,39.9,22.5z M35,22.7c0,0.1,0,0.3,0.1,0.4
	c0.1,0.1,0.1,0.1,0.2,0.2c0.1,0.1,0.1,0.1,0.2,0.1c0.4-0.1,0.7-0.1,1.1-0.2c0.4-0.1,0.7-0.1,1-0.1c0.5-0.1,0.9-0.2,1-0.4
	c0.1-0.1,0.1-0.5,0.1-1c0-0.1,0-0.1,0-0.2c0-0.1,0-0.1,0-0.2c0-0.2,0-0.3-0.1-0.4c-0.1-0.1-0.2-0.1-0.4,0c-0.4,0.1-0.9,0.1-1.3,0.2
	c-0.5,0.1-0.9,0.1-1.3,0.2c-0.3,0.1-0.4,0.1-0.5,0.2c-0.1,0.1-0.1,0.3-0.1,0.6C34.9,22.4,35,22.6,35,22.7z M49.8,73.1H37.5
	c1.9,1.6,3.9,3.1,5.9,4.5c2,1.4,4.1,2.7,6.4,3.8V73.1z M40.1,46.1c0.1,0.1,0.2,0.1,0.3,0.1c0.1,0,0.2,0.1,0.2,0.1v-1
	c-0.1,0.2-0.2,0.3-0.3,0.4C40.3,45.8,40.2,46,40.1,46.1z M45.8,23.7c0-0.2,0-0.4,0-0.6c0-0.2,0-0.4,0-0.5c0-0.2-0.1-0.4-0.2-0.4
	c-0.1-0.1-0.3-0.1-0.6-0.1c-0.3,0.1-0.6,0.1-0.8,0.1c-0.3,0-0.6,0-0.9,0c-0.2,0-0.4,0-0.6,0c-0.2,0-0.4,0-0.6,0c0,0.3,0,0.6,0,0.9
	c0,0.3,0,0.5,0,0.8c-0.1,0-0.1,0-0.2,0c-0.1,0-0.1,0-0.2,0.1c-0.4,0.1-0.7,0-0.8,0s-0.1-0.3-0.1-0.8c0-0.5,0-1.1-0.1-1.6
	c-0.1-0.6-0.1-1.1-0.1-1.6c-0.1-0.1-0.1-0.1,0-0.2c0-0.1,0-0.1,0-0.2c0.3-0.1,0.6-0.1,1-0.1c0.3,0,0.6-0.1,1-0.1
	c0.5-0.1,1.1-0.1,1.6-0.1c0.5,0,1.1,0,1.6,0c0.3-0.1,0.6,0,0.8,0.2c0.2,0.2,0.4,0.5,0.4,0.9c0,0.2,0,0.4-0.1,0.6
	c-0.1,0.2-0.1,0.4-0.2,0.7c0.3,0.3,0.4,0.6,0.3,1c-0.1,0.4-0.1,0.8,0,1.2H45.8z M45.4,20.7c0-0.1,0-0.1,0-0.1c0,0,0-0.1,0-0.1
	c-0.1-0.1-0.1-0.1-0.2-0.1c-0.1,0-0.2,0-0.3,0c-0.4,0-0.8,0-1.2,0.1c-0.4,0.1-0.8,0.1-1.2,0.1c-0.2,0-0.4,0-0.4,0.1
	c-0.1,0.1-0.1,0.3,0,0.5c0.6-0.1,1.2-0.2,1.8-0.2C44.3,21,44.9,20.9,45.4,20.7z M42,39.9c0,2.3,0,4.6,0,6.8s0,4.5,0,6.8
	c0,0.3,0,0.5,0,0.8s0,0.5,0.1,0.8c0.3,1.1,0.7,2.2,1.2,3.1c0.6,1,1.4,1.8,2.4,2.4c1.1,0.6,2.2,1.1,3.3,1.3c1.1,0.2,2.3,0.2,3.5-0.1
	c1-0.2,1.9-0.6,2.8-1.1c0.8-0.5,1.5-1.2,2.1-2c0.5-0.7,0.9-1.4,1.2-2.2c0.3-0.8,0.4-1.6,0.4-2.5c0.1-0.9,0.1-1.8,0.1-2.7
	c0-0.9,0-1.8,0-2.7c0.1-1.4,0.1-2.9,0.1-4.4c0-1.5,0-3,0-4.4v-0.6H42V39.9z M48.8,44.2c0.2,0.3,0.3,0.5,0.6,0.8
	c0.2,0.2,0.4,0.5,0.6,0.8c0.1,0.3,0.2,0.6,0.3,1c0.1,0.3,0.1,0.6,0.2,0.9c0.1-0.4,0-0.9-0.1-1.4c-0.1-0.5-0.4-0.9-0.8-1.3
	c-0.2-0.2-0.3-0.3-0.3-0.4c0-0.1,0-0.3,0.1-0.4c0.1-0.1,0.2-0.1,0.4-0.1c0.1,0.3,0.2,0.5,0.4,0.4c0.2-0.1,0.4-0.1,0.5-0.1
	c0.1,0,0.2,0,0.3,0c0.1,0,0.2,0,0.3,0c-0.1,0.1-0.1,0.1-0.2,0.2c-0.1,0.1-0.1,0.1-0.2,0.2c0.2,0.2,0.5,0.2,0.8,0
	c0.3-0.2,0.6-0.1,0.8,0.2c-0.2,0.1-0.4,0.1-0.5,0.1c-0.1,0-0.3,0.1-0.4,0.1c0.1,0.1,0.1,0.2,0.1,0.3c0,0.1,0.1,0.2,0.1,0.3
	c0.2,0,0.3,0,0.5,0c0.2,0,0.4,0,0.6-0.1c0,0.3-0.1,0.5-0.4,0.5c-0.3,0-0.4,0.1-0.5,0.4c0.1,0,0.1,0,0.2,0c0.1,0,0.1,0.1,0.2,0.1
	c0.1,0,0.2,0,0.3,0s0.1,0,0.2,0.1c0.1,0,0.1,0,0.2,0.1c0.1,0.1,0.1,0.1,0.2,0.2c-0.1,0-0.1,0-0.2,0c-0.1,0-0.1,0.1-0.2,0.1
	c-0.1,0-0.1,0-0.2,0c-0.1,0-0.1,0-0.2,0c0.1,0.1,0.2,0.1,0.3,0.2c0.1,0.1,0.1,0.1,0.2,0.2c0,0.1,0,0.1,0,0.2c-0.2,0-0.3,0-0.4,0
	c-0.1,0-0.3,0-0.4,0.1c-0.1,0.4,0,0.6,0.3,0.6c0.3,0,0.5,0.1,0.6,0.4h-1c0.1,0.1,0.1,0.1,0.2,0.2c0.1,0.1,0.1,0.1,0.2,0.2
	c-0.1,0-0.1,0-0.1,0.1c-0.3-0.1-0.6,0-0.8,0.2c-0.2,0.2-0.4,0.4-0.7,0.5c0.1,0.1,0.1,0.1,0.2,0.2c0.1,0.1,0.1,0.1,0.2,0.1
	c0.3,0.2,0.7,0.4,1,0.6c0.4,0.2,0.7,0.2,1.1,0.2c0.4,0,0.7,0,1.1,0.1c0.3,0.1,0.7,0.2,1,0.4c0.1,0,0.1,0,0.2,0.1
	c0.1,0.1,0.1,0.1,0.2,0.1c0.1,0,0.1,0,0.2,0c0.1,0,0.1-0.1,0.2-0.1c0-0.1,0-0.1,0-0.2c0-0.1-0.1-0.1-0.1-0.2c0-0.1,0-0.1-0.1-0.2
	c-0.2-0.2-0.3-0.3-0.5-0.5c-0.2-0.2-0.2-0.4-0.2-0.7c0-0.1,0-0.2-0.1-0.4C55,49.2,55,49,55,48.9c-0.1-0.1-0.1-0.2-0.1-0.4
	c0-0.2,0.1-0.2,0.4-0.2c0.1,0,0.1,0,0.2-0.1c0.1-0.1,0.1-0.1,0.2-0.2c0.2-0.4,0.4-0.7,0.7-0.8c0.3-0.1,0.7-0.2,1-0.1
	c0.1-0.2,0.1-0.3,0.1-0.4c0-0.1,0-0.3,0.1-0.4c0.1-0.1,0.1-0.1,0.2-0.1c0.1,0,0.1-0.1,0.2-0.1c0,0.2,0,0.4,0,0.6c0,0.2,0,0.4,0,0.6
	c-0.1,0.1-0.1,0.1-0.2,0.2c-0.1,0.1-0.1,0.1-0.2,0.1c-0.2,0.1-0.4,0.1-0.6,0.2c-0.2,0.1-0.4,0.3-0.6,0.6c0.3-0.1,0.5-0.2,0.7-0.3
	c0.2-0.1,0.4-0.2,0.5-0.2c0.1,0.1,0.1,0.2,0.2,0.2c-0.1,0.1-0.2,0.2-0.2,0.3c-0.1,0.1-0.1,0.2-0.2,0.3c0.2-0.1,0.3-0.1,0.4-0.2
	c0.1-0.1,0.3-0.1,0.4-0.2c-0.1,0.1-0.1,0.2-0.1,0.3c0,0.1-0.1,0.2-0.1,0.3c0.1,0,0.1,0,0.2,0c0.1,0,0.2,0,0.3,0
	c-0.2,0.2-0.3,0.4-0.4,0.6c-0.1,0.2-0.3,0.5-0.4,0.7c0.1-0.1,0.2-0.1,0.3-0.1c0.1,0,0.2-0.1,0.3-0.1c0.1,0.2,0.1,0.3,0,0.4
	c0,0.1,0,0.3,0.1,0.4c0.2,0.2,0.2,0.3,0,0.5s-0.3,0.3-0.4,0.3c0,0.1,0,0.2,0.1,0.3c0.1,0.1,0.1,0.2,0.1,0.2
	c-0.1,0.1-0.1,0.1-0.2,0.2c-0.1,0.1-0.2,0.1-0.2,0.1c-0.3,0-0.5,0-0.8-0.1c-0.2-0.1-0.5-0.1-0.8-0.2L56,52.5c0.2,0.4,0.3,0.7,0.1,1
	c-0.1,0.3-0.3,0.6-0.4,1c-0.3,0.4-0.4,0.8-0.4,1c0.1,0.2,0.2,0.5,0.4,0.8c0.2,0.3,0.2,0.5,0.2,0.6c0,0.1-0.1,0.3-0.4,0.5
	c-0.2,0.2-0.3,0.3-0.5,0.5c-0.2,0.2-0.3,0.3-0.3,0.6c-0.1,0.3-0.2,0.5-0.4,0.6c-0.2,0.1-0.4,0.2-0.5,0.2c-0.1,0.1-0.1,0.1-0.2,0.1
	s-0.1,0-0.2,0.1c0.1,0.3,0.1,0.5,0,0.6c-0.1,0.1-0.4,0.2-0.9,0.4c-0.1-0.3,0-0.6,0.1-0.8c0.1-0.2,0.3-0.5,0.5-0.7
	c0.3-0.2,0.5-0.5,0.8-0.7c0.2-0.3,0.4-0.5,0.6-0.8c0.1-0.1,0.1-0.2,0.1-0.4s0-0.3-0.1-0.3c-0.2-0.2-0.4-0.3-0.7-0.4
	c-0.2-0.1-0.5-0.3-0.8-0.4c0,0.2,0,0.4,0,0.6s0,0.3,0,0.5c-0.4,0.2-0.7,0.4-1.1,0.7c-0.3,0.2-0.7,0.5-1,0.7
	c-0.1,0.1-0.1,0.1-0.2,0.1c-0.1,0-0.1,0-0.2,0c-0.2,0.1-0.3,0.1-0.4,0.2c-0.1,0.1-0.2,0.2-0.2,0.4c0,0.1-0.1,0.2-0.3,0.3
	c-0.2,0.1-0.4,0.2-0.5,0.3c-0.1-0.4,0-0.8,0.2-1.1c0.2-0.3,0.5-0.6,0.9-0.7c0.3-0.1,0.5-0.2,0.8-0.3c0.3-0.1,0.5-0.3,0.7-0.6
	c0.1-0.2,0.2-0.4,0.2-0.6c0-0.2-0.1-0.4-0.2-0.5c-0.2-0.2-0.3-0.4-0.4-0.6c-0.1-0.2-0.1-0.3,0-0.6c-0.4-0.1-0.8-0.2-1.2-0.2
	c-0.4,0-0.8-0.1-1.2-0.3c-0.3-0.2-0.7-0.2-1-0.2c-0.4,0-0.7,0-1,0c-0.2-0.1-0.4-0.1-0.6-0.1c-0.2,0-0.4-0.1-0.6-0.1
	c-0.2-0.1-0.3,0-0.3,0c-0.1,0.1-0.1,0.2-0.2,0.3c0,0.1,0,0.2,0,0.3c0,0.1,0,0.2,0,0.3c0.1,0.2,0.1,0.4,0.2,0.6
	c0.1,0.2,0.1,0.4,0.2,0.6c0.1,0,0.1,0,0.2,0c0.1,0,0.1,0.1,0.2,0.1c0.1,0.1,0.1,0.1,0.2,0.2c0.1,0.1,0.1,0.1,0.1,0.2
	c0.1,0.1,0.1,0.2,0,0.4c-0.1,0.1-0.1,0.2-0.2,0.3c-0.1,0-0.1,0-0.3,0c-0.1,0-0.2-0.1-0.3-0.2c-0.2-0.3-0.3-0.5-0.5-0.8
	c-0.2-0.2-0.3-0.5-0.2-0.9c0-0.2,0-0.4,0-0.7c0-0.2-0.1-0.5-0.1-0.7c-0.1-0.3-0.1-0.5,0-0.6c0.1-0.1,0.2-0.2,0.6-0.2
	c0.2-0.1,0.4-0.1,0.6-0.2c0.2-0.1,0.4-0.1,0.6-0.2c0-0.1,0-0.1,0-0.1c0,0-0.1,0-0.1,0c-0.3,0.1-0.5,0-0.6-0.2
	c-0.1-0.2-0.2-0.4-0.3-0.6c0-0.1,0-0.1,0-0.1c0,0,0-0.1,0-0.1c-0.1-0.1-0.2-0.1-0.4-0.3c-0.1-0.1-0.2-0.2-0.3-0.1
	c-0.2,0.1-0.3,0.1-0.4,0.3c-0.1,0.1-0.2,0.3-0.3,0.4c-0.1,0.1-0.1,0.2-0.1,0.3c0,0.1,0,0.2-0.1,0.2c-0.1,0.2-0.2,0.3-0.2,0.4
	c-0.1,0.1-0.1,0.2,0,0.4c0.1,0.3,0,0.4-0.2,0.5c-0.2,0.1-0.4,0.1-0.6,0.2c0-0.1,0-0.2,0-0.4c0-0.2,0-0.3,0-0.4
	c0.2-0.5,0.3-1,0.6-1.4c0.2-0.5,0.5-0.9,0.8-1.2c0.3-0.3,0.4-0.5,0.5-0.5c0.1,0,0.3,0.1,0.6,0.3c0.4,0.4,0.7,0.5,0.8,0.5
	c0.1-0.1,0.3-0.3,0.4-0.9c0.1-0.3,0.3-0.5,0.4-0.7c0.2-0.2,0.4-0.4,0.5-0.6c0.1-0.2,0.2-0.3,0.3-0.5c0.1-0.2,0.2-0.3,0.3-0.5
	c-0.2-0.1-0.4-0.1-0.6,0c-0.2,0.1-0.3,0.1-0.4,0.2c-0.1,0.1-0.1,0.1-0.2,0.1c-0.1,0-0.2,0-0.3,0c0-0.1,0-0.1,0-0.2
	c0-0.1,0-0.1,0-0.2c-0.1-0.1-0.2-0.1-0.3-0.1c-0.1,0-0.2,0-0.3,0c0.1-0.1,0.1-0.2,0.1-0.3c0-0.1,0.1-0.1,0.1-0.2
	c0.1-0.1,0.1-0.1,0.2-0.2c0.1-0.1,0.1-0.1,0.2-0.2c0.2-0.2,0.3-0.4,0.6-0.6c0.2-0.2,0.5-0.2,0.9,0c-0.1-0.1-0.2-0.2-0.2-0.3
	c-0.1-0.1-0.1-0.2-0.2-0.3c0.1-0.1,0.2-0.1,0.4-0.2c0.2-0.1,0.3-0.1,0.4-0.2c0.1,0,0.2,0,0.2,0c0.1,0,0.1,0,0.2,0L48.8,44.2
	L48.8,44.2z M43,41.9c0.1,0,0.2,0.1,0.2,0.3c0,0.1,0.1,0.1,0.2,0.1c0.1,0,0.2,0,0.2,0c0-0.1,0-0.1,0-0.2s0-0.1,0-0.2
	c-0.1-0.1-0.1-0.1-0.2-0.1c-0.1,0-0.2-0.1-0.3-0.1c-0.2-0.1-0.4-0.3-0.4-0.4c-0.1-0.2-0.1-0.4,0-0.5c0.1-0.2,0.1-0.3,0.3-0.4
	c0.1-0.1,0.3-0.1,0.4-0.2c0.2,0,0.3,0,0.5,0.1c0.2,0.1,0.2,0.3,0.2,0.5c0,0.1,0,0.1,0,0.1c0,0,0,0.1,0,0.1c-0.1,0-0.2,0-0.4,0
	c-0.1,0-0.2-0.1-0.3-0.3c-0.2,0-0.3,0-0.3,0c0,0.1,0,0.1,0,0.2c0,0.1,0,0.1,0.1,0.2c0,0.1,0,0.1,0.1,0.1c0.1,0,0.1,0,0.2,0
	c0.2,0.1,0.4,0.2,0.4,0.3c0.1,0.2,0.1,0.3,0.1,0.6c0,0.2-0.1,0.4-0.2,0.6c-0.2,0.2-0.3,0.2-0.6,0.2c-0.3,0-0.5-0.1-0.6-0.2
	c-0.1-0.1-0.2-0.3-0.3-0.5c0-0.1,0-0.1,0-0.1c0,0,0-0.1,0-0.1C42.7,42,42.8,41.9,43,41.9z M45.9,40.7c-0.1,0-0.1,0-0.2,0
	c-0.1,0-0.2,0-0.3,0v2h-0.5v-2c-0.1,0-0.2,0-0.3,0c-0.1,0-0.2,0-0.3,0v-0.4h1.6V40.7z M47.7,40.3c0,0.3,0,0.6,0,1c0,0.3,0,0.7-0.1,1
	c0,0.2-0.1,0.3-0.3,0.4c-0.2,0.1-0.4,0.2-0.5,0.2c-0.2-0.1-0.3-0.1-0.5-0.2c-0.2-0.1-0.2-0.3-0.2-0.5c-0.1-0.3-0.1-0.6,0-1
	c0-0.3,0-0.6,0-1h0.5c0.1,0.3,0.1,0.7,0.1,1c-0.1,0.3,0,0.7,0.2,1.2c0.3-0.4,0.4-0.7,0.4-1.1c-0.1-0.4-0.1-0.7,0-1H47.7z M47.7,22.4
	h0.6c0.6,0,1.3,0,1.9,0s1.3,0,1.9,0c0.1,0,0.1,0,0.2-0.1c0.1-0.1,0.2-0.1,0.3-0.2c-0.1,0-0.2,0-0.3-0.1C52.3,22,52.2,22,52.2,22
	c-0.5,0-1.1,0-1.6,0c-0.5,0-1,0-1.6,0c-0.6,0.1-1.1-0.1-1.2-0.6c-0.2-0.4-0.2-0.9-0.1-1.3c0.1-0.4,0.2-0.7,0.4-0.8
	c0.2-0.1,0.5-0.2,1-0.2c0.8,0,1.6,0,2.5,0c0.8,0,1.7,0,2.5,0v1.2h-1.7c-0.5,0-1,0-1.4,0c-0.5,0-0.9,0-1.4,0c-0.1,0-0.1,0-0.2,0.1
	c-0.1,0.1-0.2,0.1-0.3,0.2c0.1,0.1,0.1,0.1,0.2,0.2c0.1,0.1,0.2,0.1,0.3,0.1c0.6,0,1.2,0,1.7,0c0.6,0,1.1,0,1.7,0
	c0.3,0,0.6,0.1,0.8,0.2c0.2,0.1,0.3,0.4,0.4,0.7c0.1,0.2,0.1,0.3,0,0.6c0,0.2,0,0.4,0,0.6c-0.1,0.3-0.2,0.5-0.3,0.6
	c-0.2,0.2-0.4,0.2-0.6,0.2c-0.9,0-1.8,0-2.7,0c-0.9,0-1.8,0-2.7,0V22.4z M48.3,42.8v-2c-0.1,0-0.1,0-0.2,0c-0.1,0-0.2,0-0.3,0v-0.4
	h1.7v0.4c-0.1,0-0.2,0-0.3,0c-0.1,0-0.2,0-0.3,0v2H48.3z M48.6,44.3c-0.1,0-0.2,0-0.3,0c-0.1,0-0.2,0-0.4,0c0.2-0.2,0.4-0.3,0.5-0.4
	c0.1-0.1,0.3-0.2,0.4-0.3h0.1c0,0.1,0,0.2,0,0.4C48.8,44,48.8,44.1,48.6,44.3L48.6,44.3z M52.9,41.5v1.4c-0.2,0-0.3,0-0.4,0
	c-0.1,0-0.3,0-0.4,0c-0.2,0.1-0.4,0-0.6-0.2c-0.2-0.2-0.3-0.4-0.3-0.8c0-0.1,0-0.2,0-0.3c0-0.1,0-0.2,0-0.2c0-0.1,0-0.2,0-0.3
	c0-0.1,0-0.2,0-0.3h-0.6v2h-0.6v-2c-0.1,0-0.2,0-0.3,0c-0.1,0-0.1,0-0.2,0c0-0.1,0-0.1,0-0.2c0-0.1,0-0.2,0-0.3c0.3,0,0.6,0,0.8,0
	s0.5,0,0.8,0.1c0.1,0,0.1,0,0.1,0.1c0,0.1,0,0.1,0,0.2c0.2-0.2,0.3-0.3,0.5-0.4c0.2-0.1,0.4-0.1,0.6,0c0.2,0.1,0.3,0.1,0.3,0.3
	c0.1,0.1,0.1,0.3,0.1,0.5h-0.5c-0.1-0.1-0.1-0.1-0.1-0.2c0-0.1-0.1-0.1-0.1-0.2c-0.2,0.2-0.3,0.4-0.3,0.8c-0.1,0.3,0,0.6,0.1,0.8
	c0.1,0.1,0.1,0.1,0.2,0.2c0.1,0,0.1,0,0.1-0.1c0-0.1,0.1-0.1,0.1-0.2c-0.1-0.1-0.1-0.2-0.2-0.2c-0.1-0.1-0.1-0.1-0.1-0.2
	c-0.1,0-0.1,0,0-0.1c0-0.1,0-0.1,0-0.2H52.9z M52.2,81c0.3-0.2,0.6-0.3,1-0.5c1-0.6,1.9-1.3,2.9-1.8c0.9-0.6,1.9-1.2,2.8-1.8
	c0.9-0.6,1.7-1.3,2.6-2c0.9-0.7,1.7-1.4,2.5-2.1c0.7-0.6,1.4-1.2,2-1.9c0.6-0.7,1.2-1.4,1.8-2.1c0.8-0.9,1.5-1.9,2-3
	c0.6-1.1,1-2.2,1.4-3.4c0.3-0.9,0.5-1.8,0.6-2.8c0.1-0.9,0.2-1.9,0.3-2.8c0-0.4,0-0.7,0.1-1.1c0.1-0.4,0.1-0.8,0.1-1.2
	c0.1-0.2,0.1-0.3,0-0.6c0-0.2,0-0.4,0-0.6H60.3c-0.1,0.4-0.1,0.7-0.1,1c0,0.3,0,0.6-0.1,0.9c-0.2,1.2-0.6,2.3-1.1,3.3
	c-0.5,1-1.3,1.9-2.2,2.7c-0.1,0.1-0.1,0.1-0.2,0.2c-0.1,0.1-0.2,0.1-0.2,0.2c-0.1,0.3-0.1,0.5-0.1,0.8c0,0.3-0.1,0.5-0.1,0.8
	c0.2-0.1,0.4-0.2,0.6-0.2c0.2-0.1,0.3-0.2,0.4-0.3c0.3-0.6,0.6-1.1,1-1.6c0.4-0.5,0.9-0.9,1.4-1.2c0.3-0.2,0.6-0.3,0.9-0.4
	c0.3-0.1,0.7-0.1,1,0c-0.5,0.3-1,0.7-1.4,1.1c-0.4,0.4-0.8,1-1,1.6c0.2-0.1,0.4-0.1,0.6-0.1c0.2,0,0.3,0,0.4,0
	c0.3,0,0.6-0.1,0.7-0.2c0.2-0.2,0.3-0.3,0.5-0.6c0.3-0.4,0.7-0.7,1.1-1c0.4-0.3,0.9-0.3,1.5-0.2c-0.3,0.2-0.6,0.5-0.9,0.8
	c-0.3,0.3-0.5,0.6-0.6,1c0.4,0.2,0.8,0.2,1.1,0c0.3-0.2,0.6-0.3,1-0.5c0.3-0.1,0.7-0.2,1-0.2c0.3,0,0.7,0.1,1,0.3
	c-0.3,0.1-0.5,0.2-0.8,0.3c-0.3,0.1-0.6,0.2-0.9,0.3c1.1,0.6,1.8,1.2,2.1,1.8c0.3,0.6,0.4,1.2,0.2,1.9c-0.2-0.2-0.3-0.4-0.5-0.7
	c-0.2-0.2-0.3-0.4-0.5-0.6c-0.5-0.4-1-0.7-1.6-0.9c-0.6-0.2-1.2-0.3-1.8-0.3c-0.7,0-1.4,0.1-2,0.2c-0.7,0.1-1.3,0.3-2,0.5
	c-0.6,0.2-1.2,0.4-1.7,0.6c-0.5,0.2-1.1,0.5-1.7,0.7c-0.1,0-0.1,0-0.2,0.1C55,65.4,55,65.5,55,65.6c-0.1,0.3-0.2,0.5-0.3,0.6
	c-0.2,0.1-0.4,0.1-0.6,0.1c-0.1-0.1-0.1-0.1-0.2,0c-0.1,0-0.1,0-0.2,0c-0.3,0.1-0.5,0-0.7-0.1c-0.2-0.1-0.3-0.4-0.2-0.7
	c0-0.2,0-0.3,0.1-0.6c0.1-0.2,0.1-0.4,0.2-0.6c0.1-0.1,0.1-0.2,0.2-0.2c0.1-0.1,0.2-0.1,0.3-0.2c0.1-0.1,0.2-0.1,0.4,0
	c0.2,0.1,0.3,0.1,0.4,0c0.2-0.1,0.4-0.2,0.5-0.6c0.1-0.3,0.2-0.6,0.1-1c-0.6,0.2-1.2,0.4-1.7,0.6c-0.6,0.2-1.1,0.2-1.7,0.2
	c-0.2,0-0.3,0.1-0.3,0.2c0,0.1,0,0.2,0,0.3v17.8C51.5,81.3,51.8,81.1,52.2,81z M73.4,38c0.1-1.1,0.2-2.1,0.3-3.2
	c0.1-1.1,0.1-2.2,0.2-3.3H51.3V38H73.4z M59.5,74.2c-0.4-0.1-0.8-0.3-1.1-0.4c-0.2-0.1-0.4-0.1-0.7-0.1s-0.5,0.1-0.7,0.2
	c-0.5,0.2-1,0.3-1.4,0.5c-0.5,0.2-1,0.4-1.4,0.6c-0.1,0.1-0.1,0.1-0.2,0.2c-0.1,0.1-0.1,0.1-0.2,0.2c-0.1,0.1-0.2,0.2-0.3,0.3
	c-0.1,0.1-0.1,0.1-0.2,0.1c-0.2-0.1-0.4-0.1-0.6-0.1c-0.2,0-0.3-0.1-0.3-0.3c-0.1-0.2,0-0.4,0.1-0.6c0.1-0.2,0.2-0.3,0.3-0.5
	c0-0.1,0.1-0.2,0.2-0.2c0.1,0,0.3-0.1,0.4-0.2c0.1-0.3,0.2-0.7,0.3-1c0.1-0.4,0.3-0.7,0.7-1c0.1-0.1,0.2-0.2,0.4-0.2
	c0.1-0.1,0.3-0.1,0.4-0.1c-0.2,0.3-0.3,0.6-0.5,1c-0.2,0.3-0.3,0.7-0.2,1.2c0.1-0.2,0.2-0.3,0.2-0.4c0.1-0.1,0.1-0.2,0.2-0.3
	c0.2-0.3,0.4-0.6,0.6-0.9c0.2-0.3,0.5-0.5,0.8-0.6c0.1-0.1,0.2-0.1,0.4-0.1c0.1,0,0.3,0,0.4,0c-0.2,0.3-0.4,0.5-0.6,0.8
	c-0.2,0.2-0.4,0.5-0.6,0.8c0.3,0.1,0.5,0.1,0.6,0c0.1-0.1,0.2-0.2,0.3-0.4c0.2-0.3,0.5-0.5,0.8-0.8c0.3-0.2,0.7-0.3,1.2-0.1
	c-0.2,0.2-0.4,0.3-0.6,0.4c-0.2,0.1-0.3,0.3-0.6,0.4c0.1,0,0.1,0.1,0.2,0.2c0.3-0.1,0.6-0.1,0.9-0.2c0.3-0.1,0.6-0.2,0.9-0.2v0.1
	c-0.1,0.1-0.1,0.2-0.2,0.3c-0.1,0.1-0.2,0.2-0.3,0.3c0.3,0.2,0.6,0.4,1,0.6c0.3,0.2,0.5,0.5,0.6,1C60.3,74.5,59.9,74.3,59.5,74.2z
	 M59,66.6c-0.4,0.3-0.8,0.7-1.1,1.2c0.4,0,0.7,0,1-0.1c0.3-0.1,0.5-0.3,0.8-0.6c0.2-0.3,0.5-0.5,0.7-0.7c0.3-0.2,0.6-0.3,1-0.3
	c0.1,0,0.2,0,0.3,0c0.1,0,0.2,0,0.3,0c-0.3,0.3-0.6,0.5-0.9,0.7c-0.3,0.2-0.6,0.5-0.9,0.7c0.3,0.1,0.6,0.1,0.8,0
	c0.2,0,0.5-0.1,0.7-0.2c0.2-0.1,0.4-0.2,0.7-0.2c0.2,0,0.5,0,0.8,0c0.1,0,0.1,0,0.2,0.1c0.1,0.1,0.2,0.1,0.2,0.2
	c-0.2,0.1-0.4,0.2-0.7,0.3c-0.2,0.1-0.5,0.1-0.8,0.2c0.9,0.4,1.4,0.9,1.7,1.3c0.3,0.5,0.3,0.8,0.2,1.1c-0.8-0.6-1.6-1.1-2.5-1.3
	c-0.9-0.2-1.8-0.2-2.8-0.1c-0.8,0.1-1.5,0.3-2.2,0.5c-0.7,0.2-1.4,0.6-2,0.9c-0.1,0.1-0.1,0.1-0.2,0.2c-0.1,0.1-0.1,0.2-0.2,0.3
	c-0.1,0.2-0.1,0.3-0.2,0.4c-0.1,0.1-0.3,0.1-0.5,0c-0.1,0-0.2,0-0.3,0c-0.1,0-0.2,0-0.3,0c-0.2,0-0.3,0-0.4-0.1
	c-0.1-0.1-0.2-0.2-0.1-0.4c0-0.2,0-0.4,0.1-0.6c0.1-0.2,0.1-0.3,0.2-0.5c0.1-0.3,0.2-0.4,0.4-0.4s0.3,0,0.6,0.1c0.1,0,0.1,0,0.2-0.1
	c0.1-0.1,0.2-0.1,0.2-0.2c0.2-0.4,0.4-0.8,0.6-1.2c0.2-0.4,0.4-0.8,0.6-1.2c0.2-0.3,0.4-0.5,0.7-0.6c0.3-0.1,0.6-0.2,1-0.2
	c-0.4,0.4-0.7,0.8-1,1.2c-0.3,0.4-0.5,0.9-0.5,1.4c0.3-0.1,0.6-0.3,0.8-0.4c0.2-0.2,0.4-0.4,0.6-0.7c0.2-0.4,0.5-0.8,0.8-1.1
	c0.3-0.3,0.7-0.5,1.2-0.6c0.2-0.1,0.4-0.1,0.7-0.1c0.2,0,0.5,0,0.7-0.1c0,0.1,0,0.1,0,0.1c0,0,0,0.1,0,0.1
	C59.9,66,59.4,66.3,59,66.6z M54.7,41.5c0.1,0.4,0.2,0.9,0.3,1.3c-0.3,0.1-0.5,0.1-0.6,0c-0.1-0.1-0.1-0.2-0.2-0.4
	c-0.2-0.1-0.3-0.1-0.4,0c-0.1,0.1-0.2,0.2-0.2,0.4H53c0.1-0.4,0.2-0.7,0.3-1.1c0.1-0.4,0.2-0.7,0.4-1.1c0-0.1,0.1-0.2,0.2-0.2
	c0.2-0.1,0.3-0.1,0.4-0.2C54.5,40.7,54.6,41.1,54.7,41.5z M60.8,23.7c0,0.2-0.1,0.4-0.1,0.6c-0.6-0.1-1.2-0.1-1.7-0.2
	c-0.5-0.1-1.1-0.1-1.7-0.1c-0.3-0.1-0.6-0.1-0.8-0.1c-0.3,0-0.6-0.1-0.8-0.1c-0.2-0.1-0.4-0.1-0.5-0.3c-0.1-0.1-0.2-0.3-0.2-0.5
	c0.1-0.5,0.1-1,0.1-1.4c0-0.5,0-0.9,0.1-1.4c0-0.3,0.1-0.5,0.3-0.6c0.2-0.2,0.4-0.2,0.7-0.2c0.8,0.1,1.6,0.1,2.4,0.2
	c0.8,0.1,1.6,0.1,2.5,0.2V21c-0.3,0-0.5,0-0.8,0c-0.2,0-0.5,0-0.7,0c-0.4-0.1-0.9-0.1-1.3-0.2c-0.5-0.1-0.9-0.1-1.3-0.2
	c-0.2,0-0.4,0-0.5,0.1c-0.1,0.1-0.2,0.2-0.2,0.4c0.1,0.2,0.1,0.3,0,0.5c-0.1,0.2-0.1,0.3-0.1,0.5c0.1,0.1,0.1,0.1,0.2,0.3
	c0.1,0.1,0.2,0.2,0.3,0.2c0.3,0.1,0.5,0.1,0.8,0.1c0.3,0,0.6,0.1,0.9,0.1c0.4,0,0.8,0,1.2,0c0.4,0,0.9,0.1,1.3,0.1
	C60.8,23.3,60.8,23.5,60.8,23.7z M56.3,42.8c-0.1-0.1-0.1-0.3,0-0.5c0.1-0.2,0-0.4-0.4-0.4v1c-0.1,0-0.2,0-0.3,0
	c-0.1,0-0.2,0-0.3,0.1v-2.7c0.2,0,0.3,0,0.4,0c0.1,0,0.3,0,0.4,0c0.3,0.1,0.5,0.1,0.6,0.3c0.1,0.1,0.2,0.3,0.1,0.6
	c-0.1,0.3-0.1,0.6,0,0.9c0.1,0.3,0.1,0.5,0,0.8H56.3z M58,42.8h-0.6v-2c-0.1,0-0.2,0-0.3,0c-0.1,0-0.1,0-0.2,0
	c-0.1-0.1-0.1-0.1-0.1-0.2s0-0.1,0-0.2h1.7v0.4c-0.1,0-0.2,0-0.3,0c-0.1,0-0.2,0-0.3,0V42.8z M72.3,51.9c0.1-1.1,0.2-2.2,0.3-3.3
	c0.1-1.1,0.2-2.2,0.3-3.3H60.3v6.5H72.3z M66.7,21.5c0-0.3,0.1-0.6,0.1-0.9c0.2,0.1,0.4,0.1,0.6,0.1c0.2,0,0.4,0.1,0.6,0.1
	c-0.1,0.8-0.1,1.5-0.2,2.3c-0.1,0.8-0.1,1.6-0.2,2.4c-0.2,0-0.4,0-0.6-0.1c-0.2-0.1-0.4-0.1-0.6-0.1c0-0.3,0-0.6,0-0.9
	c0-0.3,0.1-0.6,0.1-0.8c-0.6-0.1-1.3-0.2-1.8-0.3c-0.6-0.1-1.2-0.2-1.8-0.3c0,0.3,0,0.6,0,0.8c0,0.3-0.1,0.6-0.1,0.8
	c-0.2-0.1-0.4-0.1-0.6-0.1c-0.2,0-0.4-0.1-0.7-0.1c0.1-0.7,0.1-1.5,0.2-2.3c0.1-0.8,0.1-1.6,0.2-2.4c0.2,0.1,0.4,0.1,0.6,0.1
	c0.2,0,0.4,0,0.5,0C63,20,63,20,63,20.1c0,0.1,0,0.1,0,0.2c0,0.2,0,0.4,0,0.7c0,0.2,0,0.5,0,0.8c0.6,0.1,1.2,0.1,1.8,0.2
	c0.6,0.1,1.2,0.2,1.8,0.3C66.6,22,66.6,21.7,66.7,21.5z M71.8,22.9c-0.6-0.1-1.2-0.3-1.8-0.4c0,0.1,0,0.2,0,0.3c0,0.1,0,0.2,0,0.3
	c0.5,0.2,1.1,0.3,1.7,0.5c0.6,0.2,1.2,0.3,1.8,0.5c-0.1,0.1-0.1,0.3-0.1,0.4c0,0.2,0,0.4,0,0.5c-0.6-0.1-1.2-0.2-1.8-0.4
	c-0.6-0.2-1.2-0.3-1.8-0.4v0.6c0.6,0.2,1.2,0.3,1.7,0.5c0.6,0.2,1.1,0.3,1.7,0.4v1.2c-0.8-0.2-1.6-0.4-2.5-0.6
	c-0.8-0.2-1.6-0.4-2.5-0.5c0.1-0.8,0.1-1.6,0.2-2.4c0.1-0.8,0.1-1.6,0.2-2.4c0.7,0.2,1.5,0.4,2.2,0.6c0.7,0.2,1.5,0.4,2.2,0.5
	c0.2,0.1,0.3,0.1,0.4,0.2c0,0.1,0,0.2,0,0.4c0,0.1,0,0.2,0,0.3c0,0.1-0.1,0.2-0.1,0.4C72.9,23.2,72.3,23.1,71.8,22.9z"/>
</svg>
