<?xml version="1.0" encoding="utf-8"?>
<!-- Generator: Adobe Illustrator 21.0.2, SVG Export Plug-In . SVG Version: 6.00 Build 0)  -->
<svg version="1.1" id="Layer_1" xmlns="http://www.w3.org/2000/svg" xmlns:xlink="http://www.w3.org/1999/xlink" x="0px" y="0px"
	 viewBox="0 0 100 100" style="enable-background:new 0 0 100 100;" xml:space="preserve">
<style type="text/css">
	.st0{fill:#B3B3B1;}
	.st1{fill:#B3B3B3;}
	.st2{fill-rule:evenodd;clip-rule:evenodd;fill:#B3B3B3;}
	.st3{fill-rule:evenodd;clip-rule:evenodd;fill:#B3B3B1;}
</style>
<path class="st0" d="M71,31.6c0,6,0,12,0,17.9s0,11.9,0,17.9c0,5.9,0,11.9,0,17.9c-0.1,0.1-0.1,0.1-0.1,0.2
	c-0.1,0.1-0.1,0.2-0.1,0.3c0,0.1-0.1,0.2-0.1,0.3c-0.2,0.3-0.5,0.6-0.8,0.8c-0.3,0.2-0.7,0.3-1.1,0.3c-3.1,0-6.2,0-9.2,0
	c-3,0-6.1,0-9.2,0c-3.1,0-6.1,0-9.2,0c-3.1,0-6.2,0-9.2,0c-0.4,0-0.9-0.2-1.2-0.5c-0.4-0.3-0.6-0.7-0.7-1.1c0-0.1,0-0.1,0-0.2
	c0-0.1-0.1-0.1-0.1-0.1c0-6,0-12,0-17.9c0-6,0-12,0-17.9s0-11.9,0-17.9c0-5.9,0-11.9,0-17.9c0.1,0,0.1,0,0.1-0.1
	c0-0.1,0-0.1,0.1-0.1c0-0.1,0-0.2,0-0.3c0-0.1,0.1-0.2,0.1-0.2c0.2-0.4,0.5-0.7,0.8-0.8c0.3-0.2,0.7-0.3,1.1-0.3c1.8,0,3.7,0,5.5,0
	c1.8,0,3.7,0,5.5,0c4.3,0,8.6,0,12.9,0c4.3,0,8.6,0,12.9,0c0.4,0,0.8,0.1,1.1,0.3c0.4,0.2,0.6,0.5,0.7,0.9c0.1,0.1,0.1,0.2,0.1,0.3
	c0,0.1,0.1,0.2,0.1,0.2C71,19.7,71,25.6,71,31.6z M52.3,24.8c0.7,0,1.3,0,1.9,0c2.5,0,5,0,7.5,0c2.5,0,5,0,7.5,0c0.1,0,0.2,0,0.2,0
	c0,0,0-0.1,0-0.3c0-1,0-1.9,0-2.9c0-1,0-1.9,0-2.9c0-0.8,0-1.6,0-2.4c0-0.8,0-1.6,0-2.4c0-0.2,0-0.3-0.1-0.5
	c-0.1-0.2-0.2-0.3-0.3-0.3c-0.1,0-0.2,0-0.3,0c-0.1,0-0.2,0-0.3,0c-3.1,0-6.3,0-9.5,0c-3.2,0-6.4,0-9.6,0c-2.9,0-5.7,0-8.6,0
	c-2.9,0-5.8,0-8.7,0c-0.1,0-0.1,0-0.2,0c-0.1,0-0.1,0-0.2,0.1c-0.2,0.1-0.3,0.2-0.4,0.3c-0.1,0.1-0.1,0.3-0.1,0.5c0,1.6,0,3.2,0,4.8
	c0,1.6,0,3.1,0,4.7c0,0.2,0,0.4,0,0.5c0,0.2,0,0.4,0,0.5c0,0.1,0,0.2,0,0.2c0,0,0.1,0,0.1,0c0.1,0,0.2,0,0.3,0c0.1,0,0.1,0,0.2,0
	c3.1,0,6.2,0,9.3,0s6.2,0,9.3,0C51,24.8,51.7,24.8,52.3,24.8z M69.6,37.8c0-3.8,0-7.5,0-11.3c0-0.1,0-0.2,0-0.2c0,0-0.1,0-0.3,0
	c-0.9,0-1.8,0-2.7,0s-1.9,0-2.8,0c-2.4,0-4.7,0-7,0c-2.4,0-4.7,0-7.1,0s-4.7,0-7.1,0s-4.7,0-7,0c-0.7,0-1.4,0-2.1,0
	c-0.7,0-1.4,0-2.1,0c-0.1,0-0.2,0-0.2,0.1c0,0.1,0,0.1,0,0.2c0,0.1,0,0.2,0,0.4c0,0.1,0,0.3,0,0.4c0,3.6,0,7.2,0,10.8
	c0,3.6,0,7.3,0,10.8c0,3.6,0,7.2,0,10.8c0,3.6,0,7.2,0,10.8c0,0.2,0,0.5,0,0.7s0,0.5,0,0.7c0,0.1,0,0.2,0,0.2c0,0,0.1,0,0.2,0
	c0.1,0,0.1,0,0.2,0s0.2,0,0.3,0c3.1,0,6.2,0,9.3,0c3.1,0,6.2,0,9.3,0c3.1,0,6.2,0,9.4,0c3.1,0,6.2,0,9.3,0c0.1,0,0.2,0,0.2,0
	c0,0,0-0.1,0-0.2c0-3.8,0-7.6,0-11.3c0-3.8,0-7.5,0-11.3C69.6,45.4,69.6,41.6,69.6,37.8z M45.1,73.6c-1.8,0-3.5,0-5.3,0
	c-1.3,0-2.7,0-4.1,0c-1.4,0-2.8,0-4.2,0c-0.1,0-0.2,0-0.2,0c0,0,0,0.1,0,0.2c0,1.8,0,3.6,0,5.4c0,1.8,0,3.6,0,5.4c0,0.1,0,0.2,0,0.3
	s0,0.2,0,0.3c0,0.2,0,0.3,0.1,0.4c0.1,0.1,0.2,0.2,0.3,0.3c0.1,0,0.2,0,0.3,0c0.1,0,0.2,0,0.3,0c2.7,0,5.4,0,8.1,0c2.6,0,5.3,0,8,0
	s5.3,0,8,0c2.7,0,5.4,0,8.1,0c0.7,0,1.4,0,2.1,0c0.7,0,1.4,0,2.1,0c0.3,0,0.5-0.1,0.6-0.3c0.1-0.2,0.2-0.4,0.2-0.6
	c0-1.8,0-3.7,0-5.5c0-1.8,0-3.7,0-5.5c0-0.3,0-0.4,0-0.5c0,0-0.2,0-0.5,0c-3.1,0-6.2,0-9.3,0s-6.2,0-9.4,0
	C48.6,73.6,46.8,73.6,45.1,73.6z M34.3,82.6c0,0.3,0,0.6,0,0.8c0,0.1,0,0.2,0,0.3c0,0.1,0,0.2,0,0.3c0,0.1,0,0.2,0,0.2
	c0,0-0.1,0-0.1,0c-0.2,0-0.3,0-0.4,0c-0.1,0-0.2,0-0.3,0c-0.1,0-0.2,0-0.2,0c0,0,0-0.1,0-0.2c0-0.1,0-0.3,0-0.4c0-0.2,0-0.3,0-0.4
	c0-1.2,0-2.4,0-3.5c0-1.2,0-2.4,0-3.5c0-0.1,0-0.3,0-0.4c0-0.2,0-0.3,0-0.4c-0.1-0.1-0.1-0.1,0-0.2c0-0.1,0.1-0.1,0.1-0.1
	c0.5,0,1,0,1.4,0c0.4,0,0.9,0,1.4,0.1c0.2,0,0.4,0,0.7,0.1c0.2,0.1,0.4,0.2,0.6,0.4c0.2,0.2,0.4,0.5,0.5,0.7
	c0.1,0.3,0.2,0.5,0.2,0.8c0,0.4-0.1,0.8-0.3,1.1c-0.2,0.3-0.5,0.5-0.9,0.7c-0.1,0.1-0.2,0.1-0.4,0.1c-0.1,0-0.3,0-0.4,0
	c-0.1,0-0.1,0-0.2,0c-0.1,0-0.1,0-0.2,0c-0.1,0-0.1,0-0.2,0c0,0.1,0,0.1,0,0.2c0,0.1,0.1,0.1,0.1,0.2c0.5,0.6,1,1.2,1.6,1.9
	c0.6,0.6,1.1,1.3,1.6,2c0.1,0.1,0.2,0.1,0.3,0.3c0.1,0.1,0.2,0.2,0.3,0.3c0,0.1,0,0.1,0.1,0.2c-0.1,0-0.1,0-0.2,0.1
	c-0.2,0-0.3,0-0.4,0c-0.1,0-0.3,0-0.4,0c-0.1,0-0.1,0-0.2,0c-0.1,0-0.1-0.1-0.1-0.1c-0.5-0.6-1-1.1-1.5-1.7
	c-0.5-0.6-0.9-1.1-1.4-1.7c-0.2-0.2-0.3-0.3-0.5-0.5c-0.2-0.2-0.3-0.4-0.5-0.5c0-0.1,0-0.1,0-0.1c0,0-0.1,0-0.1,0l-0.1,0.2
	c0,0.3,0,0.7,0,1s0,0.6,0,0.9S34.3,82.3,34.3,82.6z M34.9,22.1c0,0.3,0,0.6,0,0.9c0,0.1,0,0.2,0,0.3c0,0.1,0,0.1,0,0.2
	c0,0.1,0,0.2,0,0.2c0,0-0.1,0-0.2,0c-0.1,0-0.2,0-0.4,0c-0.1,0-0.3,0-0.4,0c-0.1,0-0.2,0-0.2,0c0,0,0-0.1,0-0.1c0-0.1,0-0.2,0-0.4
	c0-0.1,0-0.3,0-0.4c0-1.2,0-2.5,0-3.7s0-2.5,0-3.7c0-0.1,0-0.2,0-0.3s0-0.2,0-0.2c-0.1-0.1-0.1-0.2,0-0.2c0,0,0.1,0,0.2,0
	c0.4,0,0.9,0,1.4,0c0.5,0,1,0,1.5,0c0.6,0.1,1,0.3,1.4,0.8c0.4,0.5,0.5,1,0.4,1.6c-0.1,0.5-0.4,0.9-0.7,1.2
	c-0.4,0.3-0.8,0.4-1.3,0.5c-0.1,0-0.1,0-0.3,0c-0.1,0-0.1,0-0.2,0c-0.1,0-0.1,0-0.1,0.1c0,0.1,0,0.2,0.1,0.2
	c0.1,0.2,0.2,0.3,0.3,0.4c0.1,0.1,0.2,0.3,0.3,0.4c0.4,0.5,0.9,1,1.3,1.6c0.4,0.5,0.9,1.1,1.3,1.6c0.1,0.1,0.2,0.2,0.3,0.3
	c0.1,0.1,0.2,0.2,0.3,0.3c0,0.1,0,0.1,0.1,0.2c-0.1,0-0.1,0-0.2,0c-0.2,0-0.3,0-0.5,0c-0.1,0-0.3,0-0.4,0c-0.1,0-0.1,0-0.3-0.1
	c-0.7-0.8-1.3-1.5-1.9-2.3c-0.6-0.7-1.2-1.5-1.8-2.2c-0.1-0.1-0.1-0.1-0.1-0.1c0,0-0.1,0-0.1,0c0,0.1,0,0.1,0,0.1c0,0,0,0.1,0,0.1
	c0,0.3,0,0.7,0,1s0,0.6,0,0.9C34.9,21.5,34.9,21.8,34.9,22.1z M34.3,77.6c0,0.1,0,0.3,0,0.5c0,0.1,0,0.1,0,0.2
	c0,0.1,0.1,0.1,0.1,0.1c0.3,0,0.6,0,0.9,0c0.3,0,0.6,0,0.9-0.1c0.2,0,0.4-0.1,0.6-0.3c0.2-0.2,0.3-0.3,0.3-0.5c0.1-0.4,0-0.7-0.2-1
	c-0.2-0.3-0.5-0.4-0.9-0.4c-0.3-0.1-0.5-0.1-0.8,0c-0.3,0-0.5,0-0.7,0c-0.1,0-0.2,0-0.2,0c0,0,0,0.1,0,0.1c0,0.2,0,0.3,0,0.5
	c0,0.1,0,0.3,0,0.5C34.3,77.3,34.3,77.4,34.3,77.6z M36.3,17.6c0.1,0,0.3,0,0.4,0c0.3,0,0.5-0.1,0.7-0.3c0.2-0.2,0.3-0.4,0.4-0.7
	c0.1-0.3,0-0.5-0.2-0.8c-0.2-0.3-0.5-0.4-0.8-0.4c-0.3-0.1-0.6-0.1-0.9-0.1c-0.3,0-0.6,0-0.9,0c-0.1,0-0.1,0-0.1,0c0,0,0,0.1,0,0.1
	c0,0.3,0,0.6,0,0.9c0,0.3,0,0.6,0,0.9c0,0.1,0,0.1,0,0.1c0,0,0.1,0,0.2,0c0.1,0,0.2,0,0.4,0c0.1,0,0.3,0,0.4,0
	C36.1,17.6,36.2,17.6,36.3,17.6z M58.7,65.5c-1,0-2,0-3,0c-1,0-2,0-3,0c-0.1,0-0.3,0-0.4,0s-0.3,0-0.4,0c-0.1,0-0.1,0-0.2-0.1
	c0.1-0.1,0.1-0.1,0.1-0.2c0.4-0.4,0.8-0.8,1.2-1.3c0.3-0.5,0.6-1.1,0.7-1.7c0.1-0.3,0.1-0.6,0.1-0.8c0-0.3,0-0.6-0.1-0.8
	c0-0.4,0-0.9-0.1-1.3c-0.1-0.4-0.2-0.9-0.2-1.3c-0.1-0.3-0.1-0.7-0.2-1.1c-0.1-0.4-0.2-0.7-0.3-1.1c-0.3-0.9-0.6-1.7-1-2.5
	c-0.4-0.8-0.8-1.5-1.3-2.3c-0.2-0.2-0.3-0.4-0.5-0.6c-0.1-0.2-0.3-0.4-0.5-0.6c-0.1-0.1-0.2-0.2-0.3-0.2c-0.1,0-0.2,0-0.3,0.1
	c-0.4,0.1-0.8,0.2-1.2,0.4c-0.4,0.1-0.8,0.3-1.2,0.4c-1,0.2-2,0.4-3,0.5c-1,0.1-1.9,0.2-2.9,0.3c-0.1,0-0.2,0-0.3,0
	c-0.1,0-0.2,0-0.3,0c-0.1,0-0.1,0-0.1,0c0,0,0,0.1,0,0.2c0,0.1,0,0.2,0,0.4c0,0.1,0,0.3,0,0.5c0,1.7,0,3.4,0,5.1c0,1.7,0,3.4,0,5.1
	c0,0.6,0.1,1.1,0.3,1.5c0.2,0.4,0.4,0.9,0.8,1.3c0,0.1,0,0.1,0,0.2c-0.1,0.1-0.1,0.1-0.2,0.1c-0.5,0-1,0-1.6,0c-0.6,0-1.1,0-1.7,0
	c-0.3,0-0.6,0-0.9,0c-0.3,0-0.6,0-0.9-0.1c-0.1,0-0.1,0-0.2,0c0-0.1,0-0.1,0.1-0.2c0.3-0.4,0.6-0.8,0.8-1.3c0.2-0.5,0.3-1,0.3-1.5
	c0-2.6,0-5.1,0-7.6c0-2.6,0-5.1,0-7.7c0-2.5,0-5.1,0-7.6c0-2.6,0-5.1,0-7.6c0-0.2,0-0.4,0-0.7c0-0.2,0-0.4,0-0.7
	c0-0.2-0.1-0.4-0.2-0.7c-0.1-0.2-0.2-0.4-0.3-0.6l-0.1-0.1v-0.1c-0.1-0.1-0.1-0.1-0.1-0.1c0,0,0.1,0,0.2,0c0.1,0,0.2,0,0.3,0
	c0.1,0,0.2,0,0.3,0c1.9,0,3.8,0,5.7,0c1.9,0,3.8,0,5.7,0c0.9,0,1.8,0.1,2.6,0.3c0.9,0.2,1.7,0.5,2.6,1c0.4,0.2,0.9,0.5,1.3,0.8
	c0.4,0.3,0.8,0.6,1.1,0.9c0.5,0.4,0.9,0.9,1.3,1.5c0.3,0.5,0.6,1.1,0.8,1.7c0.2,0.5,0.3,1,0.4,1.5c0.1,0.5,0.1,1,0.1,1.5
	s0,1-0.1,1.5c-0.1,0.5-0.2,1-0.3,1.5c-0.2,0.6-0.5,1.2-0.8,1.8c-0.3,0.6-0.6,1.2-1.1,1.8c-0.5,0.7-1.1,1.3-1.7,1.8
	c-0.6,0.6-1.3,1.1-2,1.6c-0.1,0.1-0.2,0.1-0.2,0.1c0,0,0,0.1,0.1,0.3c0.5,0.7,1,1.5,1.4,2.2c0.4,0.8,0.8,1.5,1.2,2.3
	c0.3,0.6,0.5,1.1,0.8,1.7s0.5,1.2,0.7,1.8c0.1,0.4,0.2,0.8,0.3,1.2c0.1,0.4,0.2,0.8,0.3,1.2c0.1,0.5,0.2,1,0.3,1.5
	c0.1,0.5,0.1,1,0.2,1.5c0.1,0.3,0.1,0.7,0.2,1c0.1,0.3,0.2,0.7,0.3,1c0.1,0.3,0.3,0.5,0.4,0.8c0.2,0.2,0.4,0.4,0.6,0.5v0.1
	C58.8,65.4,58.7,65.5,58.7,65.5z M40.7,76.6c0.9-0.9,2-1.3,3.2-1.3c1.3,0,2.4,0.4,3.3,1.3c0.9,0.9,1.3,1.9,1.3,3.2
	c0,1.3-0.4,2.4-1.3,3.2c-0.9,0.9-1.9,1.3-3.1,1.4c-1.3,0.1-2.5-0.4-3.4-1.3c-0.9-0.9-1.4-2-1.4-3.3C39.3,78.6,39.8,77.5,40.7,76.6z
	 M44.5,23.7c-1.3,0-2.4-0.4-3.3-1.3c-0.9-0.9-1.3-2-1.3-3.3c0-1.2,0.4-2.3,1.3-3.2c0.9-0.9,2-1.3,3.3-1.3c1.3,0,2.4,0.4,3.2,1.3
	c0.8,0.9,1.3,1.9,1.3,3c0.1,1.3-0.4,2.5-1.3,3.4C46.8,23.2,45.8,23.7,44.5,23.7z M39.9,43.9c0,1.4,0,2.8,0,4.2c0,0.1,0,0.2,0,0.2
	c0,0,0.1,0,0.2,0c0.6,0,1.1,0,1.7-0.1c0.6-0.1,1.2-0.1,1.7-0.3c0.6-0.1,1.1-0.2,1.6-0.4c0.5-0.1,1.1-0.3,1.6-0.5
	c0.6-0.2,1.1-0.5,1.6-0.8c0.5-0.3,1-0.6,1.4-1c0.8-0.6,1.5-1.3,2.1-2.1c0.5-0.8,0.9-1.7,1.2-2.7c0.2-0.6,0.4-1.1,0.4-1.8
	c0.1-0.6,0.1-1.2,0.1-1.8c-0.1-0.5-0.1-1-0.3-1.5c-0.1-0.5-0.3-0.9-0.5-1.4c-0.3-0.6-0.8-1.1-1.3-1.6c-0.5-0.4-1.1-0.7-1.8-1
	c-0.5-0.2-1-0.3-1.5-0.3c-0.5-0.1-1-0.1-1.5-0.1c-1.1,0-2.2,0-3.4,0c-1.1,0-2.2,0-3.4,0c-0.1,0-0.2,0-0.2,0c0,0,0,0.1,0,0.3
	c0,1.3,0,2.7,0,4.1c0,1.4,0,2.8,0,4.1C39.9,41.1,39.9,42.5,39.9,43.9z M41.3,77.2c-0.7,0.7-1.1,1.6-1.1,2.6s0.3,1.9,1.1,2.6
	c0.7,0.7,1.6,1.1,2.6,1.1c1,0,1.9-0.4,2.6-1.1c0.7-0.7,1.1-1.6,1.1-2.6c0-1-0.4-1.9-1.1-2.6c-0.7-0.7-1.6-1.1-2.6-1.1
	C42.9,76.2,42.1,76.5,41.3,77.2z M42.1,16.4c-0.8,0.6-1.2,1.5-1.3,2.7c0,1,0.3,1.8,1,2.5c0.6,0.7,1.5,1.1,2.6,1.2
	c1,0.1,1.9-0.3,2.6-0.9c0.8-0.7,1.1-1.5,1.1-2.6c0.1-1-0.3-1.8-0.9-2.6c-0.7-0.8-1.5-1.2-2.6-1.2C43.7,15.5,42.9,15.8,42.1,16.4z
	 M46.5,63.5c0,0.9,0,1.8,0,2.7c0,0.4,0.1,0.9,0.3,1.3c0.2,0.4,0.4,0.8,0.6,1.2c0.1,0,0.1,0,0.1,0c0,0,0,0.1,0,0.1l0.1,0.2
	c-0.1,0-0.1,0-0.1,0c0,0-0.1,0-0.1,0c-0.8,0-1.7,0-2.5,0c-0.8,0-1.7,0-2.5,0c-0.1,0-0.1,0-0.1,0c0,0-0.1,0-0.1,0
	c0.1-0.1,0.1-0.1,0.1-0.2c0.3-0.3,0.5-0.7,0.7-1.1c0.2-0.4,0.3-0.7,0.3-1.1c0-0.1,0-0.2,0-0.3c0-0.1,0-0.1,0-0.3c0-2.4,0-4.7,0-7.1
	s0-4.7,0-7.1c0-0.2,0-0.3,0-0.3c0,0,0.1,0,0.3,0c0.4-0.1,0.9-0.2,1.4-0.3c0.5-0.1,0.9-0.1,1.4-0.3c0.1,0,0.2,0,0.2,0
	c0,0,0,0.1,0,0.3c0,0.2,0,0.4,0,0.4c0,0,0.2,0,0.4,0c0.3,0,0.7,0,1.1,0c0.4,0,0.7-0.1,1.1-0.1c0.2,0,0.3,0,0.5,0c0.1,0,0.3,0,0.5,0
	c0.1-0.1,0.1-0.1,0.2,0c0.1,0.1,0.1,0.1,0.1,0.2c0.2,0.3,0.3,0.6,0.5,0.9c0.1,0.3,0.3,0.6,0.5,0.9c0.1,0.1,0.1,0.2,0.1,0.3
	c0,0.1,0,0.1,0,0.3c0.1,0.1,0.1,0.1,0,0.2c0,0.1-0.1,0.1-0.2,0.1c-0.7,0.1-1.5,0.1-2.2,0.2c-0.7,0.1-1.5,0.1-2.2,0.1
	c-0.1,0-0.2,0-0.2,0c0,0,0,0.1,0,0.2c0,1,0,1.9,0,2.9c0,1,0,1.9,0,2.9C46.5,61.7,46.5,62.6,46.5,63.5z M43.1,37.8c0-1,0-2,0-3
	c0-0.2,0-0.3,0-0.5c0-0.2-0.1-0.4-0.1-0.5c-0.1-0.2-0.1-0.3-0.2-0.5c-0.1-0.1-0.2-0.3-0.2-0.5c-0.1,0-0.1-0.1-0.1-0.2
	c0-0.1,0.1-0.1,0.2-0.1c0.3,0,0.6,0,0.8,0c0.3,0,0.6,0,0.8,0c0.9,0,1.8,0,2.8,0c1,0,1.9,0,2.9,0c0.3,0,0.5,0,0.7,0.1
	c0.2,0.1,0.4,0.2,0.5,0.4c0.2,0.2,0.4,0.4,0.6,0.7c0.2,0.2,0.3,0.5,0.5,0.8c0.1,0.1,0.1,0.2,0.1,0.2c0,0-0.1,0-0.3,0
	c-0.8,0-1.7,0-2.6,0c-0.9,0-1.8,0-2.7,0c-0.2,0-0.3,0-0.3,0c0,0,0,0.1,0,0.3c0,1.8,0,3.7,0,5.5c0,1.8,0,3.6,0,5.4c0,0.3,0,0.4,0,0.5
	c0,0.1-0.2,0.1-0.4,0.2c-0.4,0.1-0.9,0.2-1.3,0.3c-0.4,0.1-0.9,0.2-1.3,0.3c-0.1,0.1-0.2,0.1-0.2,0c0-0.1,0-0.1,0-0.3c0-1,0-2,0-3.1
	c0-1.1,0-2.1,0-3.2C43.1,39.8,43.1,38.8,43.1,37.8z M51.4,84.4c-0.1,0-0.1,0-0.2,0c-0.1,0-0.2,0-0.2,0c0,0,0-0.1,0-0.1
	c0-0.1,0-0.2,0-0.3c0-0.1,0-0.2,0-0.3c0.1-0.7,0.1-1.3,0.1-1.9s0-1.2-0.1-1.8c0-0.1,0-0.2,0-0.3s0-0.2-0.1-0.3
	c-0.3-0.6-0.7-1.2-1-1.8c-0.3-0.6-0.7-1.2-1.1-1.8c-0.1-0.2-0.2-0.3-0.1-0.4c0,0,0.2,0,0.4,0c0.3,0,0.5,0,0.6,0.1
	c0.1,0.1,0.2,0.2,0.4,0.5c0.2,0.4,0.4,0.8,0.7,1.2c0.2,0.4,0.4,0.8,0.7,1.2c0.1,0.1,0.1,0.2,0.1,0.2c0,0,0.1-0.1,0.1-0.2
	c0.2-0.4,0.4-0.8,0.7-1.2c0.2-0.4,0.4-0.8,0.7-1.2c0.1-0.1,0.1-0.2,0.2-0.3c0.1-0.1,0.1-0.2,0.2-0.2c0-0.1,0.1-0.1,0.2-0.2
	c0.2,0,0.3,0,0.4,0c0.1,0,0.2,0,0.3,0c0.1,0,0.2,0,0.2,0.1c0,0.1,0,0.1-0.1,0.2c-0.3,0.7-0.7,1.3-1.1,2c-0.4,0.7-0.8,1.3-1.2,2
	c0,0.1,0,0.1,0,0.2c0,0.1,0,0.1,0,0.2c0,0.6,0,1.3,0,1.9s0,1.3,0,2c0,0.1,0,0.1,0,0.2c0,0.1,0,0.2,0,0.2c0,0.1,0,0.1,0,0.1
	c0,0-0.1,0-0.1,0c-0.1,0-0.1,0-0.2,0c-0.1,0-0.1,0-0.3,0C51.5,84.4,51.5,84.4,51.4,84.4z M51.9,23.7c-0.2,0-0.5,0-0.8,0
	c-0.1,0-0.1,0-0.1,0c0,0,0-0.1,0-0.1c0-0.2,0-0.3,0-0.5c0-0.2,0-0.4,0-0.5c0-1.2,0-2.4,0-3.5c0-1.2,0-2.4,0-3.5c0-0.1,0-0.2,0-0.3
	c0-0.1,0-0.2,0-0.3c0-0.1,0-0.2,0-0.2c0,0,0.1,0,0.1,0c0.2,0,0.3,0,0.4,0c0.1,0,0.2,0,0.3,0c0.1,0,0.2,0,0.2,0c0,0,0,0.1,0,0.1
	C52,15,52,15.3,52,15.5c0,0.3,0,0.6,0,0.8c0,1,0,1.9,0,2.9c0,1,0,1.9,0,2.9c0,0.2,0.1,0.4,0.2,0.5c0.1,0.1,0.3,0.2,0.5,0.2
	c0.4,0.1,0.8,0.1,1.1,0.1s0.7-0.1,1-0.3c0.1,0,0.1,0,0.1,0.1v0.1c-0.1,0.1-0.1,0.3-0.3,0.4c-0.1,0.2-0.2,0.3-0.3,0.4
	c-0.1,0.1-0.1,0.1-0.2,0.1c-0.1,0-0.1,0-0.2,0c-0.2,0-0.4,0-0.7,0c-0.2,0-0.4,0-0.7,0C52.4,23.7,52.2,23.7,51.9,23.7z M65.3,69.1
	c-1,0-2,0-3.1,0c-1,0-2.1,0-3.2,0c-0.1,0-0.2,0-0.3,0c-0.1,0-0.2,0-0.3,0h-0.1h-0.1c0-0.1,0-0.1,0.1-0.2c0.2-0.2,0.3-0.4,0.5-0.6
	c0.2-0.2,0.3-0.3,0.4-0.5c0.4-0.5,0.7-1,0.8-1.6c0.2-0.5,0.2-1.1,0.2-1.7c-0.1-0.4-0.1-0.9-0.1-1.3c0-0.4-0.1-0.9-0.2-1.3
	c-0.1-0.4-0.1-0.9-0.3-1.3c-0.1-0.4-0.2-0.8-0.3-1.2c-0.2-0.6-0.4-1.1-0.6-1.7c-0.2-0.6-0.5-1.1-0.8-1.6c-0.3-0.5-0.6-1-0.9-1.5
	c-0.3-0.5-0.7-0.9-1.1-1.4c-0.1-0.1-0.1-0.1-0.2-0.1c-0.1,0-0.1,0-0.3,0c-0.1,0.1-0.1,0.1-0.2,0c-0.1,0-0.1-0.1-0.2-0.1
	c-0.1-0.3-0.2-0.6-0.4-0.9c-0.1-0.3-0.3-0.6-0.5-0.9c-0.1-0.1-0.1-0.2-0.2-0.3c-0.1-0.1-0.1-0.2-0.2-0.3c-0.1-0.1-0.1-0.2,0-0.3
	c0-0.1,0.1-0.1,0.1-0.1c0.2-0.2,0.5-0.3,0.7-0.4c0.3-0.1,0.5-0.2,0.7-0.3c0.4-0.3,0.8-0.6,1.1-0.9c0.4-0.3,0.7-0.6,1-1
	c0.3-0.3,0.5-0.7,0.8-1c0.3-0.3,0.5-0.7,0.6-1.1c0.4-0.9,0.7-1.8,0.8-2.7s0.2-1.9,0.1-2.8c-0.1-0.6-0.2-1.1-0.4-1.6
	c-0.2-0.5-0.5-1.1-0.8-1.6c-0.1-0.1-0.1-0.2-0.1-0.4c0-0.1-0.1-0.3-0.1-0.5c-0.1-0.4-0.2-0.8-0.4-1.1c-0.1-0.4-0.3-0.7-0.5-1.1
	c-0.1-0.1-0.1-0.2-0.2-0.3c-0.1-0.1-0.1-0.2-0.2-0.3c0-0.1,0-0.1,0-0.2c0.1,0,0.1,0,0.1,0c0,0,0,0,0,0c0.4,0.1,0.8,0.2,1.1,0.4
	c0.4,0.1,0.7,0.3,1.1,0.5c0.4,0.2,0.9,0.5,1.3,0.8c0.4,0.3,0.8,0.6,1.1,1c0.4,0.4,0.8,0.9,1.2,1.5c0.3,0.5,0.6,1.1,0.8,1.7
	c0.2,0.5,0.3,1,0.3,1.6c0.1,0.5,0.1,1.1,0.1,1.6c-0.1,0.5-0.1,1-0.2,1.4c-0.1,0.4-0.1,0.9-0.3,1.3c-0.2,0.4-0.3,0.8-0.5,1.2
	c-0.2,0.4-0.4,0.8-0.6,1.2c-0.3,0.5-0.6,1-1,1.4c-0.4,0.4-0.7,0.9-1.1,1.3c-0.4,0.4-0.8,0.7-1.2,1.1c-0.4,0.3-0.8,0.6-1.3,0.9
	c-0.1,0-0.2,0-0.2,0.1c0,0.1,0,0.1,0.1,0.2c0.4,0.6,0.9,1.2,1.3,1.9c0.4,0.6,0.7,1.3,1,2c0.3,0.4,0.5,0.9,0.8,1.4
	c0.2,0.5,0.4,1,0.6,1.5c0.3,0.6,0.5,1.2,0.7,1.9c0.2,0.6,0.4,1.3,0.5,1.9c0.1,0.6,0.2,1.1,0.3,1.7c0.1,0.6,0.2,1.1,0.2,1.7
	c0,0.4,0.1,0.9,0.2,1.3c0.1,0.4,0.3,0.8,0.6,1.2c0.1,0.1,0.1,0.2,0.2,0.3c0.1,0.1,0.2,0.1,0.2,0.2c0,0.1,0,0.1,0.1,0.1
	c0.1,0,0.1,0.1,0.2,0.1C65.5,69.1,65.4,69.1,65.3,69.1z M61.5,76.7c-0.1-0.1-0.2-0.1-0.2-0.1c-0.5-0.3-1-0.4-1.6-0.5
	c-0.5-0.1-1.1,0-1.6,0.2c-0.6,0.2-1,0.5-1.4,0.9c-0.4,0.4-0.7,0.9-0.9,1.5c-0.2,0.5-0.3,1-0.3,1.6c0.1,0.5,0.2,1,0.5,1.5
	c0.3,0.7,0.8,1.2,1.4,1.6c0.6,0.4,1.3,0.5,2.1,0.4c0.3,0,0.5,0,0.8,0c0.3,0,0.5-0.1,0.7-0.2c0.1-0.1,0.2-0.1,0.3-0.2
	c0.1-0.1,0.2-0.1,0.3-0.2l0.1-0.1l0.1,0.1v0.1c0,0.1,0,0.2,0,0.3c0,0.1,0,0.3,0,0.4c0,0.1,0,0.1,0,0.2c0,0.1-0.1,0.1-0.1,0.1
	c-0.2,0.1-0.4,0.2-0.6,0.3c-0.2,0.1-0.5,0.1-0.8,0.2c-0.3,0-0.7,0-1.1,0c-0.4,0-0.7,0-1.1-0.1c-0.7-0.2-1.3-0.5-1.8-0.9
	c-0.5-0.4-0.9-1-1.3-1.7c-0.3-0.5-0.4-1-0.5-1.6c0-0.5,0-1.1,0.1-1.6c0.1-0.6,0.3-1.1,0.6-1.5c0.3-0.4,0.6-0.8,1-1.1
	c0.6-0.5,1.3-0.8,1.9-0.9c0.7-0.1,1.4-0.1,2.1,0c0.2,0.1,0.3,0.1,0.5,0.2c0.2,0.1,0.3,0.1,0.5,0.3c0.1,0,0.1,0,0.1,0.1
	c0,0.1,0,0.1,0,0.2c0,0.1,0,0.1,0,0.3c0,0.1,0,0.2,0,0.3c0,0.1,0,0.1,0,0.2c0,0.1,0,0.1,0,0.2C61.6,76.8,61.5,76.8,61.5,76.7z
	 M61.2,22.8c-0.1,0.2-0.2,0.3-0.3,0.4c-0.1,0.1-0.2,0.3-0.2,0.4c-0.1,0-0.1,0-0.3,0.1c-0.5,0-1,0-1.5,0s-1,0-1.4,0
	c-0.1,0-0.2,0-0.2,0c0,0,0-0.1,0-0.1c0-0.2,0-0.3,0-0.5c0-0.2,0-0.3,0-0.5c0-1.2,0-2.4,0-3.5c0-1.2,0-2.4,0-3.5c0-0.1,0-0.2,0-0.3
	c0-0.1,0-0.2,0-0.3c-0.1-0.1-0.1-0.2,0-0.2c0,0,0.1,0,0.2,0c0.1,0,0.2,0,0.3,0c0.1,0,0.3,0,0.4,0c0.1,0,0.1,0,0.1,0c0,0,0,0.1,0,0.2
	c0,0.1,0,0.2,0,0.3c0,0.1,0,0.2,0,0.3c0,1.1,0,2.2,0,3.3s0,2.2,0,3.2c0,0.3,0.1,0.6,0.2,0.7c0.1,0.1,0.3,0.2,0.6,0.3
	c0.3,0,0.7,0,1,0c0.3,0,0.7-0.1,1-0.2h0.1C61.2,22.6,61.2,22.7,61.2,22.8z M65.7,14.9c0.2,0.1,0.4,0.1,0.5,0.2
	c0.1,0.1,0.2,0.1,0.3,0.1c0.1,0,0.2,0.1,0.3,0.1c0.1,0,0.1,0,0.1,0.1c0,0.1,0,0.1,0,0.2c-0.1,0.1-0.1,0.2-0.2,0.3
	c-0.1,0.1-0.1,0.3-0.2,0.4c0,0.1,0,0.1-0.1,0c-0.1,0-0.1,0-0.2,0c-0.2-0.1-0.3-0.2-0.5-0.3c-0.1-0.1-0.3-0.2-0.5-0.2
	c-0.2-0.1-0.4-0.1-0.7-0.1c-0.2,0-0.4,0.1-0.6,0.3c-0.1,0.2-0.2,0.3-0.2,0.5c0,0.1,0,0.3,0,0.5c0.1,0.2,0.1,0.3,0.2,0.5
	c0.1,0.2,0.2,0.3,0.4,0.4c0.4,0.3,0.8,0.6,1.1,0.9c0.4,0.3,0.7,0.6,1.1,1c0.3,0.3,0.6,0.6,0.7,1.1c0.1,0.4,0.2,0.9,0.2,1.3
	c-0.1,0.3-0.2,0.6-0.4,0.9c-0.2,0.3-0.5,0.5-0.8,0.7c-0.3,0.1-0.6,0.2-0.9,0.2c-0.3,0-0.6,0-0.9,0c-0.2,0-0.3,0-0.5,0
	c-0.1,0-0.3,0-0.5,0c-0.1,0-0.1,0-0.1,0c0,0-0.1-0.1-0.1-0.1c0-0.2,0-0.3,0-0.5c0-0.1,0-0.3,0-0.5c0-0.1,0-0.1,0-0.1
	c0,0,0.1,0,0.1,0c0.2,0.1,0.3,0.1,0.5,0.2c0.1,0.1,0.3,0.1,0.4,0.2c0.3,0.1,0.6,0.1,0.9,0.1c0.3-0.1,0.5-0.2,0.8-0.3
	c0.2-0.2,0.4-0.4,0.4-0.6c0.1-0.3,0-0.5-0.1-0.8c-0.1-0.3-0.3-0.6-0.5-0.9c-0.2-0.3-0.5-0.5-0.8-0.6c-0.2-0.2-0.5-0.4-0.7-0.6
	c-0.3-0.2-0.5-0.4-0.7-0.6c-0.4-0.3-0.6-0.8-0.7-1.4c-0.1-0.6,0-1.1,0.3-1.5c0.1-0.1,0.2-0.2,0.3-0.3c0.1-0.1,0.2-0.2,0.3-0.2
	c0.1-0.1,0.3-0.2,0.4-0.3c0.2-0.1,0.3-0.1,0.5,0C65.3,14.8,65.6,14.8,65.7,14.9z M67.4,83.8c-0.1,0.1-0.2,0.3-0.2,0.4
	c-0.1,0.1-0.1,0.2-0.2,0.2c-0.1,0-0.2,0-0.3,0c-0.4,0-0.9,0-1.4,0c-0.5,0-0.9,0-1.4,0c-0.1,0-0.2,0-0.2,0c0,0,0-0.1,0-0.1
	c0-0.1,0-0.2,0-0.3c0-0.1,0-0.2,0-0.3c0-1.2,0-2.5,0-3.7c0-1.2,0-2.5,0-3.7c0-0.1,0-0.2,0-0.3c0-0.1,0-0.2,0-0.3
	c-0.1-0.1-0.1-0.2,0-0.2c0,0,0.1,0,0.2,0c0.5,0,1,0,1.5,0c0.5,0,1,0,1.5,0c0.1,0,0.1,0,0.1,0c0,0,0.1,0.1,0.1,0.1c0,0.1,0,0.2,0,0.3
	c0,0.1,0,0.2,0,0.3c0,0.1,0,0.1,0,0.1c0,0,0,0.1,0,0.1l-0.2-0.1c-0.1,0-0.2,0-0.3,0c-0.1,0-0.2,0-0.3,0c-0.2,0-0.4,0-0.6,0
	c-0.2,0-0.4,0-0.6,0c-0.1,0.1-0.2,0.1-0.3,0.3c-0.1,0.1-0.1,0.2-0.1,0.3c0,0.2,0,0.4,0,0.7c0,0.2,0,0.4,0,0.7c0,0.2,0,0.3,0.1,0.4
	c0.1,0.1,0.2,0.1,0.4,0.1c0.2,0,0.4,0,0.7,0c0.2,0,0.4,0,0.7,0c0.1,0,0.2,0,0.3,0c0.1,0,0.1,0.1,0,0.1c0,0.1,0,0.2,0,0.3
	c0,0.1,0,0.2,0,0.2c0.1,0.1,0.1,0.2,0,0.2c-0.1,0-0.1,0-0.3,0c-0.2,0-0.4,0-0.6,0c-0.2,0-0.4,0-0.6,0c-0.2,0-0.4,0-0.5,0.1
	c-0.1,0.1-0.1,0.2-0.1,0.4c0,0.5,0,1,0,1.5c0,0.5,0,1,0,1.5c0,0.1,0,0.2,0.1,0.3c0.1,0.1,0.2,0.2,0.4,0.2c0.1,0,0.1,0,0.3,0
	c0.1,0,0.2,0,0.3,0c0.1,0,0.2,0,0.3,0c0.1,0,0.2,0,0.3-0.1c0.2,0,0.3,0,0.5,0c0.2,0,0.3,0,0.5,0c0.1,0,0.1,0,0.2-0.1v0.1
	C67.6,83.5,67.5,83.7,67.4,83.8z"/>
</svg>
