<?xml version="1.0" encoding="utf-8"?>
<!-- Generator: Adobe Illustrator 21.0.2, SVG Export Plug-In . SVG Version: 6.00 Build 0)  -->
<svg version="1.1" id="Layer_1" xmlns="http://www.w3.org/2000/svg" xmlns:xlink="http://www.w3.org/1999/xlink" x="0px" y="0px"
	 viewBox="0 0 100 100" style="enable-background:new 0 0 100 100;" xml:space="preserve">
<style type="text/css">
	.st0{fill:#B3B3B1;}
	.st1{fill:#B3B3B3;}
	.st2{fill-rule:evenodd;clip-rule:evenodd;fill:#B3B3B3;}
	.st3{fill-rule:evenodd;clip-rule:evenodd;fill:#B3B3B1;}
</style>
<path class="st0" d="M91,47.7v1.8v1.7l-0.3,1.7l-0.4,1.7l-0.6,1.7L89,57.7l-1.5,2.7l-1.9,2.5l-2.4,2.3l-2.7,2L77.7,69l-2.8,1.6
	l-3,1.4l-3.1,1.2l-1.9,0.6l-1.9,0.6l-2.7,0.5l-1.1,0.3l-3.9,0.5L54.8,76l-1.1,0.1h-0.3l-3,0.1h-0.9L45.9,76h-0.3l-4-0.5l-3.8-0.7
	L34,73.9l-3.7-1.3l-3.6-1.5l-3.3-1.8l-3-2l-2.7-2.2l-2.3-2.3l-2-2.4l-1.5-2.7l-0.7-1.5l-0.6-1.7l-0.4-1.7l-0.2-1.7l-0.1-1.7l0.1-1.8
	l0.2-1.7l0.4-1.7l0.6-1.6l0.7-1.6l1.5-2.6l2-2.5l2.3-2.3l2.7-2.2l3-1.9l3.3-1.8l3.6-1.5L34,25l4-1l4-0.6l3.9-0.4l0.3-0.1l4.1-0.1
	l3.3,0.1h1l0.2,0.1l4.1,0.4l3.3,0.6l0.7,0.1l4,1l3.8,1.2l3.6,1.5l3.3,1.8l3,1.9l2.7,2.2l2.3,2.3l1.9,2.5L89,41l0.7,1.6l0.6,1.6
	l0.4,1.7L91,47.7z M45.9,72.3l1.2,0.1l-1.2-1.4l-0.2-0.4l-1.2-2l-1.1-2.2l-0.9-2.3l-0.7-2.3l-0.5-2.4L40.9,57l-0.3-2.7l-0.1-2.6
	l0.1-2.7l-3-0.6l-3.4-0.8l-2.9-0.9l-2.3-1l-2.2-1.1l-1.9-1.4l-1-0.7l-1-0.9l-0.8-1.1l-0.7-1.1l-0.5-1.2l-0.3-1.4l-1.2,1.3l-1,1.4
	L17.3,41l-0.6,1.6l-0.5,1.8L16,46.2l0.1,2l0.2,2l0.4,2l0.6,1.9l1.1,2.4l1.3,2.3l1.6,2.2l2.1,2.2l2.7,2.3l2.8,1.8l2.9,1.5l2.3,1
	l2.5,0.8l2.6,0.7l2.5,0.6l2.6,0.3L45.9,72.3z M28,33.9L27.8,35l0.2,1l0.4,1l0.6,0.9l0.8,0.7l1,0.7l1.4,0.8l1.7,0.7l1.7,0.6l1.8,0.5
	l1.9,0.3l1.8,0.2l0.3-1.9l0.5-1.9l0.5-1.9l0.7-1.9l0.8-1.8l0.8-1.5l0.8-1.2l0.4-0.6l0.4-0.5l0.8-0.9l0.9-0.7l0.8-0.6l0.9-0.6H48
	l-1.7,0.1h-0.4l-1.4,0.1l-1.7,0.1l-2.4,0.3l-2.5,0.6l-2.3,0.7l-2.2,0.9l-2.1,0.9l-1.4,0.9l-1,0.8l-0.6,1L28,33.9z M53.4,62.3
	l0.2-0.6l0.5-1.2l0.6-1.8l0.2-0.5l0.6-2.6l0.5-2.6l0.2-2.3l0.1-1l-1.7,0.2L54.5,50l-0.8,0.1h-1.3h-2h-2l-2-0.2l-0.4-0.1l-1.7-0.2
	l0.1,1.3l0.2,2.5l0.5,2.5l0.6,2.3l0.3,1l0.4,1.1l0.8,1.6l0.6,1l0.7,0.7l0.7,0.4l0.9,0.2h0.3H51l0.9-0.4l0.8-0.6L53.4,62.3z
	 M50.3,33.4H50l-1,0.3l-0.8,0.5l-0.6,0.7L47,36.1l-0.6,1.3l-0.5,1l-0.1,0.2l-0.4,1.5l-0.3,1.4l-0.2,1.5l1,0.2l0.8,0.1l1.9,0.1
	l1.9,0.1l1.9-0.1l1.4-0.1h0.5l0.7-0.1l1.2-0.2l-0.3-1.5l-0.3-1.5L55,38.8l-0.2-0.5l-0.4-0.9l-0.6-1.3l-0.2-0.4l-0.4-0.6l-0.6-0.8
	l-0.7-0.5L51,33.4H50.3z M53.6,26.8l-2.5-0.2l1,0.6l1,0.6l0.6,0.5l0.2,0.2l0.8,0.8l0.1,0.1l0.6,0.7l0.6,1l0.7,1.3l0.8,1.6l0.6,1.6
	l0.6,1.7l0.5,1.7l0.3,1.9l0.2,1.8l1.9-0.5l0.5-0.2l1.5-0.4l1.9-0.6l1.9-0.7l1.9-0.8l1.8-1l1-0.9l0.6-0.8l0.3-0.9v-1L73,33.6
	l-0.5-1.1l-0.8-1l-0.9-0.8l-1.2-0.7l-1.5-0.6l-2-0.6l-2.5-0.6l-1.4-0.2l-1-0.2l-2.5-0.4l-2.4-0.3l-1.5-0.1L53.6,26.8z M84.8,49.4
	v-1.6l-0.1-1.5l-0.3-1.5L84,43.2l-0.6-1.9l-0.9-1.6l-1-1.6l-1.1-1.5l-0.8,1.7l-1,1.5l-1.1,1.4l-1.5,1.5L74.2,44l-1.8,1L70.5,46
	l-2,0.7l-1.9,0.6l-2,0.7l-2.1,0.6l-0.2,0.1l-1.9,0.6l-0.1,2.3L60,54.1l-0.2,2.3l-0.4,2.3L59,60.8L58.4,63l-0.7,2.2L57,67.3l-0.9,1.9
	L54.9,71l-0.2,0.2l-1,1.5l2.7-0.4l2.7-0.5l2.7-0.6l0.2-0.1l2.4-0.7l2.7-1l2.9-1.5l2.9-1.6l2.6-1.7l2.1-1.7l1.8-1.6l1.4-1.7l1.2-1.9
	l1.1-2.1l0.6-1.5l0.4-1.5l0.3-1.5L84.8,49.4z"/>
</svg>
