<?xml version="1.0" encoding="utf-8"?>
<!-- Generator: Adobe Illustrator 21.0.2, SVG Export Plug-In . SVG Version: 6.00 Build 0)  -->
<svg version="1.1" id="Layer_1" xmlns="http://www.w3.org/2000/svg" xmlns:xlink="http://www.w3.org/1999/xlink" x="0px" y="0px"
	 viewBox="0 0 100 100" style="enable-background:new 0 0 100 100;" xml:space="preserve">
<style type="text/css">
	.st0{fill:#B3B3B1;}
	.st1{fill:#B3B3B3;}
	.st2{fill-rule:evenodd;clip-rule:evenodd;fill:#B3B3B3;}
	.st3{fill-rule:evenodd;clip-rule:evenodd;fill:#B3B3B1;}
</style>
<path class="st0" d="M50.4,13.6c5.2,0,10,1,14.6,3c4.6,1.9,8.5,4.6,11.9,8c3.4,3.4,6.1,7.4,8.1,11.9C87,41.2,88,46,88,51.2
	c0,5.2-1,10-2.9,14.6c-2,4.6-4.7,8.5-8.1,11.9c-3.4,3.4-7.4,6.1-11.9,8.1c-4.6,1.9-9.4,2.9-14.6,2.9c-5.2,0-10-1-14.6-2.9
	c-4.6-2-8.5-4.7-11.9-8.1c-3.4-3.4-6.1-7.4-8-11.9c-2-4.6-3-9.4-3-14.6c0-5.2,1-10,3-14.6c1.9-4.6,4.6-8.5,8-11.9
	c3.4-3.4,7.4-6.1,11.9-8C40.4,14.6,45.2,13.6,50.4,13.6z M63.3,81.8c4-1.7,7.6-4.1,10.6-7.2c3-3,5.4-6.5,7.2-10.6
	c1.7-4,2.6-8.3,2.6-12.9c0-4.6-0.9-8.9-2.6-12.9c-1.7-4-4.1-7.6-7.2-10.6c-3-3-6.5-5.4-10.6-7.2c-4-1.7-8.3-2.6-12.9-2.6
	c-4.6,0-8.9,0.9-12.9,2.6c-4,1.7-7.6,4.1-10.6,7.2s-5.4,6.5-7.2,10.6c-1.7,4-2.6,8.3-2.6,12.9c0,4.6,0.9,8.9,2.6,12.9
	c1.7,4,4.1,7.6,7.2,10.6s6.5,5.4,10.6,7.2c4,1.7,8.3,2.6,12.9,2.6C55,84.5,59.3,83.6,63.3,81.8z M39.7,76.6L24.1,42.9
	c-0.4,1.3-0.7,2.6-1,4c-0.2,1.4-0.4,2.8-0.4,4.2c0,2.8,0.4,5.5,1.3,8.2c0.8,2.6,1.9,5,3.4,7.3c1.5,2.2,3.3,4.2,5.3,5.8
	C35,74.1,37.2,75.5,39.7,76.6z M64.3,27.4l-9.6,22.5h-8.6l-9.7-22.5c-1.7,1-3.2,2.2-4.7,3.5c-1.4,1.3-2.7,2.7-3.9,4.3l13.8,29.2
	l4.6-11.1h8.2l4.6,11.1l13.7-29.2c-1.1-1.5-2.4-3-3.9-4.3C67.6,29.6,66,28.4,64.3,27.4z M50.4,23.6c-1.3,0-2.7,0.1-4,0.3
	c-1.3,0.2-2.6,0.5-3.8,0.9l7.8,18.6l7.8-18.6c-1.2-0.4-2.5-0.7-3.8-0.9C53.1,23.7,51.8,23.6,50.4,23.6z M50.4,59.9l-7.7,17.8
	c1.2,0.3,2.5,0.6,3.7,0.8c1.3,0.2,2.6,0.3,3.9,0.3c1.3,0,2.7-0.1,3.9-0.3c1.3-0.2,2.5-0.5,3.7-0.8L50.4,59.9z M76.7,42.9L61.2,76.6
	c2.5-1.1,4.7-2.5,6.8-4.1c2.1-1.7,3.9-3.6,5.3-5.8c1.5-2.2,2.7-4.6,3.5-7.3c0.8-2.6,1.2-5.3,1.2-8.2c0-1.4-0.1-2.8-0.4-4.2
	C77.4,45.6,77.1,44.2,76.7,42.9z"/>
</svg>
