<?xml version="1.0" encoding="utf-8"?>
<!-- Generator: Adobe Illustrator 21.0.0, SVG Export Plug-In . SVG Version: 6.00 Build 0)  -->
<svg version="1.1" id="Layer_1" xmlns="http://www.w3.org/2000/svg" xmlns:xlink="http://www.w3.org/1999/xlink" x="0px" y="0px"
	 viewBox="0 0 515 31.5" style="enable-background:new 0 0 515 31.5;" xml:space="preserve">
<style type="text/css">
	.st0{fill:#292829;}
</style>
<g>
	<path class="st0" d="M3.7,30.1c-0.4,0-1,0-1.8-0.1s-1.5-0.1-2-0.2c-0.1-0.2-0.1-0.7-0.1-1.6C-0.1,26,0,23.8,0,21.5
		c0-2.2,0-4.4,0-6.6v-3.1c0-0.1,0-0.3,0-0.7c0-0.4,0-0.8,0-1.4C0,9,0,8.2,0,7.3s-0.1-1.8-0.1-2.8c0-0.9,0-1.8,0-2.6
		c0-0.8,0-1.5,0-1.9h3.7L3.5-0.1C3.8,0,4,0,4.2,0c0.2,0,0.5,0,0.7,0C5,0,5,0.1,5,0.2v0.6v3.7V5v2.7v0.9c0,1.1,0,2.2,0,3.3
		c0,1.1,0,2-0.1,2.7c-0.1,0.4-0.1,1.1-0.1,2s0,1.8,0.1,2.8v0.5c0,0.4,0,0.8,0,1.1c0,0.3,0,0.6,0,1c-0.1,0.3-0.1,0.6-0.1,0.9
		s0,0.7,0,1.1c-0.1,0.6,0,1.3,0.2,2c0.2,0.8,0.5,1.4,1,1.9c0.6,0.6,1.4,1,2.3,1h0.5c1.3,0,2.6,0,3.9,0s2.6,0,3.9,0.1h1.1
		c0.6,0.1,1.3,0.1,1.9,0.1s1.3,0,1.9,0c1.1,0.1,2.2,0.1,3.3,0.1c1.1,0,2.2,0,3.3,0h0.1c0.3,0,0.5,0,0.7,0s0.4,0,0.6-0.1h1.2h0.8v0.5
		c-2.4,0-4.8,0-7,0s-4.6,0-6.9,0.1c-1.5,0.1-2.9,0.1-4.4,0.1s-3,0-4.6,0H7.3c-0.3,0-0.5,0-0.8,0s-0.5,0-0.8,0.1c-0.3,0-0.6,0-0.9,0
		C4.5,30.1,4.1,30.1,3.7,30.1z"/>
	<path class="st0" d="M71,31.1h-1c-4.9-0.3-8.9-2.5-12.2-6.7c-1.7-2.1-2.8-4.3-3.4-6.7c-0.6-2.3-1-4.6-1.2-6.9
		c-0.1-1.2-0.2-2.6-0.2-4s0-2.8,0-4.3c0-0.4,0-0.8,0-1.1c0-0.4,0-0.8,0.1-1.2c0-0.1,0-0.1-0.1-0.2c0-0.4,0-0.6,0.1-0.6
		c0.2-0.1,0.4-0.2,0.8-0.2c0.4,0,0.7,0,0.9,0c0.3,0,0.5,0,0.7,0s0.4,0,0.6,0c0.6,0,1.1,0.1,1.5,0.2c0.2,0.1,0.3,0.1,0.3,0.1
		C58-0.4,58-0.1,58,0.2c0,0.4,0,0.8-0.1,1.1v0.9c-0.1,2.7,0,5.6,0.1,8.6s0.6,6,1.5,9.1c0.5,2.1,1.2,3.8,2,5.2
		c0.8,1.4,1.9,2.7,3.3,3.9c0.1,0,0.1,0,0.2,0.1c1.5,1.1,3.3,1.6,5.4,1.6c2,0,3.9-0.4,5.7-1.3c1.8-0.9,3.1-2,3.8-3.5
		c1.4-2.2,2.2-4.5,2.5-6.9s0.4-5,0.2-7.9c0-0.5,0-1.1,0-1.6s-0.1-1.1-0.1-1.6c-0.1-1.6-0.1-3.1-0.1-4.5s0-2.6,0.1-3.6
		c0.1-0.2,0.3-0.3,0.7-0.4c0.4-0.1,0.9-0.1,1.3-0.1l0.4-0.1c0.4,0,0.8,0,1,0s0.5,0.1,1,0.2c0,0.4,0,1.4,0,3s-0.1,3.5-0.2,5.5
		s-0.2,4.1-0.3,6.2c-0.1,2.1-0.3,3.8-0.5,5.2c-0.3,2.2-1,4.1-2,5.6s-2.2,2.7-3.7,3.7c-1.4,0.9-3,1.6-4.6,2.1
		C74.1,30.9,72.5,31.1,71,31.1z"/>
	<path class="st0" d="M135.1,30.8c-0.3,0-0.5-0.1-0.8-0.2c-0.3-0.1-0.6-0.4-1.1-0.9c-0.8-1-1.7-2.1-2.6-3.1c-0.9-1-1.8-2-2.6-3
		c-0.6-0.8-1.3-1.5-1.9-2.2s-1.3-1.4-1.9-2.2c-0.4-0.4-0.8-0.6-1.3-0.6s-0.9,0.2-1.3,0.6c-1.6,1.9-3.2,3.8-4.8,5.7
		c-1.6,1.8-3.3,3.7-5.2,5.5c-0.1,0.1-0.1,0.1-0.1,0.2c0,0.1-0.1,0.1-0.1,0.2H111h-0.2c-0.1,0-0.2,0-0.3,0c-0.1,0-0.2,0-0.3-0.1
		c0.3-0.4,0.7-0.8,1.1-1.1c0.5-0.4,0.9-0.9,1.4-1.5c0.1-0.2,0.2-0.3,0.4-0.5c0.1-0.2,0.3-0.4,0.5-0.7c0.3-0.3,0.5-0.5,0.7-0.8
		c0.2-0.2,0.5-0.5,0.7-0.9c0.3-0.3,0.6-0.7,1-1.1s0.9-1,1.5-1.6c0.1-0.2,0.2-0.3,0.4-0.4c0.1-0.1,0.3-0.3,0.4-0.5l0.3-0.3
		c0.1-0.1,0.2-0.2,0.2-0.2c0-0.1,0.1-0.1,0.1-0.2c0.4-0.5,0.9-1,1.3-1.5s0.8-1,1.3-1.5c0.3-0.3,0.4-0.6,0.4-1s-0.1-0.8-0.4-1.1
		l-1.2-1.6c-0.6-0.8-1.2-1.6-1.7-2.2c-0.5-0.7-1.1-1.4-1.7-2.1s-1.2-1.5-1.9-2.4c-0.7-0.8-1.5-1.8-2.4-2.9c-0.5-0.7-1.1-1.3-1.5-1.8
		c-0.5-0.6-0.9-1-1.1-1.3l-0.3-0.3c-0.2-0.3-0.3-0.5-0.5-0.8s-0.3-0.5-0.5-0.7c0.3,0,0.5,0,0.8,0s0.5,0,0.8-0.1c0.5,0,1,0,1.5,0
		s1,0,1.4,0h0.8c0.2,0,0.5,0.2,0.8,0.6c0.1,0.1,0.1,0.2,0.2,0.4c0.1,0.1,0.2,0.3,0.3,0.4c0.1,0.1,0.1,0.2,0.2,0.4
		c0.1,0.1,0.2,0.2,0.3,0.4c0.1,0.1,0.2,0.3,0.3,0.4c0.7,1,1.3,1.7,1.7,2.3c0.4,0.6,0.8,1,1,1.3s0.4,0.5,0.4,0.6
		c0.1,0.1,0.1,0.1,0.2,0.2c0.4,0.5,1,1.2,1.8,2.1s1.7,2,2.8,3.3c0.3,0.4,0.8,0.6,1.3,0.6c0.6,0,1.1-0.2,1.4-0.6l0.2-0.2
		c0.1-0.1,0.1-0.2,0.2-0.2c0.1-0.1,0.1-0.1,0.2-0.2s0.2-0.2,0.2-0.3c0-0.1,0.1-0.2,0.2-0.3c0.8-1,1.6-1.9,2.4-2.9s1.6-1.8,2.3-2.6
		c0.4-0.5,0.8-0.9,1.1-1.3s0.6-0.7,0.9-1c0.6-0.6,1-1.1,1.3-1.6c0.2-0.2,0.4-0.4,0.4-0.6c0.2-0.4,0.4-0.6,0.6-0.6
		c0.1,0,0.2,0,0.3-0.1c0.1,0,0.3,0,0.5,0s0.5,0,0.8,0h0.6c-2.1,2.3-4.1,4.6-6.1,6.9c-2,2.2-4,4.5-5.9,6.8c-0.6,0.8-0.6,1.5,0,2.2
		c0.3,0.4,0.6,0.8,0.9,1.2c0.3,0.4,0.6,0.7,1,1.2l1.5,1.7l0.3,0.5c0.2,0.2,0.3,0.3,0.4,0.5c0.1,0.2,0.3,0.4,0.4,0.5
		c0.2,0.2,0.4,0.5,0.7,0.9l0.5,0.5c1,1.2,1.9,2.4,2.7,3.3c0.8,1,1.6,1.8,2.2,2.4c0.2,0.3,0.4,0.5,0.6,0.7c0.2,0.2,0.3,0.3,0.4,0.5
		c0.1,0.2,0.2,0.3,0.4,0.5c0.2,0.3,0.5,0.6,0.7,0.9c0,0.1,0.1,0.1,0.2,0.2c-0.3,0-0.6,0-1.1,0s-1.1,0-1.9,0h-1.3h-0.4V30.8z"/>
	<path class="st0" d="M173.9,29.5c-0.2-0.1-0.3-0.1-0.5-0.2c-0.2-0.1-0.4-0.1-0.6-0.2c-0.3-0.1-0.7-0.2-1-0.4
		c-0.4-0.1-0.7-0.3-0.9-0.4c-0.3-0.2-0.6-0.4-1.1-0.6c-0.4-0.2-0.9-0.5-1.3-0.8c-0.5-0.3-0.9-0.6-1.3-0.9c-0.4-0.3-0.8-0.5-1-0.7
		c-1.5-1.4-2.6-2.7-3.3-4.1c-0.3-0.7-0.6-1.4-0.9-2.2c-0.3-0.8-0.5-1.6-0.6-2.4c-0.2-0.8-0.2-1.7-0.2-2.5c0.1-0.8,0.2-1.6,0.6-2.4
		c0.4-0.8,0.9-1.7,1.5-2.8c0.6-1.1,1.5-2.2,2.6-3.3c0.4-0.4,0.8-0.8,1.2-1.1c0.4-0.3,0.8-0.6,1.2-0.9s0.9-0.6,1.5-0.9
		s1.2-0.6,1.9-0.9h0.1c0.3-0.1,0.5-0.2,0.8-0.3c0.3-0.1,0.5-0.2,0.8-0.3c0.3-0.1,0.6-0.2,0.7-0.2c0.1,0,0.1,0,0.1,0h0.1
		c0.2-0.1,0.3-0.1,0.5-0.2s0.4-0.1,0.6-0.2c0.8-0.3,1.5-0.5,2.2-0.7s1.3-0.3,2-0.4h0.4c-1.1,0.3-2.3,0.7-3.4,1.2
		c-1.1,0.5-2.2,1.2-3.2,1.9c-0.9,0.7-1.9,1.5-2.8,2.4c-0.9,0.9-1.8,1.8-2.5,2.9s-1.3,2.2-1.7,3.5s-0.6,2.7-0.4,4.2
		C166.5,22.4,169.1,27,173.9,29.5z M190.1,30.3c5.9-2.3,9.2-7.2,9.8-14.7c0.1-1.5,0-2.9-0.4-4.2c-0.4-1.3-1-2.4-1.7-3.5
		s-1.5-2-2.5-2.9c-0.9-0.9-1.9-1.7-2.8-2.4c-1-0.8-2.1-1.4-3.3-1.9s-2.3-0.9-3.4-1.2h0.4c0.6,0.1,1.3,0.2,2,0.4
		c0.7,0.2,1.4,0.4,2.2,0.7c0.4,0.2,0.7,0.4,1.1,0.4c0.1,0,0.1,0,0.1,0h0.1c0.2,0,0.4,0.1,0.6,0.2c0.3,0.1,0.5,0.2,0.8,0.3
		c0.3,0.1,0.5,0.2,0.8,0.3h0.2c1.4,0.6,2.5,1.2,3.4,1.8c0.9,0.6,1.7,1.3,2.5,2c1.1,1.1,2,2.3,2.7,3.4s1.1,2,1.4,2.7
		c0.3,0.8,0.5,1.6,0.6,2.4s0,1.7-0.2,2.5s-0.4,1.7-0.6,2.4c-0.3,0.8-0.6,1.5-0.9,2.2c-0.2,0.4-0.5,0.9-1,1.4
		c-0.4,0.6-0.9,1.1-1.5,1.7s-1.1,1.1-1.7,1.6c-0.6,0.5-1.1,0.9-1.5,1.1c-0.1,0-0.1,0-0.1,0s0,0-0.1,0c-0.4,0.3-0.7,0.5-1.1,0.7
		c-0.4,0.2-0.7,0.5-1,0.7c-1.2,0.8-2.3,1.2-3.2,1.4c-0.3,0.1-0.7,0.1-1,0.2c-0.4,0.1-0.7,0.1-1.1,0.2c0.1,0,0.1,0,0.2,0
		C190,30.4,190.1,30.3,190.1,30.3z"/>
	<path class="st0" d="M237.1,30.4h-1c0-0.2,0-0.4,0.1-0.6c0.1-1.1,0.1-2.3,0.1-3.4s0-2.2,0-3.3c0.1-1.1,0.1-2.3,0.1-3.4
		s0.1-2.3,0.2-3.4c0.1-1.1,0.2-2.2,0.2-3.2c0-1.1,0-2.1,0-3.2c0-0.6,0-1.2,0-1.8c0-0.6,0-1.2,0-1.8c0-0.7,0-1.4-0.1-2.1
		s-0.4-1.3-0.9-1.9c-0.5-0.5-1-0.9-1.7-1c-0.6-0.1-1.2-0.2-1.7-0.2c-0.8,0-1.5,0-2.3,0s-1.6,0-2.3-0.1c-0.9,0-1.8,0-2.7,0
		s-1.7,0-2.6,0c-0.7,0-1.1-0.1-1.2-0.4c-0.2-0.2-0.2-0.5,0-0.9h0.3h2.8c1.5,0,3,0,4.5,0s3,0,4.5,0h0.7h0.5h0.2c0.2,0,0.7,0,1.5,0
		c0.9,0,1.9,0,3,0c1.2,0,2.4,0,3.7,0s2.4,0,3.3,0c0.1,0,0.2,0,0.4,0s0.4,0,0.8,0c0.5,0,1.1,0,1.8,0s1.5,0,2.2,0c0.8,0,1.5,0,2.3,0
		s1.4,0,1.9,0v0.7v0.9c-0.3,0.1-0.5,0.1-0.7,0.1s-0.4,0-0.7,0h-0.9h-1.1H252h-2.8c-0.9,0-1.6,0-2.3,0s-1.3,0-1.9-0.1
		c-0.1-0.1-0.2-0.1-0.3-0.1c-0.8,0-1.5,0.3-2.2,0.8s-1,1.4-1.1,2.6c-0.1,1.9-0.1,3.8-0.2,5.7c-0.1,1.9-0.1,3.8-0.2,5.7l-0.2,4.6
		c-0.1,1.6-0.1,3.1-0.2,4.7c-0.1,1.5-0.1,3.1-0.2,4.7v0.3h-1.5L237.1,30.4L237.1,30.4z"/>
	<path class="st0" d="M280,30.3c-0.9,0-1.5-0.2-1.7-0.6c-0.2-0.4-0.4-0.8-0.4-1.2l-0.1-1.5c-0.1-1.4-0.2-2.8-0.2-4.3
		c-0.1-1.5-0.1-2.9-0.2-4.3c0-1.3,0-2.6,0-3.9s0-2.6,0-4c-0.1-1.5-0.1-3-0.1-4.5s0-3.1-0.1-4.6c0-0.3,0.1-0.6,0.2-0.8
		c0.1-0.2,0.4-0.3,0.9-0.4c0.2-0.1,0.4-0.2,0.6-0.2s0.5,0,0.7,0h0.8c0.3,0.1,0.6,0.1,0.8,0.1c0.2,0,0.3,0,0.4,0v1.4v8.1v7.3
		c0,0.3,0,0.6,0,1.1s0,0.9,0,1.5c0,0.5-0.1,1-0.1,1.5s0,0.9,0,1.2v0.5v-0.1v0.2c-0.1,1-0.2,1.9-0.2,2.9s0,1.9-0.1,2.9
		c0,0.5,0,0.9,0,1.1c0,0.2-0.1,0.4-0.1,0.5c-0.2,0-0.4,0-0.6,0.1H280z"/>
	<path class="st0" d="M323.7,30.7c-1.5,0-2.9-0.1-4.3-0.2c-1.4-0.2-2.8-0.4-4-0.6c-0.9-0.2-1.9-0.6-3.1-1.4c-1.5-1-2.9-2-4.3-3.2
		s-2.5-2.5-3.3-4.1c-0.3-0.6-0.6-1.4-0.9-2.2c-0.3-0.8-0.5-1.6-0.6-2.4s-0.2-1.7-0.1-2.6s0.2-1.7,0.6-2.4c0.4-1,1.1-2.2,2.2-3.8
		c1-1.6,2.4-3,4.2-4.3c0.6-0.4,1.4-0.9,2.3-1.3s1.8-0.8,2.6-1.1c4-1.1,7.9-1.6,11.8-1.6h0.6c0.6,0,1.2,0.1,1.9,0.3
		c0.7,0.2,1.3,0.5,2,0.7c0.4,0.1,0.7,0.2,1.1,0.4c0.4,0.2,0.7,0.3,1.1,0.4c0.1,0,0.2,0,0.2,0s0.1,0,0.2,0c0.2,0.1,0.5,0.2,0.7,0.3
		c0.3,0.1,0.5,0.1,0.8,0.1c0.7,0,1.3-0.2,1.7-0.7c0.4-0.4,0.6-0.9,0.7-1.3c0.3-0.1,0.6-0.1,0.9-0.1s0.6,0,0.9,0h0.5
		c0,0.1,0,0.1,0,0.1s0,0,0,0.1c0.1,0.8,0.1,1.5,0.1,2.3s-0.1,1.6-0.2,2.6l-0.2,0.1h-0.2H339c-0.2-0.1-0.5-0.1-0.9-0.1
		c-0.2,0-0.4,0-0.4,0.1c-0.1,0-0.2,0-0.3,0c-0.1,0-0.2,0-0.3,0c-0.1,0-0.3,0-0.5-0.1s-0.5-0.4-0.8-1c-0.3-0.7-0.9-1.3-1.6-1.7
		c-0.7-0.5-1.5-0.7-2.2-0.9h-0.2c-1-0.1-2-0.2-3-0.2c-1-0.1-2.1-0.1-3.2-0.1c-0.6,0-1.2,0-1.7,0c-0.6,0-1.2,0.1-1.7,0.2
		c-2.2,0.3-4.4,1.2-6.7,2.9c-0.8,0.6-1.6,1.3-2.4,2c-0.8,0.8-1.5,1.6-2.2,2.6c-0.6,0.9-1.1,2-1.5,3.1s-0.5,2.4-0.4,3.7
		c0.6,7.3,3.9,11.8,10,13.6c1.6,0.5,3.3,0.7,5,0.7c2.9,0,5.5-0.6,7.9-1.8s4.4-2.4,6.2-3.7c0.2-0.1,0.4-0.3,0.6-0.5s0.3-0.4,0.4-0.5
		c0.1-0.2,0.2-0.3,0.3-0.3c0.1-0.1,0.1-0.1,0.2-0.2v0.2c0.1,0.2,0.1,0.5,0.1,0.9c0.1,0.5,0.1,1,0.1,1.3s-0.1,0.5-0.2,0.7
		s-0.3,0.4-0.6,0.5c-0.3,0.2-0.6,0.4-1.1,0.7c-0.3,0.2-0.6,0.3-1,0.5s-0.8,0.4-1.3,0.7c-0.4,0.2-0.9,0.4-1.5,0.5
		c-0.3,0.1-0.6,0.2-0.9,0.3c-0.4,0.1-0.7,0.2-1,0.3C329.6,30.2,326.8,30.7,323.7,30.7z"/>
	<path class="st0" d="M362.2,30.7h-0.7v-0.1c2-3.2,4-6.4,6-9.6s4-6.4,6-9.5c1.1-1.7,2.2-3.4,3.3-5.1c1.1-1.7,2.3-3.3,3.4-4.9l1.5-2
		c0.1,0,0.1,0,0.2,0s0.2,0,0.4,0c0.6,0,1.1,0.1,1.6,0.3c0.5,0.2,0.8,0.4,0.9,0.6l2.6,5c0.8,1.5,1.5,2.9,2.3,4.3s1.5,2.9,2.3,4.3
		c0.4,0.8,1,1.9,1.8,3.4s1.6,3,2.4,4.5c1,1.8,2,3.7,3,5.7l0.1,0.2c0.4,0.6,0.6,1,0.8,1.3c0.1,0.3,0.2,0.4,0.2,0.5s-0.1,0.1-0.2,0.1
		s-0.2,0-0.2,0h-0.1c-0.3,0-0.6,0-1,0s-0.8,0-1.2,0c-0.5,0.1-1.1,0.1-1.6,0.1s-1,0-1.4,0h-0.8c-0.1,0-0.2-0.1-0.3-0.2
		c-0.1-0.1-0.1-0.2-0.2-0.4c-0.1-0.1-0.1-0.3-0.2-0.4c-0.1-0.2-0.2-0.3-0.2-0.4c-0.1-0.1-0.1-0.3-0.2-0.4c-0.1-0.2-0.3-0.4-0.6-0.8
		c-0.3-0.4-0.6-0.7-1-1.1s-0.9-0.6-1.5-0.9c-0.6-0.2-1.2-0.4-2-0.4h-0.3h-1.1c-0.3,0-0.6,0-1,0c-0.3,0-0.6,0-0.9-0.1h-1.5h-0.6h-1.9
		h-2.2H378h-0.2c-0.3,0-0.8,0-1.3,0c-0.6,0-1.2,0-1.8,0c-0.6,0-1.3-0.1-1.9-0.1s-1.2,0-1.7,0c-0.1,0-0.1,0-0.1,0h-0.1
		c-1.1,0-2.2,0.4-3.3,1.3c-1.1,0.9-1.9,1.9-2.4,3.1c-0.2,0.2-0.4,0.4-0.5,0.7c-0.1,0.2-0.2,0.5-0.3,0.8c-0.1,0.1-0.3,0.1-0.6,0.2
		C363.4,30.6,362.9,30.7,362.2,30.7z M382,23.8c0.8,0,1.5,0,2.1,0c0.7,0,1.2,0,1.8,0.1h0.3c0.3,0,0.8-0.1,1.5-0.2
		c0.6-0.1,1.2-0.5,1.5-1.2c0.4-0.7,0.5-1.4,0.2-2s-0.6-1.1-0.9-1.5c-0.4-0.6-1.1-1.7-2-3.2s-2.1-3.8-3.7-6.8
		c-0.1-0.2-0.2-0.4-0.2-0.4c-0.1-0.1-0.1-0.1-0.1-0.2c-0.4-0.6-0.9-1.1-1.4-1.3c-0.5-0.2-0.9-0.3-1.2-0.3c-0.3,0-0.7,0.1-1.2,0.3
		c-0.5,0.2-0.9,0.6-1.3,1.3l-0.2,0.4c-1.1,1.7-2.2,3.5-3.2,5.2c-1.1,1.8-2.1,3.5-3.1,5.3c-0.5,1-0.6,1.9-0.2,2.8
		c0.4,1,1.2,1.5,2.4,1.6c0.1,0.1,0.2,0.1,0.4,0.1c0.1,0,0.4,0,0.9,0h2.8c0.8,0,1.5,0,2.4,0C380.4,23.8,381.2,23.8,382,23.8z"/>
	<path class="st0" d="M453.6,31.2c-0.6,0-1,0-1.3,0s-0.5-0.1-0.7-0.1c0-0.1,0-0.2,0-0.3s0-0.2,0-0.3c-0.1-0.6-0.2-1.4-0.4-2.3
		c-0.2-0.9-0.5-2-0.9-3.3c-0.3-0.8-0.8-1.8-1.5-2.8c-0.7-1.1-1.7-2.1-3.1-3.1s-3.1-1.9-5.2-2.7c-2.1-0.8-4.8-1.3-8.1-1.6h-0.3h-1.7
		c-0.2,0-0.5,0-0.9,0.1c-0.5,0.1-0.9,0.3-1.3,0.7c-0.5,0.5-0.8,1.3-0.8,2.3v1.1c0.1,1.4,0.1,2.8,0.1,4.3s0,2.9-0.1,4.3V29
		c0.1,0.2,0.1,0.5,0.1,0.9s0,0.6,0,0.8c-0.1,0.2-0.2,0.4-0.3,0.7h-0.3h-0.2l-0.9-0.1c-0.5,0-1.1,0-1.6,0s-1,0-1.6-0.1h-0.5V31
		c-0.1-0.9-0.1-1.7-0.1-2.5s-0.1-1.7-0.1-2.5l-0.1-2.6c0.1-0.4,0.1-0.9,0.1-1.3s0.1-0.9,0.2-1.3c0.1-1.1,0.2-2.2,0.3-3.3
		c0.1-1.1,0.2-2.2,0.2-3.3c0.1-1.2,0.1-2.5,0-3.7s-0.1-2.4-0.2-3.6c-0.1-0.8-0.1-1.5-0.1-2.2s0-1.4,0-2.1c0-0.3,0-0.5,0-0.8
		s0.1-0.5,0.1-0.8c0.1-0.2,0.1-0.4,0.1-0.6s0-0.4,0.1-0.6v-0.4c0-0.1,0-0.1,0.1-0.1h0.2c0.1,0,0.1,0,0.2,0s0.2,0,0.3,0h7.4
		c1.4,0.1,2.8,0.1,4.3,0.1c1.4,0,2.9,0,4.3,0c1.4,0.1,2.8,0.1,4.3,0.2c1.4,0.1,2.9,0.2,4.3,0.3c2.3,0.2,4.4,1.1,6.4,2.8
		c2.5,2.2,2.7,4.6,0.6,7.2c-0.9,1.1-2.9,2.2-6,3.1c-0.1,0-0.1,0-0.1,0s0,0-0.1,0h-0.1c-0.3,0.1-0.7,0.3-1.2,0.6
		c-0.5,0.3-0.7,0.8-0.8,1.5c-0.1,0.8,0.1,1.3,0.6,1.7c0.5,0.4,1,0.7,1.4,0.9c1.4,0.8,2.5,1.7,3.4,2.8c0.9,1.1,1.6,2.2,2.2,3.4
		c0.6,1.2,1,2.2,1.3,3.2s0.4,1.8,0.4,2.3v1.7c-0.4,0.1-0.8,0.1-1.2,0.1C454.3,31.2,453.9,31.2,453.6,31.2z M431.4,13.5
		c0.5,0,1.1,0,1.6,0s1.1,0.1,1.7,0.1c0.6,0.1,1.2,0.1,1.8,0.1c0.6,0,1.2,0,1.8,0c0.6,0,1.2,0,1.8-0.1c0.5-0.1,1.1-0.1,1.6-0.2
		c1.4-0.3,2.8-0.6,4.1-1.1c1.4-0.4,2.6-1.2,3.7-2.4c0.5-0.5,0.9-1.1,1.2-1.7c0.3-0.6,0.4-1.2,0.4-1.8c0-0.8-0.1-1.5-0.4-2.2
		c-0.3-0.6-0.6-1.2-1.1-1.7c-0.4-0.5-0.9-0.9-1.4-1.2c-0.5-0.3-0.9-0.5-1.4-0.6c-1.8-0.6-3.5-1-5.1-1.1c-1.5-0.2-3.2-0.2-5.1-0.2
		h-1.5c-0.7,0-1.4,0-2.2,0c-0.8,0-1.5-0.1-2.4-0.2h-0.4c-0.9,0-1.7,0.3-2.3,0.9c-0.4,0.4-0.6,0.9-0.6,1.3c-0.1,0.5-0.1,0.9-0.1,1.3
		c0.1,0.4,0.1,0.8,0.1,1.4c0,0.5,0.1,1.1,0.1,1.5c0,0.5,0,0.9,0,1.3s0,0.7,0,0.8v0.7c0,0.3,0,0.6,0,0.9s0,0.6,0,0.9
		c0,0.2,0,0.5,0.1,0.9s0.3,0.8,0.6,1.2c0.5,0.5,1.2,0.8,2,0.8h0.2h1.2V13.5z"/>
	<path class="st0" d="M483.4,30c-0.9-0.2-1.9-0.5-2.9-0.8s-1.9-0.7-2.6-1.1c-0.1-0.1-0.2-0.4-0.2-0.8c-0.1-0.4-0.1-0.8-0.1-1.1
		c0.2,0,0.4,0,0.6,0s0.4,0,0.6,0h1.5v0.2c0.1,0.4,0.1,0.8,0.2,1.2c0.1,0.4,0.3,0.9,0.7,1.3c0.2,0.2,0.5,0.4,0.9,0.6
		C482.6,29.7,483,29.9,483.4,30z M496.5,14.8c-1.1,0-2.3,0-3.5-0.1s-2.3-0.2-3.3-0.4c-0.3-0.1-0.8-0.1-1.4-0.2s-1.2-0.2-1.8-0.3
		c-0.6-0.1-1.2-0.2-1.7-0.4c-0.5-0.1-0.9-0.2-1-0.3l-0.9-0.3c-0.9-0.4-1.6-0.7-2-0.9c-0.4-0.2-0.9-0.6-1.3-1.1
		c-0.1-0.1-0.3-0.3-0.5-0.6c-0.2-0.3-0.5-0.6-0.7-1.1c-0.2-0.4-0.4-0.8-0.4-1.3c-0.1-0.4,0-0.8,0.3-1.1c0.4-0.5,1.1-1.2,2-2.1
		c1-0.9,2.4-1.7,4.1-2.4c0.6-0.3,1.4-0.5,2.4-0.8s1.9-0.5,2.8-0.6c2-0.3,4-0.6,6-0.7c2-0.2,4-0.2,5.9-0.2h0.6h1.1
		c-0.8,0-1.5,0-2.2,0.1s-1.4,0.1-2.1,0.2c-0.4,0-0.7,0-1.1,0c-0.3,0-0.6,0.1-1,0.1c-1,0.1-2.1,0.2-3.3,0.4c-1.2,0.2-2.4,0.5-3.3,0.9
		l-0.6,0.2c-0.8,0.3-1.6,0.7-2.3,1.1c-0.7,0.4-1.4,0.8-1.9,1.3c-0.6,0.5-1,1.1-1.3,1.7s-0.4,1.4-0.2,2.4c0.3,2.1,1.1,3.5,2.4,4.2
		c1.4,0.8,3.2,1.4,5.6,1.9h0.2c0.6,0.1,1.4,0.2,2.1,0.2C495,14.7,495.7,14.8,496.5,14.8z M501.2,30.2c0.8-0.2,1.4-0.3,1.9-0.5
		c0.8-0.3,1.5-0.6,2.1-0.9c0.6-0.3,1.1-0.6,1.6-1c0.5-0.4,0.9-0.8,1.3-1.3s0.8-1.1,1.1-1.9c0.4-0.8,0.6-1.6,0.5-2.4
		s-0.3-1.5-0.8-2.2c-0.4-0.7-1-1.4-1.7-1.9c-0.7-0.6-1.4-1.1-2.2-1.6c-1.1-0.6-2.3-1.1-3.7-1.4c0.8,0.1,1.4,0.1,2,0.1s1,0,1.2,0
		c1.8,0.3,3.4,0.8,4.6,1.3c1.2,0.6,2.2,1.2,3,1.8c0.8,0.6,1.3,1.2,1.7,1.8c0.4,0.6,0.7,1.1,0.9,1.5c0.4,0.6,0.4,1.4,0,2.2
		c-0.4,0.8-0.8,1.4-1.2,1.9s-1,1-1.7,1.4c-0.7,0.5-2,1-3.8,1.7c-0.6,0.3-1.3,0.5-2.2,0.7c-0.9,0.2-1.8,0.3-2.7,0.4L501.2,30.2z
		 M511.2,1.8c-0.3-0.2-0.7-0.3-1.3-0.5c-0.5-0.2-1.1-0.4-1.7-0.6C509.5,1,510.5,1.3,511.2,1.8z"/>
</g>
</svg>
