<?xml version="1.0" encoding="utf-8"?>
<!-- Generator: Adobe Illustrator 21.0.0, SVG Export Plug-In . SVG Version: 6.00 Build 0)  -->
<svg version="1.1" id="Layer_1" xmlns="http://www.w3.org/2000/svg" xmlns:xlink="http://www.w3.org/1999/xlink" x="0px" y="0px"
	 viewBox="0 0 515.2 32.3" style="enable-background:new 0 0 515.2 32.3;" xml:space="preserve">
<style type="text/css">
	.st0{fill:#FFFFFF;}
</style>
<g>
	<path class="st0" d="M3.9,30.9c-0.4,0-1,0-1.8-0.1s-1.5-0.1-2-0.2C0,30.4,0,29.9,0,29c0.1-2.2,0.2-4.4,0.2-6.7c0-2.2,0-4.4,0-6.6
		v-3.1c0-0.1,0-0.3,0-0.7s0-0.8,0-1.4c0-0.7,0-1.5,0-2.4S0.1,6.3,0.1,5.3c0-0.9,0-1.8,0-2.6s0-1.5,0-1.9h3.7L3.7,0.7
		C4,0.8,4.2,0.8,4.4,0.8s0.5,0,0.7,0c0.1,0,0.1,0.1,0.1,0.2v0.6v3.7v0.5v2.7v0.9c0,1.1,0,2.2,0,3.3s0,2-0.1,2.7
		C5,15.8,5,16.5,5,17.4c0,0.9,0,1.8,0.1,2.8v0.5c0,0.4,0,0.8,0,1.1c0,0.3,0,0.6,0,1C5,23.1,5,23.4,5,23.7s0,0.7,0,1.1
		c-0.1,0.6,0,1.3,0.2,2c0.2,0.8,0.5,1.4,1,1.9c0.6,0.6,1.4,1,2.3,1H9c1.3,0,2.6,0,3.9,0s2.6,0,3.9,0.1h1.1c0.6,0.1,1.3,0.1,1.9,0.1
		s1.3,0,1.9,0C22.8,30,23.9,30,25,30c1.1,0,2.2,0,3.3,0h0.1c0.3,0,0.5,0,0.7,0s0.4,0,0.6-0.1h1.2h0.8v0.5c-2.4,0-4.8,0-7,0
		s-4.6,0-6.9,0.1c-1.5,0.1-2.9,0.1-4.4,0.1s-3,0-4.6,0H7.5c-0.3,0-0.5,0-0.8,0s-0.5,0-0.8,0.1c-0.3,0-0.6,0-0.9,0
		C4.7,30.9,4.3,30.9,3.9,30.9z"/>
	<path class="st0" d="M71.2,31.9h-1c-4.9-0.3-8.9-2.5-12.2-6.7c-1.7-2.1-2.8-4.3-3.4-6.7c-0.6-2.3-1-4.6-1.2-6.9
		c-0.1-1.2-0.2-2.6-0.2-4s0-2.8,0-4.3c0-0.4,0-0.8,0-1.1c0-0.4,0-0.8,0.1-1.2c0-0.1,0-0.1-0.1-0.2c0-0.4,0-0.6,0.1-0.6
		C53.5,0.1,53.7,0,54.1,0c0.4,0,0.7,0,0.9,0c0.3,0,0.5,0,0.7,0s0.4,0,0.6,0c0.6,0,1.1,0.1,1.5,0.2c0.2,0.1,0.3,0.1,0.3,0.1
		c0.1,0.1,0.1,0.4,0.1,0.7c0,0.4,0,0.8-0.1,1.1V3c-0.1,2.7,0,5.6,0.1,8.6s0.6,6,1.5,9.1c0.5,2.1,1.2,3.8,2,5.2
		c0.8,1.4,1.9,2.7,3.3,3.9c0.1,0,0.1,0,0.2,0.1c1.5,1.1,3.3,1.6,5.4,1.6c2,0,3.9-0.4,5.7-1.3c1.8-0.9,3.1-2,3.8-3.5
		c1.4-2.2,2.2-4.5,2.5-6.9s0.4-5,0.2-7.9c0-0.5,0-1.1,0-1.6s-0.1-1.1-0.1-1.6c-0.1-1.6-0.1-3.1-0.1-4.5s0-2.6,0.1-3.6
		c0.1-0.2,0.3-0.3,0.7-0.4c0.4-0.1,0.9-0.1,1.3-0.1L85.1,0c0.4,0,0.8,0,1,0s0.5,0.1,1,0.2c0,0.4,0,1.4,0,3S87,6.7,86.9,8.7
		s-0.2,4.1-0.3,6.2c-0.1,2.1-0.3,3.8-0.5,5.2c-0.3,2.2-1,4.1-2,5.6s-2.2,2.7-3.7,3.7c-1.4,0.9-3,1.6-4.6,2.1
		C74.3,31.7,72.7,31.9,71.2,31.9z"/>
	<path class="st0" d="M135.3,31.6c-0.3,0-0.5-0.1-0.8-0.2s-0.6-0.4-1.1-0.9c-0.8-1-1.7-2.1-2.6-3.1c-0.9-1-1.8-2-2.6-3
		c-0.6-0.8-1.3-1.5-1.9-2.2s-1.3-1.4-1.9-2.2c-0.4-0.4-0.8-0.6-1.3-0.6s-0.9,0.2-1.3,0.6c-1.6,1.9-3.2,3.8-4.8,5.7
		c-1.6,1.8-3.3,3.7-5.2,5.5c-0.1,0.1-0.1,0.1-0.1,0.2s-0.1,0.1-0.1,0.2h-0.4H111c-0.1,0-0.2,0-0.3,0c-0.1,0-0.2,0-0.3-0.1
		c0.3-0.4,0.7-0.8,1.1-1.1c0.5-0.4,0.9-0.9,1.4-1.5c0.1-0.2,0.2-0.3,0.4-0.5c0.1-0.2,0.3-0.4,0.5-0.7c0.3-0.3,0.5-0.5,0.7-0.8
		c0.2-0.2,0.5-0.5,0.7-0.9c0.3-0.3,0.6-0.7,1-1.1s0.9-1,1.5-1.6c0.1-0.2,0.2-0.3,0.4-0.4c0.1-0.1,0.3-0.3,0.4-0.5l0.3-0.3
		c0.1-0.1,0.2-0.2,0.2-0.2c0-0.1,0.1-0.1,0.1-0.2c0.4-0.5,0.9-1,1.3-1.5s0.8-1,1.3-1.5c0.3-0.3,0.4-0.6,0.4-1s-0.1-0.8-0.4-1.1
		l-1.2-1.6c-0.6-0.8-1.2-1.6-1.7-2.2c-0.5-0.7-1.1-1.4-1.7-2.1s-1.2-1.5-1.9-2.4c-0.7-0.8-1.5-1.8-2.4-2.9c-0.5-0.7-1.1-1.3-1.5-1.8
		c-0.5-0.6-0.9-1-1.1-1.3L109.9,2c-0.2-0.3-0.3-0.5-0.5-0.8s-0.3-0.5-0.5-0.7c0.3,0,0.5,0,0.8,0s0.5,0,0.8-0.1c0.5,0,1,0,1.5,0
		s1,0,1.4,0h0.8c0.2,0,0.5,0.2,0.8,0.6c0.1,0.1,0.1,0.2,0.2,0.4c0.1,0.1,0.2,0.3,0.3,0.4c0.1,0.1,0.1,0.2,0.2,0.4
		c0.1,0.1,0.2,0.2,0.3,0.4c0.1,0.1,0.2,0.3,0.3,0.4c0.7,1,1.3,1.7,1.7,2.3c0.4,0.6,0.8,1,1,1.3s0.4,0.5,0.4,0.6
		c0.1,0.1,0.1,0.1,0.2,0.2c0.4,0.5,1,1.2,1.8,2.1s1.7,2,2.8,3.3c0.3,0.4,0.8,0.6,1.3,0.6c0.6,0,1.1-0.2,1.4-0.6l0.2-0.2
		c0.1-0.1,0.1-0.2,0.2-0.2c0.1-0.1,0.1-0.1,0.2-0.2s0.2-0.2,0.2-0.3s0.1-0.2,0.2-0.3c0.8-1,1.6-1.9,2.4-2.9s1.6-1.8,2.3-2.6
		c0.4-0.5,0.8-0.9,1.1-1.3c0.3-0.4,0.6-0.7,0.9-1c0.6-0.6,1-1.1,1.3-1.6c0.2-0.2,0.4-0.4,0.4-0.6c0.2-0.4,0.4-0.6,0.6-0.6
		c0.1,0,0.2,0,0.3-0.1c0.1,0,0.3,0,0.5,0s0.5,0,0.8,0h0.6C137,3.2,135,5.5,133,7.8c-2,2.2-4,4.5-5.9,6.8c-0.6,0.8-0.6,1.5,0,2.2
		c0.3,0.4,0.6,0.8,0.9,1.2s0.6,0.7,1,1.2l1.5,1.7l0.3,0.5c0.2,0.2,0.3,0.3,0.4,0.5c0.1,0.2,0.3,0.4,0.4,0.5c0.2,0.2,0.4,0.5,0.7,0.9
		l0.5,0.5c1,1.2,1.9,2.4,2.7,3.3c0.8,1,1.6,1.8,2.2,2.4c0.2,0.3,0.4,0.5,0.6,0.7c0.2,0.2,0.3,0.3,0.4,0.5c0.1,0.2,0.2,0.3,0.4,0.5
		c0.2,0.3,0.5,0.6,0.7,0.9c0,0.1,0.1,0.1,0.2,0.2c-0.3,0-0.6,0-1.1,0s-1.1,0-1.9,0h-1.3h-0.4L135.3,31.6L135.3,31.6z"/>
	<path class="st0" d="M174.1,30.3c-0.2-0.1-0.3-0.1-0.5-0.2s-0.4-0.1-0.6-0.2c-0.3-0.1-0.7-0.2-1-0.4c-0.4-0.1-0.7-0.3-0.9-0.4
		c-0.3-0.2-0.6-0.4-1.1-0.6c-0.4-0.2-0.9-0.5-1.3-0.8c-0.5-0.3-0.9-0.6-1.3-0.9c-0.4-0.3-0.8-0.5-1-0.7c-1.5-1.4-2.6-2.7-3.3-4.1
		c-0.3-0.7-0.6-1.4-0.9-2.2c-0.3-0.8-0.5-1.6-0.6-2.4c-0.2-0.8-0.2-1.7-0.2-2.5c0.1-0.8,0.2-1.6,0.6-2.4c0.4-0.8,0.9-1.7,1.5-2.8
		s1.5-2.2,2.6-3.3c0.4-0.4,0.8-0.8,1.2-1.1c0.4-0.3,0.8-0.6,1.2-0.9s0.9-0.6,1.5-0.9s1.2-0.6,1.9-0.9h0.1c0.3-0.1,0.5-0.2,0.8-0.3
		c0.3-0.1,0.5-0.2,0.8-0.3c0.3-0.1,0.6-0.2,0.7-0.2c0.1,0,0.1,0,0.1,0h0.1c0.2-0.1,0.3-0.1,0.5-0.2s0.4-0.1,0.6-0.2
		c0.8-0.3,1.5-0.5,2.2-0.7s1.3-0.3,2-0.4h0.4c-1.1,0.3-2.3,0.7-3.4,1.2c-1.1,0.5-2.2,1.2-3.2,1.9c-0.9,0.7-1.9,1.5-2.8,2.4
		c-0.9,0.9-1.8,1.8-2.5,2.9s-1.3,2.2-1.7,3.5s-0.6,2.7-0.4,4.2C166.7,23.2,169.3,27.8,174.1,30.3z M190.3,31.1
		c5.9-2.3,9.2-7.2,9.8-14.7c0.1-1.5,0-2.9-0.4-4.2s-1-2.4-1.7-3.5s-1.5-2-2.5-2.9c-0.9-0.9-1.9-1.7-2.8-2.4c-1-0.8-2.1-1.4-3.3-1.9
		s-2.3-0.9-3.4-1.2h0.4c0.6,0.1,1.3,0.2,2,0.4s1.4,0.4,2.2,0.7c0.4,0.2,0.7,0.4,1.1,0.4c0.1,0,0.1,0,0.1,0h0.1
		c0.2,0,0.4,0.1,0.6,0.2c0.3,0.1,0.5,0.2,0.8,0.3c0.3,0.1,0.5,0.2,0.8,0.3h0.2c1.4,0.6,2.5,1.2,3.4,1.8s1.7,1.3,2.5,2
		c1.1,1.1,2,2.3,2.7,3.4s1.1,2,1.4,2.7c0.3,0.8,0.5,1.6,0.6,2.4s0,1.7-0.2,2.5s-0.4,1.7-0.6,2.4c-0.3,0.8-0.6,1.5-0.9,2.2
		c-0.2,0.4-0.5,0.9-1,1.4c-0.4,0.6-0.9,1.1-1.5,1.7s-1.1,1.1-1.7,1.6c-0.6,0.5-1.1,0.9-1.5,1.1c-0.1,0-0.1,0-0.1,0s0,0-0.1,0
		c-0.4,0.3-0.7,0.5-1.1,0.7c-0.4,0.2-0.7,0.5-1,0.7c-1.2,0.8-2.3,1.2-3.2,1.4c-0.3,0.1-0.7,0.1-1,0.2c-0.4,0.1-0.7,0.1-1.1,0.2
		c0.1,0,0.1,0,0.2,0C190.2,31.2,190.3,31.1,190.3,31.1z"/>
	<path class="st0" d="M237.3,31.2h-1c0-0.2,0-0.4,0.1-0.6c0.1-1.1,0.1-2.3,0.1-3.4s0-2.2,0-3.3c0.1-1.1,0.1-2.3,0.1-3.4
		s0.1-2.3,0.2-3.4c0.1-1.1,0.2-2.2,0.2-3.2c0-1.1,0-2.1,0-3.2c0-0.6,0-1.2,0-1.8c0-0.6,0-1.2,0-1.8c0-0.7,0-1.4-0.1-2.1
		s-0.4-1.3-0.9-1.9c-0.5-0.5-1-0.9-1.7-1c-0.6-0.1-1.2-0.2-1.7-0.2c-0.8,0-1.5,0-2.3,0s-1.6,0-2.3-0.1c-0.9,0-1.8,0-2.7,0
		s-1.7,0-2.6,0c-0.7,0-1.1-0.1-1.2-0.4c-0.2-0.2-0.2-0.5,0-0.9h0.3h2.8c1.5,0,3,0,4.5,0s3,0,4.5,0h0.7h0.5h0.2c0.2,0,0.7,0,1.5,0
		c0.9,0,1.9,0,3,0c1.2,0,2.4,0,3.7,0s2.4,0,3.3,0c0.1,0,0.2,0,0.4,0s0.4,0,0.8,0c0.5,0,1.1,0,1.8,0s1.5,0,2.2,0c0.8,0,1.5,0,2.3,0
		s1.4,0,1.9,0v0.7v0.9c-0.3,0.1-0.5,0.1-0.7,0.1s-0.4,0-0.7,0h-0.9h-1.1h-0.3h-2.8c-0.9,0-1.6,0-2.3,0s-1.3,0-1.9-0.1
		C245.1,2,245,2,244.9,2c-0.8,0-1.5,0.3-2.2,0.8s-1,1.4-1.1,2.6c-0.1,1.9-0.1,3.8-0.2,5.7c-0.1,1.9-0.1,3.8-0.2,5.7l-0.2,4.6
		c-0.1,1.6-0.1,3.1-0.2,4.7c-0.1,1.5-0.1,3.1-0.2,4.7v0.3h-1.5L237.3,31.2L237.3,31.2z"/>
	<path class="st0" d="M280.2,31.1c-0.9,0-1.5-0.2-1.7-0.6s-0.4-0.8-0.4-1.2l-0.1-1.5c-0.1-1.4-0.2-2.8-0.2-4.3
		c-0.1-1.5-0.1-2.9-0.2-4.3c0-1.3,0-2.6,0-3.9s0-2.6,0-4c-0.1-1.5-0.1-3-0.1-4.5s0-3.1-0.1-4.6c0-0.3,0.1-0.6,0.2-0.8
		s0.4-0.3,0.9-0.4c0.2-0.1,0.4-0.2,0.6-0.2s0.5,0,0.7,0h0.8c0.3,0.1,0.6,0.1,0.8,0.1c0.2,0,0.3,0,0.4,0v1.4v8.1v7.3
		c0,0.3,0,0.6,0,1.1s0,0.9,0,1.5c0,0.5-0.1,1-0.1,1.5s0,0.9,0,1.2v0.5v-0.1v0.2c-0.1,1-0.2,1.9-0.2,2.9s0,1.9-0.1,2.9
		c0,0.5,0,0.9,0,1.1s-0.1,0.4-0.1,0.5c-0.2,0-0.4,0-0.6,0.1H280.2z"/>
	<path class="st0" d="M323.9,31.5c-1.5,0-2.9-0.1-4.3-0.2c-1.4-0.2-2.8-0.4-4-0.6c-0.9-0.2-1.9-0.6-3.1-1.4c-1.5-1-2.9-2-4.3-3.2
		s-2.5-2.5-3.3-4.1c-0.3-0.6-0.6-1.4-0.9-2.2c-0.3-0.8-0.5-1.6-0.6-2.4s-0.2-1.7-0.1-2.6s0.2-1.7,0.6-2.4c0.4-1,1.1-2.2,2.2-3.8
		c1-1.6,2.4-3,4.2-4.3c0.6-0.4,1.4-0.9,2.3-1.3c0.9-0.4,1.8-0.8,2.6-1.1c4-1.1,7.9-1.6,11.8-1.6h0.6c0.6,0,1.2,0.1,1.9,0.3
		c0.7,0.2,1.3,0.5,2,0.7c0.4,0.1,0.7,0.2,1.1,0.4s0.7,0.3,1.1,0.4c0.1,0,0.2,0,0.2,0s0.1,0,0.2,0c0.2,0.1,0.5,0.2,0.7,0.3
		c0.3,0.1,0.5,0.1,0.8,0.1c0.7,0,1.3-0.2,1.7-0.7c0.4-0.4,0.6-0.9,0.7-1.3c0.3-0.1,0.6-0.1,0.9-0.1s0.6,0,0.9,0h0.5
		c0,0.1,0,0.1,0,0.1s0,0,0,0.1c0.1,0.8,0.1,1.5,0.1,2.3s-0.1,1.6-0.2,2.6L340,5.6h-0.2h-0.6c-0.2-0.1-0.5-0.1-0.9-0.1
		c-0.2,0-0.4,0-0.4,0.1c-0.1,0-0.2,0-0.3,0c-0.1,0-0.2,0-0.3,0c-0.1,0-0.3,0-0.5-0.1s-0.5-0.4-0.8-1c-0.3-0.7-0.9-1.3-1.6-1.7
		c-0.7-0.5-1.5-0.7-2.2-0.9H332c-1-0.1-2-0.2-3-0.2c-1-0.1-2.1-0.1-3.2-0.1c-0.6,0-1.2,0-1.7,0c-0.6,0-1.2,0.1-1.7,0.2
		c-2.2,0.3-4.4,1.2-6.7,2.9c-0.8,0.6-1.6,1.3-2.4,2c-0.8,0.8-1.5,1.6-2.2,2.6c-0.6,0.9-1.1,2-1.5,3.1s-0.5,2.4-0.4,3.7
		c0.6,7.3,3.9,11.8,10,13.6c1.6,0.5,3.3,0.7,5,0.7c2.9,0,5.5-0.6,7.9-1.8s4.4-2.4,6.2-3.7c0.2-0.1,0.4-0.3,0.6-0.5s0.3-0.4,0.4-0.5
		c0.1-0.2,0.2-0.3,0.3-0.3c0.1-0.1,0.1-0.1,0.2-0.2v0.2c0.1,0.2,0.1,0.5,0.1,0.9c0.1,0.5,0.1,1,0.1,1.3s-0.1,0.5-0.2,0.7
		s-0.3,0.4-0.6,0.5c-0.3,0.2-0.6,0.4-1.1,0.7c-0.3,0.2-0.6,0.3-1,0.5s-0.8,0.4-1.3,0.7c-0.4,0.2-0.9,0.4-1.5,0.5
		c-0.3,0.1-0.6,0.2-0.9,0.3c-0.4,0.1-0.7,0.2-1,0.3C329.8,31,327,31.5,323.9,31.5z"/>
	<path class="st0" d="M362.4,31.5h-0.7v-0.1c2-3.2,4-6.4,6-9.6s4-6.4,6-9.5c1.1-1.7,2.2-3.4,3.3-5.1c1.1-1.7,2.3-3.3,3.4-4.9l1.5-2
		c0.1,0,0.1,0,0.2,0s0.2,0,0.4,0c0.6,0,1.1,0.1,1.6,0.3s0.8,0.4,0.9,0.6l2.6,5c0.8,1.5,1.5,2.9,2.3,4.3s1.5,2.9,2.3,4.3
		c0.4,0.8,1,1.9,1.8,3.4c0.8,1.5,1.6,3,2.4,4.5c1,1.8,2,3.7,3,5.7l0.1,0.2c0.4,0.6,0.6,1,0.8,1.3c0.1,0.3,0.2,0.4,0.2,0.5
		s-0.1,0.1-0.2,0.1s-0.2,0-0.2,0H400c-0.3,0-0.6,0-1,0s-0.8,0-1.2,0c-0.5,0.1-1.1,0.1-1.6,0.1s-1,0-1.4,0H394
		c-0.1,0-0.2-0.1-0.3-0.2c-0.1-0.1-0.1-0.2-0.2-0.4c-0.1-0.1-0.1-0.3-0.2-0.4c-0.1-0.2-0.2-0.3-0.2-0.4c-0.1-0.1-0.1-0.3-0.2-0.4
		c-0.1-0.2-0.3-0.4-0.6-0.8c-0.3-0.4-0.6-0.7-1-1.1s-0.9-0.6-1.5-0.9c-0.6-0.2-1.2-0.4-2-0.4h-0.3h-1.1c-0.3,0-0.6,0-1,0
		c-0.3,0-0.6,0-0.9-0.1H383h-0.6h-1.9h-2.2h-0.1H378c-0.3,0-0.8,0-1.3,0c-0.6,0-1.2,0-1.8,0c-0.6,0-1.3-0.1-1.9-0.1s-1.2,0-1.7,0
		c-0.1,0-0.1,0-0.1,0h-0.1c-1.1,0-2.2,0.4-3.3,1.3c-1.1,0.9-1.9,1.9-2.4,3.1c-0.2,0.2-0.4,0.4-0.5,0.7c-0.1,0.2-0.2,0.5-0.3,0.8
		c-0.1,0.1-0.3,0.1-0.6,0.2C363.6,31.4,363.1,31.5,362.4,31.5z M382.2,24.6c0.8,0,1.5,0,2.1,0c0.7,0,1.2,0,1.8,0.1h0.3
		c0.3,0,0.8-0.1,1.5-0.2c0.6-0.1,1.2-0.5,1.5-1.2c0.4-0.7,0.5-1.4,0.2-2s-0.6-1.1-0.9-1.5c-0.4-0.6-1.1-1.7-2-3.2s-2.1-3.8-3.7-6.8
		c-0.1-0.2-0.2-0.4-0.2-0.4c-0.1-0.1-0.1-0.1-0.1-0.2c-0.4-0.6-0.9-1.1-1.4-1.3c-0.5-0.2-0.9-0.3-1.2-0.3c-0.3,0-0.7,0.1-1.2,0.3
		c-0.5,0.2-0.9,0.6-1.3,1.3l-0.2,0.4c-1.1,1.7-2.2,3.5-3.2,5.2c-1.1,1.8-2.1,3.5-3.1,5.3c-0.5,1-0.6,1.9-0.2,2.8
		c0.4,1,1.2,1.5,2.4,1.6c0.1,0.1,0.2,0.1,0.4,0.1c0.1,0,0.4,0,0.9,0h2.8c0.8,0,1.5,0,2.4,0C380.6,24.6,381.4,24.6,382.2,24.6z"/>
	<path class="st0" d="M453.8,32c-0.6,0-1,0-1.3,0s-0.5-0.1-0.7-0.1c0-0.1,0-0.2,0-0.3s0-0.2,0-0.3c-0.1-0.6-0.2-1.4-0.4-2.3
		c-0.2-0.9-0.5-2-0.9-3.3c-0.3-0.8-0.8-1.8-1.5-2.8c-0.7-1.1-1.7-2.1-3.1-3.1s-3.1-1.9-5.2-2.7s-4.8-1.3-8.1-1.6h-0.3h-1.7
		c-0.2,0-0.5,0-0.9,0.1c-0.5,0.1-0.9,0.3-1.3,0.7c-0.5,0.5-0.8,1.3-0.8,2.3v1.1c0.1,1.4,0.1,2.8,0.1,4.3s0,2.9-0.1,4.3v1.5
		c0.1,0.2,0.1,0.5,0.1,0.9s0,0.6,0,0.8c-0.1,0.2-0.2,0.4-0.3,0.7h-0.3h-0.2l-0.9-0.1c-0.5,0-1.1,0-1.6,0s-1,0-1.6-0.1h-0.5v-0.2
		c-0.1-0.9-0.1-1.7-0.1-2.5s-0.1-1.7-0.1-2.5l-0.1-2.6c0.1-0.4,0.1-0.9,0.1-1.3s0.1-0.9,0.2-1.3c0.1-1.1,0.2-2.2,0.3-3.3
		c0.1-1.1,0.2-2.2,0.2-3.3c0.1-1.2,0.1-2.5,0-3.7s-0.1-2.4-0.2-3.6c-0.1-0.8-0.1-1.5-0.1-2.2s0-1.4,0-2.1c0-0.3,0-0.5,0-0.8
		c0-0.3,0.1-0.5,0.1-0.8c0.1-0.2,0.1-0.4,0.1-0.6s0-0.4,0.1-0.6V0.2c0-0.1,0-0.1,0.1-0.1h0.2c0.1,0,0.1,0,0.2,0s0.2,0,0.3,0h7.4
		c1.4,0.1,2.8,0.1,4.3,0.1c1.4,0,2.9,0,4.3,0c1.4,0.1,2.8,0.1,4.3,0.2c1.4,0.1,2.9,0.2,4.3,0.3c2.3,0.2,4.4,1.1,6.4,2.8
		c2.5,2.2,2.7,4.6,0.6,7.2c-0.9,1.1-2.9,2.2-6,3.1c-0.1,0-0.1,0-0.1,0s0,0-0.1,0h-0.1c-0.3,0.1-0.7,0.3-1.2,0.6s-0.7,0.8-0.8,1.5
		c-0.1,0.8,0.1,1.3,0.6,1.7c0.5,0.4,1,0.7,1.4,0.9c1.4,0.8,2.5,1.7,3.4,2.8c0.9,1.1,1.6,2.2,2.2,3.4c0.6,1.2,1,2.2,1.3,3.2
		s0.4,1.8,0.4,2.3v1.7c-0.4,0.1-0.8,0.1-1.2,0.1C454.5,32,454.1,32,453.8,32z M431.6,14.3c0.5,0,1.1,0,1.6,0s1.1,0.1,1.7,0.1
		c0.6,0.1,1.2,0.1,1.8,0.1c0.6,0,1.2,0,1.8,0c0.6,0,1.2,0,1.8-0.1c0.5-0.1,1.1-0.1,1.6-0.2c1.4-0.3,2.8-0.6,4.1-1.1
		c1.4-0.4,2.6-1.2,3.7-2.4c0.5-0.5,0.9-1.1,1.2-1.7c0.3-0.6,0.4-1.2,0.4-1.8c0-0.8-0.1-1.5-0.4-2.2c-0.3-0.6-0.6-1.2-1.1-1.7
		c-0.4-0.5-0.9-0.9-1.4-1.2s-0.9-0.5-1.4-0.6c-1.8-0.6-3.5-1-5.1-1.1c-1.5-0.2-3.2-0.2-5.1-0.2h-1.5c-0.7,0-1.4,0-2.2,0
		c-0.8,0-1.5-0.1-2.4-0.2h-0.4c-0.9,0-1.7,0.3-2.3,0.9c-0.4,0.4-0.6,0.9-0.6,1.3c-0.1,0.5-0.1,0.9-0.1,1.3c0.1,0.4,0.1,0.8,0.1,1.4
		c0,0.5,0.1,1.1,0.1,1.5c0,0.5,0,0.9,0,1.3c0,0.4,0,0.7,0,0.8v0.7c0,0.3,0,0.6,0,0.9s0,0.6,0,0.9c0,0.2,0,0.5,0.1,0.9
		s0.3,0.8,0.6,1.2c0.5,0.5,1.2,0.8,2,0.8h0.2h1.2L431.6,14.3L431.6,14.3z"/>
	<path class="st0" d="M483.6,30.8c-0.9-0.2-1.9-0.5-2.9-0.8s-1.9-0.7-2.6-1.1c-0.1-0.1-0.2-0.4-0.2-0.8c-0.1-0.4-0.1-0.8-0.1-1.1
		c0.2,0,0.4,0,0.6,0s0.4,0,0.6,0h1.5v0.2c0.1,0.4,0.1,0.8,0.2,1.2c0.1,0.4,0.3,0.9,0.7,1.3c0.2,0.2,0.5,0.4,0.9,0.6
		C482.8,30.5,483.2,30.7,483.6,30.8z M496.7,15.6c-1.1,0-2.3,0-3.5-0.1s-2.3-0.2-3.3-0.4c-0.3-0.1-0.8-0.1-1.4-0.2s-1.2-0.2-1.8-0.3
		c-0.6-0.1-1.2-0.2-1.7-0.4c-0.5-0.1-0.9-0.2-1-0.3l-0.9-0.3c-0.9-0.4-1.6-0.7-2-0.9s-0.9-0.6-1.3-1.1c-0.1-0.1-0.3-0.3-0.5-0.6
		s-0.5-0.6-0.7-1.1c-0.2-0.4-0.4-0.8-0.4-1.3c-0.1-0.4,0-0.8,0.3-1.1c0.4-0.5,1.1-1.2,2-2.1c1-0.9,2.4-1.7,4.1-2.4
		c0.6-0.3,1.4-0.5,2.4-0.8c1-0.3,1.9-0.5,2.8-0.6c2-0.3,4-0.6,6-0.7c2-0.2,4-0.2,5.9-0.2h0.6h1.1c-0.8,0-1.5,0-2.2,0.1
		s-1.4,0.1-2.1,0.2c-0.4,0-0.7,0-1.1,0c-0.3,0-0.6,0.1-1,0.1c-1,0.1-2.1,0.2-3.3,0.4c-1.2,0.2-2.4,0.5-3.3,0.9l-0.6,0.2
		c-0.8,0.3-1.6,0.7-2.3,1.1c-0.7,0.4-1.4,0.8-1.9,1.3c-0.6,0.5-1,1.1-1.3,1.7s-0.4,1.4-0.2,2.4c0.3,2.1,1.1,3.5,2.4,4.2
		c1.4,0.8,3.2,1.4,5.6,1.9h0.2c0.6,0.1,1.4,0.2,2.1,0.2C495.2,15.5,495.9,15.6,496.7,15.6z M501.4,31c0.8-0.2,1.4-0.3,1.9-0.5
		c0.8-0.3,1.5-0.6,2.1-0.9s1.1-0.6,1.6-1s0.9-0.8,1.3-1.3s0.8-1.1,1.1-1.9c0.4-0.8,0.6-1.6,0.5-2.4s-0.3-1.5-0.8-2.2
		c-0.4-0.7-1-1.4-1.7-1.9c-0.7-0.6-1.4-1.1-2.2-1.6c-1.1-0.6-2.3-1.1-3.7-1.4c0.8,0.1,1.4,0.1,2,0.1s1,0,1.2,0
		c1.8,0.3,3.4,0.8,4.6,1.3c1.2,0.6,2.2,1.2,3,1.8c0.8,0.6,1.3,1.2,1.7,1.8c0.4,0.6,0.7,1.1,0.9,1.5c0.4,0.6,0.4,1.4,0,2.2
		c-0.4,0.8-0.8,1.4-1.2,1.9s-1,1-1.7,1.4c-0.7,0.5-2,1-3.8,1.7c-0.6,0.3-1.3,0.5-2.2,0.7c-0.9,0.2-1.8,0.3-2.7,0.4L501.4,31z
		 M511.4,2.6c-0.3-0.2-0.7-0.3-1.3-0.5c-0.5-0.2-1.1-0.4-1.7-0.6C509.7,1.8,510.7,2.1,511.4,2.6z"/>
</g>
</svg>
