<?xml version="1.0" encoding="utf-8"?>
<!-- Generator: Adobe Illustrator 21.0.0, SVG Export Plug-In . SVG Version: 6.00 Build 0)  -->
<svg version="1.1" id="Layer_1" xmlns="http://www.w3.org/2000/svg" xmlns:xlink="http://www.w3.org/1999/xlink" x="0px" y="0px"
	 viewBox="0 0 283.4 432.8" style="enable-background:new 0 0 283.4 432.8;" xml:space="preserve">
<style type="text/css">
	.st0{fill:#FFFFFF;}
</style>
<g>
	<path class="st0" d="M240.5,309.9c-2-0.7-8-2.3-8-2.3s0,14.3,0,16.7c0,4-1.1,6.4-2.8,8.4c-1.7,2-14.5,17.8-16.9,21.2
		c-1.2,1.7-2.6,5.6-2.9,7.3c-0.4,2.9-1.5,11.9-2,15.8c-0.3,2-0.9,4-2.8,4.4c-2.4,0.5-5.7,0.9-5.7,0.9s0-12.7,0-27.6l-23.4,5.2v28.6
		l-7.6,1.8v-28.8L145,367v25.4h-7.1V367l-23.5-5.3v28.8l-7.6-1.8V360l-23.4-5.2c0,14.9,0,27.6,0,27.6s-3.3-0.4-5.7-0.9
		c-1.9-0.4-2.5-2.4-2.8-4.4c-0.5-3.8-1.6-12.8-2-15.8c-0.2-1.7-1.6-5.7-2.9-7.3c-2.5-3.3-15.2-19.2-16.9-21.2
		c-1.7-2-2.8-4.4-2.8-8.4c0-2.3,0-16.7,0-16.7s-6,1.6-8,2.3c-2,0.7-2.3,2.6-2.3,4.6s0,31.5,0,33.2c0,2.8,1.7,6.2,3.1,7.4
		C44,355.9,68,382.6,71,385.7c1.7,1.7,3,5,3.3,7c0.3,2,3.8,15,4.1,17.3s2.3,6,4,7.7c1.7,1.7,10.3,10,12,11.7
		c1.7,1.7,4.3,4.3,6.7,4.3c2.3,0,40.4,0,40.4,0s38.1,0,40.4,0c2.3,0,5-2.7,6.7-4.3c1.7-1.7,10.3-10,12-11.7c1.7-1.7,3.7-5.3,4-7.7
		c0.3-2.3,3.8-15.3,4.1-17.3c0.3-2,1.7-5.3,3.3-7c3-3.1,27-29.8,27.9-30.6c1.4-1.3,3.1-4.7,3.1-7.4c0-1.7,0-31.2,0-33.2
		S242.5,310.6,240.5,309.9z"/>
	<path class="st0" d="M255.1,162.7c1.8,29.2,12,47,21.7,62.8c-2.7-29.7,6.3-64.5,6.3-100.5c0-60-46.1-124-141.7-124S-0.3,65-0.3,125
		c0,36,9,70.8,6.3,100.5c9.7-15.8,19.9-33.7,21.7-62.8c3.2,39.5-9.3,63.7-22.5,80.7c-4.1,5.3-5.5,12-1.8,18.7
		c3.7,6.7,11.6,21.7,14.2,25.9c2,3.2,2.6,4.1,4.7,6.2c2.4,2.4,6.1,4.9,7.8,5.5c1.7,0.7,5.7,1.1,10-0.2c4.3-1.3,26-7.3,28.4-8
		c2.4-0.7,4.9-1,6.6,1c1.7,2,5.5,7,7,9.3c1.6,2.4,1.3,4.3,1.3,6.3c0,1,0,20.6,0,39.4l23.4,5.2v-29.3l7.6,1.8v29.1l23.5,5.3v-29.1
		h7.1v29.1l23.5-5.3v-29.1l7.6-1.8v29.3l23.4-5.2c0-18.8,0-38.4,0-39.4c0-2-0.2-4,1.3-6.3c1.5-2.3,5.3-7.3,7-9.3
		c1.7-2,4.1-1.7,6.6-1c2.4,0.7,24.1,6.7,28.4,8c4.3,1.3,8.4,0.9,10,0.2c1.7-0.7,5.4-3.1,7.8-5.5c2-2,2.7-2.9,4.7-6.2
		c2.5-4.1,10.5-19.2,14.2-25.9c3.7-6.7,2.3-13.4-1.8-18.7C264.4,226.4,252,202.2,255.1,162.7z M112.3,246.7
		c-8.5,5.5-15.9,7.4-25.1,9.4c-9.2,2-15.6,0.3-18.8-0.4c-6.2-1.5-21.7-10.6-25-12.9c-4.7-3.4-7.5-9.3-8.5-15.2
		c-1.4-8.7-1-22.6-0.7-28.7c0.4-6.8,0.5-14.9,21.5-14.3s50.7,11,67,22.5c9.5,6.7,8.2,16,6.3,21.2
		C127.2,233.3,122.1,240.3,112.3,246.7z M163.1,283.7c-1.5,1.9-11.5,9.6-12.8,10.3s-4.9,2-5.8-2.3s-1.5-21.8-1.5-23.4
		s-1-2.1-1.7-2.1c-0.7,0-1.7,0.5-1.7,2.1s-0.6,19.1-1.5,23.4s-4.5,2.9-5.8,2.3s-11.3-8.4-12.8-10.3s-3.3-4.6-1-9.3
		c1.8-3.7,9.3-17.5,12.6-23c0.8-1.4,3.1-2.5,4.7-2.5h5.3h5.3c1.6,0,3.9,1.1,4.7,2.5c3.3,5.5,10.8,19.3,12.6,23
		C166.4,279,164.6,281.8,163.1,283.7z M248,227.5c-1,5.9-3.8,11.8-8.5,15.2c-3.3,2.4-18.8,11.4-25,12.9c-3.2,0.8-9.6,2.4-18.8,0.4
		c-9.2-2-16.6-4-25.1-9.4c-9.8-6.3-14.9-13.3-16.8-18.5c-1.8-5.2-3.2-14.5,6.3-21.2c16.3-11.5,46-21.8,67-22.5s21.2,7.5,21.5,14.3
		C249,204.9,249.4,218.8,248,227.5z"/>
</g>
</svg>
